<?xml version="1.0" encoding="utf-8" standalone="no"?>
<!DOCTYPE svg PUBLIC "-//W3C//DTD SVG 1.1//EN"
  "http://www.w3.org/Graphics/SVG/1.1/DTD/svg11.dtd">
<svg xmlns:xlink="http://www.w3.org/1999/xlink" width="554.475pt" height="496.8725pt" viewBox="0 0 554.475 496.8725" xmlns="http://www.w3.org/2000/svg" version="1.1">
 <metadata>
  <rdf:RDF xmlns:dc="http://purl.org/dc/elements/1.1/" xmlns:cc="http://creativecommons.org/ns#" xmlns:rdf="http://www.w3.org/1999/02/22-rdf-syntax-ns#">
   <cc:Work>
    <dc:type rdf:resource="http://purl.org/dc/dcmitype/StillImage"/>
    <dc:date>2026-02-01T13:03:53.519836</dc:date>
    <dc:format>image/svg+xml</dc:format>
    <dc:creator>
     <cc:Agent>
      <dc:title>Matplotlib v3.10.8, https://matplotlib.org/</dc:title>
     </cc:Agent>
    </dc:creator>
   </cc:Work>
  </rdf:RDF>
 </metadata>
 <defs>
  <style type="text/css">*{stroke-linejoin: round; stroke-linecap: butt}</style>
 </defs>
 <g id="figure_1">
  <g id="patch_1">
   <path d="M 0 496.8725 
L 554.475 496.8725 
L 554.475 0 
L 0 0 
z
" style="fill: #ffffff"/>
  </g>
  <g id="axes_1">
   <g id="line2d_1">
    <path d="M 7.2 489.6725 
L 547.275 489.6725 
" clip-path="url(#pb43dd90bc8)" style="fill: none; stroke: #e5e7eb; stroke-width: 0.8; stroke-linecap: square"/>
   </g>
   <g id="line2d_2">
    <path d="M 92.475 489.6725 
L 92.475 34.8725 
" clip-path="url(#pb43dd90bc8)" style="fill: none; stroke: #e5e7eb; stroke-width: 0.8; stroke-linecap: square"/>
   </g>
   <g id="line2d_3">
    <path d="M 7.2 432.8225 
L 547.275 432.8225 
" clip-path="url(#pb43dd90bc8)" style="fill: none; stroke: #e5e7eb; stroke-width: 0.8; stroke-linecap: square"/>
   </g>
   <g id="line2d_4">
    <path d="M 149.325 489.6725 
L 149.325 34.8725 
" clip-path="url(#pb43dd90bc8)" style="fill: none; stroke: #e5e7eb; stroke-width: 0.8; stroke-linecap: square"/>
   </g>
   <g id="line2d_5">
    <path d="M 7.2 375.9725 
L 547.275 375.9725 
" clip-path="url(#pb43dd90bc8)" style="fill: none; stroke: #e5e7eb; stroke-width: 0.8; stroke-linecap: square"/>
   </g>
   <g id="line2d_6">
    <path d="M 206.175 489.6725 
L 206.175 34.8725 
" clip-path="url(#pb43dd90bc8)" style="fill: none; stroke: #e5e7eb; stroke-width: 0.8; stroke-linecap: square"/>
   </g>
   <g id="line2d_7">
    <path d="M 7.2 319.1225 
L 547.275 319.1225 
" clip-path="url(#pb43dd90bc8)" style="fill: none; stroke: #e5e7eb; stroke-width: 0.8; stroke-linecap: square"/>
   </g>
   <g id="line2d_8">
    <path d="M 263.025 489.6725 
L 263.025 34.8725 
" clip-path="url(#pb43dd90bc8)" style="fill: none; stroke: #e5e7eb; stroke-width: 0.8; stroke-linecap: square"/>
   </g>
   <g id="line2d_9">
    <path d="M 7.2 262.2725 
L 547.275 262.2725 
" clip-path="url(#pb43dd90bc8)" style="fill: none; stroke: #e5e7eb; stroke-width: 0.8; stroke-linecap: square"/>
   </g>
   <g id="line2d_10">
    <path d="M 319.875 489.6725 
L 319.875 34.8725 
" clip-path="url(#pb43dd90bc8)" style="fill: none; stroke: #e5e7eb; stroke-width: 0.8; stroke-linecap: square"/>
   </g>
   <g id="line2d_11">
    <path d="M 7.2 205.4225 
L 547.275 205.4225 
" clip-path="url(#pb43dd90bc8)" style="fill: none; stroke: #e5e7eb; stroke-width: 0.8; stroke-linecap: square"/>
   </g>
   <g id="line2d_12">
    <path d="M 376.725 489.6725 
L 376.725 34.8725 
" clip-path="url(#pb43dd90bc8)" style="fill: none; stroke: #e5e7eb; stroke-width: 0.8; stroke-linecap: square"/>
   </g>
   <g id="line2d_13">
    <path d="M 7.2 148.5725 
L 547.275 148.5725 
" clip-path="url(#pb43dd90bc8)" style="fill: none; stroke: #e5e7eb; stroke-width: 0.8; stroke-linecap: square"/>
   </g>
   <g id="line2d_14">
    <path d="M 433.575 489.6725 
L 433.575 34.8725 
" clip-path="url(#pb43dd90bc8)" style="fill: none; stroke: #e5e7eb; stroke-width: 0.8; stroke-linecap: square"/>
   </g>
   <g id="line2d_15">
    <path d="M 7.2 91.7225 
L 547.275 91.7225 
" clip-path="url(#pb43dd90bc8)" style="fill: none; stroke: #e5e7eb; stroke-width: 0.8; stroke-linecap: square"/>
   </g>
   <g id="line2d_16">
    <path d="M 490.425 489.6725 
L 490.425 34.8725 
" clip-path="url(#pb43dd90bc8)" style="fill: none; stroke: #e5e7eb; stroke-width: 0.8; stroke-linecap: square"/>
   </g>
   <g id="line2d_17">
    <path d="M 7.2 432.8225 
L 547.275 432.8225 
" clip-path="url(#pb43dd90bc8)" style="fill: none; stroke: #374151; stroke-width: 2.5; stroke-linecap: square"/>
   </g>
   <g id="line2d_18">
    <path d="M 149.325 489.6725 
L 149.325 34.8725 
" clip-path="url(#pb43dd90bc8)" style="fill: none; stroke: #374151; stroke-width: 2.5; stroke-linecap: square"/>
   </g>
   <g id="patch_2">
    <path d="M 263.025 290.6975 
L 376.725 290.6975 
L 376.725 205.4225 
z
" clip-path="url(#pb43dd90bc8)" style="fill: #059669; opacity: 0.15"/>
   </g>
   <g id="line2d_19">
    <path d="M 263.025 290.6975 
L 376.725 290.6975 
" clip-path="url(#pb43dd90bc8)" style="fill: none; stroke: #059669; stroke-width: 3; stroke-linecap: square"/>
   </g>
   <g id="line2d_20">
    <path d="M 376.725 290.6975 
L 376.725 205.4225 
" clip-path="url(#pb43dd90bc8)" style="fill: none; stroke: #059669; stroke-width: 3; stroke-linecap: square"/>
   </g>
   <g id="patch_3">
    <path d="M 492.427797 432.8225 
Q 498.952501 432.8225 502.682119 432.8225 
" style="fill: none; stroke: #374151; stroke-width: 2.5; stroke-linecap: round"/>
    <path d="M 498.682119 430.8225 
L 502.682119 432.8225 
L 498.682119 434.8225 
" style="fill: none; stroke: #374151; stroke-width: 2.5; stroke-linecap: round"/>
   </g>
   <g id="patch_4">
    <path d="M 149.325 89.719703 
Q 149.325 83.194999 149.325 79.465381 
" style="fill: none; stroke: #374151; stroke-width: 2.5; stroke-linecap: round"/>
    <path d="M 147.325 83.465381 
L 149.325 79.465381 
L 151.325 83.465381 
" style="fill: none; stroke: #374151; stroke-width: 2.5; stroke-linecap: round"/>
   </g>
   <g id="text_1">
    <!-- x -->
    <g transform="translate(518.85 454.54125) scale(0.16 -0.16)">
     <defs>
      <path id="HiraginoSans-W7-78" d="M 4154 -134 
C 4006 51 3846 256 3680 480 
L 2701 1856 
L 3584 3098 
C 3680 3232 3840 3443 4006 3654 
L 2810 3654 
C 2746 3501 2650 3328 2522 3142 
L 2118 2534 
L 1709 3142 
C 1606 3296 1510 3475 1434 3654 
L 218 3654 
C 442 3373 563 3219 640 3104 
L 1530 1856 
L 538 454 
C 416 288 218 32 77 -134 
L 1312 -134 
C 1427 90 1498 205 1619 390 
L 2112 1139 
L 2598 416 
C 2720 237 2784 122 2906 -134 
L 4154 -134 
z
" transform="scale(0.015625)"/>
     </defs>
     <use xlink:href="#HiraginoSans-W7-78"/>
    </g>
   </g>
   <g id="text_2">
    <!-- y -->
    <g transform="translate(126.93375 59.9525) scale(0.16 -0.16)">
     <defs>
      <path id="HiraginoSans-W7-79" d="M 1619 179 
L 1459 -173 
C 1357 -384 1190 -486 947 -486 
C 787 -486 672 -454 461 -358 
L 320 -1248 
C 646 -1312 864 -1338 1088 -1338 
C 1754 -1338 2163 -1088 2400 -550 
L 3859 2835 
C 4045 3283 4045 3283 4090 3373 
C 4179 3558 4179 3558 4224 3654 
L 3059 3654 
C 3021 3437 2957 3245 2803 2854 
L 2157 1229 
L 1453 2912 
C 1344 3155 1254 3469 1222 3654 
L 51 3654 
C 128 3501 160 3437 429 2835 
L 1619 179 
z
" transform="scale(0.015625)"/>
     </defs>
     <use xlink:href="#HiraginoSans-W7-79"/>
    </g>
   </g>
   <g id="text_3">
    <!-- O -->
    <g transform="translate(126.256562 459.643281) scale(0.14 -0.14)">
     <defs>
      <path id="HiraginoSans-W7-4f" d="M 2746 5178 
C 1235 5178 262 4122 262 2477 
C 262 819 1235 -250 2746 -250 
C 4243 -250 5229 832 5229 2483 
C 5229 3322 4973 4038 4493 4512 
C 4051 4960 3469 5178 2746 5178 
z
M 2752 678 
C 1894 678 1357 1376 1357 2490 
C 1357 3571 1894 4256 2746 4256 
C 3104 4256 3418 4134 3654 3898 
C 3962 3590 4128 3104 4128 2477 
C 4128 1363 3603 678 2752 678 
z
" transform="scale(0.015625)"/>
     </defs>
     <use xlink:href="#HiraginoSans-W7-4f"/>
    </g>
   </g>
   <g id="line2d_21">
    <path d="M 120.9 397.29125 
L 124.919697 394.276477 
L 128.939394 391.261705 
L 132.959091 388.246932 
L 136.978788 385.232159 
L 140.998485 382.217386 
L 145.018182 379.202614 
L 149.037879 376.187841 
L 153.057576 373.173068 
L 157.077273 370.158295 
L 161.09697 367.143523 
L 165.116667 364.12875 
L 169.136364 361.113977 
L 173.156061 358.099205 
L 177.175758 355.084432 
L 181.195455 352.069659 
L 185.215152 349.054886 
L 189.234848 346.040114 
L 193.254545 343.025341 
L 197.274242 340.010568 
L 201.293939 336.995795 
L 205.313636 333.981023 
L 209.333333 330.96625 
L 213.35303 327.951477 
L 217.372727 324.936705 
L 221.392424 321.921932 
L 225.412121 318.907159 
L 229.431818 315.892386 
L 233.451515 312.877614 
L 237.471212 309.862841 
L 241.490909 306.848068 
L 245.510606 303.833295 
L 249.530303 300.818523 
L 253.55 297.80375 
L 257.569697 294.788977 
L 261.589394 291.774205 
L 265.609091 288.759432 
L 269.628788 285.744659 
L 273.648485 282.729886 
L 277.668182 279.715114 
L 281.687879 276.700341 
L 285.707576 273.685568 
L 289.727273 270.670795 
L 293.74697 267.656023 
L 297.766667 264.64125 
L 301.786364 261.626477 
L 305.806061 258.611705 
L 309.825758 255.596932 
L 313.845455 252.582159 
L 317.865152 249.567386 
L 321.884848 246.552614 
L 325.904545 243.537841 
L 329.924242 240.523068 
L 333.943939 237.508295 
L 337.963636 234.493523 
L 341.983333 231.47875 
L 346.00303 228.463977 
L 350.022727 225.449205 
L 354.042424 222.434432 
L 358.062121 219.419659 
L 362.081818 216.404886 
L 366.101515 213.390114 
L 370.121212 210.375341 
L 374.140909 207.360568 
L 378.160606 204.345795 
L 382.180303 201.331023 
L 386.2 198.31625 
L 390.219697 195.301477 
L 394.239394 192.286705 
L 398.259091 189.271932 
L 402.278788 186.257159 
L 406.298485 183.242386 
L 410.318182 180.227614 
L 414.337879 177.212841 
L 418.357576 174.198068 
L 422.377273 171.183295 
L 426.39697 168.168523 
L 430.416667 165.15375 
L 434.436364 162.138977 
L 438.456061 159.124205 
L 442.475758 156.109432 
L 446.495455 153.094659 
L 450.515152 150.079886 
L 454.534848 147.065114 
L 458.554545 144.050341 
L 462.574242 141.035568 
L 466.593939 138.020795 
L 470.613636 135.006023 
L 474.633333 131.99125 
L 478.65303 128.976477 
L 482.672727 125.961705 
L 486.692424 122.946932 
L 490.712121 119.932159 
L 494.731818 116.917386 
L 498.751515 113.902614 
L 502.771212 110.887841 
L 506.790909 107.873068 
L 510.810606 104.858295 
L 514.830303 101.843523 
L 518.85 98.82875 
" clip-path="url(#pb43dd90bc8)" style="fill: none; stroke: #2563eb; stroke-width: 3.5; stroke-linecap: square"/>
   </g>
   <g id="patch_5">
    <path d="M 102.338101 315.43132 
Q 125.219264 344.912997 146.729445 372.628207 
" style="fill: none; stroke: #dc2626; stroke-width: 2; stroke-linecap: round"/>
    <path d="M 145.769684 367.80339 
L 146.729445 372.628207 
L 142.293735 370.501125 
" style="fill: none; stroke: #dc2626; stroke-width: 2; stroke-linecap: round"/>
   </g>
   <g id="text_4">
    <g id="patch_6">
     <path d="M 46.995 313.352188 
L 120.332344 313.352188 
Q 123.632344 313.352188 123.632344 310.052188 
L 123.632344 272.687594 
Q 123.632344 269.387594 120.332344 269.387594 
L 46.995 269.387594 
Q 43.695 269.387594 43.695 272.687594 
L 43.695 310.052188 
Q 43.695 313.352188 46.995 313.352188 
z
" style="fill: #ffffff; opacity: 0.95; stroke: #dc2626; stroke-linejoin: miter"/>
    </g>
    <!-- 切片 b = 1 -->
    <g style="fill: #dc2626" transform="translate(46.995 281.399937) scale(0.11 -0.11)">
     <defs>
      <path id="HiraginoSans-W7-5207" d="M 3546 4282 
C 3539 3840 3526 3616 3507 3328 
C 3437 2381 3258 1722 2912 1139 
C 2656 704 2310 378 1779 70 
C 2170 -205 2291 -307 2496 -544 
C 2880 -262 3059 -96 3264 166 
C 3635 627 3891 1107 4064 1645 
C 4275 2323 4352 2938 4397 4282 
L 5190 4282 
C 5171 2912 5158 2496 5094 1811 
C 5037 1146 4954 698 4864 531 
C 4800 416 4717 384 4467 384 
C 4339 384 4096 410 3827 448 
C 3942 160 3987 -38 4019 -384 
C 4179 -397 4461 -403 4634 -403 
C 5158 -403 5434 -294 5600 -6 
C 5818 352 5958 1523 6010 3277 
C 6042 4653 6048 4717 6074 5075 
C 5888 5056 5709 5050 5389 5050 
L 3334 5050 
C 2970 5050 2656 5062 2445 5082 
L 2445 4256 
C 2566 4275 2720 4282 2938 4282 
L 3546 4282 
z
M 800 2912 
L 800 1261 
C 800 749 954 608 1523 608 
C 2234 608 2541 736 2707 1101 
C 2810 1331 2848 1542 2880 2170 
C 2630 2234 2406 2323 2176 2451 
C 2170 1933 2144 1619 2099 1517 
C 2054 1427 1965 1389 1792 1389 
C 1651 1389 1626 1408 1626 1536 
L 1626 3078 
L 2470 3251 
C 2656 3290 2803 3315 2925 3322 
L 2880 4141 
C 2771 4109 2630 4070 2451 4032 
L 1626 3866 
L 1626 4800 
C 1626 5088 1632 5216 1651 5363 
L 768 5363 
C 794 5190 800 5043 800 4736 
L 800 3693 
L 602 3654 
C 403 3610 269 3590 134 3590 
L 192 2771 
C 403 2829 474 2848 678 2886 
L 800 2912 
z
" transform="scale(0.015625)"/>
      <path id="HiraginoSans-W7-7247" d="M 3712 1562 
L 3712 282 
C 3712 -128 3699 -326 3674 -563 
L 4634 -563 
C 4602 -307 4595 -122 4595 282 
L 4595 1709 
C 4595 1984 4602 2176 4627 2368 
C 4422 2349 4250 2342 3955 2342 
L 1798 2342 
C 1818 2573 1824 2688 1824 2854 
L 1824 3181 
L 5222 3181 
C 5568 3181 5824 3168 6042 3142 
L 6042 4000 
C 5856 3974 5574 3962 5222 3962 
L 4230 3962 
L 4230 4614 
C 4230 5005 4237 5165 4269 5389 
L 3334 5389 
C 3360 5158 3373 4979 3373 4614 
L 3373 3962 
L 1830 3962 
L 1830 4000 
C 1837 4749 1856 5101 1882 5325 
L 947 5325 
C 973 5158 992 4838 992 4666 
C 992 4666 992 4621 992 4525 
L 992 4320 
L 986 3162 
C 986 2419 896 1651 762 1222 
C 627 781 461 474 192 147 
C 467 -77 672 -294 877 -570 
C 1357 109 1587 678 1715 1562 
L 3712 1562 
z
" transform="scale(0.015625)"/>
      <path id="HiraginoSans-W7-20" transform="scale(0.015625)"/>
      <path id="HiraginoSans-W7-62" d="M 1408 -134 
L 1408 102 
C 1408 134 1402 250 1402 282 
C 1754 -83 2131 -237 2675 -237 
C 3206 -237 3629 -77 3942 243 
C 4301 614 4493 1146 4493 1805 
C 4493 3034 3834 3750 2720 3750 
C 2150 3750 1728 3571 1402 3206 
C 1408 3366 1414 3488 1414 3578 
L 1414 4141 
C 1414 4563 1421 4774 1459 5069 
L 371 5069 
C 410 4736 422 4506 422 4147 
L 422 800 
C 422 397 410 154 371 -134 
L 1408 -134 
z
M 3469 1805 
C 3469 1075 3066 589 2464 589 
C 2163 589 1862 730 1690 954 
C 1530 1165 1434 1478 1434 1779 
C 1434 2458 1875 2938 2502 2938 
C 3104 2938 3469 2509 3469 1805 
z
" transform="scale(0.015625)"/>
      <path id="HiraginoSans-W7-3d" d="M 294 3008 
L 294 2112 
L 4173 2112 
L 4173 3008 
L 294 3008 
z
M 294 1427 
L 294 531 
L 4173 531 
L 4173 1427 
L 294 1427 
z
" transform="scale(0.015625)"/>
      <path id="HiraginoSans-W7-31" d="M 947 4122 
C 1216 4154 1414 4166 1664 4166 
L 1946 4166 
L 1946 762 
C 1946 410 1926 122 1894 -134 
L 3066 -134 
C 3027 160 3014 403 3014 762 
L 3014 4058 
C 3014 4461 3027 4736 3066 5094 
C 2816 5075 2726 5069 2342 5069 
L 1645 5069 
C 1318 5069 1158 5075 947 5107 
L 947 4122 
z
" transform="scale(0.015625)"/>
     </defs>
     <use xlink:href="#HiraginoSans-W7-5207"/>
     <use xlink:href="#HiraginoSans-W7-7247" transform="translate(99.999985 0)"/>
     <use xlink:href="#HiraginoSans-W7-20" transform="translate(199.999969 0)"/>
     <use xlink:href="#HiraginoSans-W7-62" transform="translate(233.299957 0)"/>
     <use xlink:href="#HiraginoSans-W7-20" transform="translate(306.799942 0)"/>
     <use xlink:href="#HiraginoSans-W7-3d" transform="translate(340.09993 0)"/>
     <use xlink:href="#HiraginoSans-W7-20" transform="translate(409.999924 0)"/>
     <use xlink:href="#HiraginoSans-W7-31" transform="translate(443.299911 0)"/>
    </g>
    <!-- （直線がy軸と -->
    <g style="fill: #dc2626" transform="translate(46.995 294.998) scale(0.11 -0.11)">
     <defs>
      <path id="HiraginoSans-W7-ff08" d="M 6240 -589 
C 5830 -26 5658 256 5491 666 
C 5274 1197 5152 1837 5152 2432 
C 5152 3027 5274 3667 5491 4198 
C 5658 4608 5830 4890 6240 5453 
L 5197 5453 
C 4845 4902 4691 4621 4538 4211 
C 4320 3648 4205 3034 4205 2432 
C 4205 1830 4320 1216 4538 653 
C 4691 243 4845 -38 5197 -589 
L 6240 -589 
z
" transform="scale(0.015625)"/>
      <path id="HiraginoSans-W7-76f4" d="M 1222 4992 
C 870 4992 640 5005 416 5030 
L 416 4218 
C 646 4243 896 4256 1210 4256 
L 2918 4256 
C 2893 4160 2880 4122 2842 3994 
L 2688 3994 
C 2259 3994 2112 4000 1914 4013 
C 1933 3840 1939 3686 1939 3264 
L 1939 1414 
C 1939 1062 1933 819 1920 678 
C 2118 698 2246 698 2675 698 
L 4768 698 
C 5203 698 5331 698 5536 678 
C 5517 870 5510 1011 5510 1414 
L 5510 3264 
C 5510 3674 5517 3827 5536 4013 
C 5344 4000 5197 3994 4768 3994 
L 3686 3994 
C 3712 4102 3718 4122 3757 4256 
L 5235 4256 
C 5670 4256 5875 4250 6086 4224 
L 6086 5030 
C 5843 5005 5632 4992 5235 4992 
L 3917 4992 
C 3936 5082 3942 5120 3955 5190 
C 3981 5299 3987 5325 4006 5402 
L 3123 5472 
C 3123 5344 3104 5197 3072 4992 
L 1222 4992 
z
M 2733 3347 
L 4710 3347 
L 4710 3072 
L 2733 3072 
L 2733 3347 
z
M 2733 2490 
L 4710 2490 
L 4710 2221 
L 2733 2221 
L 2733 2490 
z
M 2733 1626 
L 4710 1626 
L 4710 1350 
L 2733 1350 
L 2733 1626 
z
M 1459 448 
L 1459 3072 
C 1459 3354 1472 3571 1491 3757 
L 563 3757 
C 582 3603 595 3379 595 3021 
L 595 397 
C 595 -13 582 -301 557 -538 
L 1453 -538 
L 1453 -301 
L 5293 -301 
C 5664 -301 5850 -307 6093 -339 
L 6093 486 
C 5875 454 5709 448 5376 448 
L 1459 448 
z
" transform="scale(0.015625)"/>
      <path id="HiraginoSans-W7-7dda" d="M 333 1978 
C 467 1997 525 2003 704 2016 
C 877 2022 922 2029 1184 2042 
L 1184 128 
C 1184 -166 1171 -333 1146 -563 
L 1939 -563 
C 1907 -365 1901 -230 1901 122 
L 1901 2099 
C 2048 2112 2106 2118 2125 2118 
C 2253 2138 2253 2138 2323 2144 
C 2342 2054 2342 2054 2362 1965 
L 2586 2061 
L 2586 1402 
C 2688 1414 2765 1421 2925 1421 
L 3181 1421 
C 3078 1152 2957 928 2797 736 
C 2662 576 2522 454 2221 237 
C 2464 6 2598 -154 2739 -378 
C 3104 -19 3149 26 3296 211 
C 3373 19 3424 -173 3456 -480 
C 3565 -486 3770 -493 3904 -493 
C 4493 -493 4723 -320 4730 122 
L 4730 512 
C 4730 621 4717 858 4685 1203 
C 5030 454 5280 122 5850 -358 
C 6016 0 6125 166 6330 403 
C 5978 627 5734 851 5421 1229 
C 5664 1414 5907 1645 6208 1958 
L 5670 2432 
C 5421 2125 5286 1984 5037 1786 
C 4902 2022 4838 2176 4736 2477 
L 5299 2477 
C 5498 2477 5722 2470 5907 2458 
C 5888 2624 5882 2784 5882 3085 
L 5882 4301 
C 5882 4608 5888 4755 5907 4954 
C 5747 4934 5613 4928 5286 4928 
L 4621 4928 
C 4704 5114 4723 5165 4800 5370 
L 3949 5478 
C 3904 5286 3872 5184 3776 4928 
L 3430 4928 
C 3123 4928 2976 4934 2810 4954 
C 2829 4768 2835 4538 2835 4314 
L 2835 3085 
C 2835 2886 2829 2650 2816 2509 
C 2733 2829 2669 3027 2509 3462 
L 1997 3277 
C 2080 3053 2093 3021 2163 2771 
C 1971 2752 1862 2746 1568 2733 
C 1850 3091 2182 3571 2458 4006 
C 2662 4339 2662 4339 2714 4416 
L 2074 4768 
C 1984 4531 1773 4141 1491 3699 
C 1376 3846 1376 3846 1293 3955 
C 1504 4269 1709 4634 1862 4947 
C 1933 5107 1965 5158 2003 5222 
L 1267 5478 
C 1210 5235 1043 4851 832 4493 
L 621 4717 
L 237 4051 
C 570 3731 768 3507 1082 3104 
C 966 2938 928 2886 787 2707 
C 659 2701 646 2701 602 2701 
C 448 2701 390 2707 262 2726 
L 333 1978 
z
M 2893 2195 
C 2861 2323 2861 2330 2829 2458 
C 3040 2470 3245 2477 3443 2477 
L 3968 2477 
L 3968 1837 
L 3744 2138 
C 3674 2131 3597 2125 3456 2125 
L 2950 2125 
C 2822 2125 2810 2125 2739 2131 
L 2893 2195 
z
M 3968 378 
C 3968 256 3930 224 3770 224 
C 3642 224 3507 237 3334 269 
C 3558 576 3693 864 3853 1357 
C 3917 1542 3917 1549 3968 1702 
L 3968 378 
z
M 3584 4320 
L 5126 4320 
L 5126 4019 
L 3584 4019 
L 3584 4320 
z
M 3584 3418 
L 5126 3418 
L 5126 3098 
L 3584 3098 
L 3584 3418 
z
M 461 1786 
C 422 838 384 512 237 58 
L 800 -275 
C 941 237 992 640 1037 1715 
L 461 1786 
z
M 2010 1722 
C 2086 1248 2125 870 2131 467 
L 2650 595 
C 2566 1306 2566 1306 2464 1824 
L 2010 1722 
z
" transform="scale(0.015625)"/>
      <path id="HiraginoSans-W7-304c" d="M 4038 4768 
C 4250 4544 4461 4230 4634 3904 
L 5190 4186 
C 5005 4538 4858 4749 4602 5030 
L 4038 4768 
z
M 4826 5107 
C 5050 4851 5222 4602 5408 4269 
L 5958 4557 
C 5792 4864 5600 5126 5370 5370 
L 4826 5107 
z
M 4442 3616 
C 4614 3373 4704 3206 4890 2797 
C 5126 2278 5254 1882 5363 1350 
L 6246 1779 
C 6016 2643 5728 3277 5229 3987 
L 4442 3616 
z
M 410 2829 
C 595 2880 1030 2957 1485 3021 
C 1216 1952 672 666 237 96 
L 1126 -384 
C 1165 -301 1171 -288 1229 -166 
C 1824 1075 2176 2048 2400 3091 
C 2541 3104 2611 3110 2720 3110 
C 2950 3110 3053 3085 3136 3002 
C 3251 2899 3296 2733 3296 2426 
C 3296 1939 3219 1274 3123 966 
C 3046 710 2950 608 2790 608 
C 2579 608 2208 710 1882 851 
C 1946 550 1965 390 1965 166 
C 1965 70 1965 19 1952 -122 
C 2387 -250 2656 -301 2931 -301 
C 3283 -301 3488 -224 3680 -13 
C 4006 339 4198 1229 4198 2374 
C 4198 2976 4115 3290 3898 3552 
C 3686 3802 3354 3923 2899 3923 
C 2803 3923 2714 3917 2560 3910 
C 2579 3987 2579 3994 2605 4128 
C 2694 4653 2746 4928 2752 4954 
C 2765 5024 2778 5075 2797 5139 
L 1805 5235 
C 1811 5190 1811 5158 1811 5139 
C 1811 4896 1766 4518 1651 3846 
C 1325 3795 557 3725 365 3725 
C 352 3725 339 3725 326 3725 
L 410 2829 
z
" transform="scale(0.015625)"/>
      <path id="HiraginoSans-W7-8ef8" d="M 2061 320 
L 2426 320 
C 2669 320 2822 314 3002 288 
L 3002 1056 
C 2816 1024 2669 1018 2419 1018 
L 2061 1018 
L 2061 1325 
L 2342 1325 
C 2669 1325 2765 1325 2925 1312 
C 2912 1485 2906 1677 2906 2003 
L 2906 3213 
C 2906 3507 2912 3718 2925 3866 
C 2790 3853 2682 3846 2362 3846 
L 2061 3846 
L 2061 4147 
L 2445 4147 
C 2771 4147 2874 4141 3053 4122 
L 3053 4877 
C 2854 4851 2765 4845 2445 4845 
L 2061 4845 
L 2061 4877 
C 2061 5133 2067 5261 2099 5414 
L 1286 5414 
C 1312 5254 1325 5107 1325 4877 
L 1325 4845 
L 890 4845 
C 570 4845 474 4851 282 4877 
L 282 4122 
C 486 4141 602 4147 890 4147 
L 1325 4147 
L 1325 3846 
L 1069 3846 
C 723 3846 602 3853 422 3866 
C 442 3674 448 3475 448 3155 
L 448 2048 
C 448 1709 442 1498 422 1306 
C 698 1325 755 1325 1069 1325 
L 1325 1325 
L 1325 1018 
L 845 1018 
C 531 1018 422 1024 237 1050 
L 237 288 
C 422 314 538 320 845 320 
L 1325 320 
L 1325 77 
C 1325 -186 1312 -384 1286 -557 
L 2093 -557 
C 2074 -384 2061 -205 2061 38 
L 2061 320 
z
M 2016 1952 
L 2016 2298 
L 2317 2298 
L 2317 1952 
L 2016 1952 
z
M 2016 2886 
L 2016 3219 
L 2317 3219 
L 2317 2886 
L 2016 2886 
z
M 1376 3219 
L 1376 2886 
L 1062 2886 
L 1062 3219 
L 1376 3219 
z
M 1376 2298 
L 1376 1952 
L 1062 1952 
L 1062 2298 
L 1376 2298 
z
M 4947 4237 
L 4947 4749 
C 4947 5037 4960 5210 4986 5414 
L 4147 5414 
C 4173 5222 4186 5043 4186 4781 
L 4186 4237 
L 3712 4237 
C 3437 4237 3264 4243 3110 4262 
C 3130 4090 3136 3930 3136 3603 
L 3136 218 
C 3136 -90 3123 -307 3104 -550 
L 3853 -550 
L 3853 -275 
L 5299 -275 
L 5299 -557 
L 6074 -557 
C 6048 -282 6035 -13 6035 282 
L 6035 3565 
C 6035 3891 6042 4045 6061 4269 
C 5875 4250 5670 4237 5434 4237 
L 4947 4237 
z
M 4922 467 
L 4922 1670 
L 5331 1670 
L 5331 467 
L 4922 467 
z
M 4922 2394 
L 4922 3482 
L 5331 3482 
L 5331 2394 
L 4922 2394 
z
M 4211 3482 
L 4211 2394 
L 3814 2394 
L 3814 3482 
L 4211 3482 
z
M 4211 1670 
L 4211 467 
L 3814 467 
L 3814 1670 
L 4211 1670 
z
" transform="scale(0.015625)"/>
      <path id="HiraginoSans-W7-3068" d="M 1850 5114 
C 1882 5024 1888 5005 1952 4698 
C 2106 3923 2208 3507 2362 2982 
C 1946 2778 1734 2643 1478 2426 
C 1107 2106 909 1683 909 1222 
C 909 909 1011 595 1190 371 
C 1530 -58 2240 -269 3347 -269 
C 3802 -269 4256 -237 4954 -166 
C 5318 -128 5350 -122 5491 -115 
L 5414 928 
C 4915 755 4058 646 3270 646 
C 2323 646 1901 832 1901 1254 
C 1901 1664 2349 2035 3226 2362 
C 3962 2630 4774 2854 5427 2963 
L 5107 3936 
C 5011 3891 4979 3878 4851 3840 
C 3853 3526 3584 3443 3232 3315 
C 3034 3987 2867 4838 2842 5267 
L 1850 5114 
z
" transform="scale(0.015625)"/>
     </defs>
     <use xlink:href="#HiraginoSans-W7-ff08"/>
     <use xlink:href="#HiraginoSans-W7-76f4" transform="translate(99.999985 0)"/>
     <use xlink:href="#HiraginoSans-W7-7dda" transform="translate(199.999969 0)"/>
     <use xlink:href="#HiraginoSans-W7-304c" transform="translate(299.999954 0)"/>
     <use xlink:href="#HiraginoSans-W7-79" transform="translate(399.999939 0)"/>
     <use xlink:href="#HiraginoSans-W7-8ef8" transform="translate(466.699936 0)"/>
     <use xlink:href="#HiraginoSans-W7-3068" transform="translate(566.699921 0)"/>
    </g>
    <!--  交わる点） -->
    <g style="fill: #dc2626" transform="translate(46.995 307.7525) scale(0.11 -0.11)">
     <defs>
      <path id="HiraginoSans-W7-4ea4" d="M 3936 2816 
C 3782 2464 3526 2074 3232 1754 
C 2912 2086 2656 2445 2483 2822 
L 1779 2419 
C 2003 2035 2150 1798 2214 1709 
C 2336 1536 2470 1376 2618 1210 
C 2406 1050 2067 864 1606 659 
C 1178 467 826 346 275 218 
C 480 -64 570 -250 678 -582 
C 1075 -467 1440 -333 1811 -166 
C 2451 128 2765 307 3213 653 
C 3930 90 4672 -250 5830 -550 
C 5952 -160 6029 0 6234 307 
C 5709 410 5312 525 4902 691 
C 4422 890 4166 1024 3859 1242 
C 4186 1606 4390 1907 4678 2406 
L 3936 2816 
z
M 2758 4787 
L 1197 4787 
C 826 4787 550 4800 358 4826 
L 358 3968 
C 550 3994 800 4006 1197 4006 
L 5267 4006 
C 5619 4006 5946 3994 6106 3968 
L 6106 4826 
C 5914 4800 5645 4787 5274 4787 
L 3616 4787 
L 3616 4979 
C 3616 5146 3629 5293 3654 5408 
L 2720 5408 
C 2746 5274 2758 5126 2758 4979 
L 2758 4787 
z
M 2016 3974 
C 1747 3590 1568 3392 1286 3142 
C 986 2880 742 2714 307 2490 
C 557 2266 698 2093 864 1824 
C 1293 2106 1536 2291 1869 2592 
C 2214 2899 2413 3123 2746 3578 
L 2016 3974 
z
M 3642 3565 
C 3974 3142 4141 2957 4461 2688 
C 4838 2368 5101 2189 5683 1882 
C 5824 2189 5939 2374 6150 2624 
C 5658 2829 5434 2957 5094 3213 
C 4787 3443 4627 3603 4314 3987 
L 3642 3565 
z
" transform="scale(0.015625)"/>
      <path id="HiraginoSans-W7-308f" d="M 653 678 
C 736 787 819 890 915 992 
C 1152 1242 1152 1242 1376 1485 
C 1370 1408 1363 1299 1363 1114 
L 1363 595 
C 1363 -19 1357 -198 1325 -390 
L 2310 -397 
C 2285 -90 2259 749 2259 1600 
C 2259 1741 2259 1741 2259 2221 
C 2547 2483 2726 2618 3027 2797 
C 3437 3034 3738 3136 4051 3136 
C 4678 3136 5075 2739 5075 2106 
C 5075 1344 4570 838 3802 838 
C 3456 838 3162 896 2714 1043 
C 2822 666 2848 499 2854 83 
C 3181 -6 3462 -45 3782 -45 
C 4422 -45 4973 141 5357 486 
C 5773 864 6010 1446 6010 2080 
C 6010 2643 5824 3130 5485 3475 
C 5165 3808 4678 4006 4211 4006 
C 3533 4006 2950 3776 2259 3232 
C 2266 3264 2266 3283 2266 3302 
L 2266 3373 
C 2266 3386 2266 3398 2266 3424 
C 2266 3437 2266 3456 2272 3482 
C 2419 3674 2547 3808 2701 3930 
L 2317 4262 
C 2317 4634 2336 4877 2400 5242 
L 1427 5248 
C 1440 5107 1446 5056 1446 4954 
C 1446 4947 1446 4928 1446 4902 
C 1446 4826 1440 4742 1440 4659 
C 1440 4390 1440 4326 1427 4173 
C 1107 4154 794 4141 621 4141 
C 557 4141 506 4141 403 4147 
L 454 3296 
C 646 3328 678 3334 1402 3386 
C 1382 2790 1382 2758 1382 2566 
C 582 1837 371 1651 224 1549 
L 653 678 
z
" transform="scale(0.015625)"/>
      <path id="HiraginoSans-W7-308b" d="M 1286 4090 
C 1478 4115 1536 4115 1741 4128 
C 2682 4173 2790 4179 3315 4224 
C 2413 3322 1075 2259 474 1971 
L 986 1146 
C 1779 1856 2656 2221 3597 2221 
C 4333 2221 4806 1920 4806 1453 
C 4806 1050 4621 806 4166 621 
C 4070 883 4000 1018 3872 1171 
C 3603 1504 3200 1690 2746 1690 
C 2067 1690 1568 1274 1568 723 
C 1568 410 1709 128 1958 -58 
C 2227 -262 2701 -378 3258 -378 
C 3872 -378 4435 -243 4864 6 
C 5440 339 5741 838 5741 1459 
C 5741 1907 5587 2259 5274 2522 
C 4928 2810 4480 2957 3936 2957 
C 3565 2957 3245 2912 2880 2803 
C 3398 3168 3603 3334 4269 3930 
C 4768 4371 4774 4371 4909 4448 
L 4454 5114 
C 4346 5062 4269 5050 4019 5030 
C 3424 4986 2630 4954 2080 4954 
C 1696 4954 1485 4966 1248 4998 
L 1286 4090 
z
M 3347 390 
C 3200 358 3174 358 3078 358 
C 2662 358 2419 486 2419 710 
C 2419 864 2547 966 2739 966 
C 3040 966 3251 768 3347 390 
z
" transform="scale(0.015625)"/>
      <path id="HiraginoSans-W7-70b9" d="M 3520 4064 
L 5197 4064 
C 5478 4064 5683 4051 5907 4026 
L 5907 4845 
C 5709 4819 5504 4806 5197 4806 
L 3520 4806 
L 3520 4858 
C 3520 5107 3533 5248 3558 5402 
L 2618 5402 
C 2643 5222 2656 5030 2656 4781 
L 2656 3533 
L 1670 3533 
C 1344 3533 1133 3539 941 3558 
C 960 3373 966 3238 966 3008 
L 966 1722 
C 966 1523 960 1389 947 1229 
C 1120 1242 1293 1248 1530 1248 
L 4845 1248 
C 5082 1248 5254 1242 5440 1229 
C 5427 1363 5421 1510 5421 1734 
L 5421 3008 
C 5421 3238 5427 3398 5446 3558 
C 5280 3539 5069 3533 4717 3533 
L 3520 3533 
L 3520 4064 
z
M 4595 2790 
L 4595 1997 
L 1798 1997 
L 1798 2790 
L 4595 2790 
z
M 947 -563 
C 1318 -32 1434 211 1658 941 
L 909 1190 
C 742 627 563 288 192 -154 
L 947 -563 
z
M 2912 -461 
C 2893 122 2880 275 2758 998 
L 2016 922 
C 2067 493 2093 160 2093 -218 
C 2093 -352 2093 -378 2086 -557 
L 2912 -461 
z
M 4474 -333 
C 4326 198 4224 525 4000 1075 
L 3290 915 
C 3469 403 3571 -6 3674 -570 
L 4474 -333 
z
M 6112 -186 
C 5779 499 5670 691 5344 1203 
L 4627 928 
C 4947 390 5062 147 5306 -544 
L 6112 -186 
z
" transform="scale(0.015625)"/>
      <path id="HiraginoSans-W7-ff09" d="M 1203 -589 
C 1555 -38 1709 243 1862 653 
C 2080 1216 2195 1824 2195 2432 
C 2195 3040 2080 3648 1862 4211 
C 1709 4621 1555 4902 1203 5453 
L 160 5453 
C 570 4890 742 4608 909 4198 
C 1126 3667 1248 3027 1248 2432 
C 1248 1837 1126 1197 909 666 
C 742 256 570 -26 160 -589 
L 1203 -589 
z
" transform="scale(0.015625)"/>
     </defs>
     <use xlink:href="#HiraginoSans-W7-20"/>
     <use xlink:href="#HiraginoSans-W7-4ea4" transform="translate(33.299988 0)"/>
     <use xlink:href="#HiraginoSans-W7-308f" transform="translate(133.299973 0)"/>
     <use xlink:href="#HiraginoSans-W7-308b" transform="translate(233.299957 0)"/>
     <use xlink:href="#HiraginoSans-W7-70b9" transform="translate(333.299942 0)"/>
     <use xlink:href="#HiraginoSans-W7-ff09" transform="translate(433.299927 0)"/>
    </g>
   </g>
   <g id="patch_7">
    <path d="M 270.663473 290.6975 
Q 319.874121 290.6975 369.084768 290.6975 
" style="fill: none; stroke: #059669; stroke-width: 2.5; stroke-linecap: round"/>
    <path d="M 274.663473 292.6975 
L 270.663473 290.6975 
L 274.663473 288.6975 
" style="fill: none; stroke: #059669; stroke-width: 2.5; stroke-linecap: round"/>
    <path d="M 365.084768 288.6975 
L 369.084768 290.6975 
L 365.084768 292.6975 
" style="fill: none; stroke: #059669; stroke-width: 2.5; stroke-linecap: round"/>
   </g>
   <g id="text_5">
    <!-- Δx = 2 -->
    <g style="fill: #059669" transform="translate(295.396406 319.1225) scale(0.13 -0.13)">
     <defs>
      <path id="HiraginoSans-W7-394" d="M 4090 4371 
C 3981 4678 3923 4870 3891 5037 
L 2509 5037 
C 2483 4890 2419 4659 2310 4371 
L 941 595 
C 813 243 710 -19 627 -186 
C 845 -173 1094 -166 1478 -166 
L 4922 -166 
C 5338 -166 5530 -173 5766 -186 
C 5690 -26 5600 192 5459 595 
L 4090 4371 
z
M 2118 762 
L 3078 3699 
C 3155 3930 3162 3930 3206 4102 
C 3232 4000 3277 3859 3322 3712 
L 4288 762 
L 2118 762 
z
" transform="scale(0.015625)"/>
      <path id="HiraginoSans-W7-32" d="M 3354 -134 
C 3782 -134 4045 -147 4384 -179 
L 4384 845 
C 4147 806 3846 794 3405 794 
L 1786 794 
C 1869 998 1939 1107 2086 1267 
C 2234 1421 2528 1670 2790 1856 
C 3546 2381 3597 2419 3750 2560 
C 4122 2893 4314 3283 4314 3712 
C 4314 4608 3565 5178 2387 5178 
C 1696 5178 1158 4966 813 4570 
C 570 4275 454 4006 358 3488 
L 1491 3360 
C 1530 3648 1568 3789 1664 3930 
C 1818 4154 2074 4275 2406 4275 
C 2867 4275 3187 4032 3187 3680 
C 3187 3347 3046 3168 2458 2771 
C 1792 2317 1600 2176 1363 1958 
C 941 1574 640 1126 474 627 
C 390 397 352 179 320 -160 
C 563 -134 666 -134 1210 -134 
L 3354 -134 
z
" transform="scale(0.015625)"/>
     </defs>
     <use xlink:href="#HiraginoSans-W7-394"/>
     <use xlink:href="#HiraginoSans-W7-78" transform="translate(99.999985 0)"/>
     <use xlink:href="#HiraginoSans-W7-20" transform="translate(165.999969 0)"/>
     <use xlink:href="#HiraginoSans-W7-3d" transform="translate(199.299957 0)"/>
     <use xlink:href="#HiraginoSans-W7-20" transform="translate(269.199951 0)"/>
     <use xlink:href="#HiraginoSans-W7-32" transform="translate(302.499939 0)"/>
    </g>
   </g>
   <g id="patch_8">
    <path d="M 376.725 283.063364 
Q 376.725 248.063373 376.725 213.063383 
" style="fill: none; stroke: #059669; stroke-width: 2.5; stroke-linecap: round"/>
    <path d="M 378.725 279.063364 
L 376.725 283.063364 
L 374.725 279.063364 
" style="fill: none; stroke: #059669; stroke-width: 2.5; stroke-linecap: round"/>
    <path d="M 374.725 217.063383 
L 376.725 213.063383 
L 378.725 217.063383 
" style="fill: none; stroke: #059669; stroke-width: 2.5; stroke-linecap: round"/>
   </g>
   <g id="text_6">
    <!-- Δy = 1.5 -->
    <g style="fill: #059669" transform="translate(405.15 248.06) scale(0.13 -0.13)">
     <defs>
      <path id="HiraginoSans-W7-2e" d="M 365 973 
L 365 -134 
L 1472 -134 
L 1472 973 
L 365 973 
z
" transform="scale(0.015625)"/>
      <path id="HiraginoSans-W7-35" d="M 1664 4205 
L 3155 4205 
C 3533 4205 3814 4192 4115 4154 
L 4115 5114 
C 3814 5075 3648 5069 3142 5069 
L 1466 5069 
C 1114 5069 973 5075 742 5094 
C 736 4704 736 4659 717 4416 
L 570 2765 
C 544 2502 531 2400 480 2106 
L 1478 2010 
C 1536 2150 1574 2208 1658 2291 
C 1837 2451 2093 2541 2381 2541 
C 2950 2541 3322 2170 3322 1600 
C 3322 1018 2931 640 2342 640 
C 2022 640 1773 742 1613 941 
C 1530 1037 1491 1120 1434 1299 
L 358 1107 
C 499 710 602 525 806 307 
C 1165 -70 1690 -262 2374 -262 
C 3622 -262 4390 454 4390 1626 
C 4390 2150 4237 2554 3923 2867 
C 3603 3194 3142 3366 2624 3366 
C 2189 3366 1856 3258 1549 3027 
C 1555 3098 1574 3238 1581 3290 
L 1664 4205 
z
" transform="scale(0.015625)"/>
     </defs>
     <use xlink:href="#HiraginoSans-W7-394"/>
     <use xlink:href="#HiraginoSans-W7-79" transform="translate(99.999985 0)"/>
     <use xlink:href="#HiraginoSans-W7-20" transform="translate(166.699982 0)"/>
     <use xlink:href="#HiraginoSans-W7-3d" transform="translate(199.999969 0)"/>
     <use xlink:href="#HiraginoSans-W7-20" transform="translate(269.899963 0)"/>
     <use xlink:href="#HiraginoSans-W7-31" transform="translate(303.199951 0)"/>
     <use xlink:href="#HiraginoSans-W7-2e" transform="translate(377.299942 0)"/>
     <use xlink:href="#HiraginoSans-W7-35" transform="translate(405.999939 0)"/>
    </g>
   </g>
   <g id="text_7">
    <g id="patch_9">
     <path d="M 405.15 356.05625 
L 517.41 356.05625 
Q 523.41 356.05625 523.41 350.05625 
L 523.41 309.483875 
Q 523.41 303.483875 517.41 303.483875 
L 405.15 303.483875 
Q 399.15 303.483875 399.15 309.483875 
L 399.15 350.05625 
Q 399.15 356.05625 405.15 356.05625 
z
" style="fill: #ecfdf5; stroke: #059669; stroke-width: 2; stroke-linejoin: miter"/>
    </g>
    <!-- 傾き a = Δy ÷ Δx -->
    <g style="fill: #059669" transform="translate(405.15 319.7195) scale(0.12 -0.12)">
     <defs>
      <path id="HiraginoSans-W7-50be" d="M 3354 1318 
C 3354 1114 3347 941 3341 730 
C 3469 736 3565 742 3763 742 
C 3430 422 3155 262 2522 38 
C 2714 -160 2867 -352 3053 -627 
C 3699 -288 4032 -45 4454 390 
L 3962 742 
L 5082 742 
L 4589 390 
C 4986 -38 5293 -275 5869 -602 
C 5990 -352 6144 -102 6310 128 
C 5862 307 5574 480 5299 742 
L 5376 742 
C 5555 742 5715 736 5926 723 
C 5907 966 5901 1139 5901 1370 
L 5901 3552 
C 5901 3782 5907 3930 5926 4115 
C 5766 4102 5632 4096 5274 4096 
L 4845 4096 
C 4877 4154 4928 4275 5011 4493 
L 5446 4493 
C 5798 4493 5978 4486 6163 4461 
L 6163 5267 
C 5978 5242 5747 5229 5382 5229 
L 3712 5229 
C 3354 5229 3130 5242 2944 5267 
L 2944 4461 
C 3136 4486 3315 4493 3648 4493 
L 4224 4493 
C 4186 4384 4109 4218 4051 4096 
L 3872 4096 
C 3584 4096 3475 4096 3334 4109 
C 3347 3955 3354 3802 3354 3494 
L 3027 4038 
C 2848 3821 2752 3731 2496 3520 
L 2496 4128 
C 2496 4403 2502 4570 2528 4736 
L 1779 4736 
C 1818 4864 1837 4934 1837 4934 
C 1862 4998 1862 4998 1888 5075 
C 1894 5120 1907 5152 1933 5229 
L 1107 5459 
C 1037 5011 928 4640 736 4192 
C 525 3680 314 3315 26 2982 
C 192 2643 250 2477 352 2054 
C 512 2246 576 2349 717 2611 
C 704 2304 704 2234 704 1926 
L 704 205 
C 704 -96 698 -282 666 -550 
L 1517 -550 
C 1491 -275 1485 -109 1485 205 
L 1485 3885 
C 1562 4090 1658 4365 1766 4698 
C 1786 4557 1786 4461 1786 4141 
L 1786 1203 
C 1786 896 1818 774 1907 698 
C 2003 621 2195 582 2490 582 
C 2816 582 3008 653 3104 800 
C 3206 960 3251 1267 3270 1965 
C 3014 2074 2938 2125 2746 2291 
C 2746 2182 2746 2099 2746 2042 
C 2746 1850 2733 1549 2720 1440 
C 2707 1350 2669 1312 2592 1312 
C 2515 1312 2496 1344 2496 1485 
L 2496 2669 
C 2822 2861 3046 3014 3354 3264 
L 3354 1318 
z
M 4083 3450 
L 5165 3450 
L 5165 3149 
L 4083 3149 
L 4083 3450 
z
M 4083 2579 
L 5165 2579 
L 5165 2272 
L 4083 2272 
L 4083 2579 
z
M 4083 1702 
L 5165 1702 
L 5165 1389 
L 4083 1389 
L 4083 1702 
z
" transform="scale(0.015625)"/>
      <path id="HiraginoSans-W7-304d" d="M 883 3661 
C 992 3667 1043 3667 1139 3667 
C 2163 3680 2374 3686 3034 3750 
C 3066 3674 3078 3654 3136 3526 
C 3181 3430 3200 3392 3238 3322 
C 2611 3238 2080 3206 1408 3206 
C 1075 3206 973 3213 794 3238 
L 826 2419 
C 941 2432 992 2432 1107 2438 
C 2362 2477 2989 2515 3578 2598 
C 3616 2541 3616 2541 3661 2464 
C 3763 2298 3770 2285 3846 2176 
C 3923 2067 3936 2054 3974 2010 
C 3661 2080 3334 2112 2938 2112 
C 2394 2112 1990 2042 1632 1882 
C 1184 1690 896 1293 896 870 
C 896 621 986 371 1139 186 
C 1440 -192 2067 -384 2970 -384 
C 3558 -384 4147 -314 4717 -173 
C 4966 -109 4979 -109 5152 -77 
L 5018 851 
C 4582 627 3680 442 3008 442 
C 2790 442 2502 467 2349 499 
C 2061 570 1914 691 1914 877 
C 1914 1197 2349 1376 3149 1376 
C 3738 1376 4141 1299 4557 1101 
L 5306 1542 
C 4864 2067 4781 2182 4461 2720 
C 4589 2746 4614 2752 4909 2810 
C 5344 2906 5600 2957 5683 2970 
L 5606 3789 
C 5261 3661 4883 3571 4109 3430 
C 4006 3642 4000 3654 3910 3859 
C 4115 3885 4678 4000 5434 4160 
L 5357 4960 
C 4922 4813 4269 4678 3629 4589 
C 3475 4973 3424 5139 3398 5312 
L 2445 5184 
C 2496 5094 2515 5050 2579 4890 
C 2624 4781 2650 4717 2662 4698 
C 2726 4544 2726 4544 2746 4493 
C 2490 4461 1894 4435 1523 4435 
C 1254 4435 1037 4442 838 4461 
L 883 3661 
z
" transform="scale(0.015625)"/>
      <path id="HiraginoSans-W7-61" d="M 2842 -134 
L 3878 -134 
C 3846 154 3834 346 3834 717 
L 3834 2451 
C 3834 2912 3750 3162 3533 3366 
C 3251 3635 2822 3763 2195 3763 
C 1594 3763 1133 3642 813 3392 
C 589 3219 467 3046 333 2675 
L 1344 2509 
C 1414 2688 1472 2778 1587 2861 
C 1709 2950 1939 3008 2189 3008 
C 2624 3008 2842 2854 2842 2541 
L 2842 2285 
C 2029 2259 1837 2240 1466 2163 
C 672 1984 237 1549 237 928 
C 237 589 365 294 602 96 
C 832 -109 1158 -205 1613 -205 
C 2131 -205 2458 -96 2842 198 
L 2842 -134 
z
M 2842 1357 
C 2842 1133 2765 973 2579 813 
C 2381 646 2067 538 1792 538 
C 1446 538 1254 685 1254 954 
C 1254 1197 1408 1370 1702 1459 
C 1990 1549 2259 1581 2842 1600 
L 2842 1357 
z
" transform="scale(0.015625)"/>
      <path id="HiraginoSans-W7-f7" d="M 870 2886 
L 870 1990 
L 5530 1990 
L 5530 2886 
L 870 2886 
z
M 3206 4742 
C 2835 4742 2534 4442 2534 4077 
C 2534 3706 2835 3405 3206 3405 
C 3571 3405 3872 3706 3872 4077 
C 3872 4448 3571 4742 3206 4742 
z
M 3206 1453 
C 2835 1453 2534 1152 2534 787 
C 2534 416 2835 115 3206 115 
C 3571 115 3872 416 3872 787 
C 3872 1158 3571 1453 3206 1453 
z
" transform="scale(0.015625)"/>
     </defs>
     <use xlink:href="#HiraginoSans-W7-50be"/>
     <use xlink:href="#HiraginoSans-W7-304d" transform="translate(99.999985 0)"/>
     <use xlink:href="#HiraginoSans-W7-20" transform="translate(199.999969 0)"/>
     <use xlink:href="#HiraginoSans-W7-61" transform="translate(233.299957 0)"/>
     <use xlink:href="#HiraginoSans-W7-20" transform="translate(299.699951 0)"/>
     <use xlink:href="#HiraginoSans-W7-3d" transform="translate(332.999939 0)"/>
     <use xlink:href="#HiraginoSans-W7-20" transform="translate(402.899933 0)"/>
     <use xlink:href="#HiraginoSans-W7-394" transform="translate(436.199921 0)"/>
     <use xlink:href="#HiraginoSans-W7-79" transform="translate(536.199905 0)"/>
     <use xlink:href="#HiraginoSans-W7-20" transform="translate(602.899902 0)"/>
     <use xlink:href="#HiraginoSans-W7-f7" transform="translate(636.19989 0)"/>
     <use xlink:href="#HiraginoSans-W7-20" transform="translate(736.199875 0)"/>
     <use xlink:href="#HiraginoSans-W7-394" transform="translate(769.499863 0)"/>
     <use xlink:href="#HiraginoSans-W7-78" transform="translate(869.499847 0)"/>
    </g>
    <!--        = 1.5 ÷ 2 -->
    <g style="fill: #059669" transform="translate(405.15 333.6335) scale(0.12 -0.12)">
     <use xlink:href="#HiraginoSans-W7-20"/>
     <use xlink:href="#HiraginoSans-W7-20" transform="translate(33.299988 0)"/>
     <use xlink:href="#HiraginoSans-W7-20" transform="translate(66.599976 0)"/>
     <use xlink:href="#HiraginoSans-W7-20" transform="translate(99.899963 0)"/>
     <use xlink:href="#HiraginoSans-W7-20" transform="translate(133.199951 0)"/>
     <use xlink:href="#HiraginoSans-W7-20" transform="translate(166.499939 0)"/>
     <use xlink:href="#HiraginoSans-W7-20" transform="translate(199.799927 0)"/>
     <use xlink:href="#HiraginoSans-W7-3d" transform="translate(233.099915 0)"/>
     <use xlink:href="#HiraginoSans-W7-20" transform="translate(302.999908 0)"/>
     <use xlink:href="#HiraginoSans-W7-31" transform="translate(336.299896 0)"/>
     <use xlink:href="#HiraginoSans-W7-2e" transform="translate(410.399887 0)"/>
     <use xlink:href="#HiraginoSans-W7-35" transform="translate(439.099884 0)"/>
     <use xlink:href="#HiraginoSans-W7-20" transform="translate(513.199875 0)"/>
     <use xlink:href="#HiraginoSans-W7-f7" transform="translate(546.499863 0)"/>
     <use xlink:href="#HiraginoSans-W7-20" transform="translate(646.499847 0)"/>
     <use xlink:href="#HiraginoSans-W7-32" transform="translate(679.799835 0)"/>
    </g>
    <!--        = 0.75 -->
    <g style="fill: #059669" transform="translate(405.15 347.5475) scale(0.12 -0.12)">
     <defs>
      <path id="HiraginoSans-W7-30" d="M 2368 -243 
C 3130 -243 3757 96 4122 698 
C 4358 1088 4512 1798 4512 2470 
C 4512 2995 4429 3494 4262 3942 
C 4173 4192 4019 4422 3821 4621 
C 3456 4986 2950 5178 2374 5178 
C 1613 5178 992 4845 627 4230 
C 384 3834 230 3136 230 2458 
C 230 1939 314 1440 480 992 
C 576 742 723 512 922 314 
C 1286 -51 1786 -243 2368 -243 
z
M 2374 4275 
C 3066 4275 3424 3654 3424 2445 
C 3424 1741 3277 1190 3008 915 
C 2848 749 2630 659 2374 659 
C 1677 659 1318 1286 1318 2502 
C 1318 3622 1709 4275 2374 4275 
z
" transform="scale(0.015625)"/>
      <path id="HiraginoSans-W7-37" d="M 4358 5094 
C 4122 5075 3942 5069 3411 5069 
L 1312 5069 
C 902 5069 659 5082 358 5114 
L 358 4096 
C 621 4128 845 4141 1254 4141 
L 3149 4141 
C 2605 3386 2342 2950 2048 2323 
C 1696 1562 1510 954 1318 -134 
L 2541 -134 
C 2707 1165 2989 2035 3590 3110 
C 3898 3654 4083 3923 4358 4205 
L 4358 5094 
z
" transform="scale(0.015625)"/>
     </defs>
     <use xlink:href="#HiraginoSans-W7-20"/>
     <use xlink:href="#HiraginoSans-W7-20" transform="translate(33.299988 0)"/>
     <use xlink:href="#HiraginoSans-W7-20" transform="translate(66.599976 0)"/>
     <use xlink:href="#HiraginoSans-W7-20" transform="translate(99.899963 0)"/>
     <use xlink:href="#HiraginoSans-W7-20" transform="translate(133.199951 0)"/>
     <use xlink:href="#HiraginoSans-W7-20" transform="translate(166.499939 0)"/>
     <use xlink:href="#HiraginoSans-W7-20" transform="translate(199.799927 0)"/>
     <use xlink:href="#HiraginoSans-W7-3d" transform="translate(233.099915 0)"/>
     <use xlink:href="#HiraginoSans-W7-20" transform="translate(302.999908 0)"/>
     <use xlink:href="#HiraginoSans-W7-30" transform="translate(336.299896 0)"/>
     <use xlink:href="#HiraginoSans-W7-2e" transform="translate(410.399887 0)"/>
     <use xlink:href="#HiraginoSans-W7-37" transform="translate(439.099884 0)"/>
     <use xlink:href="#HiraginoSans-W7-35" transform="translate(513.199875 0)"/>
    </g>
   </g>
   <g id="text_8">
    <g id="patch_10">
     <path d="M 405.15 162.7725 
L 502.95 162.7725 
Q 512.95 162.7725 512.95 152.7725 
L 512.95 132.750625 
Q 512.95 122.750625 502.95 122.750625 
L 405.15 122.750625 
Q 395.15 122.750625 395.15 132.750625 
L 395.15 152.7725 
Q 395.15 162.7725 405.15 162.7725 
z
" style="fill: #f3f4f6; stroke: #2563eb; stroke-width: 2; stroke-linejoin: miter"/>
    </g>
    <!-- $y = ax + b$ -->
    <g style="fill: #2563eb" transform="translate(405.15 148.5725) scale(0.2 -0.2)">
     <defs>
      <path id="DejaVuSans-Oblique-79" d="M 1588 -325 
Q 1188 -997 936 -1164 
Q 684 -1331 294 -1331 
L -159 -1331 
L -63 -850 
L 269 -850 
Q 509 -850 678 -719 
Q 847 -588 1056 -206 
L 1234 128 
L 459 3500 
L 1069 3500 
L 1650 819 
L 3256 3500 
L 3859 3500 
L 1588 -325 
z
" transform="scale(0.015625)"/>
      <path id="DejaVuSans-3d" d="M 678 2906 
L 4684 2906 
L 4684 2381 
L 678 2381 
L 678 2906 
z
M 678 1631 
L 4684 1631 
L 4684 1100 
L 678 1100 
L 678 1631 
z
" transform="scale(0.015625)"/>
      <path id="DejaVuSans-Oblique-61" d="M 3438 1997 
L 3047 0 
L 2472 0 
L 2578 531 
Q 2325 219 2001 64 
Q 1678 -91 1281 -91 
Q 834 -91 548 182 
Q 263 456 263 884 
Q 263 1497 752 1853 
Q 1241 2209 2100 2209 
L 2900 2209 
L 2931 2363 
Q 2938 2388 2941 2417 
Q 2944 2447 2944 2509 
Q 2944 2788 2717 2942 
Q 2491 3097 2081 3097 
Q 1800 3097 1504 3025 
Q 1209 2953 897 2809 
L 997 3341 
Q 1322 3463 1633 3523 
Q 1944 3584 2234 3584 
Q 2853 3584 3176 3315 
Q 3500 3047 3500 2534 
Q 3500 2431 3484 2292 
Q 3469 2153 3438 1997 
z
M 2816 1759 
L 2241 1759 
Q 1534 1759 1195 1570 
Q 856 1381 856 984 
Q 856 709 1029 553 
Q 1203 397 1509 397 
Q 1978 397 2328 733 
Q 2678 1069 2791 1631 
L 2816 1759 
z
" transform="scale(0.015625)"/>
      <path id="DejaVuSans-Oblique-78" d="M 3841 3500 
L 2234 1784 
L 3219 0 
L 2559 0 
L 1819 1388 
L 531 0 
L -166 0 
L 1556 1844 
L 641 3500 
L 1300 3500 
L 1972 2234 
L 3144 3500 
L 3841 3500 
z
" transform="scale(0.015625)"/>
      <path id="DejaVuSans-2b" d="M 2944 4013 
L 2944 2272 
L 4684 2272 
L 4684 1741 
L 2944 1741 
L 2944 0 
L 2419 0 
L 2419 1741 
L 678 1741 
L 678 2272 
L 2419 2272 
L 2419 4013 
L 2944 4013 
z
" transform="scale(0.015625)"/>
      <path id="DejaVuSans-Oblique-62" d="M 3169 2138 
Q 3169 2591 2961 2847 
Q 2753 3103 2388 3103 
Q 2122 3103 1889 2973 
Q 1656 2844 1484 2597 
Q 1303 2338 1198 1995 
Q 1094 1653 1094 1313 
Q 1094 881 1298 636 
Q 1503 391 1863 391 
Q 2134 391 2365 517 
Q 2597 644 2772 891 
Q 2950 1147 3059 1487 
Q 3169 1828 3169 2138 
z
M 1381 2969 
Q 1594 3256 1914 3420 
Q 2234 3584 2584 3584 
Q 3122 3584 3439 3221 
Q 3756 2859 3756 2241 
Q 3756 1734 3570 1259 
Q 3384 784 3041 416 
Q 2816 172 2522 40 
Q 2228 -91 1906 -91 
Q 1566 -91 1316 65 
Q 1066 222 909 531 
L 806 0 
L 231 0 
L 1178 4863 
L 1753 4863 
L 1381 2969 
z
" transform="scale(0.015625)"/>
     </defs>
     <use xlink:href="#DejaVuSans-Oblique-79" transform="translate(0 0.015625)"/>
     <use xlink:href="#DejaVuSans-3d" transform="translate(78.662109 0.015625)"/>
     <use xlink:href="#DejaVuSans-Oblique-61" transform="translate(181.933594 0.015625)"/>
     <use xlink:href="#DejaVuSans-Oblique-78" transform="translate(243.212891 0.015625)"/>
     <use xlink:href="#DejaVuSans-2b" transform="translate(321.875 0.015625)"/>
     <use xlink:href="#DejaVuSans-Oblique-62" transform="translate(425.146484 0.015625)"/>
    </g>
   </g>
   <g id="text_9">
    <!-- 一次関数：直線の式 -->
    <g transform="translate(205.2375 19.8725) scale(0.16 -0.16)">
     <defs>
      <path id="HiraginoSans-W7-4e00" d="M 6093 3034 
C 5830 2995 5517 2982 5056 2982 
L 1344 2982 
C 909 2982 627 2995 307 3034 
L 307 2054 
C 646 2093 973 2106 1344 2106 
L 5056 2106 
C 5446 2106 5754 2093 6093 2054 
L 6093 3034 
z
" transform="scale(0.015625)"/>
      <path id="HiraginoSans-W7-6b21" d="M 3469 4493 
C 3501 4576 3514 4621 3539 4685 
C 3699 5107 3712 5139 3763 5254 
L 2861 5414 
C 2650 4429 2214 3667 1523 3053 
C 1798 2842 1952 2682 2150 2419 
C 2624 2918 2822 3194 3117 3738 
L 5094 3738 
C 4890 3238 4717 2970 4365 2579 
C 4627 2451 4794 2342 5088 2099 
C 5510 2682 5696 3034 6003 3834 
C 6054 3949 6067 3987 6112 4090 
L 5658 4525 
C 5517 4506 5325 4493 5043 4493 
L 3469 4493 
z
M 288 4621 
C 774 4230 986 4019 1376 3520 
L 2035 4141 
C 1645 4576 1414 4794 954 5171 
L 288 4621 
z
M 1677 2579 
C 1363 2125 1069 1779 723 1434 
C 480 1197 314 1050 179 979 
L 755 192 
C 813 256 845 288 954 403 
C 1459 896 1856 1376 2221 1920 
L 1677 2579 
z
M 3219 3494 
C 3238 3392 3245 3315 3245 3206 
C 3245 2240 2931 1446 2342 902 
C 1984 576 1690 390 1190 186 
C 1402 -32 1542 -243 1677 -544 
C 2246 -275 2611 -26 2944 326 
C 3264 666 3520 1094 3680 1562 
C 3872 1056 4141 672 4582 269 
C 4941 -64 5190 -237 5741 -531 
C 5888 -192 6035 58 6240 301 
C 5914 429 5760 499 5581 602 
C 5293 762 5011 979 4832 1178 
C 4646 1376 4390 1754 4294 1958 
C 4179 2214 4083 2797 4083 3264 
C 4083 3341 4090 3405 4102 3494 
L 3219 3494 
z
" transform="scale(0.015625)"/>
      <path id="HiraginoSans-W7-95a2" d="M 4371 992 
C 4589 992 4710 986 4870 966 
L 4870 1645 
C 4742 1626 4608 1619 4378 1619 
L 3507 1619 
C 3514 1728 3520 1773 3526 1920 
L 4352 1920 
C 4538 1920 4653 1914 4768 1901 
L 4768 2554 
C 4646 2534 4538 2528 4346 2528 
L 4186 2528 
C 4294 2707 4339 2778 4422 2950 
L 3680 3078 
C 3584 2829 3533 2720 3424 2528 
L 2982 2528 
C 2867 2758 2784 2893 2650 3085 
L 1946 2931 
C 2080 2752 2138 2669 2221 2528 
L 2054 2528 
C 1862 2528 1766 2534 1651 2554 
L 1651 1901 
C 1773 1914 1882 1920 2074 1920 
L 2771 1920 
C 2771 1754 2765 1715 2758 1619 
L 2029 1619 
C 1805 1619 1677 1626 1542 1645 
L 1542 960 
C 1709 979 1888 992 2086 992 
L 2598 992 
C 2477 800 2355 678 2144 557 
C 1952 435 1779 378 1395 275 
C 1574 70 1677 -96 1811 -384 
C 2509 -160 2893 109 3194 582 
C 3494 237 3923 -51 4384 -218 
C 4429 -64 4442 -19 4493 102 
C 4550 -96 4582 -230 4608 -486 
C 4851 -493 4851 -493 4922 -493 
C 5792 -493 5952 -371 5952 314 
L 5952 4531 
C 5952 4858 5958 5018 5978 5254 
C 5805 5235 5651 5229 5325 5229 
L 4000 5229 
C 3667 5229 3520 5235 3347 5254 
C 3360 5069 3366 4896 3366 4659 
L 3366 3693 
C 3366 3398 3366 3283 3354 3123 
C 3552 3130 3706 3136 3910 3136 
L 5146 3136 
L 5146 429 
C 5146 288 5114 269 4902 269 
C 4806 269 4730 275 4576 294 
C 4621 390 4640 422 4698 525 
C 4237 627 3974 749 3686 992 
L 4371 992 
z
M 4128 4678 
L 5146 4678 
L 5146 4422 
L 4128 4422 
L 4128 4678 
z
M 4128 3923 
L 5146 3923 
L 5146 3674 
L 4128 3674 
L 4128 3923 
z
M 1280 3142 
L 2438 3142 
C 2637 3142 2848 3136 2995 3130 
C 2989 3251 2982 3386 2982 3693 
L 2982 4659 
C 2982 4915 2989 5069 3002 5254 
C 2835 5235 2688 5229 2349 5229 
L 1101 5229 
C 781 5229 621 5235 448 5254 
C 467 5050 474 4870 474 4525 
L 474 294 
C 474 -122 461 -333 435 -531 
L 1318 -531 
C 1293 -339 1280 -115 1280 275 
L 1280 3142 
z
M 1280 4678 
L 2234 4678 
L 2234 4422 
L 1280 4422 
L 1280 4678 
z
M 1280 3923 
L 2234 3923 
L 2234 3674 
L 1280 3674 
L 1280 3923 
z
" transform="scale(0.015625)"/>
      <path id="HiraginoSans-W7-6570" d="M 6246 4403 
C 6099 4378 5952 4371 5638 4371 
L 4621 4371 
C 4678 4582 4691 4614 4723 4749 
C 4813 5114 4845 5235 4858 5280 
L 4026 5440 
C 4026 5344 3994 5094 3949 4883 
C 3757 3910 3456 3219 3002 2707 
C 3168 2554 3277 2432 3430 2208 
C 3328 2195 3200 2189 3021 2189 
L 2080 2189 
C 2125 2291 2144 2330 2202 2458 
L 1408 2598 
C 1338 2400 1312 2323 1261 2189 
L 806 2189 
C 563 2189 429 2195 282 2221 
L 282 1459 
C 435 1485 576 1491 806 1491 
L 928 1491 
C 787 1254 717 1146 499 864 
C 954 704 1120 634 1427 499 
C 1062 294 762 198 230 122 
C 397 -109 512 -307 621 -582 
C 1286 -422 1722 -218 2150 141 
C 2451 -26 2528 -77 2765 -262 
L 2976 77 
C 3149 -102 3283 -294 3411 -576 
C 3910 -307 4339 26 4730 461 
C 5075 32 5459 -301 5901 -563 
C 6035 -237 6157 -19 6342 243 
C 5894 467 5530 755 5216 1139 
C 5606 1843 5779 2509 5862 3635 
C 6074 3629 6125 3629 6246 3610 
L 6246 4403 
z
M 3206 454 
C 2963 589 2874 640 2675 730 
C 2842 986 2925 1171 3021 1491 
C 3238 1491 3392 1478 3514 1466 
L 3514 2099 
C 3654 2266 3686 2310 3789 2477 
C 3904 1946 4032 1587 4275 1139 
C 3942 749 3571 461 3046 198 
L 3206 454 
z
M 5069 3635 
C 5037 2938 4934 2400 4736 1907 
C 4486 2451 4397 2771 4294 3437 
C 4326 3520 4339 3552 4371 3635 
L 5069 3635 
z
M 2234 1491 
C 2170 1299 2118 1184 2003 1024 
C 1862 1082 1779 1107 1542 1190 
C 1638 1344 1664 1389 1722 1491 
L 2234 1491 
z
M 2995 4269 
L 2342 4269 
L 2342 4992 
C 2342 5184 2349 5293 2368 5408 
L 1555 5408 
C 1574 5286 1581 5178 1581 4979 
L 1581 4269 
L 851 4269 
C 602 4269 461 4275 301 4294 
L 301 3590 
C 454 3610 621 3616 851 3616 
L 1120 3616 
C 864 3322 595 3130 154 2925 
C 384 2682 467 2566 614 2304 
C 1069 2605 1229 2758 1587 3213 
C 1581 3110 1574 3002 1574 2950 
L 1574 2765 
C 1574 2707 1568 2643 1555 2579 
L 2355 2579 
C 2342 2650 2342 2726 2342 2797 
L 2342 2976 
C 2342 3014 2330 3142 2323 3213 
C 2502 2944 2541 2906 2854 2643 
C 2989 2906 3078 3040 3245 3245 
C 3014 3366 2874 3469 2733 3616 
L 3091 3616 
C 3290 3616 3411 3610 3494 3597 
L 3494 4288 
C 3418 4275 3296 4269 3098 4269 
L 3053 4269 
C 3238 4550 3309 4685 3520 5107 
L 2842 5382 
C 2733 5082 2598 4838 2394 4544 
L 2995 4269 
z
M 397 5094 
C 602 4832 723 4627 870 4282 
L 1523 4563 
C 1376 4883 1280 5043 1037 5363 
L 397 5094 
z
" transform="scale(0.015625)"/>
      <path id="HiraginoSans-W7-ff1a" d="M 3757 4326 
L 2650 4326 
L 2650 3219 
L 3757 3219 
L 3757 4326 
z
M 3757 538 
L 3757 1645 
L 2650 1645 
L 2650 538 
L 3757 538 
z
" transform="scale(0.015625)"/>
      <path id="HiraginoSans-W7-306e" d="M 3776 4038 
C 4032 4006 4186 3955 4371 3834 
C 4806 3546 5056 3066 5056 2496 
C 5056 1818 4723 1222 4173 922 
C 3872 762 3475 659 2906 614 
C 3155 282 3245 109 3379 -294 
C 3834 -218 4090 -154 4397 -32 
C 5421 371 6003 1274 6003 2438 
C 6003 3936 4979 4896 3373 4896 
C 2458 4896 1670 4576 1120 3974 
C 653 3469 403 2803 403 2074 
C 403 973 966 198 1760 198 
C 2310 198 2733 576 3091 1389 
C 3424 2131 3648 2982 3776 4038 
z
M 2842 4026 
C 2765 3341 2566 2534 2330 1965 
C 2125 1446 1926 1197 1741 1197 
C 1491 1197 1286 1587 1286 2067 
C 1286 2707 1587 3328 2074 3706 
C 2323 3898 2534 3987 2842 4026 
z
" transform="scale(0.015625)"/>
      <path id="HiraginoSans-W7-5f0f" d="M 5363 4365 
L 5875 4717 
C 5542 5043 5427 5146 5171 5338 
L 4576 4947 
C 4813 4774 5018 4589 5216 4365 
L 4422 4365 
C 4416 4832 4416 4832 4416 4877 
C 4416 5037 4422 5190 4442 5331 
L 3539 5331 
C 3552 5216 3571 5030 3571 4870 
C 3578 4640 3578 4640 3584 4365 
L 1114 4365 
C 787 4365 538 4378 326 4403 
L 326 3565 
C 576 3590 826 3603 1114 3603 
L 3616 3603 
C 3674 2605 3782 1914 3981 1267 
C 4128 806 4378 294 4614 0 
C 4845 -288 5146 -480 5376 -480 
C 5568 -480 5741 -365 5869 -166 
C 6042 102 6144 461 6234 1094 
C 5965 1216 5798 1312 5542 1510 
C 5472 915 5389 544 5331 544 
C 5254 544 5011 934 4858 1299 
C 4634 1850 4512 2547 4448 3603 
L 5293 3603 
C 5619 3603 5882 3590 6080 3565 
L 6080 4397 
C 5933 4371 5766 4365 5459 4365 
L 5363 4365 
z
M 1568 2163 
L 1568 698 
C 870 602 576 570 326 570 
L 454 -288 
C 589 -256 646 -250 877 -218 
C 1696 -96 2470 58 3654 339 
L 3654 1114 
C 3085 973 2842 915 2394 832 
L 2394 2163 
L 2752 2163 
C 2995 2163 3226 2157 3424 2138 
L 3424 2925 
C 3264 2906 3027 2893 2739 2893 
L 1242 2893 
C 954 2893 704 2906 550 2925 
L 550 2138 
C 749 2150 979 2163 1222 2163 
L 1568 2163 
z
" transform="scale(0.015625)"/>
     </defs>
     <use xlink:href="#HiraginoSans-W7-4e00"/>
     <use xlink:href="#HiraginoSans-W7-6b21" transform="translate(99.999985 0)"/>
     <use xlink:href="#HiraginoSans-W7-95a2" transform="translate(199.999969 0)"/>
     <use xlink:href="#HiraginoSans-W7-6570" transform="translate(299.999954 0)"/>
     <use xlink:href="#HiraginoSans-W7-ff1a" transform="translate(399.999939 0)"/>
     <use xlink:href="#HiraginoSans-W7-76f4" transform="translate(499.999924 0)"/>
     <use xlink:href="#HiraginoSans-W7-7dda" transform="translate(599.999908 0)"/>
     <use xlink:href="#HiraginoSans-W7-306e" transform="translate(699.999893 0)"/>
     <use xlink:href="#HiraginoSans-W7-5f0f" transform="translate(799.999878 0)"/>
    </g>
   </g>
   <g id="PathCollection_1">
    <defs>
     <path id="m5ad5e8803b" d="M 0 6.708204 
C 1.779036 6.708204 3.485448 6.001385 4.743416 4.743416 
C 6.001385 3.485448 6.708204 1.779036 6.708204 0 
C 6.708204 -1.779036 6.001385 -3.485448 4.743416 -4.743416 
C 3.485448 -6.001385 1.779036 -6.708204 0 -6.708204 
C -1.779036 -6.708204 -3.485448 -6.001385 -4.743416 -4.743416 
C -6.001385 -3.485448 -6.708204 -1.779036 -6.708204 0 
C -6.708204 1.779036 -6.001385 3.485448 -4.743416 4.743416 
C -3.485448 6.001385 -1.779036 6.708204 0 6.708204 
z
" style="stroke: #ffffff; stroke-width: 2"/>
    </defs>
    <g clip-path="url(#pb43dd90bc8)">
     <use xlink:href="#m5ad5e8803b" x="149.325" y="375.9725" style="fill: #dc2626; stroke: #ffffff; stroke-width: 2"/>
    </g>
   </g>
   <g id="PathCollection_2">
    <defs>
     <path id="m892a1e95f7" d="M 0 5.477226 
C 1.452577 5.477226 2.845856 4.900111 3.872983 3.872983 
C 4.900111 2.845856 5.477226 1.452577 5.477226 0 
C 5.477226 -1.452577 4.900111 -2.845856 3.872983 -3.872983 
C 2.845856 -4.900111 1.452577 -5.477226 0 -5.477226 
C -1.452577 -5.477226 -2.845856 -4.900111 -3.872983 -3.872983 
C -4.900111 -2.845856 -5.477226 -1.452577 -5.477226 0 
C -5.477226 1.452577 -4.900111 2.845856 -3.872983 3.872983 
C -2.845856 4.900111 -1.452577 5.477226 0 5.477226 
z
" style="stroke: #ffffff; stroke-width: 2"/>
    </defs>
    <g clip-path="url(#pb43dd90bc8)">
     <use xlink:href="#m892a1e95f7" x="263.025" y="290.6975" style="fill: #2563eb; stroke: #ffffff; stroke-width: 2"/>
     <use xlink:href="#m892a1e95f7" x="376.725" y="205.4225" style="fill: #2563eb; stroke: #ffffff; stroke-width: 2"/>
    </g>
   </g>
  </g>
 </g>
 <defs>
  <clipPath id="pb43dd90bc8">
   <rect x="7.2" y="34.8725" width="540.075" height="454.8"/>
  </clipPath>
 </defs>
</svg>
