<?xml version="1.0" encoding="utf-8" standalone="no"?>
<!DOCTYPE svg PUBLIC "-//W3C//DTD SVG 1.1//EN"
  "http://www.w3.org/Graphics/SVG/1.1/DTD/svg11.dtd">
<svg xmlns:xlink="http://www.w3.org/1999/xlink" width="668.175pt" height="496.8725pt" viewBox="0 0 668.175 496.8725" xmlns="http://www.w3.org/2000/svg" version="1.1">
 <metadata>
  <rdf:RDF xmlns:dc="http://purl.org/dc/elements/1.1/" xmlns:cc="http://creativecommons.org/ns#" xmlns:rdf="http://www.w3.org/1999/02/22-rdf-syntax-ns#">
   <cc:Work>
    <dc:type rdf:resource="http://purl.org/dc/dcmitype/StillImage"/>
    <dc:date>2026-02-01T13:03:53.725533</dc:date>
    <dc:format>image/svg+xml</dc:format>
    <dc:creator>
     <cc:Agent>
      <dc:title>Matplotlib v3.10.8, https://matplotlib.org/</dc:title>
     </cc:Agent>
    </dc:creator>
   </cc:Work>
  </rdf:RDF>
 </metadata>
 <defs>
  <style type="text/css">*{stroke-linejoin: round; stroke-linecap: butt}</style>
 </defs>
 <g id="figure_1">
  <g id="patch_1">
   <path d="M 0 496.8725 
L 668.175 496.8725 
L 668.175 0 
L 0 0 
z
" style="fill: #ffffff"/>
  </g>
  <g id="axes_1">
   <g id="line2d_1">
    <path d="M 92.475 262.2725 
L 490.425 91.7225 
" clip-path="url(#pf291f5c308)" style="fill: none; stroke-dasharray: 5.55,2.4; stroke-dashoffset: 0; stroke: #2563eb; stroke-opacity: 0.7; stroke-width: 1.5"/>
   </g>
   <g id="line2d_2">
    <path d="M 92.475 262.2725 
L 490.425 432.8225 
" clip-path="url(#pf291f5c308)" style="fill: none; stroke-dasharray: 5.55,2.4; stroke-dashoffset: 0; stroke: #2563eb; stroke-opacity: 0.7; stroke-width: 1.5"/>
   </g>
   <g id="line2d_3">
    <path d="M 92.475 262.2725 
L 490.425 153.740682 
" clip-path="url(#pf291f5c308)" style="fill: none; stroke-dasharray: 5.55,2.4; stroke-dashoffset: 0; stroke: #7c3aed; stroke-opacity: 0.5; stroke-width: 1.5"/>
   </g>
   <g id="line2d_4">
    <path d="M 92.475 262.2725 
L 490.425 370.804318 
" clip-path="url(#pf291f5c308)" style="fill: none; stroke-dasharray: 5.55,2.4; stroke-dashoffset: 0; stroke: #7c3aed; stroke-opacity: 0.5; stroke-width: 1.5"/>
   </g>
   <g id="line2d_5">
    <path d="M 490.425 91.7225 
L 490.425 432.8225 
" clip-path="url(#pf291f5c308)" style="fill: none; stroke: #374151; stroke-width: 5; stroke-linecap: square"/>
   </g>
   <g id="line2d_6">
    <path d="M 405.15 176.9975 
L 405.15 347.5475 
" clip-path="url(#pf291f5c308)" style="fill: none; stroke: #7c3aed; stroke-opacity: 0.6; stroke-width: 10; stroke-linecap: round"/>
   </g>
   <g id="text_1">
    <!-- スクリーン -->
    <g style="fill: #374151" transform="translate(507.48 100.434844) scale(0.11 -0.11)">
     <defs>
      <path id="HiraginoSans-W7-30b9" d="M 6042 493 
C 4947 1536 4787 1677 3962 2266 
C 4333 2771 4621 3290 4928 4006 
C 5005 4192 5056 4275 5139 4365 
L 4646 4877 
C 4493 4806 4461 4800 4109 4800 
L 1926 4762 
C 1882 4762 1830 4762 1805 4762 
C 1408 4762 1229 4768 1024 4800 
L 1037 3827 
C 1280 3866 1402 3872 1933 3885 
L 3802 3917 
C 3654 3590 3546 3360 3462 3219 
C 3053 2502 2490 1882 1786 1370 
C 1306 1018 928 813 365 589 
C 678 262 768 141 979 -262 
C 1952 211 2797 845 3366 1523 
C 4083 966 4723 339 5267 -339 
L 6042 493 
z
" transform="scale(0.015625)"/>
      <path id="HiraginoSans-W7-30af" d="M 2419 5357 
C 2387 5133 2298 4890 2112 4544 
C 1690 3738 1184 3162 435 2643 
C 813 2413 928 2317 1197 1990 
C 1786 2451 2285 3002 2675 3622 
L 4493 3642 
C 3968 2029 2970 1024 1242 352 
C 1581 45 1690 -83 1901 -474 
C 2918 -6 3648 512 4224 1171 
C 4781 1805 5229 2669 5536 3667 
C 5613 3923 5638 3981 5702 4083 
L 5235 4544 
C 5114 4499 4986 4480 4774 4474 
L 3110 4454 
C 3181 4595 3206 4653 3264 4781 
C 3354 4986 3418 5114 3450 5158 
L 2419 5357 
z
" transform="scale(0.015625)"/>
      <path id="HiraginoSans-W7-30ea" d="M 1203 5094 
C 1229 4864 1235 4717 1235 4224 
L 1235 2982 
C 1235 2560 1222 2323 1197 2086 
L 2246 2086 
C 2227 2259 2214 2573 2214 2970 
L 2214 4224 
C 2214 4646 2227 4883 2253 5094 
L 1203 5094 
z
M 4128 5088 
C 4160 4826 4166 4710 4166 4224 
L 4166 3616 
C 4166 2989 4141 2458 4096 2202 
C 3994 1606 3706 1235 3117 922 
C 2765 736 2432 627 1869 512 
C 2182 147 2266 6 2419 -403 
C 3008 -237 3347 -102 3706 102 
C 4416 506 4845 1024 5024 1715 
C 5126 2106 5152 2496 5152 3558 
L 5152 4237 
C 5152 4723 5158 4858 5184 5088 
L 4128 5088 
z
" transform="scale(0.015625)"/>
      <path id="HiraginoSans-W7-30fc" d="M 410 1914 
C 659 1939 1024 1952 1581 1952 
L 4813 1952 
C 5312 1952 5734 1939 5990 1920 
L 5990 2970 
C 5696 2931 5466 2925 4819 2925 
L 1581 2925 
C 928 2925 698 2938 410 2976 
L 410 1914 
z
" transform="scale(0.015625)"/>
      <path id="HiraginoSans-W7-30f3" d="M 678 4083 
C 1293 3744 1830 3322 2362 2758 
L 3008 3597 
C 2496 4070 2131 4339 1306 4838 
L 678 4083 
z
M 986 -179 
C 1120 -134 1158 -122 1306 -90 
C 1427 -64 1427 -64 1587 -32 
C 2202 102 2938 365 3450 634 
C 4563 1222 5318 2067 5952 3437 
C 5555 3718 5440 3827 5139 4179 
C 4954 3680 4781 3334 4493 2906 
C 3994 2157 3424 1677 2611 1338 
C 2022 1082 1293 909 704 870 
L 986 -179 
z
" transform="scale(0.015625)"/>
     </defs>
     <use xlink:href="#HiraginoSans-W7-30b9"/>
     <use xlink:href="#HiraginoSans-W7-30af" transform="translate(99.999985 0)"/>
     <use xlink:href="#HiraginoSans-W7-30ea" transform="translate(199.999969 0)"/>
     <use xlink:href="#HiraginoSans-W7-30fc" transform="translate(299.999954 0)"/>
     <use xlink:href="#HiraginoSans-W7-30f3" transform="translate(399.999939 0)"/>
    </g>
    <!-- （画面） -->
    <g style="fill: #374151" transform="translate(507.48 113.189344) scale(0.11 -0.11)">
     <defs>
      <path id="HiraginoSans-W7-ff08" d="M 6240 -589 
C 5830 -26 5658 256 5491 666 
C 5274 1197 5152 1837 5152 2432 
C 5152 3027 5274 3667 5491 4198 
C 5658 4608 5830 4890 6240 5453 
L 5197 5453 
C 4845 4902 4691 4621 4538 4211 
C 4320 3648 4205 3034 4205 2432 
C 4205 1830 4320 1216 4538 653 
C 4691 243 4845 -38 5197 -589 
L 6240 -589 
z
" transform="scale(0.015625)"/>
      <path id="HiraginoSans-W7-753b" d="M 2797 4480 
L 2797 4006 
L 2118 4006 
C 1869 4006 1734 4013 1594 4032 
C 1613 3885 1619 3757 1619 3546 
L 1619 1242 
C 1619 986 1613 909 1600 762 
C 1677 768 1869 781 1920 781 
L 4480 781 
C 4531 781 4717 768 4794 762 
C 4781 896 4774 973 4774 1242 
L 4774 3546 
C 4774 3763 4781 3891 4800 4032 
C 4659 4013 4525 4006 4282 4006 
L 3590 4006 
L 3590 4480 
L 5286 4480 
C 5568 4480 5869 4467 6125 4442 
L 6125 5267 
C 5850 5242 5581 5229 5280 5229 
L 1101 5229 
C 787 5229 525 5242 275 5267 
L 275 4442 
C 550 4467 819 4480 1114 4480 
L 2797 4480 
z
M 2822 3296 
L 2822 2765 
L 2336 2765 
L 2336 3296 
L 2822 3296 
z
M 2822 2086 
L 2822 1472 
L 2336 1472 
L 2336 2086 
L 2822 2086 
z
M 3552 1472 
L 3552 2086 
L 4070 2086 
L 4070 1472 
L 3552 1472 
z
M 3552 2765 
L 3552 3296 
L 4070 3296 
L 4070 2765 
L 3552 2765 
z
M 5114 3942 
C 5133 3789 5139 3667 5139 3411 
L 5139 448 
L 1254 448 
L 1254 3398 
C 1254 3686 1261 3814 1280 3942 
L 416 3942 
C 442 3680 454 3456 454 3213 
L 454 320 
C 454 -13 442 -282 410 -570 
L 1274 -570 
L 1274 -294 
L 5114 -294 
L 5114 -570 
L 5978 -570 
C 5946 -262 5933 13 5933 333 
L 5933 3194 
C 5933 3411 5946 3706 5971 3942 
L 5114 3942 
z
" transform="scale(0.015625)"/>
      <path id="HiraginoSans-W7-9762" d="M 1242 3923 
C 902 3923 691 3930 486 3949 
C 512 3686 525 3450 525 3123 
L 525 326 
C 525 -77 518 -307 486 -582 
L 1338 -582 
L 1338 -307 
L 5101 -307 
L 5101 -589 
L 5946 -589 
C 5926 -320 5914 -26 5914 320 
L 5914 3117 
C 5914 3507 5920 3706 5946 3949 
C 5734 3930 5549 3923 5197 3923 
L 3373 3923 
C 3443 4058 3552 4288 3597 4403 
C 3610 4435 3610 4435 3616 4454 
L 5293 4454 
C 5626 4454 5875 4442 6131 4422 
L 6131 5248 
C 5875 5222 5600 5210 5293 5210 
L 1114 5210 
C 794 5210 550 5222 288 5248 
L 288 4422 
C 525 4442 794 4454 1126 4454 
L 2669 4454 
C 2598 4250 2522 4090 2426 3923 
L 1242 3923 
z
M 3718 3213 
L 3718 2746 
L 2688 2746 
L 2688 3213 
L 3718 3213 
z
M 4486 3213 
L 5101 3213 
L 5101 435 
L 4486 435 
L 4486 3213 
z
M 3718 435 
L 2688 435 
L 2688 941 
L 3718 941 
L 3718 435 
z
M 1926 435 
L 1338 435 
L 1338 3213 
L 1926 3213 
L 1926 435 
z
M 2688 2074 
L 3718 2074 
L 3718 1613 
L 2688 1613 
L 2688 2074 
z
" transform="scale(0.015625)"/>
      <path id="HiraginoSans-W7-ff09" d="M 1203 -589 
C 1555 -38 1709 243 1862 653 
C 2080 1216 2195 1824 2195 2432 
C 2195 3040 2080 3648 1862 4211 
C 1709 4621 1555 4902 1203 5453 
L 160 5453 
C 570 4890 742 4608 909 4198 
C 1126 3667 1248 3027 1248 2432 
C 1248 1837 1126 1197 909 666 
C 742 256 570 -26 160 -589 
L 1203 -589 
z
" transform="scale(0.015625)"/>
     </defs>
     <use xlink:href="#HiraginoSans-W7-ff08"/>
     <use xlink:href="#HiraginoSans-W7-753b" transform="translate(99.999985 0)"/>
     <use xlink:href="#HiraginoSans-W7-9762" transform="translate(199.999969 0)"/>
     <use xlink:href="#HiraginoSans-W7-ff09" transform="translate(299.999954 0)"/>
    </g>
   </g>
   <g id="line2d_7">
    <path d="M 291.45 176.9975 
L 291.45 347.5475 
" clip-path="url(#pf291f5c308)" style="fill: none; stroke: #2563eb; stroke-width: 10; stroke-linecap: round"/>
   </g>
   <g id="text_2">
    <!-- 近い壁 -->
    <g style="fill: #2563eb" transform="translate(274.95 154.2575) scale(0.11 -0.11)">
     <defs>
      <path id="HiraginoSans-W7-8fd1" d="M 4320 2842 
L 4320 1261 
C 4320 915 4314 736 4288 550 
L 5203 550 
C 5178 704 5165 896 5165 1261 
L 5165 2842 
L 5459 2842 
C 5702 2842 5920 2829 6131 2810 
L 6131 3648 
C 5907 3616 5741 3610 5434 3610 
L 3392 3610 
L 3392 4211 
C 4435 4294 5350 4461 5997 4685 
L 5382 5408 
C 5184 5286 4646 5146 4013 5050 
C 3712 5005 2976 4934 2797 4934 
C 2739 4934 2688 4941 2554 4947 
C 2579 4768 2586 4563 2586 4243 
C 2586 3002 2547 2522 2419 2042 
C 2323 1670 2195 1408 1984 1146 
C 2234 954 2394 806 2643 525 
C 3123 1165 3309 1747 3373 2842 
L 4320 2842 
z
M 294 4749 
C 794 4326 1043 4058 1440 3526 
L 2074 4154 
C 1645 4666 1472 4845 922 5318 
L 294 4749 
z
M 269 2150 
C 448 2176 544 2182 698 2182 
L 1075 2182 
L 1075 941 
C 813 717 397 442 256 390 
C 198 365 198 365 166 352 
L 525 -531 
C 781 -352 954 -218 1011 -166 
C 1312 83 1312 83 1478 218 
C 1997 -326 2451 -454 3885 -454 
C 4410 -454 5594 -429 6093 -410 
C 6138 -77 6189 128 6310 467 
C 5626 390 4877 358 3840 358 
C 2970 358 2637 397 2394 518 
C 2163 627 2029 742 1869 954 
L 1869 2285 
C 1869 2643 1875 2803 1894 2995 
C 1741 2976 1594 2970 1408 2970 
L 794 2970 
C 550 2970 454 2976 269 3002 
L 269 2150 
z
" transform="scale(0.015625)"/>
      <path id="HiraginoSans-W7-3044" d="M 595 4781 
C 614 4634 614 4582 621 4352 
C 659 2413 749 1600 1011 947 
C 1280 282 1658 -58 2125 -58 
C 2714 -58 3130 512 3469 1766 
C 3104 2022 2976 2144 2714 2458 
C 2637 2054 2528 1670 2374 1318 
C 2304 1146 2227 1056 2144 1056 
C 1818 1056 1581 2189 1581 3718 
C 1581 4160 1600 4525 1638 4774 
L 595 4781 
z
M 3808 4134 
C 4205 3642 4512 3098 4730 2496 
C 4954 1888 5094 1197 5120 582 
L 6086 941 
C 5914 2394 5446 3533 4627 4518 
L 3808 4134 
z
" transform="scale(0.015625)"/>
      <path id="HiraginoSans-W7-58c1" d="M 1510 1421 
C 1165 1421 1030 1427 851 1453 
L 851 704 
C 1062 723 1197 730 1510 730 
L 2803 730 
L 2803 339 
L 1075 339 
C 736 339 538 346 320 378 
L 320 -403 
C 557 -378 806 -365 1133 -365 
L 5248 -365 
C 5574 -365 5830 -378 6067 -403 
L 6067 378 
C 5856 346 5670 339 5312 339 
L 3610 339 
L 3610 730 
L 4928 730 
C 5229 730 5363 723 5574 704 
L 5574 1453 
C 5395 1427 5267 1421 4928 1421 
L 3610 1421 
C 3610 1613 3616 1690 3642 1818 
L 3021 1818 
C 3014 1888 3014 2010 3014 2221 
L 3014 2842 
C 3014 3123 3014 3200 3027 3334 
C 2899 3322 2810 3315 2483 3315 
L 1574 3315 
C 1446 3315 1402 3315 1325 3322 
C 1344 3482 1350 3494 1363 3622 
L 2560 3622 
C 2790 3622 2950 3616 3040 3610 
C 3034 3725 3027 3846 3027 4102 
L 3027 4755 
C 3027 4986 3034 5139 3046 5254 
C 2918 5242 2746 5235 2490 5235 
L 1210 5235 
C 954 5235 787 5242 634 5254 
C 653 5094 659 5005 659 4755 
C 659 3546 512 2880 154 2426 
C 378 2234 525 2048 691 1747 
C 928 2074 1024 2272 1184 2746 
L 1184 2285 
C 1184 2016 1178 1907 1165 1747 
C 1357 1760 1485 1766 1715 1766 
L 2560 1766 
C 2630 1766 2675 1766 2778 1760 
C 2797 1651 2803 1568 2803 1421 
L 1510 1421 
z
M 1408 4237 
C 1421 4346 1421 4378 1421 4480 
L 1421 4608 
L 2278 4608 
L 2278 4237 
L 1408 4237 
z
M 1779 2739 
L 2342 2739 
L 2342 2349 
L 1779 2349 
L 1779 2739 
z
M 4166 4998 
L 3776 4998 
C 3552 4998 3360 5011 3213 5030 
L 3213 4333 
C 3315 4346 3366 4346 3526 4352 
C 3610 4154 3661 4000 3706 3808 
L 3590 3808 
C 3354 3808 3270 3814 3136 3827 
L 3136 3123 
C 3302 3142 3430 3149 3629 3149 
L 4179 3149 
L 4179 2797 
L 3738 2797 
C 3494 2797 3430 2797 3258 2816 
L 3258 2118 
C 3424 2138 3539 2144 3725 2144 
L 4179 2144 
L 4179 2106 
C 4179 1901 4173 1773 4147 1619 
L 4992 1619 
C 4966 1741 4954 1894 4954 2106 
L 4954 2144 
L 5478 2144 
C 5722 2144 5779 2138 5946 2118 
L 5946 2816 
C 5798 2797 5741 2797 5491 2797 
L 4954 2797 
L 4954 3149 
L 5606 3149 
C 5850 3149 5965 3142 6131 3123 
L 6131 3834 
C 5997 3814 5856 3808 5651 3808 
L 5414 3808 
C 5491 3981 5549 4141 5613 4352 
C 5837 4352 5901 4346 6022 4333 
L 6022 5030 
C 5869 5011 5670 4998 5446 4998 
L 4941 4998 
L 4941 5050 
C 4941 5222 4954 5306 4979 5408 
L 4141 5408 
C 4160 5306 4166 5203 4166 5056 
L 4166 4998 
z
M 4422 3808 
C 4378 4019 4339 4134 4269 4352 
L 4877 4352 
C 4832 4160 4781 3987 4717 3808 
L 4422 3808 
z
" transform="scale(0.015625)"/>
     </defs>
     <use xlink:href="#HiraginoSans-W7-8fd1"/>
     <use xlink:href="#HiraginoSans-W7-3044" transform="translate(99.999985 0)"/>
     <use xlink:href="#HiraginoSans-W7-58c1" transform="translate(199.999969 0)"/>
    </g>
   </g>
   <g id="text_3">
    <!-- 遠い壁 -->
    <g style="fill: #7c3aed" transform="translate(388.65 154.2575) scale(0.11 -0.11)">
     <defs>
      <path id="HiraginoSans-W7-9060" d="M 5312 1978 
L 5370 1978 
C 5478 1978 5549 1978 5766 1965 
C 5754 2112 5747 2234 5747 2387 
L 5747 2925 
C 5747 3066 5754 3206 5766 3328 
C 5664 3315 5536 3309 5363 3309 
L 2592 3309 
C 2419 3309 2285 3315 2182 3328 
C 2195 3213 2202 3123 2202 2918 
L 2202 2394 
C 2202 2163 2202 2080 2189 1965 
C 2323 1971 2432 1978 2592 1978 
L 3232 1978 
C 2803 1664 2419 1472 1811 1274 
C 1997 1037 2093 883 2214 621 
C 2771 877 3014 1024 3405 1350 
C 3398 1254 3392 1146 3392 1037 
L 3392 896 
C 3392 717 3386 589 3366 474 
L 4198 474 
C 4179 576 4173 691 4173 877 
L 4173 1075 
C 4173 1158 4173 1165 4154 1370 
C 4448 1043 4691 864 5094 666 
C 5306 563 5459 499 5741 416 
C 5235 371 4294 346 3398 346 
C 2720 346 2381 403 2112 576 
C 2010 640 1933 710 1805 883 
L 1805 2438 
C 1805 2771 1805 2848 1824 3034 
C 1677 3014 1523 3008 1344 3008 
L 794 3008 
C 550 3008 435 3014 269 3040 
L 269 2214 
C 442 2240 531 2246 685 2246 
L 998 2246 
L 998 954 
C 640 653 410 506 134 384 
L 493 -486 
C 608 -390 608 -390 646 -365 
C 915 -186 1126 -6 1395 237 
C 1658 -77 1837 -205 2150 -301 
C 2458 -397 2874 -429 3872 -429 
C 4576 -429 5555 -416 6099 -390 
C 6150 -26 6202 173 6317 474 
C 6093 448 6042 442 5875 429 
C 5965 678 6054 858 6227 1107 
C 5837 1178 5690 1210 5408 1318 
C 5587 1434 5792 1594 5952 1728 
L 5312 1978 
z
M 5229 1978 
C 5139 1869 4998 1741 4819 1600 
C 4621 1722 4525 1798 4326 1978 
L 5229 1978 
z
M 2995 2778 
L 4960 2778 
L 4960 2496 
L 2995 2496 
L 2995 2778 
z
M 1856 4166 
L 1856 3514 
C 2048 3533 2176 3539 2464 3539 
L 5517 3539 
C 5798 3539 5939 3533 6125 3514 
L 6125 4211 
C 5952 4186 5811 4179 5523 4179 
L 4294 4179 
L 4294 4429 
L 5229 4429 
C 5498 4429 5626 4422 5824 4403 
L 5824 5107 
C 5606 5088 5408 5075 5165 5075 
L 4294 5075 
C 4294 5242 4307 5338 4326 5427 
L 3469 5427 
C 3488 5338 3494 5242 3501 5075 
L 2778 5075 
C 2451 5075 2304 5082 2099 5107 
L 2099 4403 
C 2285 4422 2419 4429 2701 4429 
L 3501 4429 
L 3501 4179 
L 2458 4179 
C 2189 4179 2048 4186 1894 4205 
L 1946 4256 
C 1466 4813 1274 5011 864 5357 
L 230 4800 
C 659 4422 915 4147 1306 3635 
L 1856 4166 
z
" transform="scale(0.015625)"/>
     </defs>
     <use xlink:href="#HiraginoSans-W7-9060"/>
     <use xlink:href="#HiraginoSans-W7-3044" transform="translate(99.999985 0)"/>
     <use xlink:href="#HiraginoSans-W7-58c1" transform="translate(199.999969 0)"/>
    </g>
   </g>
   <g id="text_4">
    <!-- 視点 -->
    <g style="fill: #dc2626" transform="translate(79.475 302.0675) scale(0.13 -0.13)">
     <defs>
      <path id="HiraginoSans-W7-8996" d="M 4307 1638 
L 4307 -26 
C 4307 -397 4467 -480 5184 -480 
C 5690 -480 5926 -422 6035 -275 
C 6163 -109 6221 211 6253 858 
C 5978 941 5773 1024 5568 1158 
C 5562 710 5542 435 5510 352 
C 5491 288 5427 269 5248 269 
C 5133 269 5088 294 5088 358 
L 5088 1638 
L 5274 1638 
C 5389 1638 5741 1626 5875 1619 
C 5856 1856 5850 1984 5850 2266 
L 5850 4595 
C 5850 4909 5856 5075 5875 5235 
C 5702 5222 5613 5216 5261 5216 
L 3322 5216 
C 2957 5216 2874 5216 2701 5235 
C 2720 5005 2720 4954 2720 4595 
L 2720 2266 
C 2720 2035 2714 1824 2707 1619 
C 3002 1638 3078 1638 3296 1638 
C 3277 1357 3206 1114 3078 902 
C 2874 570 2490 294 2003 122 
C 2246 -147 2362 -301 2509 -576 
C 3066 -339 3482 0 3757 442 
C 3962 774 4032 1037 4083 1638 
L 4307 1638 
z
M 3507 4538 
L 5062 4538 
L 5062 4198 
L 3507 4198 
L 3507 4538 
z
M 3507 3590 
L 5062 3590 
L 5062 3251 
L 3507 3251 
L 3507 3590 
z
M 3507 2643 
L 5062 2643 
L 5062 2291 
L 3507 2291 
L 3507 2643 
z
M 1811 1875 
C 2067 1562 2144 1485 2387 1274 
C 2451 1574 2547 1818 2707 2093 
C 2419 2266 2202 2445 1971 2707 
C 2202 3059 2394 3411 2534 3738 
C 2598 3891 2624 3942 2682 4045 
L 2330 4435 
C 2266 4422 2157 4416 1990 4416 
L 1811 4416 
L 1811 4934 
C 1811 5114 1824 5293 1843 5434 
L 973 5434 
C 992 5267 1005 5101 1005 4941 
L 1005 4416 
L 768 4416 
C 570 4416 416 4422 275 4442 
L 275 3629 
C 474 3648 614 3654 819 3654 
L 1651 3654 
C 1446 3238 1267 2963 992 2669 
C 704 2342 429 2112 70 1894 
C 224 1619 333 1331 397 1037 
C 691 1261 806 1363 1018 1568 
L 1018 147 
C 1018 -147 1011 -320 979 -557 
L 1843 -557 
C 1818 -352 1811 -186 1811 147 
L 1811 1875 
z
" transform="scale(0.015625)"/>
      <path id="HiraginoSans-W7-70b9" d="M 3520 4064 
L 5197 4064 
C 5478 4064 5683 4051 5907 4026 
L 5907 4845 
C 5709 4819 5504 4806 5197 4806 
L 3520 4806 
L 3520 4858 
C 3520 5107 3533 5248 3558 5402 
L 2618 5402 
C 2643 5222 2656 5030 2656 4781 
L 2656 3533 
L 1670 3533 
C 1344 3533 1133 3539 941 3558 
C 960 3373 966 3238 966 3008 
L 966 1722 
C 966 1523 960 1389 947 1229 
C 1120 1242 1293 1248 1530 1248 
L 4845 1248 
C 5082 1248 5254 1242 5440 1229 
C 5427 1363 5421 1510 5421 1734 
L 5421 3008 
C 5421 3238 5427 3398 5446 3558 
C 5280 3539 5069 3533 4717 3533 
L 3520 3533 
L 3520 4064 
z
M 4595 2790 
L 4595 1997 
L 1798 1997 
L 1798 2790 
L 4595 2790 
z
M 947 -563 
C 1318 -32 1434 211 1658 941 
L 909 1190 
C 742 627 563 288 192 -154 
L 947 -563 
z
M 2912 -461 
C 2893 122 2880 275 2758 998 
L 2016 922 
C 2067 493 2093 160 2093 -218 
C 2093 -352 2093 -378 2086 -557 
L 2912 -461 
z
M 4474 -333 
C 4326 198 4224 525 4000 1075 
L 3290 915 
C 3469 403 3571 -6 3674 -570 
L 4474 -333 
z
M 6112 -186 
C 5779 499 5670 691 5344 1203 
L 4627 928 
C 4947 390 5062 147 5306 -544 
L 6112 -186 
z
" transform="scale(0.015625)"/>
     </defs>
     <use xlink:href="#HiraginoSans-W7-8996"/>
     <use xlink:href="#HiraginoSans-W7-70b9" transform="translate(99.999985 0)"/>
    </g>
   </g>
   <g id="patch_2">
    <path d="M 518.85 428.585197 
Q 518.85 262.271804 518.85 95.95841 
" style="fill: none; stroke: #2563eb; stroke-width: 2; stroke-linecap: round"/>
    <path d="M 520.85 424.585197 
L 518.85 428.585197 
L 516.85 424.585197 
" style="fill: none; stroke: #2563eb; stroke-width: 2; stroke-linecap: round"/>
    <path d="M 516.85 99.95841 
L 518.85 95.95841 
L 520.85 99.95841 
" style="fill: none; stroke: #2563eb; stroke-width: 2; stroke-linecap: round"/>
   </g>
   <g id="text_5">
    <!-- 大きい！ -->
    <g style="fill: #2563eb" transform="translate(544.617344 284.2725) rotate(-90) scale(0.11 -0.11)">
     <defs>
      <path id="HiraginoSans-W7-5927" d="M 5190 3085 
C 5562 3085 5760 3078 6035 3046 
L 6035 3974 
C 5798 3949 5562 3936 5184 3936 
L 3597 3936 
C 3603 4154 3610 4205 3610 4378 
C 3616 4998 3616 5050 3654 5286 
L 2656 5286 
C 2688 5107 2701 4915 2701 4602 
C 2701 4384 2694 4211 2688 3936 
L 1210 3936 
C 813 3936 582 3949 358 3974 
L 358 3046 
C 589 3078 774 3085 1210 3085 
L 2611 3085 
C 2477 2125 2067 1440 1267 864 
C 934 621 666 480 179 288 
C 422 6 570 -218 710 -525 
C 1402 -218 1862 96 2349 602 
C 2771 1043 3053 1491 3245 2042 
C 3456 1542 3712 1133 4077 723 
C 4538 198 5011 -160 5728 -525 
C 5914 -134 6035 58 6285 352 
C 5536 653 5050 973 4582 1478 
C 4128 1965 3808 2509 3642 3085 
L 5190 3085 
z
" transform="scale(0.015625)"/>
      <path id="HiraginoSans-W7-304d" d="M 883 3661 
C 992 3667 1043 3667 1139 3667 
C 2163 3680 2374 3686 3034 3750 
C 3066 3674 3078 3654 3136 3526 
C 3181 3430 3200 3392 3238 3322 
C 2611 3238 2080 3206 1408 3206 
C 1075 3206 973 3213 794 3238 
L 826 2419 
C 941 2432 992 2432 1107 2438 
C 2362 2477 2989 2515 3578 2598 
C 3616 2541 3616 2541 3661 2464 
C 3763 2298 3770 2285 3846 2176 
C 3923 2067 3936 2054 3974 2010 
C 3661 2080 3334 2112 2938 2112 
C 2394 2112 1990 2042 1632 1882 
C 1184 1690 896 1293 896 870 
C 896 621 986 371 1139 186 
C 1440 -192 2067 -384 2970 -384 
C 3558 -384 4147 -314 4717 -173 
C 4966 -109 4979 -109 5152 -77 
L 5018 851 
C 4582 627 3680 442 3008 442 
C 2790 442 2502 467 2349 499 
C 2061 570 1914 691 1914 877 
C 1914 1197 2349 1376 3149 1376 
C 3738 1376 4141 1299 4557 1101 
L 5306 1542 
C 4864 2067 4781 2182 4461 2720 
C 4589 2746 4614 2752 4909 2810 
C 5344 2906 5600 2957 5683 2970 
L 5606 3789 
C 5261 3661 4883 3571 4109 3430 
C 4006 3642 4000 3654 3910 3859 
C 4115 3885 4678 4000 5434 4160 
L 5357 4960 
C 4922 4813 4269 4678 3629 4589 
C 3475 4973 3424 5139 3398 5312 
L 2445 5184 
C 2496 5094 2515 5050 2579 4890 
C 2624 4781 2650 4717 2662 4698 
C 2726 4544 2726 4544 2746 4493 
C 2490 4461 1894 4435 1523 4435 
C 1254 4435 1037 4442 838 4461 
L 883 3661 
z
" transform="scale(0.015625)"/>
      <path id="HiraginoSans-W7-ff01" d="M 3648 1350 
C 3642 1510 3635 1574 3635 1645 
C 3635 1722 3635 1722 3654 2112 
L 3763 4218 
C 3776 4550 3802 4851 3827 5037 
L 2579 5037 
C 2605 4819 2630 4506 2643 4218 
L 2752 2112 
C 2771 1734 2771 1734 2771 1651 
C 2771 1581 2765 1510 2758 1350 
L 3648 1350 
z
M 3750 -173 
L 3750 864 
L 2656 864 
L 2656 -173 
L 3750 -173 
z
" transform="scale(0.015625)"/>
     </defs>
     <use xlink:href="#HiraginoSans-W7-5927"/>
     <use xlink:href="#HiraginoSans-W7-304d" transform="translate(99.999985 0)"/>
     <use xlink:href="#HiraginoSans-W7-3044" transform="translate(199.999969 0)"/>
     <use xlink:href="#HiraginoSans-W7-ff01" transform="translate(299.999954 0)"/>
    </g>
   </g>
   <g id="patch_3">
    <path d="M 564.33 366.571037 
Q 564.33 262.273157 564.33 157.975277 
" style="fill: none; stroke: #7c3aed; stroke-width: 2; stroke-linecap: round"/>
    <path d="M 566.33 362.571037 
L 564.33 366.571037 
L 562.33 362.571037 
" style="fill: none; stroke: #7c3aed; stroke-width: 2; stroke-linecap: round"/>
    <path d="M 562.33 161.975277 
L 564.33 157.975277 
L 566.33 161.975277 
" style="fill: none; stroke: #7c3aed; stroke-width: 2; stroke-linecap: round"/>
   </g>
   <g id="text_6">
    <!-- 小さい -->
    <g style="fill: #7c3aed" transform="translate(589.305312 277.2725) rotate(-90) scale(0.1 -0.1)">
     <defs>
      <path id="HiraginoSans-W7-5c0f" d="M 2720 5331 
C 2752 5133 2765 4838 2765 4493 
L 2765 518 
C 2765 397 2701 365 2490 365 
C 2246 365 1997 384 1600 435 
C 1741 115 1805 -102 1843 -429 
C 2118 -448 2426 -461 2650 -461 
C 3027 -461 3245 -422 3392 -333 
C 3584 -211 3674 6 3674 346 
L 3674 4486 
C 3674 4845 3686 5120 3718 5331 
L 2720 5331 
z
M 4269 3802 
C 4384 3309 4448 3034 4467 2976 
C 4730 2042 5050 1344 5555 608 
C 5773 832 6016 1011 6323 1184 
C 5946 1683 5683 2182 5446 2822 
C 5299 3226 5178 3661 5146 3923 
C 5139 3949 5133 3994 5126 4045 
L 4269 3802 
z
M 1190 4032 
C 1094 2995 717 1978 115 1120 
C 384 986 614 826 909 582 
C 1293 1216 1453 1549 1677 2189 
C 1792 2522 1914 2976 2003 3405 
C 2042 3590 2042 3590 2054 3622 
C 2080 3725 2080 3725 2093 3795 
L 1190 4032 
z
" transform="scale(0.015625)"/>
      <path id="HiraginoSans-W7-3055" d="M 838 3238 
C 954 3251 1005 3258 1139 3258 
C 2259 3283 2726 3315 3405 3405 
C 3430 3354 3430 3354 3488 3251 
C 3571 3072 3610 3008 3712 2842 
C 3859 2592 3859 2592 4006 2387 
C 3712 2490 3379 2541 2963 2541 
C 2214 2541 1651 2368 1280 2022 
C 1005 1766 858 1434 858 1082 
C 858 736 1011 390 1280 141 
C 1619 -166 2266 -333 3123 -333 
C 3648 -333 4173 -269 4666 -141 
C 4973 -64 4973 -64 5203 -6 
L 5082 966 
C 4582 704 3808 538 3117 538 
C 2605 538 2195 627 2010 774 
C 1901 858 1843 992 1843 1126 
C 1843 1523 2317 1754 3123 1754 
C 3494 1754 3814 1709 4090 1613 
C 4275 1549 4378 1485 4538 1331 
L 5427 1715 
C 5229 1990 4947 2413 4762 2714 
C 4691 2835 4544 3104 4320 3526 
C 4800 3610 4800 3610 5184 3693 
C 5530 3763 5530 3763 5683 3782 
L 5581 4691 
C 5210 4557 4710 4442 4006 4326 
C 3814 4787 3738 5030 3693 5293 
L 2707 5171 
C 2765 5050 2982 4518 3098 4218 
C 2586 4160 1901 4115 1453 4115 
C 1210 4115 947 4128 768 4147 
L 838 3238 
z
" transform="scale(0.015625)"/>
     </defs>
     <use xlink:href="#HiraginoSans-W7-5c0f"/>
     <use xlink:href="#HiraginoSans-W7-3055" transform="translate(99.999985 0)"/>
     <use xlink:href="#HiraginoSans-W7-3044" transform="translate(199.999969 0)"/>
    </g>
   </g>
   <g id="patch_4">
    <path d="M 96.711869 393.0275 
Q 191.963543 393.0275 287.215216 393.0275 
" style="fill: none; stroke: #2563eb; stroke-width: 2; stroke-linecap: round"/>
    <path d="M 100.711869 395.0275 
L 96.711869 393.0275 
L 100.711869 391.0275 
" style="fill: none; stroke: #2563eb; stroke-width: 2; stroke-linecap: round"/>
    <path d="M 283.215216 391.0275 
L 287.215216 393.0275 
L 283.215216 395.0275 
" style="fill: none; stroke: #2563eb; stroke-width: 2; stroke-linecap: round"/>
   </g>
   <g id="text_7">
    <!-- 距離 D_1（近い） -->
    <g style="fill: #2563eb" transform="translate(145.729844 410.0825) scale(0.11 -0.11)">
     <defs>
      <path id="HiraginoSans-W7-8ddd" d="M 1446 563 
C 1382 544 1382 544 1171 506 
L 1171 2080 
C 1171 2323 1178 2470 1197 2630 
L 435 2630 
C 467 2426 474 2259 474 2022 
L 474 378 
C 365 358 269 352 160 346 
L 282 -512 
C 378 -474 525 -435 672 -403 
C 1677 -173 2112 -51 2893 192 
L 2886 947 
C 2534 838 2419 806 2195 742 
L 2195 1632 
L 2374 1632 
C 2598 1632 2707 1626 2874 1606 
L 2874 2374 
C 2733 2349 2618 2342 2374 2342 
L 2195 2342 
L 2195 3021 
L 2298 3021 
C 2707 3014 2707 3014 2803 3008 
C 2790 3136 2790 3219 2790 3654 
L 2790 4570 
C 2790 4883 2797 5062 2810 5222 
C 2618 5203 2470 5197 2176 5197 
L 1050 5197 
C 781 5197 627 5203 416 5222 
C 435 5030 442 4851 442 4525 
L 442 3680 
C 442 3347 435 3168 416 3002 
C 602 3014 749 3021 1005 3021 
L 1446 3021 
L 1446 563 
z
M 1229 4467 
L 2022 4467 
L 2022 3731 
L 1229 3731 
L 1229 4467 
z
M 3910 1350 
L 5267 1350 
C 5517 1350 5690 1344 5888 1325 
C 5875 1478 5869 1632 5869 1990 
L 5869 3059 
C 5869 3328 5875 3520 5894 3712 
C 5702 3693 5536 3686 5261 3686 
L 3910 3686 
L 3910 4416 
L 5414 4416 
C 5670 4416 5901 4403 6125 4384 
L 6125 5235 
C 5926 5210 5722 5197 5382 5197 
L 3763 5197 
C 3475 5197 3251 5203 3072 5222 
C 3078 5101 3078 5101 3091 4550 
L 3091 250 
C 3091 -83 3078 -371 3053 -576 
L 3910 -576 
L 3910 -282 
L 5440 -282 
C 5747 -282 5958 -294 6170 -320 
L 6170 544 
C 5958 518 5715 506 5427 506 
L 3910 506 
L 3910 1350 
z
M 3910 2112 
L 3910 2918 
L 5075 2918 
L 5075 2112 
L 3910 2112 
z
" transform="scale(0.015625)"/>
      <path id="HiraginoSans-W7-96e2" d="M 1114 256 
C 1171 269 1190 275 1248 288 
C 1651 358 2016 442 2214 499 
C 2234 403 2240 371 2253 256 
L 2586 403 
L 2586 256 
C 2586 134 2554 122 2317 122 
C 2221 122 2048 134 1875 154 
C 1965 -96 1997 -269 2010 -506 
C 2125 -506 2214 -506 2272 -506 
C 3098 -506 3264 -397 3264 173 
L 3264 1690 
C 3264 1882 3270 2029 3283 2170 
C 3155 2157 3053 2150 2784 2150 
L 2131 2150 
C 2163 2317 2163 2317 2176 2406 
L 2669 2406 
C 2938 2400 2938 2400 3117 2394 
C 3104 2502 3098 2637 3098 2784 
L 3098 2886 
C 3194 2778 3226 2733 3328 2586 
C 3424 2720 3456 2765 3520 2861 
C 3514 2726 3507 2605 3507 2515 
C 3507 2502 3507 2483 3507 2470 
C 3507 2458 3507 2451 3507 2451 
L 3507 122 
C 3507 -237 3501 -403 3475 -563 
L 4237 -563 
L 4237 -282 
L 5485 -282 
C 5741 -282 5997 -294 6189 -320 
L 6189 493 
C 6016 474 5824 461 5568 461 
L 5402 461 
L 5402 1126 
L 5491 1126 
C 5696 1126 5856 1114 6003 1094 
L 6003 1843 
C 5869 1818 5728 1811 5491 1811 
L 5402 1811 
L 5402 2387 
L 5491 2387 
C 5715 2387 5862 2381 6003 2362 
L 6003 3104 
C 5869 3078 5747 3072 5491 3072 
L 5402 3072 
L 5402 3654 
L 5478 3654 
C 5792 3654 5958 3648 6138 3629 
L 6138 4422 
C 5946 4397 5830 4390 5478 4390 
C 5517 4474 5651 4781 5677 4864 
C 5773 5114 5773 5114 5811 5203 
L 5082 5395 
C 4992 4998 4902 4723 4742 4390 
L 4314 4390 
C 4384 4576 4474 4826 4531 5005 
C 4576 5146 4582 5152 4621 5261 
L 3834 5466 
C 3731 4736 3482 4070 3098 3456 
L 3098 3853 
C 3098 4000 3104 4083 3123 4192 
L 2451 4192 
C 2464 4077 2470 3987 2470 3853 
L 2470 3430 
C 2304 3590 2291 3603 2208 3674 
C 2304 3789 2342 3834 2458 3994 
L 2048 4301 
C 1958 4147 1926 4096 1837 3994 
C 1709 4096 1670 4128 1510 4243 
L 1158 3904 
C 1344 3770 1402 3731 1498 3648 
C 1370 3539 1318 3501 1139 3386 
L 1139 3853 
C 1139 3987 1146 4090 1158 4192 
L 474 4192 
C 486 4045 499 3872 499 3744 
L 499 2874 
C 499 2662 493 2534 474 2394 
C 672 2406 723 2406 947 2406 
L 1491 2406 
C 1472 2278 1472 2253 1453 2150 
L 845 2150 
C 659 2150 518 2157 358 2176 
C 378 1958 384 1779 384 1555 
L 384 134 
C 384 -154 371 -371 346 -557 
L 1139 -557 
C 1120 -410 1114 -224 1114 115 
L 1114 256 
z
M 1082 1530 
L 1395 1530 
C 1331 1242 1280 1056 1216 864 
C 1152 858 1126 858 1082 858 
L 1082 1530 
z
M 2605 1530 
L 2605 787 
C 2522 1056 2477 1158 2355 1408 
L 1952 1267 
C 2016 1133 2029 1094 2080 973 
C 1990 947 1978 947 1779 915 
C 1875 1190 1894 1254 1958 1530 
L 2605 1530 
z
M 4717 2387 
L 4717 1811 
L 4243 1811 
L 4243 2387 
L 4717 2387 
z
M 4717 3072 
L 4243 3072 
L 4243 3654 
L 4717 3654 
L 4717 3072 
z
M 2470 3373 
L 2470 2976 
L 1446 2976 
C 1677 3149 1728 3187 1862 3315 
C 1978 3200 2022 3155 2163 2995 
L 2470 3373 
z
M 1139 2976 
L 1139 3290 
C 1248 3187 1312 3117 1408 2976 
L 1139 2976 
z
M 4243 1126 
L 4717 1126 
L 4717 461 
L 4243 461 
L 4243 1126 
z
M 1421 4954 
L 864 4954 
C 570 4954 403 4960 256 4986 
L 256 4288 
C 410 4314 557 4320 832 4320 
L 2746 4320 
C 2970 4320 3162 4307 3334 4288 
L 3334 4986 
C 3174 4966 2957 4954 2733 4954 
L 2214 4954 
L 2214 5018 
C 2214 5184 2227 5293 2246 5408 
L 1395 5408 
C 1414 5306 1421 5190 1421 5011 
L 1421 4954 
z
" transform="scale(0.015625)"/>
      <path id="HiraginoSans-W7-20" transform="scale(0.015625)"/>
      <path id="HiraginoSans-W7-44" d="M 486 730 
C 486 320 474 122 435 -154 
C 698 -141 870 -134 1306 -134 
L 2560 -134 
C 3315 -134 3878 58 4301 461 
C 4794 941 5050 1638 5050 2515 
C 5050 3354 4806 4019 4339 4474 
C 3923 4877 3341 5069 2554 5069 
L 1306 5069 
C 845 5069 685 5075 429 5088 
C 474 4800 486 4602 486 4205 
L 486 730 
z
M 1542 794 
L 1542 4141 
L 2470 4141 
C 2982 4141 3302 4032 3546 3782 
C 3821 3501 3955 3078 3955 2496 
C 3955 1926 3802 1466 3514 1165 
C 3270 909 2950 794 2477 794 
L 1542 794 
z
" transform="scale(0.015625)"/>
      <path id="HiraginoSans-W7-5f" d="M 0 -723 
L 0 -1126 
L 3213 -1126 
L 3213 -723 
L 0 -723 
z
" transform="scale(0.015625)"/>
      <path id="HiraginoSans-W7-31" d="M 947 4122 
C 1216 4154 1414 4166 1664 4166 
L 1946 4166 
L 1946 762 
C 1946 410 1926 122 1894 -134 
L 3066 -134 
C 3027 160 3014 403 3014 762 
L 3014 4058 
C 3014 4461 3027 4736 3066 5094 
C 2816 5075 2726 5069 2342 5069 
L 1645 5069 
C 1318 5069 1158 5075 947 5107 
L 947 4122 
z
" transform="scale(0.015625)"/>
     </defs>
     <use xlink:href="#HiraginoSans-W7-8ddd"/>
     <use xlink:href="#HiraginoSans-W7-96e2" transform="translate(99.999985 0)"/>
     <use xlink:href="#HiraginoSans-W7-20" transform="translate(199.999969 0)"/>
     <use xlink:href="#HiraginoSans-W7-44" transform="translate(233.299957 0)"/>
     <use xlink:href="#HiraginoSans-W7-5f" transform="translate(316.299942 0)"/>
     <use xlink:href="#HiraginoSans-W7-31" transform="translate(366.499939 0)"/>
     <use xlink:href="#HiraginoSans-W7-ff08" transform="translate(440.59993 0)"/>
     <use xlink:href="#HiraginoSans-W7-8fd1" transform="translate(540.599915 0)"/>
     <use xlink:href="#HiraginoSans-W7-3044" transform="translate(640.599899 0)"/>
     <use xlink:href="#HiraginoSans-W7-ff09" transform="translate(740.599884 0)"/>
    </g>
   </g>
   <g id="patch_5">
    <path d="M 96.710135 427.1375 
Q 248.81415 427.1375 400.918165 427.1375 
" style="fill: none; stroke: #7c3aed; stroke-width: 2; stroke-linecap: round"/>
    <path d="M 100.710135 429.1375 
L 96.710135 427.1375 
L 100.710135 425.1375 
" style="fill: none; stroke: #7c3aed; stroke-width: 2; stroke-linecap: round"/>
    <path d="M 396.918165 425.1375 
L 400.918165 427.1375 
L 396.918165 429.1375 
" style="fill: none; stroke: #7c3aed; stroke-width: 2; stroke-linecap: round"/>
   </g>
   <g id="text_8">
    <!-- 距離 D_2（遠い） -->
    <g style="fill: #7c3aed" transform="translate(202.579844 444.1925) scale(0.11 -0.11)">
     <defs>
      <path id="HiraginoSans-W7-32" d="M 3354 -134 
C 3782 -134 4045 -147 4384 -179 
L 4384 845 
C 4147 806 3846 794 3405 794 
L 1786 794 
C 1869 998 1939 1107 2086 1267 
C 2234 1421 2528 1670 2790 1856 
C 3546 2381 3597 2419 3750 2560 
C 4122 2893 4314 3283 4314 3712 
C 4314 4608 3565 5178 2387 5178 
C 1696 5178 1158 4966 813 4570 
C 570 4275 454 4006 358 3488 
L 1491 3360 
C 1530 3648 1568 3789 1664 3930 
C 1818 4154 2074 4275 2406 4275 
C 2867 4275 3187 4032 3187 3680 
C 3187 3347 3046 3168 2458 2771 
C 1792 2317 1600 2176 1363 1958 
C 941 1574 640 1126 474 627 
C 390 397 352 179 320 -160 
C 563 -134 666 -134 1210 -134 
L 3354 -134 
z
" transform="scale(0.015625)"/>
     </defs>
     <use xlink:href="#HiraginoSans-W7-8ddd"/>
     <use xlink:href="#HiraginoSans-W7-96e2" transform="translate(99.999985 0)"/>
     <use xlink:href="#HiraginoSans-W7-20" transform="translate(199.999969 0)"/>
     <use xlink:href="#HiraginoSans-W7-44" transform="translate(233.299957 0)"/>
     <use xlink:href="#HiraginoSans-W7-5f" transform="translate(316.299942 0)"/>
     <use xlink:href="#HiraginoSans-W7-32" transform="translate(366.499939 0)"/>
     <use xlink:href="#HiraginoSans-W7-ff08" transform="translate(440.59993 0)"/>
     <use xlink:href="#HiraginoSans-W7-9060" transform="translate(540.599915 0)"/>
     <use xlink:href="#HiraginoSans-W7-3044" transform="translate(640.599899 0)"/>
     <use xlink:href="#HiraginoSans-W7-ff09" transform="translate(740.599884 0)"/>
    </g>
   </g>
   <g id="text_9">
    <g id="patch_6">
     <path d="M 177.75 131.0075 
L 405.75 131.0075 
Q 414.15 131.0075 414.15 122.6075 
L 414.15 83.77325 
Q 414.15 75.37325 405.75 75.37325 
L 177.75 75.37325 
Q 169.35 75.37325 169.35 83.77325 
L 169.35 122.6075 
Q 169.35 131.0075 177.75 131.0075 
z
" style="fill: #fffbeb; stroke: #f59e0b; stroke-width: 2; stroke-linejoin: miter"/>
    </g>
    <!-- 見かけの高さ = 実際の高さ ÷ 距離 × P -->
    <g style="fill: #1f2937" transform="translate(177.75 93.0245) scale(0.12 -0.12)">
     <defs>
      <path id="HiraginoSans-W4-898b" d="M 2259 1382 
C 2170 896 2003 627 1645 371 
C 1318 141 979 26 314 -96 
C 442 -256 506 -358 582 -550 
C 1350 -378 1824 -160 2208 211 
C 2534 518 2701 858 2784 1382 
L 3507 1382 
L 3507 102 
C 3507 -314 3686 -390 4653 -390 
C 5882 -390 5958 -320 6093 845 
C 5926 890 5811 941 5613 1050 
C 5549 64 5549 64 4685 64 
C 4058 64 4000 83 4000 275 
L 4000 1382 
L 4557 1382 
C 4877 1382 5094 1376 5261 1363 
C 5235 1549 5229 1734 5229 2035 
L 5229 4250 
C 5229 4608 5242 4941 5261 5088 
C 5069 5069 4851 5056 4582 5056 
L 1818 5056 
C 1549 5056 1344 5062 1146 5088 
C 1165 4947 1178 4634 1178 4250 
L 1178 2035 
C 1178 1741 1171 1562 1146 1363 
C 1338 1376 1510 1382 1856 1382 
L 2259 1382 
z
M 1651 4608 
L 4755 4608 
L 4755 3987 
L 1651 3987 
L 1651 4608 
z
M 1651 3558 
L 4755 3558 
L 4755 2918 
L 1651 2918 
L 1651 3558 
z
M 1651 2490 
L 4755 2490 
L 4755 1811 
L 1651 1811 
L 1651 2490 
z
" transform="scale(0.015625)"/>
      <path id="HiraginoSans-W4-304b" d="M 582 3027 
C 864 3104 1133 3155 1824 3251 
C 1619 2438 1440 1920 1146 1286 
C 928 806 672 358 480 115 
L 1005 -186 
C 1197 173 1331 442 1421 621 
C 1843 1485 2118 2266 2362 3296 
C 2547 3315 2662 3322 2797 3322 
C 3366 3322 3546 3117 3546 2464 
C 3546 1754 3450 1101 3290 717 
C 3206 525 3085 429 2931 429 
C 2707 429 2342 544 1990 717 
C 2016 563 2022 480 2022 358 
C 2022 282 2022 250 2010 141 
C 2426 -26 2707 -96 2976 -96 
C 3283 -96 3469 -13 3629 198 
C 3904 563 4077 1421 4077 2438 
C 4077 2982 3994 3277 3770 3501 
C 3571 3699 3283 3789 2848 3789 
C 2707 3789 2611 3782 2458 3770 
C 2490 3923 2560 4326 2592 4499 
C 2650 4858 2669 4966 2707 5094 
L 2106 5158 
C 2106 5120 2106 5088 2106 5075 
C 2106 4813 2029 4256 1926 3731 
C 1389 3648 749 3578 518 3571 
L 582 3027 
z
M 4346 3942 
C 4954 3309 5395 2496 5632 1574 
L 6138 1843 
C 5850 2765 5446 3462 4806 4173 
L 4346 3942 
z
" transform="scale(0.015625)"/>
      <path id="HiraginoSans-W4-3051" d="M 2419 3162 
C 2458 3162 2490 3162 2509 3162 
C 2534 3162 2573 3162 2624 3155 
C 2925 3136 3194 3130 3379 3130 
C 3667 3130 4064 3149 4314 3168 
C 4320 2995 4320 2810 4320 2662 
C 4320 1702 4205 1229 3885 826 
C 3648 525 3354 307 2906 96 
C 3110 -58 3174 -122 3334 -320 
C 4058 90 4416 467 4621 1030 
C 4787 1478 4845 1914 4845 2758 
C 4845 3072 4845 3072 4838 3219 
C 5120 3258 5248 3283 5517 3347 
C 5722 3392 5747 3398 5862 3418 
L 5830 3962 
C 5594 3853 5293 3770 4826 3699 
C 4806 4237 4800 4576 4794 4717 
C 4787 4838 4787 4870 4787 4909 
C 4787 4973 4787 5018 4800 5120 
L 4218 5114 
C 4250 4915 4256 4819 4301 3648 
C 3968 3616 3782 3610 3514 3610 
C 3021 3610 2675 3635 2419 3699 
L 2419 3162 
z
M 1216 5037 
C 1216 4896 1210 4838 1165 4589 
C 966 3366 915 2880 915 2138 
C 915 1446 992 819 1152 186 
C 1184 64 1190 38 1203 -38 
L 1728 -6 
C 1728 218 1779 442 1914 819 
C 2042 1190 2208 1587 2400 1965 
L 1990 2157 
C 1683 1472 1613 1274 1504 832 
C 1498 947 1485 1126 1478 1242 
C 1446 1587 1434 1888 1434 2163 
C 1434 3059 1613 4326 1824 4960 
L 1216 5037 
z
" transform="scale(0.015625)"/>
      <path id="HiraginoSans-W4-306e" d="M 3053 422 
C 3200 243 3245 160 3328 -96 
C 3821 6 4090 90 4397 237 
C 5293 666 5798 1459 5798 2451 
C 5798 3802 4832 4698 3379 4698 
C 2509 4698 1792 4403 1274 3834 
C 832 3347 589 2707 589 2042 
C 589 1107 1062 422 1709 422 
C 2189 422 2573 806 2938 1645 
C 3238 2323 3469 3264 3578 4205 
C 3891 4186 4070 4141 4294 4032 
C 4902 3738 5242 3174 5242 2477 
C 5242 1734 4870 1107 4230 768 
C 3917 602 3610 512 3053 422 
z
M 3027 4192 
C 2944 3398 2714 2483 2458 1888 
C 2195 1286 1952 992 1702 992 
C 1370 992 1114 1453 1114 2035 
C 1114 2797 1491 3501 2112 3891 
C 2394 4077 2656 4160 3027 4192 
z
" transform="scale(0.015625)"/>
      <path id="HiraginoSans-W4-9ad8" d="M 2899 4838 
L 1043 4838 
C 762 4838 582 4851 384 4877 
L 384 4390 
C 589 4416 762 4422 1024 4422 
L 5357 4422 
C 5626 4422 5798 4416 6003 4390 
L 6003 4877 
C 5811 4851 5626 4838 5357 4838 
L 3392 4838 
L 3392 4954 
C 3392 5114 3405 5242 3430 5376 
L 2861 5376 
C 2886 5242 2899 5107 2899 4954 
L 2899 4838 
z
M 1421 3187 
C 1421 2950 1414 2835 1402 2694 
C 1594 2714 1741 2720 1984 2720 
L 4429 2720 
C 4698 2720 4838 2714 5018 2694 
C 4998 2842 4998 2906 4998 3187 
L 4998 3597 
C 4998 3821 5005 3917 5018 4090 
C 4838 4070 4717 4064 4467 4064 
L 2010 4064 
C 1728 4064 1568 4070 1402 4090 
C 1414 3942 1421 3814 1421 3603 
L 1421 3187 
z
M 1888 3667 
L 4531 3667 
L 4531 3110 
L 1888 3110 
L 1888 3667 
z
M 589 147 
C 589 -109 576 -358 550 -518 
L 1114 -518 
C 1082 -288 1075 -147 1075 154 
L 1075 1952 
L 5331 1952 
L 5331 160 
C 5331 32 5299 13 5107 13 
C 4896 13 4621 32 4365 70 
C 4429 -96 4448 -192 4461 -390 
C 4813 -410 5018 -416 5069 -416 
C 5421 -416 5555 -390 5664 -314 
C 5779 -230 5818 -109 5818 134 
L 5818 1811 
C 5818 2048 5824 2182 5843 2381 
C 5677 2362 5530 2355 5222 2355 
L 1203 2355 
C 934 2355 755 2362 563 2381 
C 582 2202 589 2010 589 1805 
L 589 147 
z
M 4499 1184 
C 4499 1389 4506 1491 4518 1613 
C 4333 1600 4211 1594 3968 1594 
L 2368 1594 
C 2138 1594 2003 1600 1850 1613 
C 1862 1478 1869 1357 1869 1158 
L 1869 486 
C 1869 250 1856 90 1837 -45 
L 2330 -45 
L 2330 301 
L 3942 301 
C 4160 301 4365 294 4518 282 
C 4506 410 4499 506 4499 730 
L 4499 1184 
z
M 2323 1210 
L 4058 1210 
L 4058 685 
L 2323 685 
L 2323 1210 
z
" transform="scale(0.015625)"/>
      <path id="HiraginoSans-W4-3055" d="M 3302 4006 
C 2803 3936 1971 3878 1478 3878 
C 1235 3878 1088 3885 915 3910 
L 954 3360 
C 1050 3373 1075 3379 1210 3379 
C 2035 3392 2893 3456 3482 3546 
C 3520 3475 3526 3462 3590 3334 
C 3789 2957 4032 2541 4173 2349 
C 4269 2214 4269 2214 4307 2163 
C 4013 2304 3565 2374 3008 2374 
C 2477 2374 2080 2291 1728 2099 
C 1312 1875 1050 1478 1050 1069 
C 1050 800 1152 538 1338 339 
C 1638 13 2246 -166 3066 -166 
C 3699 -166 4288 -64 4979 179 
L 4902 762 
C 4410 506 3699 346 3053 346 
C 2131 346 1606 621 1606 1094 
C 1606 1318 1734 1536 1939 1664 
C 2214 1837 2592 1920 3117 1920 
C 3546 1920 3891 1869 4198 1760 
C 4378 1696 4474 1638 4646 1491 
L 5158 1766 
C 4698 2387 4352 2944 4019 3616 
C 4474 3706 4685 3750 5056 3846 
C 5274 3898 5338 3910 5459 3936 
L 5389 4480 
C 5043 4339 4474 4192 3834 4083 
C 3782 4192 3738 4301 3616 4621 
C 3475 4986 3462 5018 3437 5190 
L 2835 5107 
C 2886 5011 2899 4986 3002 4723 
L 3302 4006 
z
" transform="scale(0.015625)"/>
      <path id="HiraginoSans-W4-20" transform="scale(0.015625)"/>
      <path id="HiraginoSans-W4-3d" d="M 333 2720 
L 333 2195 
L 3923 2195 
L 3923 2720 
L 333 2720 
z
M 333 1376 
L 333 851 
L 3923 851 
L 3923 1376 
L 333 1376 
z
" transform="scale(0.015625)"/>
      <path id="HiraginoSans-W4-5b9f" d="M 5376 1382 
C 5626 1382 5798 1370 6003 1344 
L 6003 1843 
C 5837 1811 5677 1805 5395 1805 
L 3245 1805 
C 3290 1997 3302 2099 3328 2355 
L 4614 2355 
C 4896 2355 5011 2349 5171 2323 
L 5171 2784 
C 5005 2758 4909 2752 4614 2752 
L 3360 2752 
C 3373 2893 3373 3008 3386 3258 
L 4666 3258 
C 4947 3258 5094 3251 5280 3226 
L 5280 3693 
C 5120 3667 4954 3661 4666 3661 
L 3392 3661 
C 3398 3942 3405 4045 3430 4147 
L 2880 4147 
C 2906 4013 2912 3923 2912 3661 
L 1734 3661 
C 1453 3661 1286 3667 1126 3693 
L 1126 3226 
C 1299 3251 1459 3258 1734 3258 
L 2912 3258 
C 2906 3059 2899 2995 2886 2752 
L 1747 2752 
C 1453 2752 1350 2758 1184 2784 
L 1184 2323 
C 1338 2349 1466 2355 1747 2355 
L 2861 2355 
C 2835 2118 2816 1978 2771 1805 
L 1043 1805 
C 762 1805 602 1811 435 1843 
L 435 1344 
C 634 1370 826 1382 1062 1382 
L 2624 1382 
C 2432 979 2150 691 1722 454 
C 1325 243 966 128 346 19 
C 493 -186 531 -250 608 -461 
C 1242 -314 1658 -147 2093 128 
C 2547 416 2861 774 3078 1280 
C 3686 384 4454 -109 5824 -467 
C 5901 -275 5978 -128 6093 26 
C 5357 160 4858 333 4397 602 
C 4038 813 3808 1024 3533 1382 
L 5376 1382 
z
M 2899 4736 
L 1171 4736 
C 877 4736 710 4742 506 4762 
C 525 4608 531 4486 531 4314 
L 531 3917 
C 531 3718 525 3603 506 3462 
L 1005 3462 
L 1005 4314 
L 5414 4314 
L 5414 3462 
L 5907 3462 
C 5888 3590 5882 3731 5882 3917 
L 5882 4320 
C 5882 4493 5888 4608 5907 4762 
C 5702 4742 5542 4736 5248 4736 
L 3398 4736 
L 3398 4954 
C 3398 5101 3411 5216 3437 5350 
L 2861 5350 
C 2886 5210 2899 5101 2899 4947 
L 2899 4736 
z
" transform="scale(0.015625)"/>
      <path id="HiraginoSans-W4-969b" d="M 3194 2419 
C 3309 2438 3437 2445 3603 2445 
L 4749 2445 
C 4960 2445 5062 2438 5171 2419 
L 5171 2867 
C 5453 2598 5670 2432 6042 2182 
C 6125 2374 6182 2477 6317 2637 
C 5805 2906 5530 3104 5165 3488 
C 5478 3814 5670 4064 5875 4390 
C 5978 4544 6042 4640 6086 4704 
L 5850 5024 
C 5773 5005 5638 4998 5382 4998 
L 4947 4998 
C 4806 4998 4698 5005 4563 5024 
L 4563 4570 
C 4678 4582 4762 4589 4845 4589 
L 5517 4589 
C 5280 4218 5146 4045 4896 3802 
C 4576 4218 4326 4710 4294 5011 
C 4173 4998 4058 4992 3750 4992 
L 3315 4992 
C 3360 5082 3379 5120 3386 5139 
C 3430 5235 3437 5242 3482 5325 
L 3002 5414 
C 2963 5190 2816 4877 2586 4538 
C 2387 4243 2227 4064 1882 3738 
C 1984 3661 2080 3558 2170 3430 
C 2566 3795 2848 4154 3110 4602 
L 3885 4602 
C 3782 4333 3738 4230 3610 4019 
C 3456 4154 3347 4243 3181 4358 
L 2918 4064 
C 3130 3930 3238 3840 3405 3693 
C 3296 3546 3251 3488 3149 3373 
C 2886 3616 2880 3629 2701 3757 
L 2419 3488 
C 2650 3315 2752 3232 2874 3098 
C 2618 2848 2464 2726 2150 2515 
C 2278 2381 2342 2298 2413 2150 
C 2733 2381 2893 2522 3194 2822 
L 3194 2419 
z
M 3622 2861 
C 3443 2861 3347 2867 3245 2874 
C 3693 3354 3955 3770 4154 4288 
C 4442 3693 4730 3296 5158 2880 
C 5062 2867 4960 2861 4755 2861 
L 3622 2861 
z
M 3923 1504 
L 3923 186 
C 3923 58 3891 26 3738 26 
C 3565 26 3405 38 3059 90 
C 3123 -70 3155 -211 3168 -390 
C 3366 -410 3629 -416 3795 -416 
C 4256 -416 4384 -307 4384 77 
L 4384 1504 
L 5414 1504 
C 5626 1504 5843 1491 6016 1472 
L 6016 1965 
C 5882 1946 5690 1933 5414 1933 
L 3002 1933 
C 2752 1933 2528 1946 2406 1965 
L 2406 1472 
C 2522 1491 2733 1504 2989 1504 
L 3923 1504 
z
M 512 243 
C 512 -51 499 -307 474 -480 
L 992 -480 
C 973 -314 966 -83 966 237 
L 966 4704 
L 1722 4704 
C 1549 4064 1382 3629 1126 3130 
C 1312 2938 1402 2822 1478 2701 
C 1638 2432 1722 2131 1722 1837 
C 1722 1523 1619 1376 1414 1376 
C 1325 1376 1254 1382 1114 1408 
C 1165 1280 1184 1197 1184 1056 
C 1184 973 1184 973 1184 941 
C 1274 934 1312 934 1376 934 
C 1914 934 2150 1203 2150 1805 
C 2150 2317 1997 2701 1594 3174 
C 1837 3706 2042 4198 2195 4672 
C 2227 4755 2246 4806 2291 4877 
L 2054 5158 
C 1971 5139 1850 5133 1658 5133 
L 922 5133 
C 762 5133 602 5139 486 5158 
C 506 5005 512 4858 512 4595 
L 512 243 
z
M 4851 1075 
C 5242 416 5421 205 5958 -262 
C 6074 -77 6118 -19 6259 122 
C 5766 480 5530 749 5248 1274 
L 4851 1075 
z
M 2880 1280 
C 2592 704 2387 461 1843 64 
C 1997 -51 2080 -141 2189 -288 
C 2726 179 2938 442 3290 1075 
L 2880 1280 
z
" transform="scale(0.015625)"/>
      <path id="HiraginoSans-W4-f7" d="M 2125 3437 
C 1894 3437 1715 3258 1715 3034 
C 1715 2810 1901 2624 2125 2624 
C 2349 2624 2528 2803 2528 3034 
C 2528 3258 2349 3437 2125 3437 
z
M 2125 883 
C 1901 883 1715 704 1715 480 
C 1715 256 1901 70 2125 70 
C 2349 70 2528 250 2528 480 
C 2528 704 2349 883 2125 883 
z
M 320 1491 
L 3930 1491 
L 3930 2016 
L 320 2016 
L 320 1491 
z
" transform="scale(0.015625)"/>
      <path id="HiraginoSans-W4-8ddd" d="M 1549 422 
C 1325 365 1325 365 1082 307 
L 1082 1990 
C 1082 2202 1088 2342 1107 2515 
L 614 2515 
C 634 2330 646 2163 646 1965 
L 646 218 
C 448 186 320 166 205 166 
L 320 -365 
C 416 -333 602 -282 768 -243 
C 1638 -26 2176 128 2886 365 
L 2874 819 
C 2509 691 2387 653 1997 538 
L 1997 1754 
L 2304 1754 
C 2534 1754 2669 1747 2848 1722 
L 2848 2214 
C 2694 2182 2560 2176 2310 2176 
L 1997 2176 
L 1997 3072 
L 2208 3072 
C 2445 3072 2598 3066 2726 3053 
C 2714 3181 2714 3296 2714 3674 
L 2714 4467 
C 2714 4749 2720 4954 2733 5101 
C 2541 5075 2374 5069 2125 5069 
L 1165 5069 
C 922 5069 755 5075 570 5101 
C 582 4934 595 4730 595 4448 
L 595 3680 
C 595 3386 589 3219 570 3046 
C 762 3066 902 3072 1107 3072 
L 1549 3072 
L 1549 422 
z
M 1050 4653 
L 2266 4653 
L 2266 3482 
L 1050 3482 
L 1050 4653 
z
M 3648 1485 
L 5235 1485 
C 5440 1485 5574 1478 5779 1466 
C 5766 1606 5766 1709 5766 2022 
L 5766 3046 
C 5766 3270 5773 3411 5786 3590 
C 5626 3571 5472 3565 5216 3565 
L 3648 3565 
L 3648 4608 
L 5414 4608 
C 5658 4608 5862 4595 6054 4570 
L 6054 5107 
C 5862 5075 5677 5062 5402 5062 
L 3757 5062 
C 3488 5062 3309 5069 3142 5082 
C 3155 4922 3168 4678 3168 4448 
L 3168 186 
C 3168 -83 3155 -320 3130 -525 
L 3648 -525 
L 3648 -160 
L 5485 -160 
C 5754 -160 5946 -173 6131 -198 
L 6131 339 
C 5933 307 5734 294 5478 294 
L 3648 294 
L 3648 1485 
z
M 3648 1926 
L 3648 3123 
L 5299 3123 
L 5299 1926 
L 3648 1926 
z
" transform="scale(0.015625)"/>
      <path id="HiraginoSans-W4-96e2" d="M 5178 2630 
L 5376 2630 
C 5632 2630 5818 2618 5946 2598 
L 5946 3072 
C 5811 3046 5683 3040 5376 3040 
L 5178 3040 
L 5178 3917 
L 5434 3917 
C 5766 3917 5952 3910 6086 3891 
L 6086 4378 
C 5933 4346 5779 4339 5434 4339 
L 5197 4339 
C 5312 4570 5421 4813 5523 5062 
C 5536 5101 5555 5152 5587 5222 
L 5126 5357 
C 5030 4960 4922 4672 4755 4339 
L 4070 4339 
C 4147 4525 4198 4646 4275 4858 
C 4390 5184 4390 5184 4435 5293 
L 3949 5421 
C 3821 4666 3456 3821 3027 3302 
L 3027 3846 
C 3027 4019 3034 4134 3053 4262 
L 2605 4262 
C 2624 4141 2630 4006 2630 3846 
L 2630 2861 
L 1043 2861 
L 1043 3846 
C 1043 4006 1050 4122 1069 4269 
L 608 4269 
C 634 4096 640 3955 640 3802 
L 640 2944 
C 640 2726 634 2598 614 2496 
C 819 2509 941 2509 1152 2509 
L 1651 2509 
C 1619 2323 1613 2298 1581 2131 
L 1056 2131 
C 819 2131 653 2138 461 2157 
C 480 1958 486 1779 486 1498 
L 486 218 
C 486 -83 474 -282 454 -461 
L 954 -461 
C 934 -320 928 -173 928 211 
L 928 1760 
L 1498 1760 
C 1408 1376 1344 1146 1242 845 
C 1146 838 1082 832 1037 832 
C 1024 832 998 832 960 838 
L 1050 410 
C 1114 429 1178 442 1267 454 
C 1677 518 1990 582 2304 659 
C 2342 538 2355 486 2400 326 
L 2752 486 
C 2592 954 2509 1158 2317 1517 
L 1990 1389 
C 2093 1197 2118 1146 2189 986 
C 2074 960 1946 934 1645 890 
C 1728 1146 1760 1248 1901 1760 
L 2778 1760 
L 2778 154 
C 2778 19 2739 -6 2554 -6 
C 2368 -6 2208 6 1939 51 
C 2003 -122 2022 -224 2035 -390 
C 2285 -410 2355 -410 2470 -410 
C 3066 -410 3206 -314 3206 96 
L 3206 1587 
C 3206 1818 3213 1984 3232 2157 
C 3066 2138 2925 2131 2624 2131 
L 1997 2131 
C 2022 2266 2029 2278 2074 2509 
L 2554 2509 
C 2707 2509 2829 2509 3040 2496 
C 3034 2630 3027 2752 3027 2899 
L 3027 3264 
C 3123 3181 3200 3085 3296 2938 
C 3430 3123 3482 3200 3616 3443 
C 3597 3174 3597 3142 3597 2912 
L 3597 243 
C 3597 -102 3584 -326 3558 -474 
L 4045 -474 
L 4045 -166 
L 5504 -166 
C 5754 -166 5990 -179 6138 -205 
L 6138 288 
C 5997 262 5824 256 5536 256 
L 5178 256 
L 5178 1331 
L 5376 1331 
C 5619 1331 5811 1318 5946 1293 
L 5946 1779 
C 5798 1754 5645 1741 5376 1741 
L 5178 1741 
L 5178 2630 
z
M 4755 2630 
L 4755 1741 
L 4045 1741 
L 4045 2630 
L 4755 2630 
z
M 4755 3040 
L 4045 3040 
L 4045 3917 
L 4755 3917 
L 4755 3040 
z
M 4045 1331 
L 4755 1331 
L 4755 256 
L 4045 256 
L 4045 1331 
z
M 1606 4832 
L 864 4832 
C 646 4832 493 4838 352 4864 
L 352 4410 
C 486 4429 627 4435 851 4435 
L 2790 4435 
C 2989 4435 3149 4429 3309 4410 
L 3309 4864 
C 3162 4845 2976 4832 2784 4832 
L 2067 4832 
L 2067 4928 
C 2067 5114 2074 5216 2099 5357 
L 1568 5357 
C 1594 5248 1606 5120 1606 4922 
L 1606 4832 
z
M 2522 3309 
C 2349 3475 2298 3520 2157 3648 
C 2323 3827 2381 3898 2534 4077 
L 2234 4326 
C 2099 4115 2035 4038 1882 3878 
C 1760 3981 1677 4045 1408 4243 
L 1158 3994 
C 1389 3834 1466 3770 1626 3635 
C 1427 3475 1338 3411 1075 3258 
C 1178 3181 1216 3136 1331 2982 
C 1626 3181 1734 3258 1894 3398 
C 2035 3264 2093 3206 2272 3014 
L 2522 3309 
z
" transform="scale(0.015625)"/>
      <path id="HiraginoSans-W4-d7" d="M 2125 1395 
L 3334 186 
L 3706 550 
L 2490 1766 
L 3706 2976 
L 3334 3347 
L 2125 2131 
L 909 3347 
L 544 2976 
L 1760 1766 
L 550 557 
L 915 192 
L 2125 1395 
z
" transform="scale(0.015625)"/>
      <path id="HiraginoSans-W4-50" d="M 1178 0 
C 1139 230 1126 435 1126 755 
L 1126 1965 
L 2496 1965 
C 3533 1965 4128 2522 4128 3494 
C 4128 4416 3558 4934 2528 4934 
L 1210 4934 
C 909 4934 710 4941 480 4954 
C 518 4678 531 4480 531 4198 
L 531 749 
C 531 429 518 243 480 0 
L 1178 0 
z
M 1126 2490 
L 1126 4410 
L 2496 4410 
C 3162 4410 3507 4083 3507 3469 
C 3507 2842 3142 2490 2496 2490 
L 1126 2490 
z
" transform="scale(0.015625)"/>
     </defs>
     <use xlink:href="#HiraginoSans-W4-898b"/>
     <use xlink:href="#HiraginoSans-W4-304b" transform="translate(99.999985 0)"/>
     <use xlink:href="#HiraginoSans-W4-3051" transform="translate(199.999969 0)"/>
     <use xlink:href="#HiraginoSans-W4-306e" transform="translate(299.999954 0)"/>
     <use xlink:href="#HiraginoSans-W4-9ad8" transform="translate(399.999939 0)"/>
     <use xlink:href="#HiraginoSans-W4-3055" transform="translate(499.999924 0)"/>
     <use xlink:href="#HiraginoSans-W4-20" transform="translate(599.999908 0)"/>
     <use xlink:href="#HiraginoSans-W4-3d" transform="translate(633.299896 0)"/>
     <use xlink:href="#HiraginoSans-W4-20" transform="translate(699.69989 0)"/>
     <use xlink:href="#HiraginoSans-W4-5b9f" transform="translate(732.999878 0)"/>
     <use xlink:href="#HiraginoSans-W4-969b" transform="translate(832.999863 0)"/>
     <use xlink:href="#HiraginoSans-W4-306e" transform="translate(932.999847 0)"/>
     <use xlink:href="#HiraginoSans-W4-9ad8" transform="translate(1032.999832 0)"/>
     <use xlink:href="#HiraginoSans-W4-3055" transform="translate(1132.999817 0)"/>
     <use xlink:href="#HiraginoSans-W4-20" transform="translate(1232.999802 0)"/>
     <use xlink:href="#HiraginoSans-W4-f7" transform="translate(1266.299789 0)"/>
     <use xlink:href="#HiraginoSans-W4-20" transform="translate(1332.699783 0)"/>
     <use xlink:href="#HiraginoSans-W4-8ddd" transform="translate(1365.999771 0)"/>
     <use xlink:href="#HiraginoSans-W4-96e2" transform="translate(1465.999756 0)"/>
     <use xlink:href="#HiraginoSans-W4-20" transform="translate(1565.999741 0)"/>
     <use xlink:href="#HiraginoSans-W4-d7" transform="translate(1599.299728 0)"/>
     <use xlink:href="#HiraginoSans-W4-20" transform="translate(1665.699722 0)"/>
     <use xlink:href="#HiraginoSans-W4-50" transform="translate(1698.99971 0)"/>
    </g>
    <!--  -->
    <g style="fill: #1f2937" transform="translate(177.75 106.586) scale(0.12 -0.12)"/>
    <!-- 近いほど大きく、遠いほど小さく見える！ -->
    <g style="fill: #1f2937" transform="translate(177.75 120.1475) scale(0.12 -0.12)">
     <defs>
      <path id="HiraginoSans-W4-8fd1" d="M 4506 3034 
L 4506 1094 
C 4506 774 4493 602 4467 442 
L 5030 442 
C 5005 595 4992 794 4992 1094 
L 4992 3034 
L 5466 3034 
C 5709 3034 5869 3027 6054 3002 
L 6054 3520 
C 5882 3494 5734 3488 5459 3488 
L 3219 3488 
C 3219 3539 3219 3539 3219 3642 
L 3219 4269 
C 3936 4352 4480 4461 5082 4627 
C 5357 4698 5357 4698 5843 4883 
L 5440 5318 
C 5280 5203 5075 5120 4659 5005 
C 4045 4832 3232 4691 2848 4691 
C 2842 4691 2822 4691 2790 4691 
C 2771 4691 2746 4691 2714 4691 
C 2733 4518 2739 4288 2739 3949 
C 2739 2125 2611 1485 2138 902 
C 2310 794 2381 723 2534 544 
C 2989 1158 3162 1786 3206 3034 
L 4506 3034 
z
M 512 4838 
C 954 4435 1165 4198 1555 3648 
L 1939 4000 
C 1562 4499 1299 4781 877 5165 
L 512 4838 
z
M 346 2285 
C 506 2310 614 2317 813 2317 
L 1318 2317 
L 1318 890 
C 960 544 557 243 307 141 
C 301 134 282 128 262 122 
L 506 -403 
C 595 -320 608 -314 730 -224 
C 1050 19 1274 205 1542 480 
C 1709 250 1856 109 2048 -6 
C 2464 -243 2906 -320 3923 -320 
C 4531 -320 5472 -301 6106 -275 
C 6144 -51 6170 38 6272 269 
C 5696 192 4954 154 3898 154 
C 2944 154 2541 211 2253 397 
C 2016 550 1888 685 1786 902 
L 1786 2118 
C 1786 2438 1792 2598 1818 2803 
C 1645 2778 1523 2771 1331 2771 
L 845 2771 
C 602 2771 512 2778 346 2803 
L 346 2285 
z
" transform="scale(0.015625)"/>
      <path id="HiraginoSans-W4-3044" d="M 819 4576 
C 832 4454 832 4429 838 4192 
C 870 2592 960 1805 1178 1165 
C 1395 518 1754 134 2144 134 
C 2630 134 2931 576 3258 1741 
C 3040 1907 2970 1978 2810 2170 
C 2733 1734 2624 1389 2477 1056 
C 2387 851 2278 749 2170 749 
C 1939 749 1696 1178 1562 1837 
C 1472 2246 1408 3091 1408 3763 
C 1408 4122 1421 4358 1453 4570 
L 819 4576 
z
M 4058 4013 
C 4813 3130 5280 1984 5382 781 
L 5933 998 
C 5728 2349 5325 3290 4525 4243 
L 4058 4013 
z
" transform="scale(0.015625)"/>
      <path id="HiraginoSans-W4-307b" d="M 5978 781 
C 5914 813 5901 826 5798 902 
C 5485 1133 5101 1350 4717 1498 
C 4691 1926 4685 2150 4672 2784 
C 4986 2816 5312 2861 5587 2912 
C 5690 2931 5709 2938 5779 2944 
L 5760 3443 
C 5504 3347 5158 3283 4666 3238 
C 4659 3533 4659 3584 4659 3674 
C 4659 3898 4666 4032 4678 4198 
C 4896 4218 5114 4243 5331 4282 
C 5619 4333 5619 4333 5709 4339 
L 5696 4838 
C 5165 4691 4346 4602 3520 4602 
C 3008 4602 2656 4627 2413 4685 
L 2387 4186 
C 2413 4186 2432 4186 2445 4186 
C 2490 4186 2528 4186 2573 4179 
C 3104 4154 3232 4147 3533 4147 
C 3738 4147 3968 4154 4173 4160 
C 4160 3917 4160 3821 4160 3712 
C 4160 3642 4166 3443 4173 3206 
C 3910 3194 3661 3187 3488 3187 
C 3008 3187 2618 3219 2355 3270 
L 2349 2765 
C 2374 2765 2400 2765 2413 2765 
C 2470 2765 2509 2765 2554 2765 
C 3034 2739 3142 2733 3469 2733 
C 3712 2733 3853 2739 4179 2752 
C 4198 1965 4211 1715 4224 1619 
C 4077 1677 3840 1715 3590 1715 
C 2822 1715 2310 1344 2310 787 
C 2310 224 2784 -134 3533 -134 
C 4070 -134 4493 51 4640 346 
C 4704 480 4736 634 4736 806 
C 4736 877 4736 922 4723 979 
C 4755 960 4755 960 4813 934 
C 4826 928 4826 928 4928 870 
C 5331 627 5594 435 5754 250 
L 5978 781 
z
M 4224 1158 
C 4224 1158 4237 966 4237 902 
C 4237 518 4006 326 3539 326 
C 3098 326 2822 506 2822 781 
C 2822 1075 3123 1261 3590 1261 
C 3814 1261 3962 1235 4224 1158 
z
M 1702 2035 
C 1485 1491 1408 1280 1331 941 
C 1325 915 1312 870 1299 813 
L 1280 819 
C 1280 941 1280 992 1280 1082 
C 1280 1126 1280 1152 1280 1158 
L 1280 1376 
C 1280 1395 1280 1466 1274 1574 
C 1267 1677 1267 1773 1267 1869 
C 1267 2534 1350 3347 1498 4045 
C 1594 4499 1683 4832 1760 5018 
L 1165 5094 
C 1158 4986 1152 4947 1107 4730 
C 858 3482 774 2784 774 1926 
C 774 1389 819 774 890 307 
C 947 -83 947 -83 947 -192 
L 1498 -166 
C 1491 -122 1491 -90 1491 -70 
C 1491 314 1754 1171 2080 1850 
L 1702 2035 
z
" transform="scale(0.015625)"/>
      <path id="HiraginoSans-W4-3069" d="M 1933 5018 
C 1971 4915 1978 4877 2035 4608 
C 2189 3840 2317 3354 2490 2835 
C 2093 2630 1888 2502 1645 2304 
C 1280 2003 1075 1613 1075 1222 
C 1075 781 1267 422 1613 230 
C 1997 13 2502 -77 3328 -77 
C 3795 -77 4122 -58 4787 13 
L 5274 51 
L 5216 678 
C 4806 538 4070 454 3328 454 
C 2899 454 2477 486 2266 544 
C 1850 653 1651 870 1651 1210 
C 1651 1453 1766 1696 1984 1888 
C 2253 2131 2669 2362 3168 2554 
C 3885 2822 4672 3072 5152 3174 
L 4934 3750 
C 4819 3693 4794 3680 4512 3584 
C 3386 3194 3386 3194 2995 3034 
C 2778 3686 2554 4678 2528 5120 
L 1933 5018 
z
M 4275 4992 
C 4538 4698 4742 4378 4941 3981 
L 5318 4192 
C 5094 4608 4947 4826 4646 5184 
L 4275 4992 
z
M 5018 5338 
C 5299 5005 5491 4717 5677 4346 
L 6048 4557 
C 5818 4979 5677 5178 5376 5530 
L 5018 5338 
z
" transform="scale(0.015625)"/>
      <path id="HiraginoSans-W4-5927" d="M 5261 3290 
C 5587 3290 5779 3277 5990 3245 
L 5990 3834 
C 5805 3802 5587 3789 5254 3789 
L 3386 3789 
C 3398 4019 3405 4224 3411 4538 
C 3411 4877 3424 5011 3456 5229 
L 2835 5229 
C 2867 5024 2880 4838 2880 4416 
C 2880 4173 2874 4000 2867 3789 
L 1146 3789 
C 800 3789 582 3802 403 3834 
L 403 3245 
C 595 3277 781 3290 1139 3290 
L 2822 3290 
C 2656 1965 2227 1222 1242 550 
C 941 346 717 230 269 45 
C 429 -128 486 -205 589 -422 
C 1197 -154 1613 115 2016 480 
C 2624 1043 3021 1754 3206 2618 
C 3552 1587 4122 781 4941 154 
C 5197 -45 5370 -147 5856 -416 
C 5984 -166 6042 -77 6195 102 
C 5888 230 5734 307 5517 442 
C 5069 710 4666 1050 4403 1376 
C 3949 1939 3629 2573 3437 3290 
L 5261 3290 
z
" transform="scale(0.015625)"/>
      <path id="HiraginoSans-W4-304d" d="M 960 3725 
C 1082 3738 1101 3738 1370 3738 
C 2086 3750 2547 3776 3098 3846 
C 3283 3443 3283 3443 3424 3181 
C 2957 3098 2099 3034 1466 3034 
C 1184 3034 1062 3040 915 3059 
L 928 2541 
C 1056 2560 1088 2560 1395 2566 
C 2502 2605 3085 2650 3642 2752 
C 3878 2342 4102 2022 4269 1843 
C 3878 1965 3520 2016 3034 2016 
C 2400 2016 1907 1914 1574 1709 
C 1235 1504 1050 1210 1050 883 
C 1050 544 1229 243 1536 64 
C 1869 -134 2291 -218 2925 -218 
C 3494 -218 4032 -141 4563 13 
C 4851 96 4851 96 4960 122 
L 4858 698 
C 4474 467 3610 275 2938 275 
C 2093 275 1626 493 1626 890 
C 1626 1306 2189 1568 3091 1568 
C 3795 1568 4230 1485 4621 1280 
L 5050 1587 
C 4608 2099 4499 2240 4141 2829 
C 4416 2886 4531 2906 4627 2931 
C 5325 3104 5325 3104 5466 3130 
L 5408 3648 
C 5152 3526 4774 3430 3936 3258 
C 3840 3424 3712 3680 3603 3917 
C 3930 3968 4710 4134 5197 4262 
L 5152 4762 
C 4762 4602 4109 4448 3437 4346 
C 3264 4736 3162 5024 3123 5210 
L 2554 5120 
C 2605 5030 2784 4621 2918 4282 
C 2445 4224 1990 4198 1459 4198 
C 1222 4198 1101 4205 941 4218 
L 960 3725 
z
" transform="scale(0.015625)"/>
      <path id="HiraginoSans-W4-304f" d="M 3955 5203 
C 3718 4838 2957 4128 2061 3437 
C 1587 3078 1587 3078 1510 2995 
C 1389 2867 1318 2707 1318 2547 
C 1318 2304 1427 2157 1798 1862 
C 2752 1120 2995 915 3430 512 
C 3859 122 4102 -141 4256 -365 
L 4736 109 
C 4659 173 4646 186 4550 275 
C 3616 1146 3469 1267 2509 1997 
C 1978 2406 1939 2445 1939 2554 
C 1939 2630 1990 2688 2208 2854 
C 2970 3437 3386 3776 3699 4077 
C 4320 4666 4397 4736 4486 4800 
L 3955 5203 
z
" transform="scale(0.015625)"/>
      <path id="HiraginoSans-W4-3001" d="M 275 966 
C 781 557 1139 173 1574 -448 
L 2010 -32 
C 1555 563 1222 902 678 1338 
L 275 966 
z
" transform="scale(0.015625)"/>
      <path id="HiraginoSans-W4-9060" d="M 5510 2061 
L 5574 2061 
C 5562 2182 5555 2317 5555 2464 
L 5555 2899 
C 5555 3053 5562 3174 5581 3302 
C 5472 3283 5325 3277 5120 3277 
L 2739 3277 
C 2534 3277 2381 3283 2278 3302 
C 2298 3187 2304 3066 2304 2899 
L 2304 2470 
C 2304 2266 2298 2157 2285 2061 
C 2445 2067 2592 2074 2746 2074 
L 3386 2074 
C 3194 1907 3123 1856 2995 1766 
C 2605 1498 2291 1344 1792 1184 
C 1933 1030 1978 966 2067 787 
C 2771 1094 3098 1312 3571 1773 
C 3552 1651 3546 1517 3546 1312 
L 3546 922 
C 3546 653 3533 493 3514 352 
L 4026 352 
C 4000 480 3994 646 3994 928 
L 3994 1286 
C 3994 1440 3987 1542 3962 1747 
C 4198 1434 4339 1299 4614 1101 
C 4992 819 5299 672 5875 480 
C 5939 659 5997 755 6112 915 
C 5619 1043 5421 1114 5062 1306 
C 5312 1478 5510 1626 5651 1747 
C 5728 1811 5779 1856 5811 1882 
L 5510 2061 
z
M 5133 2074 
C 5222 2074 5299 2074 5395 2067 
C 5299 1933 5043 1715 4736 1504 
C 4454 1696 4352 1786 4096 2074 
L 5133 2074 
z
M 2765 2899 
L 5101 2899 
L 5101 2445 
L 2765 2445 
L 2765 2899 
z
M 4096 4045 
L 4096 4493 
L 5107 4493 
C 5350 4493 5523 4486 5709 4461 
L 5709 4934 
C 5530 4909 5338 4896 5088 4896 
L 4096 4896 
C 4096 5114 4109 5235 4134 5344 
L 3603 5344 
C 3622 5229 3635 5101 3642 4896 
L 2810 4896 
C 2502 4896 2349 4902 2182 4934 
L 2182 4461 
C 2342 4486 2502 4493 2784 4493 
L 3642 4493 
L 3642 4045 
L 2470 4045 
C 2170 4045 2016 4051 1862 4083 
L 1862 3616 
C 2022 3642 2195 3648 2477 3648 
L 5408 3648 
C 5683 3648 5856 3642 6022 3616 
L 6022 4083 
C 5862 4051 5709 4045 5408 4045 
L 4096 4045 
z
M 365 4902 
C 774 4518 1005 4256 1350 3763 
L 1734 4115 
C 1350 4602 1120 4858 723 5216 
L 365 4902 
z
M 339 2362 
C 499 2387 589 2394 794 2394 
L 1197 2394 
L 1197 896 
C 826 538 506 307 198 160 
L 442 -346 
C 525 -269 576 -224 659 -160 
C 979 83 1139 224 1414 499 
C 1645 173 1818 19 2125 -109 
C 2496 -269 2829 -301 3949 -301 
C 4678 -301 5478 -288 6080 -256 
C 6125 0 6138 51 6240 282 
C 5510 192 4755 160 3501 160 
C 2701 160 2330 237 1984 486 
C 1856 576 1773 678 1670 883 
L 1670 2221 
C 1670 2534 1677 2675 1696 2861 
C 1536 2835 1402 2829 1210 2829 
L 838 2829 
C 589 2829 493 2835 339 2861 
L 339 2362 
z
" transform="scale(0.015625)"/>
      <path id="HiraginoSans-W4-5c0f" d="M 2899 5242 
C 2925 5056 2938 4851 2938 4557 
L 2938 269 
C 2938 141 2880 109 2650 109 
C 2400 109 2112 141 1715 211 
C 1798 6 1830 -109 1856 -339 
C 2214 -371 2464 -384 2726 -384 
C 3302 -384 3469 -256 3469 198 
L 3469 4550 
C 3469 4858 3482 5069 3507 5242 
L 2899 5242 
z
M 4410 3712 
C 4410 3699 4435 3616 4480 3469 
L 4595 3066 
C 4902 2042 5229 1370 5818 563 
C 5965 723 6042 794 6259 934 
C 5837 1472 5549 1971 5306 2605 
C 5082 3174 4986 3514 4941 3866 
L 4410 3712 
z
M 1363 3834 
C 1344 3571 1286 3264 1178 2880 
C 954 2099 666 1510 198 896 
C 403 787 512 710 666 576 
C 1248 1427 1498 2010 1811 3309 
C 1862 3501 1888 3603 1914 3693 
L 1363 3834 
z
" transform="scale(0.015625)"/>
      <path id="HiraginoSans-W4-3048" d="M 1798 4640 
C 2630 4397 3117 4314 4262 4224 
L 4358 4730 
C 3469 4755 2682 4883 1978 5114 
L 1798 4640 
z
M 1261 2957 
C 1434 2982 1498 2989 1696 3002 
C 3181 3117 3251 3123 3712 3213 
C 3142 2669 2822 2362 2746 2285 
C 2310 1856 1875 1440 1280 883 
C 922 550 826 474 595 314 
L 1018 -160 
C 1248 102 1645 512 1965 813 
C 2490 1306 2797 1485 3123 1485 
C 3251 1485 3360 1427 3405 1338 
C 3443 1261 3456 1178 3475 902 
C 3507 474 3533 352 3616 205 
C 3757 -51 4045 -166 4544 -166 
C 4826 -166 5056 -147 5427 -83 
C 5875 -13 5875 -13 5958 -6 
L 5882 570 
C 5542 422 5050 333 4589 333 
C 4326 333 4186 378 4102 486 
C 4032 582 4006 704 3981 1056 
C 3949 1421 3917 1549 3802 1677 
C 3686 1805 3526 1875 3341 1875 
C 3181 1875 3053 1837 2765 1709 
C 3046 1920 3501 2330 3987 2810 
C 4326 3142 4422 3232 4550 3328 
L 4224 3731 
C 4134 3699 4058 3680 3904 3654 
C 3328 3578 2182 3501 1613 3501 
C 1478 3501 1389 3507 1222 3514 
L 1261 2957 
z
" transform="scale(0.015625)"/>
      <path id="HiraginoSans-W4-308b" d="M 1485 4262 
C 1626 4282 1690 4288 1824 4294 
C 2758 4333 3482 4371 3718 4410 
C 3738 4410 3750 4410 3770 4416 
L 3776 4403 
C 3725 4352 3725 4352 3706 4333 
C 3686 4314 3680 4307 3654 4282 
C 2694 3334 1242 2131 678 1818 
L 1005 1331 
C 1760 2022 2746 2419 3693 2419 
C 4531 2419 5037 2067 5037 1478 
C 5037 1146 4883 858 4602 659 
C 4454 550 4314 486 4077 416 
C 3987 704 3917 851 3789 1024 
C 3533 1363 3149 1549 2720 1549 
C 2157 1549 1741 1210 1741 755 
C 1741 563 1818 352 1933 218 
C 2170 -58 2605 -198 3232 -198 
C 4646 -198 5587 480 5587 1491 
C 5587 2323 4896 2861 3821 2861 
C 3283 2861 2835 2752 2317 2490 
L 2304 2515 
C 2739 2784 3507 3430 4371 4262 
C 4563 4454 4602 4480 4698 4531 
L 4390 4947 
C 4301 4896 4243 4883 4058 4870 
C 3488 4826 2643 4787 2106 4787 
C 1779 4787 1645 4794 1459 4826 
L 1485 4262 
z
M 3578 288 
C 3373 256 3302 250 3155 250 
C 2598 250 2246 442 2246 742 
C 2246 966 2432 1107 2720 1107 
C 3155 1107 3443 826 3578 288 
z
" transform="scale(0.015625)"/>
      <path id="HiraginoSans-W4-ff01" d="M 3475 1229 
C 3462 1370 3456 1510 3456 1587 
C 3456 1613 3456 1638 3456 1683 
C 3462 1747 3462 1824 3469 1926 
L 3533 4173 
C 3539 4435 3552 4653 3578 4896 
L 2829 4896 
C 2854 4659 2867 4448 2874 4173 
L 2938 1926 
C 2938 1670 2938 1670 2938 1600 
C 2938 1453 2938 1389 2925 1229 
L 3475 1229 
z
M 3558 -32 
L 3558 646 
L 2854 646 
L 2854 -32 
L 3558 -32 
z
" transform="scale(0.015625)"/>
     </defs>
     <use xlink:href="#HiraginoSans-W4-8fd1"/>
     <use xlink:href="#HiraginoSans-W4-3044" transform="translate(99.999985 0)"/>
     <use xlink:href="#HiraginoSans-W4-307b" transform="translate(199.999969 0)"/>
     <use xlink:href="#HiraginoSans-W4-3069" transform="translate(299.999954 0)"/>
     <use xlink:href="#HiraginoSans-W4-5927" transform="translate(399.999939 0)"/>
     <use xlink:href="#HiraginoSans-W4-304d" transform="translate(499.999924 0)"/>
     <use xlink:href="#HiraginoSans-W4-304f" transform="translate(599.999908 0)"/>
     <use xlink:href="#HiraginoSans-W4-3001" transform="translate(699.999893 0)"/>
     <use xlink:href="#HiraginoSans-W4-9060" transform="translate(799.999878 0)"/>
     <use xlink:href="#HiraginoSans-W4-3044" transform="translate(899.999863 0)"/>
     <use xlink:href="#HiraginoSans-W4-307b" transform="translate(999.999847 0)"/>
     <use xlink:href="#HiraginoSans-W4-3069" transform="translate(1099.999832 0)"/>
     <use xlink:href="#HiraginoSans-W4-5c0f" transform="translate(1199.999817 0)"/>
     <use xlink:href="#HiraginoSans-W4-3055" transform="translate(1299.999802 0)"/>
     <use xlink:href="#HiraginoSans-W4-304f" transform="translate(1399.999786 0)"/>
     <use xlink:href="#HiraginoSans-W4-898b" transform="translate(1499.999771 0)"/>
     <use xlink:href="#HiraginoSans-W4-3048" transform="translate(1599.999756 0)"/>
     <use xlink:href="#HiraginoSans-W4-308b" transform="translate(1699.999741 0)"/>
     <use xlink:href="#HiraginoSans-W4-ff01" transform="translate(1799.999725 0)"/>
    </g>
   </g>
   <g id="text_10">
    <!-- 投影：遠いものは小さく見える -->
    <g transform="translate(222.0875 19.8725) scale(0.16 -0.16)">
     <defs>
      <path id="HiraginoSans-W7-6295" d="M 2470 1952 
C 2630 1971 2752 1978 2963 1978 
L 3309 1978 
L 2726 1722 
C 3053 1235 3187 1050 3430 794 
C 2912 499 2554 371 1894 230 
C 2099 -45 2176 -173 2330 -544 
C 3046 -352 3507 -147 4077 230 
C 4544 -96 5011 -301 5818 -531 
C 5952 -186 6080 64 6259 307 
C 5587 435 5210 563 4774 800 
C 5114 1146 5350 1466 5677 2003 
C 5786 2182 5786 2182 5837 2259 
L 5402 2739 
C 5293 2720 5184 2714 5011 2714 
L 2874 2714 
C 3059 2842 3194 2970 3322 3162 
C 3558 3501 3654 3866 3674 4461 
L 4301 4461 
L 4301 3578 
C 4301 3258 4358 3142 4550 3066 
C 4653 3027 4826 3008 5152 3008 
C 5677 3008 5888 3059 6010 3226 
C 6125 3373 6163 3578 6202 4154 
C 6202 4179 6202 4230 6208 4288 
C 5965 4365 5830 4422 5504 4608 
C 5510 4352 5510 4307 5510 4294 
C 5510 3955 5491 3814 5440 3782 
C 5421 3763 5344 3750 5274 3750 
C 5216 3750 5158 3757 5133 3770 
C 5094 3789 5094 3789 5094 4154 
L 5094 4883 
C 5101 5152 5101 5152 5101 5171 
C 5107 5203 5114 5222 5114 5235 
C 5114 5242 5107 5254 5094 5261 
C 4902 5242 4870 5242 4262 5242 
L 3283 5242 
C 3162 5242 3091 5248 2874 5261 
C 2886 5178 2893 5056 2893 4947 
C 2893 3936 2733 3546 2208 3245 
C 2490 3046 2624 2925 2797 2714 
C 2707 2714 2573 2726 2470 2746 
L 2470 1952 
z
M 4730 1978 
C 4499 1632 4384 1498 4109 1261 
C 3821 1504 3693 1658 3501 1978 
L 4730 1978 
z
M 1018 4262 
L 742 4262 
C 557 4262 429 4269 282 4294 
L 282 3488 
C 442 3507 576 3514 730 3514 
L 1018 3514 
L 1018 2464 
C 435 2336 435 2336 211 2310 
L 358 1459 
C 371 1466 589 1536 1018 1664 
L 1018 442 
C 1018 282 986 243 845 243 
C 698 243 538 256 269 288 
C 384 -6 416 -166 442 -506 
C 653 -518 749 -525 864 -525 
C 1126 -525 1370 -493 1517 -442 
C 1722 -365 1830 -166 1830 154 
L 1830 1914 
C 1990 1971 2054 1990 2349 2093 
L 2349 2848 
C 2118 2765 2061 2746 1830 2675 
L 1830 3514 
L 2176 3514 
C 2278 3514 2374 3507 2477 3494 
L 2477 4282 
C 2374 4269 2298 4262 2182 4262 
L 1830 4262 
L 1830 4749 
C 1830 5056 1837 5203 1869 5395 
L 979 5395 
C 1011 5184 1018 5050 1018 4742 
L 1018 4262 
z
" transform="scale(0.015625)"/>
      <path id="HiraginoSans-W7-5f71" d="M 858 1030 
C 691 614 518 358 179 38 
C 461 -147 589 -256 768 -474 
C 998 -198 1082 -90 1216 141 
C 1286 -38 1338 -262 1370 -518 
C 1658 -531 1702 -531 1786 -531 
C 2317 -531 2534 -371 2534 38 
L 2534 1043 
L 3040 1043 
C 3302 1043 3405 1037 3533 1024 
C 3520 1120 3514 1261 3514 1395 
L 3514 1888 
C 3514 2010 3520 2170 3526 2234 
C 3712 2035 3834 1843 3994 1510 
C 4736 1920 5306 2349 5914 2957 
C 6010 3053 6074 3117 6150 3174 
L 5478 3738 
C 5370 3552 5210 3379 4890 3110 
C 4467 2752 4019 2470 3520 2246 
C 3430 2240 3296 2240 3040 2240 
L 1120 2240 
C 832 2240 762 2240 634 2259 
C 653 2125 659 2035 659 1888 
L 659 1395 
C 659 1248 653 1158 634 1024 
C 762 1037 864 1043 1126 1043 
L 1734 1043 
L 1734 282 
C 1734 186 1709 160 1600 160 
C 1549 160 1344 179 1248 198 
C 1350 378 1395 474 1510 755 
L 858 1030 
z
M 1446 1773 
L 2733 1773 
L 2733 1510 
L 1446 1510 
L 1446 1773 
z
M 3610 4115 
C 3834 3846 3936 3693 4077 3411 
C 4774 3808 5082 4038 5805 4691 
C 5888 4768 5926 4800 6029 4883 
L 5325 5421 
C 5146 5178 4966 5005 4621 4742 
C 4294 4493 3994 4314 3610 4147 
L 3610 4736 
C 3610 4998 3616 5120 3629 5248 
C 3450 5235 3258 5229 2989 5229 
L 1165 5229 
C 877 5229 685 5235 538 5248 
C 557 5094 563 4960 563 4736 
L 563 3834 
C 563 3648 550 3501 538 3341 
C 646 3347 819 3354 1082 3354 
L 1702 3354 
L 1702 3091 
L 915 3091 
C 582 3091 422 3098 256 3123 
L 256 2419 
C 442 2445 602 2451 902 2451 
L 3213 2451 
C 3520 2451 3667 2445 3866 2426 
L 3866 3123 
C 3674 3098 3546 3091 3206 3091 
L 2502 3091 
L 2502 3354 
L 3085 3354 
C 3309 3354 3539 3347 3629 3341 
C 3616 3469 3610 3616 3610 3834 
L 3610 4115 
z
M 1338 4710 
L 2842 4710 
L 2842 4506 
L 1338 4506 
L 1338 4710 
z
M 1338 4064 
L 2842 4064 
L 2842 3859 
L 1338 3859 
L 1338 4064 
z
M 3629 -96 
C 3750 -262 3808 -352 3917 -550 
C 4730 -134 5248 250 5907 934 
C 6131 1165 6131 1165 6304 1325 
L 5645 1920 
C 5293 1370 4422 666 3622 288 
C 3443 595 3373 698 3187 979 
L 2586 723 
C 2874 262 2944 134 3149 -352 
L 3629 -96 
z
" transform="scale(0.015625)"/>
      <path id="HiraginoSans-W7-ff1a" d="M 3757 4326 
L 2650 4326 
L 2650 3219 
L 3757 3219 
L 3757 4326 
z
M 3757 538 
L 3757 1645 
L 2650 1645 
L 2650 538 
L 3757 538 
z
" transform="scale(0.015625)"/>
      <path id="HiraginoSans-W7-3082" d="M 595 1952 
C 710 1939 774 1926 845 1914 
C 1178 1843 1402 1811 1709 1773 
C 1690 1498 1690 1434 1690 1274 
C 1690 627 1907 198 2374 -90 
C 2669 -275 3110 -378 3590 -378 
C 4192 -378 4691 -230 5075 64 
C 5472 358 5709 819 5709 1280 
C 5709 1786 5549 2189 5152 2682 
C 4787 2554 4627 2522 4205 2496 
C 4570 2144 4762 1773 4762 1421 
C 4762 838 4326 506 3565 506 
C 3232 506 2989 582 2816 730 
C 2669 864 2598 1050 2598 1331 
C 2598 1453 2605 1594 2618 1715 
C 2842 1709 2893 1709 2963 1709 
C 3270 1709 3680 1734 3949 1773 
C 4070 1786 4083 1792 4154 1792 
L 4173 2669 
C 3827 2573 3405 2528 2899 2528 
C 2854 2528 2778 2528 2675 2534 
C 2720 2886 2739 3014 2784 3322 
C 2829 3322 2874 3322 2880 3322 
C 3347 3322 3437 3328 3846 3360 
C 4218 3392 4218 3392 4314 3398 
L 4346 4294 
C 3962 4198 3571 4160 2918 4147 
C 3027 4864 3046 4954 3117 5158 
L 2106 5248 
L 2106 5171 
C 2106 4960 2074 4672 1997 4179 
C 1459 4230 1133 4294 838 4403 
L 768 3558 
C 864 3546 896 3539 992 3520 
C 1472 3418 1587 3398 1894 3366 
C 1830 2963 1830 2963 1786 2586 
C 1197 2662 966 2707 666 2822 
L 595 1952 
z
" transform="scale(0.015625)"/>
      <path id="HiraginoSans-W7-306e" d="M 3776 4038 
C 4032 4006 4186 3955 4371 3834 
C 4806 3546 5056 3066 5056 2496 
C 5056 1818 4723 1222 4173 922 
C 3872 762 3475 659 2906 614 
C 3155 282 3245 109 3379 -294 
C 3834 -218 4090 -154 4397 -32 
C 5421 371 6003 1274 6003 2438 
C 6003 3936 4979 4896 3373 4896 
C 2458 4896 1670 4576 1120 3974 
C 653 3469 403 2803 403 2074 
C 403 973 966 198 1760 198 
C 2310 198 2733 576 3091 1389 
C 3424 2131 3648 2982 3776 4038 
z
M 2842 4026 
C 2765 3341 2566 2534 2330 1965 
C 2125 1446 1926 1197 1741 1197 
C 1491 1197 1286 1587 1286 2067 
C 1286 2707 1587 3328 2074 3706 
C 2323 3898 2534 3987 2842 4026 
z
" transform="scale(0.015625)"/>
      <path id="HiraginoSans-W7-306f" d="M 2291 3091 
C 2310 3098 2323 3098 2330 3098 
C 2413 3098 2413 3098 2515 3091 
C 2790 3072 3360 3053 3590 3053 
C 3731 3053 3840 3053 4026 3059 
C 4045 2381 4058 2093 4064 1875 
C 3885 1914 3776 1926 3603 1926 
C 2758 1926 2202 1472 2202 781 
C 2202 90 2739 -333 3622 -333 
C 4435 -333 4947 26 4947 589 
C 4947 627 4947 640 4941 698 
C 5312 461 5619 218 5766 38 
L 6118 960 
C 6048 1005 6029 1018 5933 1082 
C 5613 1312 5427 1414 4954 1638 
C 4902 2458 4896 2598 4890 3117 
C 5229 3155 5478 3194 5702 3245 
C 5862 3277 5875 3277 5952 3283 
L 5920 4154 
C 5651 4064 5306 3994 4883 3942 
C 4883 4640 4890 4902 4928 5114 
L 3981 5114 
C 4000 5037 4006 4902 4006 4781 
C 4013 4352 4013 4352 4013 3878 
C 3795 3872 3680 3872 3501 3872 
C 2976 3872 2586 3904 2304 3968 
L 2291 3091 
z
M 4083 1050 
C 4090 1050 4090 973 4090 915 
C 4090 595 3930 454 3558 454 
C 3245 454 3053 582 3053 787 
C 3053 1005 3277 1146 3616 1146 
C 3789 1146 3898 1120 4083 1050 
z
M 960 5139 
C 954 4998 934 4858 883 4595 
C 755 3904 755 3904 730 3712 
C 646 3162 608 2592 608 1990 
C 608 1306 653 742 781 -109 
C 800 -243 800 -282 806 -365 
L 1722 -320 
C 1715 -205 1709 -141 1709 -115 
C 1709 371 1946 1165 2285 1837 
L 1741 2054 
C 1638 1850 1594 1734 1453 1389 
C 1453 1491 1459 1741 1459 1869 
C 1466 2240 1491 2688 1542 3104 
C 1638 3872 1830 4781 1965 5050 
L 960 5139 
z
" transform="scale(0.015625)"/>
      <path id="HiraginoSans-W7-304f" d="M 3878 5389 
C 3763 5216 3693 5139 3386 4845 
C 2957 4435 2611 4141 1901 3603 
C 1510 3309 1421 3232 1331 3136 
C 1190 2982 1107 2778 1107 2586 
C 1107 2451 1146 2298 1197 2189 
C 1274 2048 1389 1933 1683 1702 
C 2688 922 2880 768 3347 333 
C 3795 -77 4013 -307 4186 -550 
L 4966 250 
C 4883 314 4845 346 4774 410 
C 3834 1242 3443 1562 2822 2016 
C 2202 2464 2202 2464 2202 2554 
C 2202 2624 2234 2656 2432 2803 
C 3149 3347 3648 3738 3974 4038 
C 4614 4627 4614 4627 4774 4736 
L 3878 5389 
z
" transform="scale(0.015625)"/>
      <path id="HiraginoSans-W7-898b" d="M 2022 1402 
C 1939 1011 1754 742 1421 531 
C 1133 352 806 243 230 141 
C 429 -115 544 -307 672 -614 
C 1421 -429 1875 -205 2272 166 
C 2630 506 2822 877 2899 1402 
L 3386 1402 
L 3386 122 
C 3386 -403 3565 -493 4678 -493 
C 5434 -493 5715 -448 5888 -288 
C 6080 -122 6138 102 6208 890 
C 5894 966 5728 1037 5427 1197 
C 5414 787 5382 461 5331 384 
C 5267 288 5152 262 4704 262 
C 4262 262 4211 282 4211 448 
L 4211 1402 
L 4755 1402 
C 5037 1402 5242 1395 5427 1376 
C 5402 1555 5395 1760 5395 2067 
L 5395 4435 
C 5395 4774 5408 5043 5427 5203 
C 5248 5184 5056 5178 4755 5178 
L 1670 5178 
C 1376 5178 1184 5184 1005 5203 
C 1024 5043 1037 4774 1037 4435 
L 1037 2067 
C 1037 1773 1024 1562 1005 1376 
C 1178 1395 1370 1402 1683 1402 
L 2022 1402 
z
M 1837 4454 
L 4589 4454 
L 4589 4109 
L 1837 4109 
L 1837 4454 
z
M 1837 3462 
L 4589 3462 
L 4589 3104 
L 1837 3104 
L 1837 3462 
z
M 1837 2458 
L 4589 2458 
L 4589 2093 
L 1837 2093 
L 1837 2458 
z
" transform="scale(0.015625)"/>
      <path id="HiraginoSans-W7-3048" d="M 1587 4429 
C 2464 4218 3014 4147 4378 4077 
L 4512 4934 
C 3450 4947 2611 5050 1850 5267 
L 1587 4429 
z
M 1094 2656 
C 1286 2688 1510 2714 1837 2739 
C 2669 2810 2963 2842 3264 2899 
C 3078 2733 2995 2656 2778 2445 
C 1587 1318 813 640 403 365 
L 1114 -442 
C 1344 -160 1658 179 1978 493 
C 2496 998 2778 1178 3059 1178 
C 3174 1178 3270 1126 3315 1050 
C 3347 979 3360 890 3379 659 
C 3398 262 3424 141 3520 -6 
C 3693 -288 4000 -410 4550 -410 
C 4864 -410 5107 -390 5498 -333 
C 5862 -275 5965 -262 6074 -262 
L 5978 685 
C 5606 531 5139 435 4717 435 
C 4346 435 4262 518 4230 947 
C 4192 1350 4186 1389 4122 1517 
C 4013 1734 3814 1843 3546 1843 
C 3424 1843 3354 1830 3213 1779 
C 3290 1837 3315 1862 3411 1939 
C 3475 1997 3520 2035 3558 2067 
C 3872 2342 3891 2355 4275 2707 
C 4634 3040 4685 3085 4806 3162 
L 4307 3808 
C 4186 3757 4051 3731 3757 3699 
C 2733 3597 2054 3558 1414 3558 
C 1299 3558 1216 3565 1037 3578 
L 1094 2656 
z
" transform="scale(0.015625)"/>
      <path id="HiraginoSans-W7-308b" d="M 1286 4090 
C 1478 4115 1536 4115 1741 4128 
C 2682 4173 2790 4179 3315 4224 
C 2413 3322 1075 2259 474 1971 
L 986 1146 
C 1779 1856 2656 2221 3597 2221 
C 4333 2221 4806 1920 4806 1453 
C 4806 1050 4621 806 4166 621 
C 4070 883 4000 1018 3872 1171 
C 3603 1504 3200 1690 2746 1690 
C 2067 1690 1568 1274 1568 723 
C 1568 410 1709 128 1958 -58 
C 2227 -262 2701 -378 3258 -378 
C 3872 -378 4435 -243 4864 6 
C 5440 339 5741 838 5741 1459 
C 5741 1907 5587 2259 5274 2522 
C 4928 2810 4480 2957 3936 2957 
C 3565 2957 3245 2912 2880 2803 
C 3398 3168 3603 3334 4269 3930 
C 4768 4371 4774 4371 4909 4448 
L 4454 5114 
C 4346 5062 4269 5050 4019 5030 
C 3424 4986 2630 4954 2080 4954 
C 1696 4954 1485 4966 1248 4998 
L 1286 4090 
z
M 3347 390 
C 3200 358 3174 358 3078 358 
C 2662 358 2419 486 2419 710 
C 2419 864 2547 966 2739 966 
C 3040 966 3251 768 3347 390 
z
" transform="scale(0.015625)"/>
     </defs>
     <use xlink:href="#HiraginoSans-W7-6295"/>
     <use xlink:href="#HiraginoSans-W7-5f71" transform="translate(99.999985 0)"/>
     <use xlink:href="#HiraginoSans-W7-ff1a" transform="translate(199.999969 0)"/>
     <use xlink:href="#HiraginoSans-W7-9060" transform="translate(299.999954 0)"/>
     <use xlink:href="#HiraginoSans-W7-3044" transform="translate(399.999939 0)"/>
     <use xlink:href="#HiraginoSans-W7-3082" transform="translate(499.999924 0)"/>
     <use xlink:href="#HiraginoSans-W7-306e" transform="translate(599.999908 0)"/>
     <use xlink:href="#HiraginoSans-W7-306f" transform="translate(699.999893 0)"/>
     <use xlink:href="#HiraginoSans-W7-5c0f" transform="translate(799.999878 0)"/>
     <use xlink:href="#HiraginoSans-W7-3055" transform="translate(899.999863 0)"/>
     <use xlink:href="#HiraginoSans-W7-304f" transform="translate(999.999847 0)"/>
     <use xlink:href="#HiraginoSans-W7-898b" transform="translate(1099.999832 0)"/>
     <use xlink:href="#HiraginoSans-W7-3048" transform="translate(1199.999817 0)"/>
     <use xlink:href="#HiraginoSans-W7-308b" transform="translate(1299.999802 0)"/>
    </g>
   </g>
   <g id="line2d_8">
    <path d="M 490.425 91.7225 
L 490.425 432.8225 
" clip-path="url(#pf291f5c308)" style="fill: none; stroke: #2563eb; stroke-width: 8; stroke-linecap: square"/>
   </g>
   <g id="line2d_9">
    <path d="M 498.9525 153.740682 
L 498.9525 370.804318 
" clip-path="url(#pf291f5c308)" style="fill: none; stroke: #7c3aed; stroke-opacity: 0.7; stroke-width: 8; stroke-linecap: square"/>
   </g>
   <g id="PathCollection_1">
    <defs>
     <path id="m48ce4f778a" d="M 0 8.660254 
C 2.296726 8.660254 4.499694 7.747755 6.123724 6.123724 
C 7.747755 4.499694 8.660254 2.296726 8.660254 0 
C 8.660254 -2.296726 7.747755 -4.499694 6.123724 -6.123724 
C 4.499694 -7.747755 2.296726 -8.660254 0 -8.660254 
C -2.296726 -8.660254 -4.499694 -7.747755 -6.123724 -6.123724 
C -7.747755 -4.499694 -8.660254 -2.296726 -8.660254 0 
C -8.660254 2.296726 -7.747755 4.499694 -6.123724 6.123724 
C -4.499694 7.747755 -2.296726 8.660254 0 8.660254 
z
" style="stroke: #ffffff; stroke-width: 3"/>
    </defs>
    <g clip-path="url(#pf291f5c308)">
     <use xlink:href="#m48ce4f778a" x="92.475" y="262.2725" style="fill: #dc2626; stroke: #ffffff; stroke-width: 3"/>
    </g>
   </g>
  </g>
 </g>
 <defs>
  <clipPath id="pf291f5c308">
   <rect x="7.2" y="34.8725" width="653.775" height="454.8"/>
  </clipPath>
 </defs>
</svg>
