<?xml version="1.0" encoding="utf-8" standalone="no"?>
<!DOCTYPE svg PUBLIC "-//W3C//DTD SVG 1.1//EN"
  "http://www.w3.org/Graphics/SVG/1.1/DTD/svg11.dtd">
<svg xmlns:xlink="http://www.w3.org/1999/xlink" width="711.635294pt" height="568.8725pt" viewBox="0 0 711.635294 568.8725" xmlns="http://www.w3.org/2000/svg" version="1.1">
 <metadata>
  <rdf:RDF xmlns:dc="http://purl.org/dc/elements/1.1/" xmlns:cc="http://creativecommons.org/ns#" xmlns:rdf="http://www.w3.org/1999/02/22-rdf-syntax-ns#">
   <cc:Work>
    <dc:type rdf:resource="http://purl.org/dc/dcmitype/StillImage"/>
    <dc:date>2026-02-01T13:03:53.659459</dc:date>
    <dc:format>image/svg+xml</dc:format>
    <dc:creator>
     <cc:Agent>
      <dc:title>Matplotlib v3.10.8, https://matplotlib.org/</dc:title>
     </cc:Agent>
    </dc:creator>
   </cc:Work>
  </rdf:RDF>
 </metadata>
 <defs>
  <style type="text/css">*{stroke-linejoin: round; stroke-linecap: butt}</style>
 </defs>
 <g id="figure_1">
  <g id="patch_1">
   <path d="M 0 568.8725 
L 711.635294 568.8725 
L 711.635294 0 
L 0 0 
z
" style="fill: #ffffff"/>
  </g>
  <g id="axes_1">
   <g id="patch_2">
    <path d="M 45.935294 538.431324 
L 123.405882 538.431324 
L 123.405882 460.960735 
L 45.935294 460.960735 
z
" clip-path="url(#pdbedd25896)" style="fill: #fafafa; stroke: #e5e7eb; stroke-linejoin: miter"/>
   </g>
   <g id="patch_3">
    <path d="M 123.405882 538.431324 
L 200.876471 538.431324 
L 200.876471 460.960735 
L 123.405882 460.960735 
z
" clip-path="url(#pdbedd25896)" style="fill: #fafafa; stroke: #e5e7eb; stroke-linejoin: miter"/>
   </g>
   <g id="patch_4">
    <path d="M 200.876471 538.431324 
L 278.347059 538.431324 
L 278.347059 460.960735 
L 200.876471 460.960735 
z
" clip-path="url(#pdbedd25896)" style="fill: #fafafa; stroke: #e5e7eb; stroke-linejoin: miter"/>
   </g>
   <g id="patch_5">
    <path d="M 278.347059 538.431324 
L 355.817647 538.431324 
L 355.817647 460.960735 
L 278.347059 460.960735 
z
" clip-path="url(#pdbedd25896)" style="fill: #fafafa; stroke: #e5e7eb; stroke-linejoin: miter"/>
   </g>
   <g id="patch_6">
    <path d="M 355.817647 538.431324 
L 433.288235 538.431324 
L 433.288235 460.960735 
L 355.817647 460.960735 
z
" clip-path="url(#pdbedd25896)" style="fill: #fafafa; stroke: #e5e7eb; stroke-linejoin: miter"/>
   </g>
   <g id="patch_7">
    <path d="M 433.288235 538.431324 
L 510.758824 538.431324 
L 510.758824 460.960735 
L 433.288235 460.960735 
z
" clip-path="url(#pdbedd25896)" style="fill: #fafafa; stroke: #e5e7eb; stroke-linejoin: miter"/>
   </g>
   <g id="patch_8">
    <path d="M 510.758824 538.431324 
L 588.229412 538.431324 
L 588.229412 460.960735 
L 510.758824 460.960735 
z
" clip-path="url(#pdbedd25896)" style="fill: #fafafa; stroke: #e5e7eb; stroke-linejoin: miter"/>
   </g>
   <g id="patch_9">
    <path d="M 588.229412 538.431324 
L 665.7 538.431324 
L 665.7 460.960735 
L 588.229412 460.960735 
z
" clip-path="url(#pdbedd25896)" style="fill: #fafafa; stroke: #e5e7eb; stroke-linejoin: miter"/>
   </g>
   <g id="patch_10">
    <path d="M 45.935294 460.960735 
L 123.405882 460.960735 
L 123.405882 383.490147 
L 45.935294 383.490147 
z
" clip-path="url(#pdbedd25896)" style="fill: #fafafa; stroke: #e5e7eb; stroke-linejoin: miter"/>
   </g>
   <g id="patch_11">
    <path d="M 123.405882 460.960735 
L 200.876471 460.960735 
L 200.876471 383.490147 
L 123.405882 383.490147 
z
" clip-path="url(#pdbedd25896)" style="fill: #fafafa; stroke: #e5e7eb; stroke-linejoin: miter"/>
   </g>
   <g id="patch_12">
    <path d="M 200.876471 460.960735 
L 278.347059 460.960735 
L 278.347059 383.490147 
L 200.876471 383.490147 
z
" clip-path="url(#pdbedd25896)" style="fill: #fafafa; stroke: #e5e7eb; stroke-linejoin: miter"/>
   </g>
   <g id="patch_13">
    <path d="M 278.347059 460.960735 
L 355.817647 460.960735 
L 355.817647 383.490147 
L 278.347059 383.490147 
z
" clip-path="url(#pdbedd25896)" style="fill: #fafafa; stroke: #e5e7eb; stroke-linejoin: miter"/>
   </g>
   <g id="patch_14">
    <path d="M 355.817647 460.960735 
L 433.288235 460.960735 
L 433.288235 383.490147 
L 355.817647 383.490147 
z
" clip-path="url(#pdbedd25896)" style="fill: #fafafa; stroke: #e5e7eb; stroke-linejoin: miter"/>
   </g>
   <g id="patch_15">
    <path d="M 433.288235 460.960735 
L 510.758824 460.960735 
L 510.758824 383.490147 
L 433.288235 383.490147 
z
" clip-path="url(#pdbedd25896)" style="fill: #fafafa; stroke: #e5e7eb; stroke-linejoin: miter"/>
   </g>
   <g id="patch_16">
    <path d="M 510.758824 460.960735 
L 588.229412 460.960735 
L 588.229412 383.490147 
L 510.758824 383.490147 
z
" clip-path="url(#pdbedd25896)" style="fill: #fafafa; stroke: #e5e7eb; stroke-linejoin: miter"/>
   </g>
   <g id="patch_17">
    <path d="M 588.229412 460.960735 
L 665.7 460.960735 
L 665.7 383.490147 
L 588.229412 383.490147 
z
" clip-path="url(#pdbedd25896)" style="fill: #fafafa; stroke: #e5e7eb; stroke-linejoin: miter"/>
   </g>
   <g id="patch_18">
    <path d="M 45.935294 383.490147 
L 123.405882 383.490147 
L 123.405882 306.019559 
L 45.935294 306.019559 
z
" clip-path="url(#pdbedd25896)" style="fill: #fafafa; stroke: #e5e7eb; stroke-linejoin: miter"/>
   </g>
   <g id="patch_19">
    <path d="M 123.405882 383.490147 
L 200.876471 383.490147 
L 200.876471 306.019559 
L 123.405882 306.019559 
z
" clip-path="url(#pdbedd25896)" style="fill: #fafafa; stroke: #e5e7eb; stroke-linejoin: miter"/>
   </g>
   <g id="patch_20">
    <path d="M 200.876471 383.490147 
L 278.347059 383.490147 
L 278.347059 306.019559 
L 200.876471 306.019559 
z
" clip-path="url(#pdbedd25896)" style="fill: #fafafa; stroke: #e5e7eb; stroke-linejoin: miter"/>
   </g>
   <g id="patch_21">
    <path d="M 278.347059 383.490147 
L 355.817647 383.490147 
L 355.817647 306.019559 
L 278.347059 306.019559 
z
" clip-path="url(#pdbedd25896)" style="fill: #fafafa; stroke: #e5e7eb; stroke-linejoin: miter"/>
   </g>
   <g id="patch_22">
    <path d="M 355.817647 383.490147 
L 433.288235 383.490147 
L 433.288235 306.019559 
L 355.817647 306.019559 
z
" clip-path="url(#pdbedd25896)" style="fill: #fafafa; stroke: #e5e7eb; stroke-linejoin: miter"/>
   </g>
   <g id="patch_23">
    <path d="M 433.288235 383.490147 
L 510.758824 383.490147 
L 510.758824 306.019559 
L 433.288235 306.019559 
z
" clip-path="url(#pdbedd25896)" style="fill: #fafafa; stroke: #e5e7eb; stroke-linejoin: miter"/>
   </g>
   <g id="patch_24">
    <path d="M 510.758824 383.490147 
L 588.229412 383.490147 
L 588.229412 306.019559 
L 510.758824 306.019559 
z
" clip-path="url(#pdbedd25896)" style="fill: #fafafa; stroke: #e5e7eb; stroke-linejoin: miter"/>
   </g>
   <g id="patch_25">
    <path d="M 588.229412 383.490147 
L 665.7 383.490147 
L 665.7 306.019559 
L 588.229412 306.019559 
z
" clip-path="url(#pdbedd25896)" style="fill: #fafafa; stroke: #e5e7eb; stroke-linejoin: miter"/>
   </g>
   <g id="patch_26">
    <path d="M 45.935294 306.019559 
L 123.405882 306.019559 
L 123.405882 228.548971 
L 45.935294 228.548971 
z
" clip-path="url(#pdbedd25896)" style="fill: #fafafa; stroke: #e5e7eb; stroke-linejoin: miter"/>
   </g>
   <g id="patch_27">
    <path d="M 123.405882 306.019559 
L 200.876471 306.019559 
L 200.876471 228.548971 
L 123.405882 228.548971 
z
" clip-path="url(#pdbedd25896)" style="fill: #fafafa; stroke: #e5e7eb; stroke-linejoin: miter"/>
   </g>
   <g id="patch_28">
    <path d="M 200.876471 306.019559 
L 278.347059 306.019559 
L 278.347059 228.548971 
L 200.876471 228.548971 
z
" clip-path="url(#pdbedd25896)" style="fill: #fafafa; stroke: #e5e7eb; stroke-linejoin: miter"/>
   </g>
   <g id="patch_29">
    <path d="M 278.347059 306.019559 
L 355.817647 306.019559 
L 355.817647 228.548971 
L 278.347059 228.548971 
z
" clip-path="url(#pdbedd25896)" style="fill: #fafafa; stroke: #e5e7eb; stroke-linejoin: miter"/>
   </g>
   <g id="patch_30">
    <path d="M 355.817647 306.019559 
L 433.288235 306.019559 
L 433.288235 228.548971 
L 355.817647 228.548971 
z
" clip-path="url(#pdbedd25896)" style="fill: #fafafa; stroke: #e5e7eb; stroke-linejoin: miter"/>
   </g>
   <g id="patch_31">
    <path d="M 433.288235 306.019559 
L 510.758824 306.019559 
L 510.758824 228.548971 
L 433.288235 228.548971 
z
" clip-path="url(#pdbedd25896)" style="fill: #fafafa; stroke: #e5e7eb; stroke-linejoin: miter"/>
   </g>
   <g id="patch_32">
    <path d="M 510.758824 306.019559 
L 588.229412 306.019559 
L 588.229412 228.548971 
L 510.758824 228.548971 
z
" clip-path="url(#pdbedd25896)" style="fill: #fafafa; stroke: #e5e7eb; stroke-linejoin: miter"/>
   </g>
   <g id="patch_33">
    <path d="M 588.229412 306.019559 
L 665.7 306.019559 
L 665.7 228.548971 
L 588.229412 228.548971 
z
" clip-path="url(#pdbedd25896)" style="fill: #fafafa; stroke: #e5e7eb; stroke-linejoin: miter"/>
   </g>
   <g id="patch_34">
    <path d="M 45.935294 228.548971 
L 123.405882 228.548971 
L 123.405882 151.078382 
L 45.935294 151.078382 
z
" clip-path="url(#pdbedd25896)" style="fill: #fafafa; stroke: #e5e7eb; stroke-linejoin: miter"/>
   </g>
   <g id="patch_35">
    <path d="M 123.405882 228.548971 
L 200.876471 228.548971 
L 200.876471 151.078382 
L 123.405882 151.078382 
z
" clip-path="url(#pdbedd25896)" style="fill: #fafafa; stroke: #e5e7eb; stroke-linejoin: miter"/>
   </g>
   <g id="patch_36">
    <path d="M 200.876471 228.548971 
L 278.347059 228.548971 
L 278.347059 151.078382 
L 200.876471 151.078382 
z
" clip-path="url(#pdbedd25896)" style="fill: #fafafa; stroke: #e5e7eb; stroke-linejoin: miter"/>
   </g>
   <g id="patch_37">
    <path d="M 278.347059 228.548971 
L 355.817647 228.548971 
L 355.817647 151.078382 
L 278.347059 151.078382 
z
" clip-path="url(#pdbedd25896)" style="fill: #fafafa; stroke: #e5e7eb; stroke-linejoin: miter"/>
   </g>
   <g id="patch_38">
    <path d="M 355.817647 228.548971 
L 433.288235 228.548971 
L 433.288235 151.078382 
L 355.817647 151.078382 
z
" clip-path="url(#pdbedd25896)" style="fill: #fafafa; stroke: #e5e7eb; stroke-linejoin: miter"/>
   </g>
   <g id="patch_39">
    <path d="M 433.288235 228.548971 
L 510.758824 228.548971 
L 510.758824 151.078382 
L 433.288235 151.078382 
z
" clip-path="url(#pdbedd25896)" style="fill: #fafafa; stroke: #e5e7eb; stroke-linejoin: miter"/>
   </g>
   <g id="patch_40">
    <path d="M 510.758824 228.548971 
L 588.229412 228.548971 
L 588.229412 151.078382 
L 510.758824 151.078382 
z
" clip-path="url(#pdbedd25896)" style="fill: #fafafa; stroke: #e5e7eb; stroke-linejoin: miter"/>
   </g>
   <g id="patch_41">
    <path d="M 588.229412 228.548971 
L 665.7 228.548971 
L 665.7 151.078382 
L 588.229412 151.078382 
z
" clip-path="url(#pdbedd25896)" style="fill: #fafafa; stroke: #e5e7eb; stroke-linejoin: miter"/>
   </g>
   <g id="patch_42">
    <path d="M 45.935294 151.078382 
L 123.405882 151.078382 
L 123.405882 73.607794 
L 45.935294 73.607794 
z
" clip-path="url(#pdbedd25896)" style="fill: #fafafa; stroke: #e5e7eb; stroke-linejoin: miter"/>
   </g>
   <g id="patch_43">
    <path d="M 123.405882 151.078382 
L 200.876471 151.078382 
L 200.876471 73.607794 
L 123.405882 73.607794 
z
" clip-path="url(#pdbedd25896)" style="fill: #fafafa; stroke: #e5e7eb; stroke-linejoin: miter"/>
   </g>
   <g id="patch_44">
    <path d="M 200.876471 151.078382 
L 278.347059 151.078382 
L 278.347059 73.607794 
L 200.876471 73.607794 
z
" clip-path="url(#pdbedd25896)" style="fill: #fafafa; stroke: #e5e7eb; stroke-linejoin: miter"/>
   </g>
   <g id="patch_45">
    <path d="M 278.347059 151.078382 
L 355.817647 151.078382 
L 355.817647 73.607794 
L 278.347059 73.607794 
z
" clip-path="url(#pdbedd25896)" style="fill: #fafafa; stroke: #e5e7eb; stroke-linejoin: miter"/>
   </g>
   <g id="patch_46">
    <path d="M 355.817647 151.078382 
L 433.288235 151.078382 
L 433.288235 73.607794 
L 355.817647 73.607794 
z
" clip-path="url(#pdbedd25896)" style="fill: #fafafa; stroke: #e5e7eb; stroke-linejoin: miter"/>
   </g>
   <g id="patch_47">
    <path d="M 433.288235 151.078382 
L 510.758824 151.078382 
L 510.758824 73.607794 
L 433.288235 73.607794 
z
" clip-path="url(#pdbedd25896)" style="fill: #fafafa; stroke: #e5e7eb; stroke-linejoin: miter"/>
   </g>
   <g id="patch_48">
    <path d="M 510.758824 151.078382 
L 588.229412 151.078382 
L 588.229412 73.607794 
L 510.758824 73.607794 
z
" clip-path="url(#pdbedd25896)" style="fill: #fafafa; stroke: #e5e7eb; stroke-linejoin: miter"/>
   </g>
   <g id="patch_49">
    <path d="M 588.229412 151.078382 
L 665.7 151.078382 
L 665.7 73.607794 
L 588.229412 73.607794 
z
" clip-path="url(#pdbedd25896)" style="fill: #fafafa; stroke: #e5e7eb; stroke-linejoin: miter"/>
   </g>
   <g id="patch_50">
    <path d="M 45.935294 151.078382 
L 123.405882 151.078382 
L 123.405882 73.607794 
L 45.935294 73.607794 
z
" clip-path="url(#pdbedd25896)" style="fill: #475569; stroke: #334155; stroke-width: 1.5; stroke-linejoin: miter"/>
   </g>
   <g id="patch_51">
    <path d="M 123.405882 151.078382 
L 200.876471 151.078382 
L 200.876471 73.607794 
L 123.405882 73.607794 
z
" clip-path="url(#pdbedd25896)" style="fill: #475569; stroke: #334155; stroke-width: 1.5; stroke-linejoin: miter"/>
   </g>
   <g id="patch_52">
    <path d="M 200.876471 151.078382 
L 278.347059 151.078382 
L 278.347059 73.607794 
L 200.876471 73.607794 
z
" clip-path="url(#pdbedd25896)" style="fill: #475569; stroke: #334155; stroke-width: 1.5; stroke-linejoin: miter"/>
   </g>
   <g id="patch_53">
    <path d="M 278.347059 151.078382 
L 355.817647 151.078382 
L 355.817647 73.607794 
L 278.347059 73.607794 
z
" clip-path="url(#pdbedd25896)" style="fill: #475569; stroke: #334155; stroke-width: 1.5; stroke-linejoin: miter"/>
   </g>
   <g id="patch_54">
    <path d="M 355.817647 151.078382 
L 433.288235 151.078382 
L 433.288235 73.607794 
L 355.817647 73.607794 
z
" clip-path="url(#pdbedd25896)" style="fill: #475569; stroke: #334155; stroke-width: 1.5; stroke-linejoin: miter"/>
   </g>
   <g id="patch_55">
    <path d="M 433.288235 151.078382 
L 510.758824 151.078382 
L 510.758824 73.607794 
L 433.288235 73.607794 
z
" clip-path="url(#pdbedd25896)" style="fill: #475569; stroke: #334155; stroke-width: 1.5; stroke-linejoin: miter"/>
   </g>
   <g id="patch_56">
    <path d="M 510.758824 151.078382 
L 588.229412 151.078382 
L 588.229412 73.607794 
L 510.758824 73.607794 
z
" clip-path="url(#pdbedd25896)" style="fill: #475569; stroke: #334155; stroke-width: 1.5; stroke-linejoin: miter"/>
   </g>
   <g id="patch_57">
    <path d="M 588.229412 151.078382 
L 665.7 151.078382 
L 665.7 73.607794 
L 588.229412 73.607794 
z
" clip-path="url(#pdbedd25896)" style="fill: #475569; stroke: #334155; stroke-width: 1.5; stroke-linejoin: miter"/>
   </g>
   <g id="patch_58">
    <path d="M 45.935294 538.431324 
L 123.405882 538.431324 
L 123.405882 460.960735 
L 45.935294 460.960735 
z
" clip-path="url(#pdbedd25896)" style="fill: #475569; stroke: #334155; stroke-width: 1.5; stroke-linejoin: miter"/>
   </g>
   <g id="patch_59">
    <path d="M 123.405882 538.431324 
L 200.876471 538.431324 
L 200.876471 460.960735 
L 123.405882 460.960735 
z
" clip-path="url(#pdbedd25896)" style="fill: #475569; stroke: #334155; stroke-width: 1.5; stroke-linejoin: miter"/>
   </g>
   <g id="patch_60">
    <path d="M 200.876471 538.431324 
L 278.347059 538.431324 
L 278.347059 460.960735 
L 200.876471 460.960735 
z
" clip-path="url(#pdbedd25896)" style="fill: #475569; stroke: #334155; stroke-width: 1.5; stroke-linejoin: miter"/>
   </g>
   <g id="patch_61">
    <path d="M 278.347059 538.431324 
L 355.817647 538.431324 
L 355.817647 460.960735 
L 278.347059 460.960735 
z
" clip-path="url(#pdbedd25896)" style="fill: #475569; stroke: #334155; stroke-width: 1.5; stroke-linejoin: miter"/>
   </g>
   <g id="patch_62">
    <path d="M 355.817647 538.431324 
L 433.288235 538.431324 
L 433.288235 460.960735 
L 355.817647 460.960735 
z
" clip-path="url(#pdbedd25896)" style="fill: #475569; stroke: #334155; stroke-width: 1.5; stroke-linejoin: miter"/>
   </g>
   <g id="patch_63">
    <path d="M 433.288235 538.431324 
L 510.758824 538.431324 
L 510.758824 460.960735 
L 433.288235 460.960735 
z
" clip-path="url(#pdbedd25896)" style="fill: #475569; stroke: #334155; stroke-width: 1.5; stroke-linejoin: miter"/>
   </g>
   <g id="patch_64">
    <path d="M 510.758824 538.431324 
L 588.229412 538.431324 
L 588.229412 460.960735 
L 510.758824 460.960735 
z
" clip-path="url(#pdbedd25896)" style="fill: #475569; stroke: #334155; stroke-width: 1.5; stroke-linejoin: miter"/>
   </g>
   <g id="patch_65">
    <path d="M 588.229412 538.431324 
L 665.7 538.431324 
L 665.7 460.960735 
L 588.229412 460.960735 
z
" clip-path="url(#pdbedd25896)" style="fill: #475569; stroke: #334155; stroke-width: 1.5; stroke-linejoin: miter"/>
   </g>
   <g id="patch_66">
    <path d="M 45.935294 460.960735 
L 123.405882 460.960735 
L 123.405882 383.490147 
L 45.935294 383.490147 
z
" clip-path="url(#pdbedd25896)" style="fill: #475569; stroke: #334155; stroke-width: 1.5; stroke-linejoin: miter"/>
   </g>
   <g id="patch_67">
    <path d="M 45.935294 383.490147 
L 123.405882 383.490147 
L 123.405882 306.019559 
L 45.935294 306.019559 
z
" clip-path="url(#pdbedd25896)" style="fill: #475569; stroke: #334155; stroke-width: 1.5; stroke-linejoin: miter"/>
   </g>
   <g id="patch_68">
    <path d="M 45.935294 306.019559 
L 123.405882 306.019559 
L 123.405882 228.548971 
L 45.935294 228.548971 
z
" clip-path="url(#pdbedd25896)" style="fill: #475569; stroke: #334155; stroke-width: 1.5; stroke-linejoin: miter"/>
   </g>
   <g id="patch_69">
    <path d="M 45.935294 228.548971 
L 123.405882 228.548971 
L 123.405882 151.078382 
L 45.935294 151.078382 
z
" clip-path="url(#pdbedd25896)" style="fill: #475569; stroke: #334155; stroke-width: 1.5; stroke-linejoin: miter"/>
   </g>
   <g id="patch_70">
    <path d="M 588.229412 460.960735 
L 665.7 460.960735 
L 665.7 383.490147 
L 588.229412 383.490147 
z
" clip-path="url(#pdbedd25896)" style="fill: #475569; stroke: #334155; stroke-width: 1.5; stroke-linejoin: miter"/>
   </g>
   <g id="patch_71">
    <path d="M 588.229412 383.490147 
L 665.7 383.490147 
L 665.7 306.019559 
L 588.229412 306.019559 
z
" clip-path="url(#pdbedd25896)" style="fill: #475569; stroke: #334155; stroke-width: 1.5; stroke-linejoin: miter"/>
   </g>
   <g id="patch_72">
    <path d="M 588.229412 306.019559 
L 665.7 306.019559 
L 665.7 228.548971 
L 588.229412 228.548971 
z
" clip-path="url(#pdbedd25896)" style="fill: #475569; stroke: #334155; stroke-width: 1.5; stroke-linejoin: miter"/>
   </g>
   <g id="patch_73">
    <path d="M 588.229412 228.548971 
L 665.7 228.548971 
L 665.7 151.078382 
L 588.229412 151.078382 
z
" clip-path="url(#pdbedd25896)" style="fill: #475569; stroke: #334155; stroke-width: 1.5; stroke-linejoin: miter"/>
   </g>
   <g id="patch_74">
    <path d="M 278.347059 306.019559 
L 355.817647 306.019559 
L 355.817647 228.548971 
L 278.347059 228.548971 
z
" clip-path="url(#pdbedd25896)" style="fill: #475569; stroke: #334155; stroke-width: 1.5; stroke-linejoin: miter"/>
   </g>
   <g id="patch_75">
    <path d="M 355.817647 306.019559 
L 433.288235 306.019559 
L 433.288235 228.548971 
L 355.817647 228.548971 
z
" clip-path="url(#pdbedd25896)" style="fill: #475569; stroke: #334155; stroke-width: 1.5; stroke-linejoin: miter"/>
   </g>
   <g id="patch_76">
    <path d="M 433.288235 460.960735 
L 510.758824 460.960735 
L 510.758824 383.490147 
L 433.288235 383.490147 
z
" clip-path="url(#pdbedd25896)" style="fill: #475569; stroke: #334155; stroke-width: 1.5; stroke-linejoin: miter"/>
   </g>
   <g id="patch_77">
    <path d="M 433.288235 383.490147 
L 510.758824 383.490147 
L 510.758824 306.019559 
L 433.288235 306.019559 
z
" clip-path="url(#pdbedd25896)" style="fill: #475569; stroke: #334155; stroke-width: 1.5; stroke-linejoin: miter"/>
   </g>
   <g id="PathCollection_1">
    <defs>
     <path id="m5f0b8a78e0" d="M 0 4.472136 
C 1.186024 4.472136 2.323632 4.000923 3.162278 3.162278 
C 4.000923 2.323632 4.472136 1.186024 4.472136 0 
C 4.472136 -1.186024 4.000923 -2.323632 3.162278 -3.162278 
C 2.323632 -4.000923 1.186024 -4.472136 0 -4.472136 
C -1.186024 -4.472136 -2.323632 -4.000923 -3.162278 -3.162278 
C -4.000923 -2.323632 -4.472136 -1.186024 -4.472136 0 
C -4.472136 1.186024 -4.000923 2.323632 -3.162278 3.162278 
C -2.323632 4.000923 -1.186024 4.472136 0 4.472136 
z
" style="stroke: #059669"/>
    </defs>
    <g clip-path="url(#pdbedd25896)">
     <use xlink:href="#m5f0b8a78e0" x="123.405882" y="476.454853" style="fill: #059669; stroke: #059669"/>
    </g>
   </g>
   <g id="PathCollection_2">
    <defs>
     <path id="maa59d8d7bb" d="M -4.472136 4.472136 
L 4.472136 4.472136 
L 4.472136 -4.472136 
L -4.472136 -4.472136 
z
" style="stroke: #f59e0b"/>
    </defs>
    <g clip-path="url(#pdbedd25896)">
     <use xlink:href="#maa59d8d7bb" x="355.817647" y="476.454853" style="fill: #f59e0b; stroke: #f59e0b"/>
    </g>
   </g>
   <g id="PathCollection_3">
    <defs>
     <path id="m91d12c3ab4" d="M -2.236068 4.472136 
L 0 2.236068 
L 2.236068 4.472136 
L 4.472136 2.236068 
L 2.236068 0 
L 4.472136 -2.236068 
L 2.236068 -4.472136 
L 0 -2.236068 
L -2.236068 -4.472136 
L -4.472136 -2.236068 
L -2.236068 0 
L -4.472136 2.236068 
z
" style="stroke: #dc2626"/>
    </defs>
    <g clip-path="url(#pdbedd25896)">
     <use xlink:href="#m91d12c3ab4" x="549.494118" y="476.454853" style="fill: #dc2626; stroke: #dc2626"/>
    </g>
   </g>
   <g id="line2d_1">
    <path d="M 216.370588 344.754853 
L 216.349998 343.260597 
L 216.288242 341.767476 
L 216.185367 340.276624 
L 216.041452 338.789172 
L 215.856606 337.30625 
L 215.63097 335.828985 
L 215.364714 334.358498 
L 215.05804 332.895906 
L 214.711183 331.442319 
L 214.324404 329.998842 
L 213.897998 328.56657 
L 213.432289 327.146592 
L 212.92763 325.739985 
L 212.384405 324.347817 
L 211.803025 322.971146 
L 211.183933 321.611018 
L 210.527599 320.268465 
L 209.834521 318.944506 
L 209.105225 317.640147 
" clip-path="url(#pdbedd25896)" style="fill: none; stroke: #2563eb; stroke-width: 2.5; stroke-linecap: square"/>
   </g>
   <g id="patch_78">
    <path d="M 414.892946 198.828551 
Q 423.224943 194.01807 428.652203 190.88464 
" style="fill: none; stroke: #2563eb; stroke-width: 3; stroke-linecap: round"/>
    <path d="M 424.188101 191.152589 
L 428.652203 190.88464 
L 426.188101 194.616691 
" style="fill: none; stroke: #2563eb; stroke-width: 3; stroke-linecap: round"/>
   </g>
   <g id="text_1">
    <!-- 衝突！ -->
    <g style="fill: #dc2626" transform="translate(444.908824 168.840378) scale(0.12 -0.12)">
     <defs>
      <path id="HiraginoSans-W7-885d" d="M 2790 4314 
L 2278 4314 
C 2016 4314 1894 4320 1722 4339 
L 1722 3782 
L 1370 4032 
C 1152 3475 627 2822 90 2426 
C 218 2106 256 1971 339 1542 
C 550 1728 582 1754 691 1888 
C 685 1504 685 1427 685 1146 
L 685 192 
C 685 -154 672 -358 646 -557 
L 1498 -557 
C 1472 -358 1466 -186 1466 160 
L 1466 2694 
C 1619 2918 1683 3021 1805 3245 
C 1811 3123 1811 3091 1811 3008 
L 1811 1882 
C 1811 1715 1805 1568 1792 1414 
C 1997 1421 2144 1427 2291 1427 
L 2790 1427 
L 2790 1165 
L 2368 1165 
C 2150 1165 1978 1171 1818 1190 
L 1818 582 
C 2003 602 2150 608 2368 608 
L 2790 608 
L 2790 314 
C 2374 288 2208 282 2016 282 
C 1997 282 1971 282 1933 282 
C 1882 282 1830 282 1811 282 
C 1747 288 1728 288 1670 288 
L 1760 -429 
C 1894 -410 1965 -403 2138 -390 
C 2970 -333 3507 -282 4435 -160 
C 4461 -288 4467 -339 4480 -499 
C 4698 -512 4768 -512 4883 -512 
C 5562 -512 5760 -346 5760 211 
L 5760 2861 
C 5939 2861 6042 2854 6221 2835 
L 6221 3642 
C 6061 3622 5939 3616 5702 3616 
L 4774 3616 
C 4627 3616 4576 3622 4448 3642 
L 4448 3475 
C 4365 3462 4333 3462 4211 3462 
L 3507 3462 
L 3507 3693 
L 4211 3693 
C 4384 3693 4474 3686 4589 3674 
L 4589 4333 
C 4659 4339 4710 4339 4794 4339 
L 5638 4339 
C 5856 4339 5990 4333 6150 4314 
L 6150 5126 
C 6016 5101 5901 5094 5645 5094 
L 4979 5094 
C 4762 5094 4640 5101 4493 5126 
L 4493 4326 
C 4416 4314 4352 4314 4262 4314 
L 3507 4314 
L 3507 4640 
C 3859 4691 4096 4742 4422 4838 
L 3987 5446 
C 3539 5267 2829 5152 1843 5114 
C 1965 4896 2022 4723 2061 4493 
C 2406 4512 2502 4525 2790 4550 
L 2790 4314 
z
M 2790 3693 
L 2790 3462 
L 2131 3462 
C 2054 3462 2029 3462 1946 3469 
C 1971 3514 1978 3520 2010 3578 
L 1856 3686 
C 1920 3693 1984 3693 2042 3693 
L 2790 3693 
z
M 3507 608 
L 3872 608 
C 4192 608 4198 608 4435 589 
L 4435 1190 
C 4243 1171 4096 1165 3872 1165 
L 3507 1165 
L 3507 1427 
L 4013 1427 
C 4173 1427 4282 1421 4506 1414 
C 4493 1549 4486 1702 4486 1894 
L 4486 2842 
C 4589 2854 4640 2861 4774 2861 
L 4966 2861 
L 4966 371 
C 4966 269 4934 237 4826 237 
C 4755 237 4634 243 4442 262 
L 4442 442 
C 4013 397 3846 384 3507 358 
L 3507 608 
z
M 2816 2938 
L 2816 2694 
L 2445 2694 
L 2445 2938 
L 2816 2938 
z
M 3475 2938 
L 3846 2938 
L 3846 2694 
L 3475 2694 
L 3475 2938 
z
M 2816 2195 
L 2816 1939 
L 2445 1939 
L 2445 2195 
L 2816 2195 
z
M 3475 2195 
L 3846 2195 
L 3846 1939 
L 3475 1939 
L 3475 2195 
z
M 1210 5466 
C 986 5018 621 4614 134 4282 
C 301 4013 358 3898 486 3533 
C 1037 3949 1350 4269 1901 4979 
L 1210 5466 
z
" transform="scale(0.015625)"/>
      <path id="HiraginoSans-W7-7a81" d="M 5280 1395 
C 5594 1395 5805 1382 6010 1357 
L 6010 2189 
C 5811 2163 5600 2150 5261 2150 
L 3539 2150 
C 3565 2381 3584 2573 3584 2688 
C 3782 2630 4013 2605 4358 2605 
C 4896 2605 5133 2637 5344 2720 
C 5562 2816 5645 3008 5670 3469 
L 6010 3469 
C 5990 3610 5984 3763 5984 3968 
L 5984 4442 
C 5984 4659 5990 4787 6003 4928 
C 5811 4909 5613 4902 5274 4902 
L 3578 4902 
L 3578 5005 
C 3578 5152 3584 5274 3610 5395 
L 2662 5395 
C 2688 5248 2694 5146 2694 5005 
L 2694 4902 
L 1133 4902 
C 794 4902 589 4909 397 4928 
C 416 4800 422 4659 422 4442 
L 422 3974 
C 422 3770 410 3622 384 3475 
L 1229 3475 
L 1229 4173 
L 2099 4173 
C 1990 3450 1510 3130 416 3078 
C 627 2822 730 2643 851 2349 
C 1318 2419 1613 2509 1894 2650 
C 2253 2835 2541 3123 2707 3462 
C 2803 3667 2842 3802 2899 4173 
L 3315 4173 
L 3315 3174 
C 3315 2950 3328 2880 3398 2797 
L 2701 2797 
C 2714 2714 2720 2669 2720 2547 
C 2720 2374 2720 2323 2694 2150 
L 1101 2150 
C 794 2150 608 2163 390 2189 
L 390 1357 
C 602 1382 813 1395 1133 1395 
L 2464 1395 
C 2285 1062 2003 832 1536 627 
C 1171 474 851 397 230 320 
C 467 -19 531 -141 653 -493 
C 1210 -390 1568 -282 1914 -115 
C 2477 154 2822 448 3104 909 
C 3334 608 3610 365 3962 141 
C 4480 -192 4954 -358 5798 -512 
C 5901 -141 6010 115 6182 384 
C 5510 422 5062 518 4614 730 
C 4224 909 3930 1139 3750 1395 
L 5280 1395 
z
M 5178 3725 
C 5082 3757 5037 3776 4902 3834 
C 4909 3776 4909 3738 4909 3712 
C 4909 3526 4896 3405 4864 3360 
C 4819 3302 4717 3277 4493 3277 
C 4378 3277 4237 3283 4179 3296 
C 4109 3309 4090 3341 4090 3430 
L 4090 4173 
L 5178 4173 
L 5178 3725 
z
" transform="scale(0.015625)"/>
      <path id="HiraginoSans-W7-ff01" d="M 3648 1350 
C 3642 1510 3635 1574 3635 1645 
C 3635 1722 3635 1722 3654 2112 
L 3763 4218 
C 3776 4550 3802 4851 3827 5037 
L 2579 5037 
C 2605 4819 2630 4506 2643 4218 
L 2752 2112 
C 2771 1734 2771 1734 2771 1651 
C 2771 1581 2765 1510 2758 1350 
L 3648 1350 
z
M 3750 -173 
L 3750 864 
L 2656 864 
L 2656 -173 
L 3750 -173 
z
" transform="scale(0.015625)"/>
     </defs>
     <use xlink:href="#HiraginoSans-W7-885d"/>
     <use xlink:href="#HiraginoSans-W7-7a81" transform="translate(99.999985 0)"/>
     <use xlink:href="#HiraginoSans-W7-ff01" transform="translate(199.999969 0)"/>
    </g>
   </g>
   <g id="text_2">
    <!-- プレイヤー -->
    <g style="fill: #059669" transform="translate(132.141176 383.490147) scale(0.12 -0.12)">
     <defs>
      <path id="HiraginoSans-W7-30d7" d="M 1638 4704 
C 1107 4704 909 4710 634 4749 
L 634 3770 
C 896 3802 1101 3808 1626 3808 
L 4429 3808 
C 4134 2643 3507 1766 2522 1139 
C 2054 845 1702 678 1146 506 
C 1510 141 1613 0 1824 -410 
C 2925 83 3648 582 4237 1274 
C 4826 1958 5235 2790 5504 3866 
L 5530 3955 
C 5536 3955 5549 3955 5555 3955 
C 5946 3955 6259 4275 6259 4666 
C 6259 5056 5946 5376 5549 5376 
C 5178 5376 4870 5088 4845 4717 
C 4723 4704 4646 4704 4570 4704 
L 1638 4704 
z
M 5549 4979 
C 5722 4979 5862 4838 5862 4666 
C 5862 4493 5722 4352 5549 4352 
C 5376 4352 5235 4493 5235 4666 
C 5235 4838 5376 4979 5549 4979 
z
" transform="scale(0.015625)"/>
      <path id="HiraginoSans-W7-30ec" d="M 1190 5101 
C 1216 4928 1229 4685 1229 4378 
C 1229 4346 1229 4320 1222 4288 
L 1197 864 
C 1197 518 1184 422 1133 275 
L 1619 -301 
C 1734 -250 1805 -230 2003 -192 
C 3866 147 4966 838 5875 2240 
C 5530 2522 5427 2630 5146 3021 
C 4832 2413 4448 1965 3904 1574 
C 3405 1216 2880 992 2195 851 
L 2234 4294 
C 2234 4646 2246 4845 2278 5088 
L 1190 5101 
z
" transform="scale(0.015625)"/>
      <path id="HiraginoSans-W7-30a4" d="M 4877 5242 
C 4685 4922 4256 4493 3693 4058 
C 2682 3277 1613 2752 320 2394 
C 589 2048 666 1920 838 1523 
C 1997 1952 2362 2118 3027 2515 
L 3027 570 
C 3027 45 3021 -115 2989 -358 
L 4045 -358 
C 4019 -141 4013 77 4013 589 
L 4013 3110 
C 4538 3488 5024 3910 5510 4416 
C 5606 4518 5619 4531 5754 4646 
L 4877 5242 
z
" transform="scale(0.015625)"/>
      <path id="HiraginoSans-W7-30e4" d="M 5530 4640 
C 5408 4576 5344 4557 5152 4525 
L 2656 4115 
L 2579 4531 
C 2490 4992 2477 5114 2464 5325 
L 1453 5171 
C 1523 4934 1555 4794 1626 4384 
L 1702 3955 
L 1254 3885 
C 794 3808 678 3795 339 3782 
L 499 2835 
C 890 2938 896 2938 1370 3014 
L 1856 3098 
L 2336 461 
C 2426 -32 2445 -198 2458 -442 
L 3507 -262 
C 3430 -38 3366 230 3296 634 
L 2810 3258 
L 4858 3603 
C 4602 3034 4288 2688 3590 2195 
C 3981 1971 4096 1882 4371 1606 
C 4749 1926 4941 2118 5146 2368 
C 5466 2758 5779 3302 5933 3738 
C 6022 3994 6035 4019 6093 4115 
L 5530 4640 
z
" transform="scale(0.015625)"/>
      <path id="HiraginoSans-W7-30fc" d="M 410 1914 
C 659 1939 1024 1952 1581 1952 
L 4813 1952 
C 5312 1952 5734 1939 5990 1920 
L 5990 2970 
C 5696 2931 5466 2925 4819 2925 
L 1581 2925 
C 928 2925 698 2938 410 2976 
L 410 1914 
z
" transform="scale(0.015625)"/>
     </defs>
     <use xlink:href="#HiraginoSans-W7-30d7"/>
     <use xlink:href="#HiraginoSans-W7-30ec" transform="translate(99.999985 0)"/>
     <use xlink:href="#HiraginoSans-W7-30a4" transform="translate(199.999969 0)"/>
     <use xlink:href="#HiraginoSans-W7-30e4" transform="translate(299.999954 0)"/>
     <use xlink:href="#HiraginoSans-W7-30fc" transform="translate(399.999939 0)"/>
    </g>
   </g>
   <g id="text_3">
    <!-- θ -->
    <g style="fill: #2563eb" transform="translate(231.864706 321.513676) scale(0.16 -0.16)">
     <defs>
      <path id="HiraginoSans-W7-3b8" d="M 3603 5152 
C 3379 5152 3162 5120 2957 5043 
C 2541 4902 2150 4550 1901 4090 
C 1523 3386 1312 2496 1312 1581 
C 1312 358 1837 -282 2835 -282 
C 3539 -282 4122 70 4474 723 
C 4851 1408 5082 2400 5082 3322 
C 5082 4518 4570 5152 3603 5152 
z
M 2438 2899 
C 2586 3418 2694 3686 2867 3930 
C 3072 4211 3290 4346 3539 4346 
C 3910 4346 4134 4032 4134 3501 
C 4134 3379 4122 3194 4090 2899 
L 2438 2899 
z
M 3968 2086 
C 3859 1619 3770 1370 3629 1114 
C 3405 710 3149 518 2848 518 
C 2451 518 2253 832 2253 1472 
C 2253 1651 2266 1786 2304 2086 
L 3968 2086 
z
" transform="scale(0.015625)"/>
     </defs>
     <use xlink:href="#HiraginoSans-W7-3b8"/>
    </g>
   </g>
   <g id="text_4">
    <!-- 水平線との交点 -->
    <g transform="translate(146.647059 479.28454) scale(0.1 -0.1)">
     <defs>
      <path id="HiraginoSans-W4-6c34" d="M 5280 4301 
C 5088 3904 4678 3450 3974 2854 
C 3706 3334 3565 3699 3475 4134 
L 3475 4602 
C 3475 4845 3488 5043 3520 5254 
L 2938 5254 
C 2970 5050 2982 4845 2982 4602 
L 2982 275 
C 2982 134 2944 102 2778 102 
C 2515 102 2272 122 1901 179 
C 1984 -26 2010 -128 2029 -346 
C 2323 -371 2611 -384 2842 -384 
C 3341 -384 3482 -262 3482 166 
L 3482 1958 
C 3482 2266 3475 2458 3443 3136 
C 3699 2413 4006 1869 4467 1331 
C 4819 928 5325 499 5786 211 
C 5946 461 5997 525 6176 691 
C 5357 1120 4787 1632 4224 2451 
C 4787 2912 5203 3309 5555 3718 
C 5664 3846 5664 3846 5754 3930 
L 5280 4301 
z
M 2413 3763 
C 2291 3744 2150 3738 1818 3738 
L 1139 3738 
C 819 3738 672 3744 499 3770 
L 499 3213 
C 653 3238 858 3251 1114 3251 
L 2099 3251 
C 1907 2560 1677 2099 1286 1587 
C 973 1184 653 883 256 608 
C 448 474 538 397 685 218 
C 1587 947 2208 1882 2560 3072 
C 2630 3328 2643 3354 2694 3482 
L 2413 3763 
z
" transform="scale(0.015625)"/>
      <path id="HiraginoSans-W4-5e73" d="M 2918 4653 
L 2918 2342 
L 1056 2342 
C 717 2342 525 2355 333 2387 
L 333 1830 
C 525 1862 749 1875 1069 1875 
L 2918 1875 
L 2918 198 
C 2918 -58 2906 -294 2874 -531 
L 3475 -531 
C 3443 -288 3430 -38 3430 198 
L 3430 1875 
L 5350 1875 
C 5683 1875 5907 1862 6080 1830 
L 6080 2387 
C 5901 2355 5690 2342 5370 2342 
L 3430 2342 
L 3430 4653 
L 5114 4653 
C 5408 4653 5606 4640 5818 4614 
L 5818 5152 
C 5626 5126 5421 5114 5107 5114 
L 1331 5114 
C 1011 5114 806 5126 614 5152 
L 614 4614 
C 826 4640 1030 4653 1318 4653 
L 2918 4653 
z
M 992 4179 
C 1331 3654 1523 3277 1766 2598 
L 2246 2842 
C 1984 3462 1786 3840 1427 4390 
L 992 4179 
z
M 4941 4384 
C 4685 3674 4486 3309 4058 2765 
L 4506 2534 
C 4928 3117 5133 3482 5408 4166 
L 4941 4384 
z
" transform="scale(0.015625)"/>
      <path id="HiraginoSans-W4-7dda" d="M 397 2125 
C 506 2144 570 2157 678 2163 
C 1222 2195 1222 2195 1370 2208 
L 1370 160 
C 1370 -102 1357 -288 1331 -493 
L 1850 -493 
C 1818 -307 1811 -134 1811 154 
L 1811 2246 
C 2003 2266 2074 2272 2170 2285 
C 2291 2304 2291 2304 2362 2310 
C 2381 2227 2400 2163 2432 2022 
L 2797 2195 
C 2650 2701 2579 2886 2362 3360 
L 2016 3213 
C 2131 2976 2170 2886 2240 2688 
C 1939 2650 1728 2630 1338 2605 
C 1709 3098 1920 3392 2125 3712 
C 2400 4147 2400 4147 2573 4403 
L 2138 4627 
C 2054 4390 1850 4026 1510 3507 
C 1370 3680 1312 3744 1165 3917 
C 1421 4288 1594 4589 1779 4954 
C 1850 5094 1882 5152 1926 5216 
L 1466 5395 
C 1408 5126 1216 4730 883 4211 
C 768 4326 742 4352 595 4499 
L 333 4128 
C 698 3808 934 3558 1267 3155 
C 1088 2899 1088 2899 845 2586 
C 691 2579 691 2579 582 2579 
C 480 2579 422 2586 333 2598 
L 397 2125 
z
M 3475 4826 
C 3181 4826 3027 4832 2867 4851 
C 2880 4685 2893 4486 2893 4243 
L 2893 3181 
C 2893 2938 2880 2739 2867 2579 
C 3040 2598 3226 2605 3482 2605 
L 4070 2605 
L 4070 186 
C 4070 77 4026 51 3859 51 
C 3693 51 3501 70 3264 102 
C 3334 -51 3366 -154 3398 -371 
C 3501 -384 3744 -390 3866 -390 
C 4358 -390 4525 -269 4525 96 
L 4525 832 
C 4518 1094 4506 1427 4461 1907 
C 4678 1280 4851 954 5190 512 
C 5427 211 5613 26 5952 -243 
C 6054 -32 6138 77 6266 198 
C 5805 506 5491 819 5158 1286 
C 5466 1549 5696 1766 6035 2131 
L 5702 2438 
C 5427 2093 5235 1888 4941 1632 
C 4723 2016 4640 2221 4544 2605 
L 5158 2605 
C 5414 2605 5581 2598 5760 2579 
C 5741 2752 5734 2899 5734 3174 
L 5734 4237 
C 5734 4525 5741 4672 5760 4851 
C 5600 4832 5446 4826 5152 4826 
L 4365 4826 
C 4448 4992 4506 5126 4582 5318 
L 4064 5408 
C 4032 5235 3987 5094 3872 4826 
L 3475 4826 
z
M 3334 4435 
L 5286 4435 
L 5286 3917 
L 3334 3917 
L 3334 4435 
z
M 3334 3526 
L 5286 3526 
L 5286 2989 
L 3334 2989 
L 3334 3526 
z
M 666 1818 
C 602 966 531 576 346 64 
L 742 -141 
C 928 422 947 538 1075 1754 
L 666 1818 
z
M 2029 1741 
C 2138 1325 2208 941 2253 480 
L 2630 602 
C 2566 1050 2502 1370 2374 1843 
L 2029 1741 
z
M 3750 2067 
C 3674 2054 3590 2048 3430 2048 
L 3072 2048 
C 2861 2048 2771 2054 2643 2080 
L 2643 1613 
C 2778 1632 2874 1638 3059 1638 
L 3437 1638 
C 3174 998 2829 563 2240 147 
C 2394 26 2483 -77 2560 -211 
C 2848 32 3027 211 3213 442 
C 3430 710 3654 1101 3782 1414 
C 3878 1677 3878 1677 3955 1837 
L 3750 2067 
z
" transform="scale(0.015625)"/>
      <path id="HiraginoSans-W4-3068" d="M 1971 5056 
C 2010 4954 2016 4922 2074 4646 
C 2227 3885 2355 3392 2528 2874 
C 2131 2675 1926 2547 1683 2342 
C 1318 2042 1114 1651 1114 1261 
C 1114 826 1306 467 1651 269 
C 2035 51 2541 -38 3366 -38 
C 3834 -38 4160 -19 4826 51 
C 5178 90 5178 90 5312 90 
L 5254 723 
C 4845 582 4109 493 3373 493 
C 2938 493 2522 531 2304 589 
C 1894 698 1690 915 1690 1248 
C 1690 1498 1811 1741 2022 1933 
C 2298 2170 2707 2400 3206 2592 
C 3923 2867 4710 3117 5190 3219 
L 4973 3795 
C 4858 3731 4832 3725 4550 3622 
C 3424 3238 3424 3238 3034 3078 
C 2816 3725 2592 4723 2566 5165 
L 1971 5056 
z
" transform="scale(0.015625)"/>
      <path id="HiraginoSans-W4-306e" d="M 3053 422 
C 3200 243 3245 160 3328 -96 
C 3821 6 4090 90 4397 237 
C 5293 666 5798 1459 5798 2451 
C 5798 3802 4832 4698 3379 4698 
C 2509 4698 1792 4403 1274 3834 
C 832 3347 589 2707 589 2042 
C 589 1107 1062 422 1709 422 
C 2189 422 2573 806 2938 1645 
C 3238 2323 3469 3264 3578 4205 
C 3891 4186 4070 4141 4294 4032 
C 4902 3738 5242 3174 5242 2477 
C 5242 1734 4870 1107 4230 768 
C 3917 602 3610 512 3053 422 
z
M 3027 4192 
C 2944 3398 2714 2483 2458 1888 
C 2195 1286 1952 992 1702 992 
C 1370 992 1114 1453 1114 2035 
C 1114 2797 1491 3501 2112 3891 
C 2394 4077 2656 4160 3027 4192 
z
" transform="scale(0.015625)"/>
      <path id="HiraginoSans-W4-4ea4" d="M 4000 2829 
C 3866 2432 3578 1984 3206 1568 
C 2822 1978 2579 2349 2387 2822 
L 1939 2573 
C 2157 2195 2266 2003 2266 2003 
C 2445 1715 2598 1510 2861 1235 
C 2208 666 1389 256 384 -6 
C 531 -192 589 -294 653 -486 
C 1715 -147 2509 282 3200 896 
C 3898 269 4653 -128 5830 -474 
C 5907 -243 5946 -173 6093 32 
C 5414 198 4954 365 4448 634 
C 4109 813 3802 1024 3546 1242 
C 3846 1568 4070 1888 4467 2560 
L 4000 2829 
z
M 2906 4557 
L 1165 4557 
C 832 4557 614 4570 422 4602 
L 422 4064 
C 608 4090 800 4102 1165 4102 
L 5248 4102 
C 5587 4102 5850 4090 5997 4064 
L 5997 4602 
C 5811 4570 5587 4557 5248 4557 
L 3405 4557 
L 3405 4826 
C 3405 5050 3418 5222 3450 5344 
L 2867 5344 
C 2893 5184 2906 5018 2906 4826 
L 2906 4557 
z
M 2086 3917 
C 1843 3520 1664 3290 1363 3014 
C 1069 2739 813 2554 435 2342 
C 602 2208 691 2112 794 1952 
C 1152 2195 1370 2368 1658 2643 
C 2010 2963 2202 3206 2515 3680 
L 2086 3917 
z
M 3814 3674 
C 4134 3245 4320 3034 4627 2765 
C 4954 2477 5197 2304 5683 2016 
C 5779 2195 5869 2317 6003 2451 
C 5523 2694 5280 2848 4979 3091 
C 4666 3347 4493 3533 4211 3930 
L 3814 3674 
z
" transform="scale(0.015625)"/>
      <path id="HiraginoSans-W4-70b9" d="M 3341 4122 
L 5114 4122 
C 5350 4122 5542 4109 5766 4083 
L 5766 4602 
C 5587 4576 5402 4563 5114 4563 
L 3341 4563 
L 3341 4736 
C 3341 4973 3354 5165 3386 5331 
L 2790 5331 
C 2822 5152 2835 4941 2835 4704 
L 2835 3341 
L 1850 3341 
C 1555 3341 1325 3354 1126 3373 
C 1146 3206 1152 3072 1152 2874 
L 1152 1805 
C 1152 1632 1146 1498 1126 1338 
C 1318 1357 1498 1363 1773 1363 
L 4640 1363 
C 4922 1363 5088 1357 5286 1338 
C 5267 1491 5261 1606 5261 1811 
L 5261 2874 
C 5261 3085 5267 3232 5286 3373 
C 5107 3347 4915 3341 4570 3341 
L 3341 3341 
L 3341 4122 
z
M 4774 2893 
L 4774 1818 
L 1645 1818 
L 1645 2893 
L 4774 2893 
z
M 749 -474 
C 1126 -19 1331 352 1562 966 
L 1114 1146 
C 1005 806 941 659 781 403 
C 627 147 531 26 294 -205 
L 749 -474 
z
M 2803 -378 
C 2778 109 2733 435 2618 1018 
L 2176 947 
C 2278 410 2304 141 2304 -474 
L 2803 -378 
z
M 4378 -288 
C 4211 211 4070 563 3827 1069 
L 3405 941 
C 3648 397 3776 26 3885 -480 
L 4378 -288 
z
M 5984 -205 
C 5632 429 5504 640 5126 1165 
L 4704 986 
C 5069 474 5242 160 5523 -467 
L 5984 -205 
z
" transform="scale(0.015625)"/>
     </defs>
     <use xlink:href="#HiraginoSans-W4-6c34"/>
     <use xlink:href="#HiraginoSans-W4-5e73" transform="translate(99.999985 0)"/>
     <use xlink:href="#HiraginoSans-W4-7dda" transform="translate(199.999969 0)"/>
     <use xlink:href="#HiraginoSans-W4-3068" transform="translate(299.999954 0)"/>
     <use xlink:href="#HiraginoSans-W4-306e" transform="translate(399.999939 0)"/>
     <use xlink:href="#HiraginoSans-W4-4ea4" transform="translate(499.999924 0)"/>
     <use xlink:href="#HiraginoSans-W4-70b9" transform="translate(599.999908 0)"/>
    </g>
   </g>
   <g id="text_5">
    <!-- 垂直線との交点 -->
    <g transform="translate(379.058824 479.28454) scale(0.1 -0.1)">
     <defs>
      <path id="HiraginoSans-W4-5782" d="M 2912 3891 
L 1261 3891 
C 998 3891 774 3904 595 3930 
L 595 3443 
C 794 3469 986 3475 1222 3475 
L 1453 3475 
L 1453 2701 
L 934 2701 
C 672 2701 442 2714 269 2739 
L 269 2234 
C 474 2259 646 2272 934 2272 
L 1453 2272 
L 1453 1414 
L 1229 1414 
C 966 1414 794 1421 602 1446 
L 602 960 
C 800 986 973 998 1267 998 
L 2912 998 
L 2912 218 
L 1062 218 
C 806 218 576 230 397 256 
L 397 -256 
C 582 -230 781 -218 1062 -218 
L 5370 -218 
C 5651 -218 5843 -230 6029 -256 
L 6029 256 
C 5850 230 5645 218 5370 218 
L 3386 218 
L 3386 998 
L 5126 998 
C 5414 998 5613 986 5792 960 
L 5792 1446 
C 5594 1421 5427 1414 5165 1414 
L 4909 1414 
L 4909 2272 
L 5478 2272 
C 5760 2272 5952 2259 6138 2234 
L 6138 2739 
C 5939 2714 5754 2701 5478 2701 
L 4909 2701 
L 4909 3475 
L 5158 3475 
C 5389 3475 5606 3462 5786 3443 
L 5786 3930 
C 5606 3904 5408 3891 5120 3891 
L 3386 3891 
L 3386 4589 
C 4051 4653 4544 4717 5158 4838 
C 5325 4864 5344 4870 5459 4890 
L 5126 5350 
C 4512 5107 2650 4896 1043 4896 
C 979 4896 870 4896 742 4896 
C 845 4717 877 4634 928 4448 
C 2259 4499 2400 4506 2912 4550 
L 2912 3891 
z
M 1920 3475 
L 2912 3475 
L 2912 2701 
L 1920 2701 
L 1920 3475 
z
M 3386 3475 
L 4442 3475 
L 4442 2701 
L 3386 2701 
L 3386 3475 
z
M 1920 2272 
L 2912 2272 
L 2912 1414 
L 1920 1414 
L 1920 2272 
z
M 3386 2272 
L 4442 2272 
L 4442 1414 
L 3386 1414 
L 3386 2272 
z
" transform="scale(0.015625)"/>
      <path id="HiraginoSans-W4-76f4" d="M 1171 4800 
C 883 4800 685 4813 480 4845 
L 480 4320 
C 698 4346 922 4358 1165 4358 
L 3040 4358 
C 2995 4154 2976 4096 2899 3853 
L 2733 3853 
C 2381 3853 2176 3859 1990 3878 
C 2010 3706 2016 3514 2016 3155 
L 2016 1414 
C 2016 1088 2010 858 1990 717 
C 2189 730 2362 736 2726 736 
L 4653 736 
C 5030 736 5197 730 5395 717 
C 5376 864 5370 1062 5370 1414 
L 5370 3155 
C 5370 3520 5376 3731 5395 3878 
C 5210 3859 5011 3853 4653 3853 
L 3386 3853 
C 3450 4051 3456 4096 3526 4358 
L 5331 4358 
C 5658 4358 5843 4346 6048 4320 
L 6048 4845 
C 5830 4813 5651 4800 5331 4800 
L 3629 4800 
C 3654 4922 3661 4941 3674 5005 
C 3706 5171 3725 5248 3744 5325 
L 3213 5376 
C 3206 5222 3187 5043 3136 4800 
L 1171 4800 
z
M 2477 3443 
L 4902 3443 
L 4902 2963 
L 2477 2963 
L 2477 3443 
z
M 2477 2560 
L 4902 2560 
L 4902 2080 
L 2477 2080 
L 2477 2560 
z
M 2477 1677 
L 4902 1677 
L 4902 1152 
L 2477 1152 
L 2477 1677 
z
M 1293 269 
L 1293 3008 
C 1293 3270 1306 3501 1325 3680 
L 742 3680 
C 768 3526 781 3302 781 2995 
L 781 314 
C 781 -13 768 -243 736 -474 
L 1286 -474 
L 1286 -186 
L 5376 -186 
C 5677 -186 5837 -198 6054 -230 
L 6054 307 
C 5850 275 5690 269 5414 269 
L 1293 269 
z
" transform="scale(0.015625)"/>
     </defs>
     <use xlink:href="#HiraginoSans-W4-5782"/>
     <use xlink:href="#HiraginoSans-W4-76f4" transform="translate(99.999985 0)"/>
     <use xlink:href="#HiraginoSans-W4-7dda" transform="translate(199.999969 0)"/>
     <use xlink:href="#HiraginoSans-W4-3068" transform="translate(299.999954 0)"/>
     <use xlink:href="#HiraginoSans-W4-306e" transform="translate(399.999939 0)"/>
     <use xlink:href="#HiraginoSans-W4-4ea4" transform="translate(499.999924 0)"/>
     <use xlink:href="#HiraginoSans-W4-70b9" transform="translate(599.999908 0)"/>
    </g>
   </g>
   <g id="text_6">
    <!-- 壁との衝突点 -->
    <g transform="translate(572.735294 479.28454) scale(0.1 -0.1)">
     <defs>
      <path id="HiraginoSans-W4-58c1" d="M 4288 4845 
L 3853 4845 
C 3584 4845 3405 4858 3251 4883 
L 3251 4429 
C 3392 4448 3546 4454 3808 4454 
L 5312 4454 
C 5581 4454 5741 4448 5888 4429 
L 5888 4883 
C 5728 4858 5549 4845 5274 4845 
L 4736 4845 
L 4736 4966 
C 4736 5171 4749 5280 4774 5382 
L 4250 5382 
C 4275 5261 4288 5152 4288 4973 
L 4288 4845 
z
M 3654 3654 
C 3373 3654 3226 3661 3091 3686 
L 3091 3238 
C 3245 3258 3418 3264 3674 3264 
L 4307 3264 
L 4307 2694 
L 3834 2694 
C 3565 2694 3469 2701 3290 2726 
L 3290 2272 
C 3469 2298 3590 2304 3827 2304 
L 4307 2304 
L 4307 2189 
C 4307 1882 4301 1734 4269 1530 
L 4781 1530 
C 4755 1690 4742 1875 4742 2189 
L 4742 2304 
L 5306 2304 
C 5555 2304 5664 2298 5837 2272 
L 5837 2726 
C 5664 2701 5574 2694 5312 2694 
L 4742 2694 
L 4742 3264 
L 5440 3264 
C 5722 3264 5850 3258 6029 3238 
L 6029 3686 
C 5882 3667 5715 3654 5453 3654 
L 5216 3654 
C 5318 3853 5402 4032 5498 4262 
L 5050 4371 
C 4973 4083 4902 3891 4787 3654 
L 4294 3654 
C 4211 3923 4147 4070 4000 4371 
L 3590 4256 
C 3738 3987 3789 3872 3866 3654 
L 3654 3654 
z
M 2982 1766 
C 2970 1888 2970 1984 2970 2278 
L 2970 2746 
C 2970 3040 2970 3117 2976 3270 
C 2861 3251 2746 3245 2438 3245 
L 1696 3245 
C 1453 3245 1363 3251 1229 3264 
C 1242 3091 1242 3014 1242 2726 
L 1242 2298 
C 1242 2022 1235 1914 1222 1754 
C 1402 1766 1517 1773 1779 1773 
L 2451 1773 
C 2637 1773 2810 1766 2944 1760 
C 2970 1632 2976 1504 2976 1306 
L 2976 1216 
L 1626 1216 
C 1274 1216 1126 1222 954 1254 
L 954 768 
C 1146 794 1312 800 1626 800 
L 2976 800 
L 2976 141 
L 1101 141 
C 755 141 557 147 384 173 
L 384 -320 
C 595 -294 838 -282 1120 -282 
L 5248 -282 
C 5536 -282 5773 -294 5997 -320 
L 5997 173 
C 5824 147 5632 141 5274 141 
L 3450 141 
L 3450 800 
L 4800 800 
C 5101 800 5267 794 5466 768 
L 5466 1254 
C 5293 1222 5139 1216 4800 1216 
L 3450 1216 
L 3450 1312 
C 3450 1530 3456 1626 3488 1766 
L 2982 1766 
z
M 1651 2874 
L 2554 2874 
L 2554 2150 
L 1651 2150 
L 1651 2874 
z
M 2470 3718 
L 2854 3712 
C 2931 3712 2931 3712 2976 3706 
C 2963 3814 2963 3910 2963 4192 
L 2963 4685 
C 2963 4902 2970 5062 2989 5165 
C 2880 5152 2675 5146 2445 5146 
L 1363 5146 
C 1094 5146 928 5152 806 5165 
C 819 5050 826 4922 826 4691 
C 826 3398 672 2714 250 2144 
C 403 2035 480 1952 595 1779 
C 966 2330 1146 2893 1229 3718 
L 2470 3718 
z
M 1261 4115 
C 1274 4256 1280 4416 1280 4570 
L 1280 4749 
L 2515 4749 
L 2515 4115 
L 1261 4115 
z
" transform="scale(0.015625)"/>
      <path id="HiraginoSans-W4-885d" d="M 2906 4173 
L 2285 4173 
C 2067 4173 1939 4179 1773 4205 
L 1773 3763 
C 1926 3782 2042 3789 2195 3789 
L 2906 3789 
L 2906 3424 
L 2259 3424 
C 2106 3424 1965 3430 1856 3443 
C 1869 3315 1875 3162 1875 2982 
L 1875 1946 
C 1875 1779 1869 1613 1856 1485 
C 1997 1498 2170 1504 2323 1504 
L 2906 1504 
L 2906 1101 
L 2323 1101 
C 2118 1101 1965 1107 1811 1133 
L 1811 704 
C 1978 730 2125 736 2323 736 
L 2906 736 
L 2906 230 
C 2458 192 2099 173 1946 173 
C 1830 173 1696 179 1626 186 
L 1696 -269 
C 1843 -243 1882 -243 2035 -230 
C 2765 -192 3469 -109 4282 26 
C 4320 -90 4339 -205 4346 -397 
C 4576 -410 4742 -416 4870 -416 
C 5440 -416 5581 -314 5581 122 
L 5581 3130 
L 5670 3130 
C 5901 3130 6022 3123 6189 3098 
L 6189 3590 
C 6042 3565 5914 3558 5670 3558 
L 4941 3558 
C 4723 3558 4634 3565 4493 3590 
L 4493 3098 
C 4634 3123 4730 3130 4941 3130 
L 5114 3130 
L 5114 147 
C 5114 51 5069 19 4934 19 
C 4813 19 4563 38 4410 58 
L 4416 429 
C 3878 339 3674 307 3315 269 
L 3315 736 
L 3853 736 
C 4096 736 4192 730 4378 710 
L 4378 1126 
C 4205 1107 4064 1101 3853 1101 
L 3315 1101 
L 3315 1504 
L 3930 1504 
C 4070 1504 4243 1498 4378 1485 
C 4365 1613 4358 1760 4358 1939 
L 4358 2957 
C 4358 3162 4365 3309 4384 3443 
C 4250 3430 4160 3424 4006 3424 
L 3315 3424 
L 3315 3789 
L 4000 3789 
C 4192 3789 4307 3782 4448 3763 
L 4448 4205 
C 4301 4179 4198 4173 4019 4173 
L 3315 4173 
L 3315 4691 
C 3757 4781 3923 4826 4275 4954 
L 3994 5318 
C 3802 5222 3699 5190 3354 5107 
C 2848 4986 2490 4928 1862 4870 
C 1946 4736 1978 4646 2022 4480 
C 2394 4525 2515 4544 2906 4614 
L 2906 4173 
z
M 2906 3072 
L 2906 2643 
L 2272 2643 
L 2272 3072 
L 2906 3072 
z
M 3315 3072 
L 3962 3072 
L 3962 2643 
L 3315 2643 
L 3315 3072 
z
M 2906 2298 
L 2906 1856 
L 2272 1856 
L 2272 2298 
L 2906 2298 
z
M 3315 2298 
L 3962 2298 
L 3962 1856 
L 3315 1856 
L 3315 2298 
z
M 1370 5376 
C 1190 4954 749 4442 211 4045 
C 358 3891 410 3821 493 3648 
C 890 3968 1261 4365 1568 4787 
C 1760 5056 1760 5056 1805 5107 
L 1370 5376 
z
M 6112 4947 
C 6003 4928 5862 4922 5626 4922 
L 5018 4922 
C 4813 4922 4666 4928 4538 4954 
L 4538 4461 
C 4659 4486 4781 4493 4934 4493 
L 5619 4493 
C 5837 4493 5971 4486 6112 4467 
L 6112 4947 
z
M 838 256 
C 838 -90 826 -282 800 -493 
L 1338 -493 
C 1306 -294 1299 -115 1299 250 
L 1299 2797 
C 1440 2982 1498 3072 1850 3648 
L 1414 3917 
C 1235 3373 698 2682 141 2259 
C 262 2093 301 2016 365 1805 
C 595 2010 698 2112 858 2317 
C 845 1997 838 1837 838 1562 
L 838 256 
z
" transform="scale(0.015625)"/>
      <path id="HiraginoSans-W4-7a81" d="M 5331 1574 
C 5587 1574 5766 1562 5958 1536 
L 5958 2054 
C 5779 2029 5613 2016 5325 2016 
L 3360 2016 
C 3379 2170 3392 2330 3405 2579 
C 3411 2662 3411 2688 3424 2746 
L 2880 2746 
C 2893 2656 2899 2592 2899 2483 
C 2899 2323 2886 2170 2867 2016 
L 1075 2016 
C 806 2016 646 2029 461 2054 
L 461 1536 
C 653 1562 826 1574 1088 1574 
L 2752 1574 
C 2573 1126 2259 794 1760 518 
C 1344 294 941 173 346 96 
C 506 -109 544 -166 627 -390 
C 1184 -269 1568 -141 1920 45 
C 2515 358 2906 755 3162 1306 
C 3386 909 3674 589 4051 320 
C 4525 -13 5024 -211 5798 -384 
C 5882 -154 5965 -6 6074 141 
C 5280 250 4762 422 4301 730 
C 3962 966 3731 1216 3533 1574 
L 5331 1574 
z
M 2899 4691 
L 1190 4691 
C 890 4691 730 4698 531 4717 
C 550 4589 557 4448 557 4269 
L 557 3910 
C 557 3725 550 3603 531 3456 
L 1030 3456 
L 1030 4243 
L 2234 4243 
C 2202 3808 2042 3475 1734 3232 
C 1453 3008 1133 2899 544 2835 
C 723 2624 768 2560 838 2400 
C 1280 2490 1517 2573 1779 2720 
C 2170 2938 2445 3245 2586 3616 
C 2662 3808 2688 3930 2714 4243 
L 3424 4243 
L 3424 3142 
C 3424 2944 3450 2867 3546 2810 
C 3654 2746 3898 2714 4288 2714 
C 4806 2714 5114 2771 5242 2886 
C 5344 2982 5382 3110 5408 3456 
L 5888 3456 
C 5869 3584 5862 3718 5862 3910 
L 5862 4269 
C 5862 4467 5869 4582 5888 4717 
C 5690 4698 5536 4691 5229 4691 
L 3405 4691 
L 3405 4845 
C 3405 4992 3418 5133 3443 5293 
L 2861 5293 
C 2886 5126 2899 4986 2899 4845 
L 2899 4691 
z
M 5389 3622 
C 5158 3667 5088 3686 4960 3763 
C 4960 3718 4960 3699 4960 3667 
C 4960 3411 4941 3277 4890 3219 
C 4832 3155 4634 3123 4333 3123 
C 4179 3123 4026 3136 3968 3155 
C 3904 3174 3885 3206 3885 3296 
L 3885 4243 
L 5389 4243 
L 5389 3622 
z
" transform="scale(0.015625)"/>
     </defs>
     <use xlink:href="#HiraginoSans-W4-58c1"/>
     <use xlink:href="#HiraginoSans-W4-3068" transform="translate(99.999985 0)"/>
     <use xlink:href="#HiraginoSans-W4-306e" transform="translate(199.999969 0)"/>
     <use xlink:href="#HiraginoSans-W4-885d" transform="translate(299.999954 0)"/>
     <use xlink:href="#HiraginoSans-W4-7a81" transform="translate(399.999939 0)"/>
     <use xlink:href="#HiraginoSans-W4-70b9" transform="translate(499.999924 0)"/>
    </g>
   </g>
   <g id="text_7">
    <g id="patch_79">
     <path d="M 444.758824 197.568676 
L 576.758824 197.568676 
Q 582.258824 197.568676 582.258824 192.068676 
L 582.258824 156.470614 
Q 582.258824 150.970614 576.758824 150.970614 
L 444.758824 150.970614 
Q 439.258824 150.970614 439.258824 156.470614 
L 439.258824 192.068676 
Q 439.258824 197.568676 444.758824 197.568676 
z
" style="fill: #ffffff; opacity: 0.95; stroke: #374151; stroke-width: 2; stroke-linejoin: miter"/>
    </g>
    <!-- レイ（光線）を飛ばして、 -->
    <g style="fill: #1f2937" transform="translate(444.758824 164.950926) scale(0.11 -0.11)">
     <defs>
      <path id="HiraginoSans-W4-30ec" d="M 1408 4947 
C 1434 4755 1434 4755 1434 4275 
L 1421 736 
C 1414 461 1408 384 1370 256 
L 1670 -115 
C 1760 -77 1830 -58 2048 -19 
C 3782 320 4762 934 5638 2253 
C 5446 2413 5389 2477 5210 2733 
C 4851 2061 4435 1613 3814 1216 
C 3302 890 2733 685 2003 557 
L 2029 4288 
C 2029 4640 2035 4787 2061 4947 
L 1408 4947 
z
" transform="scale(0.015625)"/>
      <path id="HiraginoSans-W4-30a4" d="M 4973 5114 
C 4794 4806 4346 4358 3763 3904 
C 2739 3110 1645 2566 429 2246 
C 589 2048 634 1971 730 1734 
C 1920 2144 2330 2330 3149 2829 
L 3149 525 
C 3149 122 3142 -26 3110 -224 
L 3763 -224 
C 3738 -45 3731 141 3731 531 
L 3731 3187 
C 4301 3597 4806 4038 5267 4525 
C 5370 4634 5402 4659 5498 4742 
L 4973 5114 
z
" transform="scale(0.015625)"/>
      <path id="HiraginoSans-W4-ff08" d="M 6170 -531 
C 5690 -26 5491 256 5280 698 
C 5024 1235 4902 1805 4902 2432 
C 4902 3059 5024 3629 5280 4166 
C 5491 4608 5690 4890 6170 5395 
L 5517 5395 
C 5139 4947 4966 4685 4774 4275 
C 4499 3686 4365 3085 4365 2432 
C 4365 1779 4499 1178 4774 589 
C 4966 179 5139 -83 5517 -531 
L 6170 -531 
z
" transform="scale(0.015625)"/>
      <path id="HiraginoSans-W4-5149" d="M 2880 2995 
L 1094 2995 
C 826 2995 634 3008 416 3034 
L 416 2509 
C 614 2534 838 2547 1088 2547 
L 2144 2547 
C 2118 1779 1984 1274 1690 877 
C 1382 454 934 179 218 -38 
C 371 -192 442 -288 550 -474 
C 1651 -77 2227 486 2490 1427 
C 2592 1786 2618 2010 2643 2547 
L 3482 2547 
L 3482 134 
C 3482 -109 3520 -211 3648 -282 
C 3795 -371 3987 -390 4576 -390 
C 5299 -390 5536 -358 5690 -243 
C 5907 -83 5997 192 6074 960 
C 5888 1005 5786 1043 5594 1158 
C 5568 614 5517 307 5434 198 
C 5357 102 5184 77 4666 77 
C 4032 77 3968 90 3968 243 
L 3968 2547 
L 5306 2547 
C 5594 2547 5798 2534 5984 2509 
L 5984 3034 
C 5773 3008 5562 2995 5306 2995 
L 3379 2995 
L 3379 4646 
C 3379 4902 3392 5075 3418 5248 
L 2842 5248 
C 2867 5050 2880 4883 2880 4646 
L 2880 2995 
z
M 781 4710 
C 1229 4192 1414 3904 1754 3238 
L 2195 3514 
C 1830 4160 1658 4410 1216 4941 
L 781 4710 
z
M 5011 4960 
C 4685 4269 4454 3917 4006 3430 
L 4442 3174 
C 4883 3686 5082 3987 5478 4730 
L 5011 4960 
z
" transform="scale(0.015625)"/>
      <path id="HiraginoSans-W4-ff09" d="M 890 -531 
C 1261 -83 1434 179 1626 589 
C 1901 1178 2035 1773 2035 2432 
C 2035 3091 1901 3686 1626 4275 
C 1434 4685 1261 4947 890 5395 
L 230 5395 
C 710 4890 909 4608 1120 4166 
C 1376 3629 1498 3072 1498 2432 
C 1498 1792 1376 1235 1120 698 
C 909 256 710 -26 230 -531 
L 890 -531 
z
" transform="scale(0.015625)"/>
      <path id="HiraginoSans-W4-3092" d="M 2189 4365 
C 1491 4365 1088 4390 813 4442 
L 800 3917 
C 864 3930 902 3930 934 3930 
C 966 3930 998 3930 1062 3923 
C 1197 3917 1830 3904 1958 3904 
C 1984 3904 2054 3910 2074 3910 
C 2035 3840 2035 3840 2016 3808 
C 1581 3046 1037 2362 614 2042 
L 1037 1619 
C 1152 1798 1293 1952 1549 2163 
C 2054 2598 2547 2835 2938 2835 
C 3226 2835 3373 2694 3411 2381 
C 2982 2189 2707 2042 2470 1869 
C 2016 1542 1792 1197 1792 832 
C 1792 499 1952 218 2227 64 
C 2534 -109 2944 -186 3539 -186 
C 4058 -186 4646 -141 5133 -64 
C 5267 -38 5293 -38 5395 -32 
L 5338 557 
C 4954 403 4250 301 3597 301 
C 2694 301 2330 467 2330 870 
C 2330 1088 2445 1267 2707 1472 
C 2874 1600 3085 1715 3475 1894 
C 3475 1818 3475 1798 3475 1696 
C 3475 1350 3456 973 3437 845 
L 3962 851 
C 3949 954 3949 1005 3949 1114 
C 3949 1165 3949 1254 3949 1376 
C 3955 1504 3955 1638 3955 1709 
C 3955 1850 3955 1869 3949 2080 
C 4800 2406 5299 2566 5645 2624 
L 5414 3149 
C 5312 3085 5293 3078 4966 2963 
C 4653 2854 4390 2758 3891 2566 
C 3802 3027 3507 3264 3027 3264 
C 2726 3264 2413 3174 2144 3002 
C 2080 2963 2042 2938 1926 2842 
C 1907 2829 1875 2810 1837 2778 
C 1837 2778 1830 2784 1824 2797 
C 1830 2803 1830 2803 1837 2810 
C 1837 2816 1862 2835 1901 2861 
C 1920 2874 2054 3021 2106 3098 
C 2310 3354 2438 3565 2624 3910 
C 3251 3930 4070 3987 4512 4045 
C 4883 4096 4883 4096 5005 4109 
L 4966 4621 
C 4627 4518 4032 4442 3238 4397 
C 2880 4378 2880 4378 2835 4371 
C 2874 4435 2944 4595 3027 4800 
C 3130 5050 3130 5050 3181 5126 
L 2579 5216 
C 2560 5011 2490 4813 2291 4365 
L 2189 4365 
z
" transform="scale(0.015625)"/>
      <path id="HiraginoSans-W4-98db" d="M 954 2778 
C 627 2778 454 2784 288 2816 
L 288 2298 
C 467 2323 678 2336 954 2336 
L 1389 2336 
C 1325 1517 1242 1184 992 723 
C 800 371 659 205 288 -128 
C 474 -262 525 -307 685 -499 
C 1184 6 1414 352 1594 845 
C 1734 1222 1805 1638 1850 2336 
L 2822 2336 
L 2822 173 
C 2822 -122 2810 -307 2784 -480 
L 3328 -480 
C 3302 -282 3290 -96 3290 173 
L 3290 2336 
L 4109 2336 
C 4128 1741 4179 1402 4301 1037 
C 4422 678 4602 358 4819 109 
C 5126 -237 5459 -442 5715 -442 
C 6016 -442 6163 -230 6285 390 
C 6112 448 6035 486 5882 602 
C 5843 243 5779 83 5677 83 
C 5568 83 5357 224 5178 416 
C 4890 723 4678 1216 4614 1773 
C 4582 2067 4563 2342 4563 2643 
C 4563 2675 4563 2720 4563 2803 
C 4307 2784 4250 2778 4070 2778 
L 3290 2778 
L 3290 3936 
C 3290 4179 3296 4320 3315 4467 
L 2797 4467 
C 2816 4339 2822 4211 2822 3936 
L 2822 2778 
L 1875 2778 
C 1882 3027 1882 3027 1888 3827 
C 2131 3955 2272 4038 2605 4262 
L 2208 4557 
C 1933 4326 1766 4230 1389 4070 
C 1037 3923 768 3840 384 3763 
C 512 3610 544 3552 634 3360 
C 979 3456 1171 3514 1421 3616 
L 1421 3226 
C 1421 3072 1421 2982 1414 2778 
L 954 2778 
z
M 5082 1395 
C 5382 1651 5523 1792 5747 2067 
L 5427 2304 
C 5504 2278 5536 2272 5594 2272 
C 5856 2272 6016 2464 6170 2982 
C 6016 3034 5907 3091 5779 3187 
C 5715 2880 5658 2758 5568 2758 
C 5389 2758 5056 3117 4883 3494 
C 4736 3821 4653 4282 4653 4794 
C 4653 4922 4666 5043 4685 5152 
C 4435 5126 4275 5120 4058 5120 
L 1338 5120 
C 998 5120 813 5133 608 5158 
L 608 4634 
C 800 4666 973 4672 1306 4672 
L 4211 4672 
C 4237 3987 4339 3558 4563 3149 
C 4768 2778 5094 2451 5389 2323 
C 5216 2067 5101 1939 4806 1696 
L 5082 1395 
z
M 5523 5152 
C 5306 4845 5133 4672 4832 4442 
L 5114 4141 
C 5382 4352 5645 4602 5882 4870 
L 5523 5152 
z
M 4966 1171 
C 5382 960 5562 838 5824 582 
L 6086 966 
C 5779 1203 5606 1312 5216 1504 
L 4966 1171 
z
M 4941 3859 
C 5350 3635 5510 3533 5798 3283 
L 6042 3654 
C 5690 3910 5568 3987 5184 4173 
L 4941 3859 
z
" transform="scale(0.015625)"/>
      <path id="HiraginoSans-W4-3070" d="M 4109 3686 
C 3898 3674 3750 3667 3501 3667 
C 2906 3667 2618 3693 2298 3770 
L 2291 3245 
L 2688 3219 
C 2918 3206 3155 3200 3411 3200 
C 3648 3200 3808 3200 4115 3219 
C 4147 2176 4160 1773 4179 1632 
C 4013 1709 3770 1747 3514 1747 
C 2784 1747 2266 1350 2266 794 
C 2266 211 2739 -154 3501 -154 
C 4051 -154 4467 45 4621 384 
C 4672 499 4698 640 4698 826 
C 4698 883 4698 909 4691 960 
C 4749 922 4781 902 4819 877 
C 5280 595 5286 595 5485 422 
C 5568 358 5613 314 5677 243 
L 5907 781 
C 5830 826 5811 838 5741 890 
C 5344 1178 5139 1299 4691 1504 
C 4627 2592 4627 2662 4621 3258 
C 5011 3296 5293 3347 5632 3424 
C 5683 3437 5696 3437 5734 3443 
L 5709 3955 
C 5523 3872 5094 3782 4621 3725 
L 4621 4083 
C 4621 4563 4634 4851 4659 5018 
L 4090 5018 
L 4102 4736 
L 4109 3686 
z
M 4192 973 
C 4192 762 4160 621 4083 531 
C 3968 397 3738 314 3482 314 
C 3059 314 2778 506 2778 794 
C 2778 1094 3072 1286 3533 1286 
C 3776 1286 3936 1254 4192 1158 
L 4192 973 
z
M 1242 813 
L 1222 1882 
C 1222 2938 1446 4320 1722 4941 
L 1114 5024 
C 1114 4934 1101 4858 1043 4595 
C 800 3469 723 2835 723 1978 
C 723 1299 774 736 902 26 
C 934 -154 934 -166 934 -211 
L 1491 -160 
C 1478 -83 1478 -58 1478 -19 
C 1478 365 1754 1242 2054 1830 
L 1651 2010 
L 1594 1856 
C 1421 1408 1376 1280 1261 813 
L 1242 813 
z
M 4826 5280 
C 5018 4960 5120 4710 5267 4230 
L 5638 4346 
C 5498 4800 5408 5005 5197 5382 
L 4826 5280 
z
M 5581 5472 
C 5760 5165 5894 4864 6029 4442 
L 6387 4563 
C 6259 4966 6144 5229 5933 5587 
L 5581 5472 
z
" transform="scale(0.015625)"/>
      <path id="HiraginoSans-W4-3057" d="M 1440 5030 
C 1453 4890 1459 4813 1459 4672 
C 1459 4576 1459 4429 1453 4243 
C 1408 2234 1402 2035 1402 1645 
C 1402 1306 1434 992 1491 800 
C 1574 525 1747 275 1965 115 
C 2208 -58 2592 -160 3034 -160 
C 3776 -160 4390 109 4851 640 
C 5139 973 5325 1363 5574 2144 
C 5331 2266 5242 2323 5030 2509 
C 4947 2061 4870 1798 4717 1485 
C 4378 768 3789 371 3072 371 
C 2630 371 2304 506 2138 749 
C 2003 960 1958 1203 1958 1786 
C 1958 2214 1997 3763 2022 4230 
C 2042 4685 2061 4858 2093 5024 
L 1440 5030 
z
" transform="scale(0.015625)"/>
      <path id="HiraginoSans-W4-3066" d="M 621 3693 
C 960 3763 1485 3814 2726 3898 
C 3418 3942 3725 3974 4134 4038 
C 3053 3552 2419 2714 2419 1786 
C 2419 1210 2688 717 3181 403 
C 3558 160 3936 38 4595 -70 
C 4698 -90 4723 -90 4800 -109 
L 4890 512 
C 4582 512 4250 570 3930 672 
C 3290 883 2970 1274 2970 1837 
C 2970 2438 3334 3021 3981 3462 
C 4486 3808 5094 4013 5613 4013 
C 5626 4013 5658 4013 5690 4013 
L 5645 4582 
C 5542 4557 5286 4531 4896 4518 
C 3840 4467 2086 4371 1190 4307 
C 992 4294 909 4288 819 4288 
C 781 4288 723 4288 589 4294 
L 621 3693 
z
" transform="scale(0.015625)"/>
      <path id="HiraginoSans-W4-3001" d="M 275 966 
C 781 557 1139 173 1574 -448 
L 2010 -32 
C 1555 563 1222 902 678 1338 
L 275 966 
z
" transform="scale(0.015625)"/>
     </defs>
     <use xlink:href="#HiraginoSans-W4-30ec"/>
     <use xlink:href="#HiraginoSans-W4-30a4" transform="translate(99.999985 0)"/>
     <use xlink:href="#HiraginoSans-W4-ff08" transform="translate(199.999969 0)"/>
     <use xlink:href="#HiraginoSans-W4-5149" transform="translate(299.999954 0)"/>
     <use xlink:href="#HiraginoSans-W4-7dda" transform="translate(399.999939 0)"/>
     <use xlink:href="#HiraginoSans-W4-ff09" transform="translate(499.999924 0)"/>
     <use xlink:href="#HiraginoSans-W4-3092" transform="translate(599.999908 0)"/>
     <use xlink:href="#HiraginoSans-W4-98db" transform="translate(699.999893 0)"/>
     <use xlink:href="#HiraginoSans-W4-3070" transform="translate(799.999878 0)"/>
     <use xlink:href="#HiraginoSans-W4-3057" transform="translate(899.999863 0)"/>
     <use xlink:href="#HiraginoSans-W4-3066" transform="translate(999.999847 0)"/>
     <use xlink:href="#HiraginoSans-W4-3001" transform="translate(1099.999832 0)"/>
    </g>
    <!-- グリッドの線との交点を -->
    <g style="fill: #1f2937" transform="translate(450.258824 177.382301) scale(0.11 -0.11)">
     <defs>
      <path id="HiraginoSans-W4-30b0" d="M 4614 5082 
C 4877 4787 5082 4467 5280 4070 
L 5658 4282 
C 5434 4698 5286 4915 4986 5274 
L 4614 5082 
z
M 5357 5427 
C 5638 5094 5830 4806 6016 4435 
L 6387 4646 
C 6157 5069 6016 5267 5715 5619 
L 5357 5427 
z
M 4691 4326 
C 4614 4301 4570 4294 4416 4294 
L 2899 4269 
C 2714 4262 2714 4262 2662 4250 
C 2739 4378 2790 4480 2944 4806 
C 3021 4973 3027 4979 3085 5056 
L 2458 5203 
C 2426 4979 2310 4704 2074 4294 
C 1619 3494 1146 2970 454 2509 
C 678 2374 749 2310 890 2118 
C 1498 2586 1997 3123 2406 3770 
L 4499 3802 
C 4269 3002 3885 2278 3405 1715 
C 2797 998 2131 531 1165 134 
C 1363 -26 1427 -102 1549 -326 
C 2496 102 3200 608 3789 1280 
C 4339 1914 4787 2758 5037 3578 
C 5094 3776 5101 3776 5146 3840 
L 4691 4326 
z
" transform="scale(0.015625)"/>
      <path id="HiraginoSans-W4-30ea" d="M 1446 4960 
C 1472 4794 1478 4653 1478 4352 
L 1478 2790 
C 1478 2496 1472 2330 1446 2144 
L 2080 2144 
C 2061 2310 2054 2464 2054 2790 
L 2054 4358 
C 2054 4621 2061 4819 2080 4960 
L 1446 4960 
z
M 4301 4954 
C 4320 4800 4326 4710 4326 4320 
L 4326 3635 
C 4326 2912 4320 2771 4301 2496 
C 4224 1626 3994 1210 3373 794 
C 3008 544 2669 416 2003 275 
C 2195 45 2240 -32 2323 -256 
C 2886 -90 3200 32 3514 205 
C 4147 563 4557 1043 4736 1651 
C 4851 2029 4902 2592 4902 3603 
L 4902 4326 
C 4902 4672 4909 4787 4934 4954 
L 4301 4954 
z
" transform="scale(0.015625)"/>
      <path id="HiraginoSans-W4-30c3" d="M 1120 3392 
C 1395 2925 1562 2509 1715 1933 
L 2234 2106 
C 1984 2810 1862 3098 1600 3552 
L 1120 3392 
z
M 2451 3661 
C 2726 3174 2918 2701 3040 2234 
L 3546 2406 
C 3379 2925 3264 3181 2925 3808 
L 2451 3661 
z
M 4666 3686 
C 4666 3443 4582 3046 4435 2630 
C 4019 1434 3277 672 2016 141 
C 2202 -32 2266 -102 2381 -294 
C 3206 115 3776 550 4224 1133 
C 4653 1696 4922 2317 5146 3270 
C 5178 3405 5190 3450 5229 3565 
L 4666 3686 
z
" transform="scale(0.015625)"/>
      <path id="HiraginoSans-W4-30c9" d="M 2426 -224 
C 2400 -26 2394 179 2394 518 
L 2394 2189 
C 2394 2445 2387 2554 2368 2714 
C 2464 2662 2483 2650 2579 2611 
C 3488 2221 4371 1747 4934 1350 
L 5254 1907 
C 4166 2534 3296 2944 2394 3258 
L 2394 4403 
C 2394 4762 2400 4941 2426 5120 
L 1779 5120 
C 1811 4954 1818 4806 1818 4416 
L 1818 518 
C 1818 154 1811 -13 1779 -224 
L 2426 -224 
z
M 4006 4666 
C 4269 4371 4474 4051 4672 3654 
L 5050 3866 
C 4826 4282 4678 4499 4378 4858 
L 4006 4666 
z
M 4749 5011 
C 5030 4678 5222 4390 5408 4019 
L 5779 4230 
C 5549 4653 5408 4851 5107 5203 
L 4749 5011 
z
" transform="scale(0.015625)"/>
     </defs>
     <use xlink:href="#HiraginoSans-W4-30b0"/>
     <use xlink:href="#HiraginoSans-W4-30ea" transform="translate(99.999985 0)"/>
     <use xlink:href="#HiraginoSans-W4-30c3" transform="translate(199.999969 0)"/>
     <use xlink:href="#HiraginoSans-W4-30c9" transform="translate(299.999954 0)"/>
     <use xlink:href="#HiraginoSans-W4-306e" transform="translate(399.999939 0)"/>
     <use xlink:href="#HiraginoSans-W4-7dda" transform="translate(499.999924 0)"/>
     <use xlink:href="#HiraginoSans-W4-3068" transform="translate(599.999908 0)"/>
     <use xlink:href="#HiraginoSans-W4-306e" transform="translate(699.999893 0)"/>
     <use xlink:href="#HiraginoSans-W4-4ea4" transform="translate(799.999878 0)"/>
     <use xlink:href="#HiraginoSans-W4-70b9" transform="translate(899.999863 0)"/>
     <use xlink:href="#HiraginoSans-W4-3092" transform="translate(999.999847 0)"/>
    </g>
    <!-- 順番に調べていく -->
    <g style="fill: #1f2937" transform="translate(466.758824 189.813676) scale(0.11 -0.11)">
     <defs>
      <path id="HiraginoSans-W4-9806" d="M 3795 736 
C 3584 474 3437 333 3155 141 
C 3014 51 2957 19 2714 -96 
C 2707 58 2707 160 2707 474 
L 2707 4454 
C 2707 4902 2714 5050 2739 5216 
L 2253 5216 
C 2272 5037 2285 4877 2285 4454 
L 2285 474 
C 2285 13 2278 -128 2246 -301 
L 2733 -301 
C 2720 -224 2720 -198 2714 -109 
C 2829 -211 2912 -314 3014 -474 
C 3552 -173 3821 45 4198 480 
L 3795 736 
z
M 4243 4685 
C 4192 4486 4115 4275 4019 4058 
L 3674 4058 
C 3386 4058 3283 4064 3123 4083 
C 3136 3923 3149 3731 3149 3482 
L 3149 1376 
C 3149 1158 3136 947 3123 794 
C 3302 806 3443 813 3661 813 
L 5293 813 
C 5510 813 5677 806 5850 787 
C 5830 992 5824 1146 5824 1395 
L 5824 3494 
C 5824 3750 5830 3904 5850 4083 
C 5722 4064 5562 4058 5254 4058 
L 4493 4058 
C 4563 4211 4659 4467 4723 4685 
L 5466 4685 
C 5773 4685 5939 4678 6112 4646 
L 6112 5158 
C 5971 5133 5779 5120 5466 5120 
L 3565 5120 
C 3200 5120 3059 5126 2931 5152 
L 2931 4653 
C 3078 4678 3226 4685 3565 4685 
L 4243 4685 
z
M 3590 3648 
L 5376 3648 
L 5376 3130 
L 3590 3130 
L 3590 3648 
z
M 3590 2726 
L 5376 2726 
L 5376 2195 
L 3590 2195 
L 3590 2726 
z
M 3590 1792 
L 5376 1792 
L 5376 1222 
L 3590 1222 
L 3590 1792 
z
M 557 5222 
C 582 5030 595 4896 595 4563 
L 595 2906 
C 595 2266 550 1574 480 1094 
C 416 678 320 384 141 64 
C 294 -51 294 -51 538 -301 
C 883 410 1024 1312 1024 2861 
L 1024 4563 
C 1024 4922 1030 5056 1056 5222 
L 557 5222 
z
M 1421 5024 
C 1440 4845 1446 4742 1446 4365 
L 1446 1133 
C 1446 838 1434 659 1414 486 
L 1882 486 
C 1862 640 1856 819 1856 1126 
L 1856 4365 
C 1856 4742 1856 4877 1875 5024 
L 1421 5024 
z
M 4685 499 
C 5133 26 5414 -186 5984 -480 
C 6074 -307 6163 -179 6266 -58 
C 5722 179 5427 371 5069 749 
L 4685 499 
z
" transform="scale(0.015625)"/>
      <path id="HiraginoSans-W4-756a" d="M 2931 3725 
L 2227 3725 
C 2086 4026 1990 4205 1792 4493 
L 1382 4326 
C 1549 4102 1645 3949 1754 3725 
L 1082 3725 
C 787 3725 602 3738 416 3763 
L 416 3277 
C 602 3302 813 3315 1082 3315 
L 2458 3315 
C 1901 2784 1190 2400 275 2125 
C 416 1965 486 1856 550 1690 
C 870 1830 979 1882 1216 1997 
C 1222 1869 1222 1798 1222 1709 
L 1222 128 
C 1222 -96 1210 -326 1184 -486 
L 1683 -486 
L 1683 -160 
L 4730 -160 
L 4730 -486 
L 5222 -486 
C 5197 -314 5184 -134 5184 128 
L 5184 1715 
C 5184 1850 5184 1926 5190 2010 
C 5427 1888 5523 1850 5933 1683 
C 6016 1894 6067 1984 6195 2150 
C 5248 2400 4442 2797 3853 3315 
L 5293 3315 
C 5568 3315 5760 3302 5958 3277 
L 5958 3763 
C 5773 3731 5613 3725 5293 3725 
L 4589 3725 
C 4787 4019 4915 4224 5056 4499 
L 4582 4653 
C 4442 4288 4307 4038 4096 3725 
L 3386 3725 
L 3386 4634 
C 3686 4666 3904 4698 4166 4736 
C 4749 4826 5088 4877 5178 4890 
C 5203 4896 5338 4915 5485 4941 
L 5146 5370 
C 4352 5114 2810 4941 1350 4941 
C 1158 4941 1056 4941 794 4954 
C 890 4806 928 4723 992 4512 
C 1638 4518 2349 4550 2931 4595 
L 2931 3725 
z
M 4646 2240 
L 1664 2240 
C 2202 2554 2528 2816 2950 3277 
C 2938 3142 2931 3091 2931 3040 
L 2931 2829 
C 2931 2662 2925 2554 2906 2406 
L 3405 2406 
C 3392 2496 3386 2637 3386 2835 
L 3386 3046 
C 3386 3078 3386 3104 3373 3187 
C 3366 3226 3366 3245 3366 3283 
C 3782 2848 4154 2566 4749 2240 
L 4646 2240 
z
M 1683 1837 
L 2938 1837 
L 2938 1261 
L 1683 1261 
L 1683 1837 
z
M 1683 864 
L 2938 864 
L 2938 243 
L 1683 243 
L 1683 864 
z
M 3379 1837 
L 4730 1837 
L 4730 1254 
L 3379 1254 
L 3379 1837 
z
M 3386 864 
L 4723 864 
L 4723 243 
L 3386 243 
L 3386 864 
z
" transform="scale(0.015625)"/>
      <path id="HiraginoSans-W4-306b" d="M 1382 838 
C 1382 947 1376 973 1376 1114 
C 1370 1286 1363 1594 1363 1722 
C 1363 2451 1414 3117 1510 3680 
C 1600 4179 1715 4653 1830 4954 
L 1222 5037 
C 1210 4877 1197 4813 1133 4493 
C 928 3546 851 2854 851 1958 
C 851 1312 896 838 1018 134 
C 1037 6 1043 -32 1056 -134 
L 1613 -96 
C 1606 -45 1606 0 1606 26 
C 1606 416 1824 1152 2144 1830 
L 1760 2010 
C 1555 1504 1453 1197 1389 838 
L 1382 838 
z
M 2592 3763 
C 2643 3757 2656 3757 2694 3750 
C 2790 3738 2790 3738 2810 3738 
C 3136 3706 3341 3693 3667 3693 
C 4141 3693 4640 3725 5030 3776 
C 5306 3814 5453 3834 5472 3834 
L 5440 4378 
C 5050 4269 4435 4205 3686 4205 
C 3194 4205 2899 4230 2605 4301 
L 2592 3763 
z
M 3053 2566 
C 2656 2106 2483 1734 2483 1357 
C 2483 1126 2554 902 2675 742 
C 2944 397 3424 237 4179 237 
C 4608 237 5037 275 5498 358 
C 5632 384 5645 384 5728 397 
L 5670 979 
C 5306 838 4755 755 4179 755 
C 3405 755 3008 973 3008 1408 
C 3008 1690 3155 1984 3488 2349 
L 3053 2566 
z
" transform="scale(0.015625)"/>
      <path id="HiraginoSans-W4-8abf" d="M 4090 3590 
L 4090 2976 
L 3731 2976 
C 3552 2976 3430 2982 3315 3008 
L 3315 2566 
C 3443 2586 3546 2592 3731 2592 
L 4877 2592 
C 5088 2592 5178 2586 5312 2566 
L 5312 3008 
C 5190 2982 5075 2976 4870 2976 
L 4499 2976 
L 4499 3590 
L 4794 3590 
C 5005 3590 5101 3584 5242 3565 
L 5242 3994 
C 5094 3974 4986 3968 4794 3968 
L 4499 3968 
L 4499 4026 
C 4499 4262 4506 4371 4531 4506 
L 4058 4506 
C 4083 4358 4090 4256 4090 4032 
L 4090 3968 
L 3808 3968 
C 3654 3968 3539 3974 3379 3994 
L 3379 3565 
C 3520 3584 3642 3590 3814 3590 
L 4090 3590 
z
M 570 4653 
C 723 4672 845 4678 1050 4678 
L 1818 4678 
C 2016 4678 2150 4672 2298 4653 
L 2298 5126 
C 2157 5101 2048 5094 1818 5094 
L 1050 5094 
C 819 5094 704 5101 570 5126 
L 570 4653 
z
M 352 3750 
C 506 3770 646 3776 864 3776 
L 1965 3776 
C 2195 3776 2304 3770 2432 3750 
L 2432 4237 
C 2285 4211 2189 4205 1920 4205 
L 864 4205 
C 621 4205 518 4211 352 4237 
L 352 3750 
z
M 557 2861 
C 678 2880 781 2886 986 2886 
L 1850 2886 
C 2042 2886 2138 2880 2266 2861 
L 2266 3322 
C 2150 3302 2061 3296 1850 3296 
L 986 3296 
C 774 3296 678 3302 557 3322 
L 557 2861 
z
M 557 1978 
C 672 1997 787 2003 979 2003 
L 1843 2003 
C 2035 2003 2138 1997 2266 1978 
L 2266 2438 
C 2150 2419 2061 2413 1850 2413 
L 986 2413 
C 768 2413 685 2419 557 2438 
L 557 1978 
z
M 992 -474 
L 992 -109 
L 1830 -109 
L 1830 -378 
L 2253 -378 
C 2246 -275 2240 -173 2240 45 
L 2240 1062 
C 2240 1344 2246 1446 2259 1542 
C 2214 1536 2086 1536 1869 1530 
L 954 1530 
C 723 1530 653 1536 538 1555 
C 557 1370 563 1248 563 1037 
L 563 147 
C 563 -58 550 -301 531 -474 
L 992 -474 
z
M 986 1146 
L 1830 1146 
L 1830 288 
L 986 288 
L 986 1146 
z
M 3898 2170 
C 3706 2170 3590 2176 3456 2189 
C 3469 2067 3475 1946 3475 1766 
L 3475 640 
C 3475 410 3469 262 3450 141 
L 3878 141 
L 3878 570 
L 4634 570 
C 4858 570 4979 563 5082 550 
C 5069 666 5062 768 5062 954 
L 5062 1786 
C 5062 1971 5069 2074 5082 2189 
C 4979 2176 4858 2170 4634 2170 
L 3898 2170 
z
M 3878 1786 
L 4666 1786 
L 4666 966 
L 3878 966 
L 3878 1786 
z
M 5926 4461 
C 5926 4774 5933 4941 5952 5120 
C 5792 5101 5645 5094 5318 5094 
L 3334 5094 
C 3014 5094 2874 5101 2694 5120 
C 2726 4864 2733 4685 2733 4077 
C 2733 2733 2688 1709 2598 1030 
C 2528 493 2451 230 2253 -166 
C 2432 -269 2490 -314 2643 -480 
C 2835 -77 2938 262 3014 742 
C 3117 1414 3174 2541 3174 3936 
L 3174 4672 
L 5472 4672 
L 5472 224 
C 5472 77 5427 45 5216 45 
C 5024 45 4806 64 4499 115 
C 4570 -90 4582 -160 4602 -371 
C 4896 -390 5069 -397 5216 -397 
C 5498 -397 5658 -371 5754 -301 
C 5869 -224 5926 -77 5926 128 
L 5926 4461 
z
" transform="scale(0.015625)"/>
      <path id="HiraginoSans-W4-3079" d="M 710 1453 
C 755 1517 774 1536 826 1594 
C 1344 2170 1568 2438 2042 3072 
C 2336 3456 2381 3501 2515 3501 
C 2618 3501 2714 3430 2874 3245 
C 3456 2579 3712 2291 4045 1952 
C 4454 1536 5242 813 5645 480 
C 5741 403 5754 384 5818 320 
L 6086 973 
C 5926 1043 5798 1139 5523 1363 
C 4890 1882 4128 2630 3520 3328 
C 3270 3622 3136 3770 3072 3834 
C 2874 4026 2701 4109 2509 4109 
C 2336 4109 2170 4032 1997 3878 
C 1907 3802 1837 3718 1658 3488 
C 1011 2656 589 2189 339 2022 
L 710 1453 
z
M 4160 4307 
C 4422 4013 4627 3693 4826 3296 
L 5203 3507 
C 4979 3923 4832 4141 4531 4499 
L 4160 4307 
z
M 4902 4653 
C 5184 4320 5376 4032 5562 3661 
L 5933 3872 
C 5702 4294 5562 4493 5261 4845 
L 4902 4653 
z
" transform="scale(0.015625)"/>
      <path id="HiraginoSans-W4-3044" d="M 819 4576 
C 832 4454 832 4429 838 4192 
C 870 2592 960 1805 1178 1165 
C 1395 518 1754 134 2144 134 
C 2630 134 2931 576 3258 1741 
C 3040 1907 2970 1978 2810 2170 
C 2733 1734 2624 1389 2477 1056 
C 2387 851 2278 749 2170 749 
C 1939 749 1696 1178 1562 1837 
C 1472 2246 1408 3091 1408 3763 
C 1408 4122 1421 4358 1453 4570 
L 819 4576 
z
M 4058 4013 
C 4813 3130 5280 1984 5382 781 
L 5933 998 
C 5728 2349 5325 3290 4525 4243 
L 4058 4013 
z
" transform="scale(0.015625)"/>
      <path id="HiraginoSans-W4-304f" d="M 3955 5203 
C 3718 4838 2957 4128 2061 3437 
C 1587 3078 1587 3078 1510 2995 
C 1389 2867 1318 2707 1318 2547 
C 1318 2304 1427 2157 1798 1862 
C 2752 1120 2995 915 3430 512 
C 3859 122 4102 -141 4256 -365 
L 4736 109 
C 4659 173 4646 186 4550 275 
C 3616 1146 3469 1267 2509 1997 
C 1978 2406 1939 2445 1939 2554 
C 1939 2630 1990 2688 2208 2854 
C 2970 3437 3386 3776 3699 4077 
C 4320 4666 4397 4736 4486 4800 
L 3955 5203 
z
" transform="scale(0.015625)"/>
     </defs>
     <use xlink:href="#HiraginoSans-W4-9806"/>
     <use xlink:href="#HiraginoSans-W4-756a" transform="translate(99.999985 0)"/>
     <use xlink:href="#HiraginoSans-W4-306b" transform="translate(199.999969 0)"/>
     <use xlink:href="#HiraginoSans-W4-8abf" transform="translate(299.999954 0)"/>
     <use xlink:href="#HiraginoSans-W4-3079" transform="translate(399.999939 0)"/>
     <use xlink:href="#HiraginoSans-W4-3066" transform="translate(499.999924 0)"/>
     <use xlink:href="#HiraginoSans-W4-3044" transform="translate(599.999908 0)"/>
     <use xlink:href="#HiraginoSans-W4-304f" transform="translate(699.999893 0)"/>
    </g>
   </g>
   <g id="text_8">
    <!-- レイキャスト：グリッド上での壁の探し方 -->
    <g transform="translate(203.817647 19.8725) scale(0.16 -0.16)">
     <defs>
      <path id="HiraginoSans-W7-30ad" d="M 2387 4032 
L 1389 3878 
C 922 3808 806 3795 525 3789 
L 672 2854 
C 1024 2938 1094 2957 1542 3027 
L 2541 3181 
L 2707 2240 
L 1363 2029 
C 941 1965 781 1946 518 1939 
L 672 1011 
C 934 1088 1082 1114 1478 1178 
L 2861 1395 
L 3040 416 
C 3117 6 3155 -294 3162 -480 
L 4198 -307 
C 4115 -51 4083 90 3994 589 
L 3814 1542 
L 5114 1741 
C 5728 1843 5728 1843 5952 1856 
L 5792 2778 
C 5530 2694 5357 2656 4934 2592 
L 3654 2387 
L 3482 3322 
L 4608 3501 
C 5133 3578 5133 3578 5414 3603 
L 5261 4525 
C 5011 4448 4864 4416 4448 4352 
L 3322 4179 
L 3245 4557 
C 3181 4902 3155 5088 3149 5293 
L 2144 5133 
C 2221 4928 2221 4928 2317 4397 
L 2387 4032 
z
" transform="scale(0.015625)"/>
      <path id="HiraginoSans-W7-30e3" d="M 1901 3174 
L 1517 3117 
C 1152 3053 1024 3040 800 3034 
L 954 2189 
C 1184 2259 1286 2285 1626 2342 
L 2035 2413 
L 2419 262 
C 2477 -58 2502 -230 2522 -480 
L 3469 -314 
C 3386 -64 3360 38 3283 422 
L 2880 2554 
L 4461 2829 
C 4218 2381 3891 2035 3430 1741 
C 3744 1581 3859 1491 4134 1210 
C 4762 1728 5126 2227 5402 2950 
C 5472 3142 5504 3194 5562 3277 
L 5043 3750 
C 4922 3686 4845 3667 4576 3622 
L 2739 3315 
L 2662 3693 
C 2624 3891 2605 4064 2592 4275 
L 1690 4141 
C 1754 3968 1773 3878 1830 3571 
L 1901 3174 
z
" transform="scale(0.015625)"/>
      <path id="HiraginoSans-W7-30b9" d="M 6042 493 
C 4947 1536 4787 1677 3962 2266 
C 4333 2771 4621 3290 4928 4006 
C 5005 4192 5056 4275 5139 4365 
L 4646 4877 
C 4493 4806 4461 4800 4109 4800 
L 1926 4762 
C 1882 4762 1830 4762 1805 4762 
C 1408 4762 1229 4768 1024 4800 
L 1037 3827 
C 1280 3866 1402 3872 1933 3885 
L 3802 3917 
C 3654 3590 3546 3360 3462 3219 
C 3053 2502 2490 1882 1786 1370 
C 1306 1018 928 813 365 589 
C 678 262 768 141 979 -262 
C 1952 211 2797 845 3366 1523 
C 4083 966 4723 339 5267 -339 
L 6042 493 
z
" transform="scale(0.015625)"/>
      <path id="HiraginoSans-W7-30c8" d="M 2675 -339 
C 2650 -96 2637 141 2637 550 
L 2637 2394 
C 2733 2342 2758 2330 2880 2278 
C 3616 1958 4454 1504 5024 1114 
L 5549 2035 
C 4506 2643 3629 3040 2637 3379 
L 2637 4352 
C 2637 4819 2643 4966 2675 5210 
L 1632 5210 
C 1664 4986 1670 4806 1670 4352 
L 1670 563 
C 1670 128 1664 -96 1632 -339 
L 2675 -339 
z
" transform="scale(0.015625)"/>
      <path id="HiraginoSans-W7-ff1a" d="M 3757 4326 
L 2650 4326 
L 2650 3219 
L 3757 3219 
L 3757 4326 
z
M 3757 538 
L 3757 1645 
L 2650 1645 
L 2650 538 
L 3757 538 
z
" transform="scale(0.015625)"/>
      <path id="HiraginoSans-W7-30b0" d="M 5222 4365 
L 5510 4461 
C 5370 4813 5274 4992 5056 5286 
L 4506 5107 
C 4672 4870 4768 4691 4877 4435 
C 4781 4429 4717 4422 4646 4422 
L 2982 4403 
C 3053 4544 3078 4595 3136 4723 
C 3226 4934 3290 5062 3322 5107 
L 2291 5306 
C 2259 5075 2170 4832 1984 4493 
C 1562 3686 1056 3110 307 2592 
C 685 2362 800 2266 1069 1939 
C 1658 2400 2157 2944 2547 3565 
L 4365 3590 
C 3840 1978 2842 966 1114 301 
C 1453 -6 1562 -141 1773 -525 
C 2790 -58 3520 454 4096 1114 
C 4653 1754 5101 2611 5408 3616 
C 5485 3866 5504 3923 5568 4019 
L 5222 4365 
z
M 5306 5318 
C 5472 5075 5619 4800 5747 4480 
L 6291 4685 
C 6182 4973 6042 5229 5837 5498 
L 5306 5318 
z
" transform="scale(0.015625)"/>
      <path id="HiraginoSans-W7-30ea" d="M 1203 5094 
C 1229 4864 1235 4717 1235 4224 
L 1235 2982 
C 1235 2560 1222 2323 1197 2086 
L 2246 2086 
C 2227 2259 2214 2573 2214 2970 
L 2214 4224 
C 2214 4646 2227 4883 2253 5094 
L 1203 5094 
z
M 4128 5088 
C 4160 4826 4166 4710 4166 4224 
L 4166 3616 
C 4166 2989 4141 2458 4096 2202 
C 3994 1606 3706 1235 3117 922 
C 2765 736 2432 627 1869 512 
C 2182 147 2266 6 2419 -403 
C 3008 -237 3347 -102 3706 102 
C 4416 506 4845 1024 5024 1715 
C 5126 2106 5152 2496 5152 3558 
L 5152 4237 
C 5152 4723 5158 4858 5184 5088 
L 4128 5088 
z
" transform="scale(0.015625)"/>
      <path id="HiraginoSans-W7-30c3" d="M 941 3526 
C 1222 2957 1344 2624 1517 1926 
L 2374 2189 
C 2150 2912 2022 3232 1741 3757 
L 941 3526 
z
M 2336 3802 
C 2586 3302 2790 2752 2912 2246 
L 3750 2502 
C 3590 3085 3469 3373 3130 4019 
L 2336 3802 
z
M 4538 3891 
C 4531 3680 4499 3469 4422 3155 
C 4160 2131 3738 1472 2995 934 
C 2630 678 2355 531 1869 346 
C 2189 38 2278 -77 2477 -416 
C 3488 96 4058 550 4512 1203 
C 4890 1754 5165 2458 5350 3322 
C 5402 3552 5408 3571 5446 3680 
L 4538 3891 
z
" transform="scale(0.015625)"/>
      <path id="HiraginoSans-W7-30c9" d="M 3776 4570 
C 4000 4288 4192 3968 4346 3622 
L 4902 3898 
C 4742 4256 4582 4506 4333 4813 
L 3776 4570 
z
M 4538 4909 
C 4762 4627 4941 4326 5101 4000 
L 5658 4275 
C 5459 4653 5350 4826 5075 5158 
L 4538 4909 
z
M 2554 -339 
C 2528 -96 2515 141 2515 550 
L 2515 2394 
C 2611 2342 2637 2330 2758 2278 
C 3494 1958 4333 1504 4902 1114 
L 5427 2035 
C 4384 2643 3507 3040 2515 3379 
L 2515 4352 
C 2515 4819 2522 4966 2554 5210 
L 1510 5210 
C 1542 4986 1549 4806 1549 4352 
L 1549 563 
C 1549 128 1542 -96 1510 -339 
L 2554 -339 
z
" transform="scale(0.015625)"/>
      <path id="HiraginoSans-W7-4e0a" d="M 3488 2758 
L 4915 2758 
C 5197 2758 5440 2746 5696 2720 
L 5696 3603 
C 5446 3578 5210 3565 4915 3565 
L 3488 3565 
L 3488 4550 
C 3488 4864 3501 5056 3526 5318 
L 2534 5318 
C 2560 5050 2573 4858 2573 4550 
L 2573 506 
L 1248 506 
C 851 506 582 518 301 550 
L 301 -358 
C 614 -326 941 -314 1248 -314 
L 5210 -314 
C 5555 -314 5824 -326 6125 -358 
L 6125 550 
C 5869 518 5562 506 5197 506 
L 3488 506 
L 3488 2758 
z
" transform="scale(0.015625)"/>
      <path id="HiraginoSans-W7-3067" d="M 5434 2598 
C 5261 2976 5120 3194 4896 3462 
L 4352 3219 
C 4576 2925 4723 2688 4883 2330 
L 5434 2598 
z
M 6176 2950 
C 5971 3354 5882 3494 5645 3770 
L 5114 3539 
C 5331 3258 5472 3021 5632 2682 
L 6176 2950 
z
M 474 3571 
C 717 3616 1062 3661 1414 3686 
C 2842 3795 2867 3802 3507 3872 
C 2618 3360 2157 2656 2157 1792 
C 2157 1062 2502 506 3168 160 
C 3552 -45 4000 -154 4717 -237 
C 4832 -250 4858 -250 4941 -269 
L 5075 768 
C 4998 762 4954 762 4915 762 
C 4678 762 4262 826 3968 909 
C 3430 1062 3136 1408 3136 1882 
C 3136 2464 3571 3059 4294 3469 
C 4723 3712 5242 3859 5658 3859 
C 5715 3859 5734 3859 5811 3853 
L 5760 4832 
C 5645 4806 5606 4800 5043 4774 
C 3283 4698 2182 4646 1741 4614 
C 832 4557 794 4557 672 4557 
C 646 4557 570 4557 422 4563 
L 474 3571 
z
" transform="scale(0.015625)"/>
      <path id="HiraginoSans-W7-306e" d="M 3776 4038 
C 4032 4006 4186 3955 4371 3834 
C 4806 3546 5056 3066 5056 2496 
C 5056 1818 4723 1222 4173 922 
C 3872 762 3475 659 2906 614 
C 3155 282 3245 109 3379 -294 
C 3834 -218 4090 -154 4397 -32 
C 5421 371 6003 1274 6003 2438 
C 6003 3936 4979 4896 3373 4896 
C 2458 4896 1670 4576 1120 3974 
C 653 3469 403 2803 403 2074 
C 403 973 966 198 1760 198 
C 2310 198 2733 576 3091 1389 
C 3424 2131 3648 2982 3776 4038 
z
M 2842 4026 
C 2765 3341 2566 2534 2330 1965 
C 2125 1446 1926 1197 1741 1197 
C 1491 1197 1286 1587 1286 2067 
C 1286 2707 1587 3328 2074 3706 
C 2323 3898 2534 3987 2842 4026 
z
" transform="scale(0.015625)"/>
      <path id="HiraginoSans-W7-58c1" d="M 1510 1421 
C 1165 1421 1030 1427 851 1453 
L 851 704 
C 1062 723 1197 730 1510 730 
L 2803 730 
L 2803 339 
L 1075 339 
C 736 339 538 346 320 378 
L 320 -403 
C 557 -378 806 -365 1133 -365 
L 5248 -365 
C 5574 -365 5830 -378 6067 -403 
L 6067 378 
C 5856 346 5670 339 5312 339 
L 3610 339 
L 3610 730 
L 4928 730 
C 5229 730 5363 723 5574 704 
L 5574 1453 
C 5395 1427 5267 1421 4928 1421 
L 3610 1421 
C 3610 1613 3616 1690 3642 1818 
L 3021 1818 
C 3014 1888 3014 2010 3014 2221 
L 3014 2842 
C 3014 3123 3014 3200 3027 3334 
C 2899 3322 2810 3315 2483 3315 
L 1574 3315 
C 1446 3315 1402 3315 1325 3322 
C 1344 3482 1350 3494 1363 3622 
L 2560 3622 
C 2790 3622 2950 3616 3040 3610 
C 3034 3725 3027 3846 3027 4102 
L 3027 4755 
C 3027 4986 3034 5139 3046 5254 
C 2918 5242 2746 5235 2490 5235 
L 1210 5235 
C 954 5235 787 5242 634 5254 
C 653 5094 659 5005 659 4755 
C 659 3546 512 2880 154 2426 
C 378 2234 525 2048 691 1747 
C 928 2074 1024 2272 1184 2746 
L 1184 2285 
C 1184 2016 1178 1907 1165 1747 
C 1357 1760 1485 1766 1715 1766 
L 2560 1766 
C 2630 1766 2675 1766 2778 1760 
C 2797 1651 2803 1568 2803 1421 
L 1510 1421 
z
M 1408 4237 
C 1421 4346 1421 4378 1421 4480 
L 1421 4608 
L 2278 4608 
L 2278 4237 
L 1408 4237 
z
M 1779 2739 
L 2342 2739 
L 2342 2349 
L 1779 2349 
L 1779 2739 
z
M 4166 4998 
L 3776 4998 
C 3552 4998 3360 5011 3213 5030 
L 3213 4333 
C 3315 4346 3366 4346 3526 4352 
C 3610 4154 3661 4000 3706 3808 
L 3590 3808 
C 3354 3808 3270 3814 3136 3827 
L 3136 3123 
C 3302 3142 3430 3149 3629 3149 
L 4179 3149 
L 4179 2797 
L 3738 2797 
C 3494 2797 3430 2797 3258 2816 
L 3258 2118 
C 3424 2138 3539 2144 3725 2144 
L 4179 2144 
L 4179 2106 
C 4179 1901 4173 1773 4147 1619 
L 4992 1619 
C 4966 1741 4954 1894 4954 2106 
L 4954 2144 
L 5478 2144 
C 5722 2144 5779 2138 5946 2118 
L 5946 2816 
C 5798 2797 5741 2797 5491 2797 
L 4954 2797 
L 4954 3149 
L 5606 3149 
C 5850 3149 5965 3142 6131 3123 
L 6131 3834 
C 5997 3814 5856 3808 5651 3808 
L 5414 3808 
C 5491 3981 5549 4141 5613 4352 
C 5837 4352 5901 4346 6022 4333 
L 6022 5030 
C 5869 5011 5670 4998 5446 4998 
L 4941 4998 
L 4941 5050 
C 4941 5222 4954 5306 4979 5408 
L 4141 5408 
C 4160 5306 4166 5203 4166 5056 
L 4166 4998 
z
M 4422 3808 
C 4378 4019 4339 4134 4269 4352 
L 4877 4352 
C 4832 4160 4781 3987 4717 3808 
L 4422 3808 
z
" transform="scale(0.015625)"/>
      <path id="HiraginoSans-W7-63a2" d="M 4864 4461 
L 5254 4461 
L 5254 3910 
L 6061 3910 
C 6042 4051 6035 4166 6035 4384 
L 6035 4774 
C 6035 4979 6035 5088 6054 5216 
C 5894 5197 5722 5190 5395 5190 
L 2733 5190 
C 2432 5190 2259 5197 2099 5216 
C 2112 5075 2118 4941 2118 4762 
L 2118 4314 
L 2112 4256 
C 2048 4250 2010 4250 1933 4250 
L 1715 4250 
L 1715 4736 
C 1715 5050 1722 5184 1747 5382 
L 870 5382 
C 896 5190 909 5043 909 4730 
L 909 4250 
L 698 4250 
C 506 4250 390 4256 230 4282 
L 230 3475 
C 397 3494 518 3501 685 3501 
L 909 3501 
L 909 2458 
C 403 2336 358 2330 166 2310 
L 314 1466 
C 416 1510 480 1530 589 1562 
C 723 1600 723 1600 909 1658 
L 909 429 
C 909 269 870 230 710 230 
C 570 230 442 243 211 269 
C 320 -45 358 -198 390 -525 
C 576 -538 666 -544 768 -544 
C 1056 -544 1267 -512 1421 -442 
C 1632 -352 1715 -186 1715 166 
L 1715 384 
C 1926 134 2016 0 2182 -314 
C 2842 77 3226 429 3616 1011 
C 3603 890 3603 883 3603 742 
C 3603 723 3603 685 3603 640 
C 3603 582 3603 538 3603 506 
L 3603 -51 
C 3603 -205 3584 -390 3565 -570 
L 4435 -570 
C 4403 -397 4397 -237 4397 -70 
L 4397 461 
C 4397 646 4397 646 4384 1011 
C 4826 416 5286 19 5882 -294 
C 6035 96 6112 256 6272 506 
C 5664 749 5146 1120 4781 1574 
L 5421 1574 
C 5651 1574 5850 1568 6099 1542 
L 6099 2362 
C 5888 2336 5683 2323 5408 2323 
L 4397 2323 
L 4397 2598 
C 4397 2675 4397 2720 4403 2797 
C 4576 2758 4710 2746 4979 2746 
C 5952 2746 6042 2816 6144 3686 
C 5869 3725 5754 3750 5504 3840 
C 5485 3450 5478 3437 5126 3437 
C 4896 3437 4864 3456 4864 3571 
L 4864 4461 
z
M 3565 2944 
C 3590 2790 3597 2675 3597 2464 
L 3597 2323 
L 2810 2323 
C 2554 2323 2400 2330 2227 2342 
L 2214 2848 
C 1965 2758 1907 2739 1715 2682 
L 1715 3501 
L 1933 3501 
C 2054 3501 2144 3494 2253 3482 
L 2253 3866 
L 2829 3866 
L 2829 4461 
L 3187 4461 
C 3168 4070 3098 3814 2950 3648 
C 2752 3418 2534 3290 2086 3130 
C 2298 2938 2413 2790 2560 2528 
C 3027 2739 3334 2963 3539 3238 
C 3782 3558 3866 3834 3910 4461 
L 4128 4461 
L 4134 4378 
L 4134 3213 
C 4134 3091 4141 3021 4179 2944 
L 3565 2944 
z
M 1715 1920 
C 1901 1984 1901 1984 2093 2054 
L 2093 1542 
C 2278 1568 2470 1574 2771 1574 
L 3174 1574 
C 2842 1082 2323 659 1715 390 
L 1715 1920 
z
" transform="scale(0.015625)"/>
      <path id="HiraginoSans-W7-3057" d="M 1210 5139 
C 1229 4960 1235 4870 1235 4659 
C 1235 4467 1229 4077 1210 3194 
C 1190 2349 1184 1933 1184 1645 
C 1184 1267 1222 934 1280 730 
C 1382 410 1587 134 1856 -45 
C 2144 -230 2566 -333 3040 -333 
C 3859 -333 4506 -58 4998 486 
C 5331 858 5530 1293 5786 2208 
C 5408 2374 5267 2464 4851 2790 
C 4794 2317 4717 2016 4582 1677 
C 4294 973 3770 589 3091 589 
C 2714 589 2426 704 2291 909 
C 2170 1088 2138 1306 2138 1926 
C 2138 3034 2214 4742 2278 5120 
L 1210 5139 
z
" transform="scale(0.015625)"/>
      <path id="HiraginoSans-W7-65b9" d="M 2707 4531 
L 1146 4531 
C 806 4531 550 4544 307 4576 
L 307 3680 
C 550 3706 826 3718 1146 3718 
L 2074 3718 
C 2067 3366 2054 3181 2029 2950 
C 1939 2189 1747 1683 1382 1197 
C 1050 762 794 538 186 166 
C 454 -58 614 -250 794 -557 
C 1491 -90 1939 352 2278 909 
C 2541 1350 2720 1798 2829 2310 
L 4499 2310 
C 4480 1606 4448 1171 4384 845 
C 4314 429 4237 346 3936 346 
C 3654 346 3347 371 2995 429 
C 3142 58 3187 -128 3213 -448 
C 3718 -480 3872 -486 4051 -486 
C 4717 -486 4973 -326 5126 198 
C 5254 621 5318 1171 5370 2240 
C 5382 2541 5402 2803 5427 3002 
C 5434 3085 5434 3085 5440 3130 
C 5280 3110 5114 3104 4774 3104 
L 2938 3104 
C 2950 3290 2963 3430 2982 3718 
L 5293 3718 
C 5677 3718 5894 3706 6106 3680 
L 6106 4576 
C 5875 4544 5632 4531 5261 4531 
L 3597 4531 
L 3597 4877 
C 3597 5094 3610 5261 3635 5395 
L 2662 5395 
C 2694 5235 2707 5094 2707 4877 
L 2707 4531 
z
" transform="scale(0.015625)"/>
     </defs>
     <use xlink:href="#HiraginoSans-W7-30ec"/>
     <use xlink:href="#HiraginoSans-W7-30a4" transform="translate(99.999985 0)"/>
     <use xlink:href="#HiraginoSans-W7-30ad" transform="translate(199.999969 0)"/>
     <use xlink:href="#HiraginoSans-W7-30e3" transform="translate(299.999954 0)"/>
     <use xlink:href="#HiraginoSans-W7-30b9" transform="translate(399.999939 0)"/>
     <use xlink:href="#HiraginoSans-W7-30c8" transform="translate(499.999924 0)"/>
     <use xlink:href="#HiraginoSans-W7-ff1a" transform="translate(599.999908 0)"/>
     <use xlink:href="#HiraginoSans-W7-30b0" transform="translate(699.999893 0)"/>
     <use xlink:href="#HiraginoSans-W7-30ea" transform="translate(799.999878 0)"/>
     <use xlink:href="#HiraginoSans-W7-30c3" transform="translate(899.999863 0)"/>
     <use xlink:href="#HiraginoSans-W7-30c9" transform="translate(999.999847 0)"/>
     <use xlink:href="#HiraginoSans-W7-4e0a" transform="translate(1099.999832 0)"/>
     <use xlink:href="#HiraginoSans-W7-3067" transform="translate(1199.999817 0)"/>
     <use xlink:href="#HiraginoSans-W7-306e" transform="translate(1299.999802 0)"/>
     <use xlink:href="#HiraginoSans-W7-58c1" transform="translate(1399.999786 0)"/>
     <use xlink:href="#HiraginoSans-W7-306e" transform="translate(1499.999771 0)"/>
     <use xlink:href="#HiraginoSans-W7-63a2" transform="translate(1599.999756 0)"/>
     <use xlink:href="#HiraginoSans-W7-3057" transform="translate(1699.999741 0)"/>
     <use xlink:href="#HiraginoSans-W7-65b9" transform="translate(1799.999725 0)"/>
    </g>
   </g>
   <g id="line2d_2">
    <path d="M 162.141176 344.754853 
L 433.288235 188.208026 
" clip-path="url(#pdbedd25896)" style="fill: none; stroke: #2563eb; stroke-width: 3.5; stroke-linecap: round"/>
   </g>
   <g id="PathCollection_4">
    <defs>
     <path id="ma02ca57292" d="M 0 5 
C 1.326016 5 2.597899 4.473168 3.535534 3.535534 
C 4.473168 2.597899 5 1.326016 5 0 
C 5 -1.326016 4.473168 -2.597899 3.535534 -3.535534 
C 2.597899 -4.473168 1.326016 -5 0 -5 
C -1.326016 -5 -2.597899 -4.473168 -3.535534 -3.535534 
C -4.473168 -2.597899 -5 -1.326016 -5 0 
C -5 1.326016 -4.473168 2.597899 -3.535534 3.535534 
C -2.597899 4.473168 -1.326016 5 0 5 
z
" style="stroke: #ffffff; stroke-width: 2"/>
    </defs>
    <g clip-path="url(#pdbedd25896)">
     <use xlink:href="#ma02ca57292" x="229.232674" y="306.019559" style="fill: #059669; stroke: #ffffff; stroke-width: 2"/>
    </g>
   </g>
   <g id="PathCollection_5">
    <g clip-path="url(#pdbedd25896)">
     <use xlink:href="#ma02ca57292" x="363.415669" y="228.548971" style="fill: #059669; stroke: #ffffff; stroke-width: 2"/>
    </g>
   </g>
   <g id="PathCollection_6">
    <defs>
     <path id="m63d6900aa9" d="M -5 5 
L 5 5 
L 5 -5 
L -5 -5 
z
" style="stroke: #ffffff; stroke-width: 2"/>
    </defs>
    <g clip-path="url(#pdbedd25896)">
     <use xlink:href="#m63d6900aa9" x="200.876471" y="322.39102" style="fill: #f59e0b; stroke: #ffffff; stroke-width: 2"/>
    </g>
   </g>
   <g id="PathCollection_7">
    <g clip-path="url(#pdbedd25896)">
     <use xlink:href="#m63d6900aa9" x="278.347059" y="277.663355" style="fill: #f59e0b; stroke: #ffffff; stroke-width: 2"/>
    </g>
   </g>
   <g id="PathCollection_8">
    <g clip-path="url(#pdbedd25896)">
     <use xlink:href="#m63d6900aa9" x="355.817647" y="232.935691" style="fill: #f59e0b; stroke: #ffffff; stroke-width: 2"/>
    </g>
   </g>
   <g id="PathCollection_9">
    <defs>
     <path id="m814ef3aee3" d="M -3.535534 7.071068 
L 0 3.535534 
L 3.535534 7.071068 
L 7.071068 3.535534 
L 3.535534 0 
L 7.071068 -3.535534 
L 3.535534 -7.071068 
L 0 -3.535534 
L -3.535534 -7.071068 
L -7.071068 -3.535534 
L -3.535534 0 
L -7.071068 3.535534 
z
" style="stroke: #ffffff; stroke-width: 2"/>
    </defs>
    <g clip-path="url(#pdbedd25896)">
     <use xlink:href="#m814ef3aee3" x="433.288235" y="188.208026" style="fill: #dc2626; stroke: #ffffff; stroke-width: 2"/>
    </g>
   </g>
   <g id="PathCollection_10">
    <defs>
     <path id="m8236d4180c" d="M 0 7.905694 
C 2.096615 7.905694 4.10764 7.0727 5.59017 5.59017 
C 7.0727 4.10764 7.905694 2.096615 7.905694 0 
C 7.905694 -2.096615 7.0727 -4.10764 5.59017 -5.59017 
C 4.10764 -7.0727 2.096615 -7.905694 0 -7.905694 
C -2.096615 -7.905694 -4.10764 -7.0727 -5.59017 -5.59017 
C -7.0727 -4.10764 -7.905694 -2.096615 -7.905694 0 
C -7.905694 2.096615 -7.0727 4.10764 -5.59017 5.59017 
C -4.10764 7.0727 -2.096615 7.905694 0 7.905694 
z
" style="stroke: #ffffff; stroke-width: 3"/>
    </defs>
    <g clip-path="url(#pdbedd25896)">
     <use xlink:href="#m8236d4180c" x="162.141176" y="344.754853" style="fill: #059669; stroke: #ffffff; stroke-width: 3"/>
    </g>
   </g>
  </g>
 </g>
 <defs>
  <clipPath id="pdbedd25896">
   <rect x="7.2" y="34.8725" width="697.235294" height="526.8"/>
  </clipPath>
 </defs>
</svg>
