<?xml version="1.0" encoding="utf-8" standalone="no"?>
<!DOCTYPE svg PUBLIC "-//W3C//DTD SVG 1.1//EN"
  "http://www.w3.org/Graphics/SVG/1.1/DTD/svg11.dtd">
<svg xmlns:xlink="http://www.w3.org/1999/xlink" width="579.933333pt" height="640.8725pt" viewBox="0 0 579.933333 640.8725" xmlns="http://www.w3.org/2000/svg" version="1.1">
 <metadata>
  <rdf:RDF xmlns:dc="http://purl.org/dc/elements/1.1/" xmlns:cc="http://creativecommons.org/ns#" xmlns:rdf="http://www.w3.org/1999/02/22-rdf-syntax-ns#">
   <cc:Work>
    <dc:type rdf:resource="http://purl.org/dc/dcmitype/StillImage"/>
    <dc:date>2026-02-01T13:03:53.584026</dc:date>
    <dc:format>image/svg+xml</dc:format>
    <dc:creator>
     <cc:Agent>
      <dc:title>Matplotlib v3.10.8, https://matplotlib.org/</dc:title>
     </cc:Agent>
    </dc:creator>
   </cc:Work>
  </rdf:RDF>
 </metadata>
 <defs>
  <style type="text/css">*{stroke-linejoin: round; stroke-linecap: butt}</style>
 </defs>
 <g id="figure_1">
  <g id="patch_1">
   <path d="M 0 640.8725 
L 579.933333 640.8725 
L 579.933333 0 
L 0 0 
z
" style="fill: #ffffff"/>
  </g>
  <g id="axes_1">
   <g id="patch_2">
    <path d="M 289.966667 483.9725 
C 334.078782 483.9725 376.390119 466.446571 407.582095 435.254595 
C 438.774071 404.062619 456.3 361.751282 456.3 317.639167 
C 456.3 273.527051 438.774071 231.215715 407.582095 200.023739 
C 376.390119 168.831763 334.078782 151.305833 289.966667 151.305833 
C 245.854551 151.305833 203.543215 168.831763 172.351239 200.023739 
C 141.159263 231.215715 123.633333 273.527051 123.633333 317.639167 
C 123.633333 361.751282 141.159263 404.062619 172.351239 435.254595 
C 203.543215 466.446571 245.854551 483.9725 289.966667 483.9725 
z
" clip-path="url(#pa78c99f942)" style="fill: #f3f4f6; opacity: 0.5"/>
   </g>
   <g id="line2d_1">
    <path d="M 7.2 317.639167 
L 572.733333 317.639167 
" clip-path="url(#pa78c99f942)" style="fill: none; stroke: #374151; stroke-width: 2; stroke-linecap: square"/>
   </g>
   <g id="line2d_2">
    <path d="M 289.966667 633.6725 
L 289.966667 34.8725 
" clip-path="url(#pa78c99f942)" style="fill: none; stroke: #374151; stroke-width: 2; stroke-linecap: square"/>
   </g>
   <g id="patch_3">
    <path d="M 394.275428 317.639167 
L 407.582095 317.639167 
L 407.582095 304.3325 
L 394.275428 304.3325 
L 394.275428 317.639167 
z
" clip-path="url(#pa78c99f942)" style="fill: none; stroke: #374151; stroke-width: 1.5; stroke-linejoin: miter"/>
   </g>
   <g id="line2d_3">
    <path d="M 456.3 317.639167 
L 455.965117 307.089655 
L 454.961817 296.582622 
L 453.29414 286.160376 
L 450.968801 275.864885 
L 447.995163 265.737604 
L 444.3852 255.819312 
L 440.153448 246.149946 
L 435.316946 236.768443 
L 429.895171 227.712577 
L 423.909953 219.018814 
L 417.385392 210.722161 
L 410.347762 202.856024 
L 402.825399 195.452079 
L 394.848594 188.540138 
L 386.449466 182.148033 
L 377.661836 176.301503 
L 368.521089 171.024091 
L 359.06403 166.337045 
L 349.328742 162.259239 
L 339.354422 158.807094 
L 329.181236 155.994509 
L 318.850147 153.83281 
L 308.402754 152.330702 
L 297.881125 151.494233 
L 287.327628 151.32677 
L 276.784757 151.828989 
L 266.294965 152.998867 
L 255.900491 154.831693 
L 245.643189 157.320088 
L 235.564362 160.45403 
L 225.704594 164.220902 
L 216.103587 168.605536 
L 206.8 173.590275 
L 197.831296 179.155048 
L 189.233589 185.277447 
L 181.041498 191.932821 
L 173.28801 199.094369 
L 166.004347 206.733256 
L 159.219835 214.818722 
L 152.961795 223.318209 
L 147.255426 232.197494 
L 142.123704 241.420822 
L 137.587293 250.951054 
L 133.664461 260.749816 
L 130.371002 270.777651 
L 127.720179 280.994181 
L 125.722665 291.358268 
L 124.386504 301.828178 
L 123.717075 312.361754 
L 123.717075 322.91658 
L 124.386504 333.450155 
L 125.722665 343.920066 
L 127.720179 354.284152 
L 130.371002 364.500682 
L 133.664461 374.528517 
L 137.587293 384.327279 
L 142.123704 393.857511 
L 147.255426 403.080839 
L 152.961795 411.960124 
L 159.219835 420.459611 
L 166.004347 428.545077 
L 173.28801 436.183964 
L 181.041498 443.345513 
L 189.233589 450.000886 
L 197.831296 456.123286 
L 206.8 461.688059 
L 216.103587 466.672798 
L 225.704594 471.057431 
L 235.564362 474.824303 
L 245.643189 477.958246 
L 255.900491 480.44664 
L 266.294965 482.279466 
L 276.784757 483.449344 
L 287.327628 483.951563 
L 297.881125 483.784101 
L 308.402754 482.947631 
L 318.850147 481.445523 
L 329.181236 479.283824 
L 339.354422 476.471239 
L 349.328742 473.019094 
L 359.06403 468.941289 
L 368.521089 464.254243 
L 377.661836 458.97683 
L 386.449466 453.1303 
L 394.848594 446.738195 
L 402.825399 439.826254 
L 410.347762 432.422309 
L 417.385392 424.556172 
L 423.909953 416.259519 
L 429.895171 407.565756 
L 435.316946 398.50989 
L 440.153448 389.128387 
L 444.3852 379.459022 
L 447.995163 369.54073 
L 450.968801 359.413449 
L 453.29414 349.117957 
L 454.961817 338.695711 
L 455.965117 328.188679 
L 456.3 317.639167 
" clip-path="url(#pa78c99f942)" style="fill: none; stroke: #374151; stroke-width: 3; stroke-linecap: square"/>
   </g>
   <g id="line2d_4">
    <path d="M 407.582095 317.639167 
L 407.582095 200.023739 
" clip-path="url(#pa78c99f942)" style="fill: none; stroke-dasharray: 9.25,4; stroke-dashoffset: 0; stroke: #dc2626; stroke-width: 2.5"/>
   </g>
   <g id="line2d_5">
    <path d="M 289.966667 200.023739 
L 407.582095 200.023739 
" clip-path="url(#pa78c99f942)" style="fill: none; stroke-dasharray: 9.25,4; stroke-dashoffset: 0; stroke: #059669; stroke-width: 2.5"/>
   </g>
   <g id="line2d_6">
    <path d="M 339.866667 317.639167 
L 339.848368 316.287905 
L 339.793484 314.937635 
L 339.702056 313.589346 
L 339.574151 312.244028 
L 339.409862 310.902666 
L 339.20931 309.566245 
L 338.972642 308.235745 
L 338.700032 306.912142 
L 338.39168 305.596406 
L 338.047811 304.289503 
L 337.668679 302.99239 
L 337.25456 301.70602 
L 336.805759 300.431336 
L 336.322605 299.169273 
L 335.805452 297.920756 
L 335.25468 296.6867 
L 334.670692 295.468013 
L 334.053918 294.265585 
L 333.404808 293.080301 
L 332.72384 291.913029 
L 332.011512 290.764625 
L 331.268348 289.635932 
L 330.494891 288.527777 
L 329.691711 287.440973 
L 328.859394 286.376318 
L 327.998553 285.334591 
L 327.109818 284.316558 
L 326.193842 283.322964 
L 325.251295 282.354538 
" clip-path="url(#pa78c99f942)" style="fill: none; stroke: #2563eb; stroke-width: 2.5; stroke-linecap: square"/>
   </g>
   <g id="patch_4">
    <path d="M 524.835343 317.639167 
Q 531.152603 317.639167 535.233795 317.639167 
" style="fill: none; stroke: #374151; stroke-width: 2; stroke-linecap: round"/>
    <path d="M 531.233795 315.639167 
L 535.233795 317.639167 
L 531.233795 319.639167 
" style="fill: none; stroke: #374151; stroke-width: 2; stroke-linecap: round"/>
   </g>
   <g id="patch_5">
    <path d="M 289.966667 82.77049 
Q 289.966667 76.45323 289.966667 72.372039 
" style="fill: none; stroke: #374151; stroke-width: 2; stroke-linecap: round"/>
    <path d="M 287.966667 76.372039 
L 289.966667 72.372039 
L 291.966667 76.372039 
" style="fill: none; stroke: #374151; stroke-width: 2; stroke-linecap: round"/>
   </g>
   <g id="text_1">
    <!-- x -->
    <g transform="translate(547.783333 335.609583) scale(0.16 -0.16)">
     <defs>
      <path id="HiraginoSans-W7-78" d="M 4154 -134 
C 4006 51 3846 256 3680 480 
L 2701 1856 
L 3584 3098 
C 3680 3232 3840 3443 4006 3654 
L 2810 3654 
C 2746 3501 2650 3328 2522 3142 
L 2118 2534 
L 1709 3142 
C 1606 3296 1510 3475 1434 3654 
L 218 3654 
C 442 3373 563 3219 640 3104 
L 1530 1856 
L 538 454 
C 416 288 218 32 77 -134 
L 1312 -134 
C 1427 90 1498 205 1619 390 
L 2112 1139 
L 2598 416 
C 2720 237 2784 122 2906 -134 
L 4154 -134 
z
" transform="scale(0.015625)"/>
     </defs>
     <use xlink:href="#HiraginoSans-W7-78"/>
    </g>
   </g>
   <g id="text_2">
    <!-- y -->
    <g transform="translate(271.32375 56.4775) scale(0.16 -0.16)">
     <defs>
      <path id="HiraginoSans-W7-79" d="M 1619 179 
L 1459 -173 
C 1357 -384 1190 -486 947 -486 
C 787 -486 672 -454 461 -358 
L 320 -1248 
C 646 -1312 864 -1338 1088 -1338 
C 1754 -1338 2163 -1088 2400 -550 
L 3859 2835 
C 4045 3283 4045 3283 4090 3373 
C 4179 3558 4179 3558 4224 3654 
L 3059 3654 
C 3021 3437 2957 3245 2803 2854 
L 2157 1229 
L 1453 2912 
C 1344 3155 1254 3469 1222 3654 
L 51 3654 
C 128 3501 160 3437 429 2835 
L 1619 179 
z
" transform="scale(0.015625)"/>
     </defs>
     <use xlink:href="#HiraginoSans-W7-79"/>
    </g>
   </g>
   <g id="line2d_7">
    <path d="M 289.966667 317.639167 
L 407.582095 200.023739 
" clip-path="url(#pa78c99f942)" style="fill: none; stroke: #2563eb; stroke-width: 4; stroke-linecap: square"/>
   </g>
   <g id="line2d_8">
    <path d="M 289.966667 317.639167 
L 407.582095 317.639167 
" clip-path="url(#pa78c99f942)" style="fill: none; stroke: #dc2626; stroke-width: 5; stroke-linecap: square"/>
   </g>
   <g id="line2d_9">
    <path d="M 289.966667 317.639167 
L 289.966667 200.023739 
" clip-path="url(#pa78c99f942)" style="fill: none; stroke: #059669; stroke-width: 5; stroke-linecap: square"/>
   </g>
   <g id="text_3">
    <!-- θ -->
    <g style="fill: #2563eb" transform="translate(359.826667 292.689167) scale(0.18 -0.18)">
     <defs>
      <path id="HiraginoSans-W7-3b8" d="M 3603 5152 
C 3379 5152 3162 5120 2957 5043 
C 2541 4902 2150 4550 1901 4090 
C 1523 3386 1312 2496 1312 1581 
C 1312 358 1837 -282 2835 -282 
C 3539 -282 4122 70 4474 723 
C 4851 1408 5082 2400 5082 3322 
C 5082 4518 4570 5152 3603 5152 
z
M 2438 2899 
C 2586 3418 2694 3686 2867 3930 
C 3072 4211 3290 4346 3539 4346 
C 3910 4346 4134 4032 4134 3501 
C 4134 3379 4122 3194 4090 2899 
L 2438 2899 
z
M 3968 2086 
C 3859 1619 3770 1370 3629 1114 
C 3405 710 3149 518 2848 518 
C 2451 518 2253 832 2253 1472 
C 2253 1651 2266 1786 2304 2086 
L 3968 2086 
z
" transform="scale(0.015625)"/>
     </defs>
     <use xlink:href="#HiraginoSans-W7-3b8"/>
    </g>
   </g>
   <g id="text_4">
    <!-- cos θ -->
    <g style="fill: #dc2626" transform="translate(324.070084 347.579167) scale(0.15 -0.15)">
     <defs>
      <path id="HiraginoSans-W7-63" d="M 3917 2541 
C 3840 2765 3789 2886 3693 3034 
C 3373 3526 2835 3789 2150 3789 
C 1587 3789 1114 3610 774 3270 
C 416 2912 211 2368 211 1760 
C 211 1152 410 602 762 243 
C 1088 -90 1581 -269 2150 -269 
C 2835 -269 3360 -32 3686 429 
C 3808 602 3878 755 3962 1011 
L 2989 1184 
C 2950 1030 2925 954 2861 870 
C 2720 659 2477 544 2189 544 
C 1606 544 1242 1018 1242 1773 
C 1242 2528 1587 2982 2170 2982 
C 2426 2982 2630 2893 2778 2707 
C 2854 2611 2893 2528 2950 2330 
L 3917 2541 
z
" transform="scale(0.015625)"/>
      <path id="HiraginoSans-W7-6f" d="M 2208 -262 
C 3418 -262 4211 544 4211 1773 
C 4211 3002 3437 3782 2214 3782 
C 992 3782 211 2995 211 1760 
C 211 525 986 -262 2208 -262 
z
M 2221 2976 
C 2835 2976 3194 2522 3194 1754 
C 3194 1005 2829 557 2214 557 
C 1600 557 1229 1018 1229 1773 
C 1229 2522 1606 2976 2221 2976 
z
" transform="scale(0.015625)"/>
      <path id="HiraginoSans-W7-73" d="M 211 979 
C 275 685 339 531 461 365 
C 749 -38 1280 -243 2029 -243 
C 3117 -243 3757 224 3757 1018 
C 3757 1395 3590 1683 3270 1875 
C 3027 2022 2810 2093 2157 2234 
C 1824 2304 1690 2342 1574 2400 
C 1446 2458 1376 2547 1376 2656 
C 1376 2867 1613 2995 1997 2995 
C 2381 2995 2566 2867 2605 2566 
L 3635 2688 
C 3558 3021 3456 3206 3258 3386 
C 2982 3642 2547 3776 1984 3776 
C 992 3776 384 3328 384 2592 
C 384 2189 608 1850 986 1677 
C 1210 1574 1434 1510 2035 1389 
C 2400 1312 2528 1274 2618 1210 
C 2707 1146 2752 1062 2752 960 
C 2752 723 2490 576 2074 576 
C 1766 576 1536 653 1414 794 
C 1344 877 1312 947 1274 1107 
L 211 979 
z
" transform="scale(0.015625)"/>
      <path id="HiraginoSans-W7-20" transform="scale(0.015625)"/>
     </defs>
     <use xlink:href="#HiraginoSans-W7-63"/>
     <use xlink:href="#HiraginoSans-W7-6f" transform="translate(64.799988 0)"/>
     <use xlink:href="#HiraginoSans-W7-73" transform="translate(133.899979 0)"/>
     <use xlink:href="#HiraginoSans-W7-20" transform="translate(196.099976 0)"/>
     <use xlink:href="#HiraginoSans-W7-3b8" transform="translate(229.399963 0)"/>
    </g>
   </g>
   <g id="text_5">
    <!-- sin θ -->
    <g style="fill: #059669" transform="translate(257.745599 280.949421) rotate(-90) scale(0.15 -0.15)">
     <defs>
      <path id="HiraginoSans-W7-69" d="M 384 5069 
L 384 4186 
L 1498 4186 
L 1498 5069 
L 384 5069 
z
M 371 3654 
C 410 3392 422 3149 422 2758 
L 422 762 
C 422 384 410 186 371 -134 
L 1504 -134 
C 1466 134 1453 390 1453 768 
L 1453 2752 
C 1453 3174 1466 3411 1504 3654 
L 371 3654 
z
" transform="scale(0.015625)"/>
      <path id="HiraginoSans-W7-6e" d="M 1485 -134 
C 1446 179 1434 416 1434 762 
L 1434 2061 
C 1709 2541 2106 2835 2483 2835 
C 2637 2835 2765 2797 2861 2726 
C 3014 2611 3066 2464 3066 2131 
L 3066 762 
C 3066 403 3053 166 3014 -134 
L 4134 -134 
C 4096 128 4083 371 4083 762 
L 4083 2374 
C 4083 3245 3610 3731 2758 3731 
C 2214 3731 1811 3552 1414 3142 
C 1421 3264 1427 3347 1427 3398 
L 1427 3654 
L 371 3654 
C 410 3411 422 3168 422 2758 
L 422 762 
C 422 390 410 154 371 -134 
L 1485 -134 
z
" transform="scale(0.015625)"/>
     </defs>
     <use xlink:href="#HiraginoSans-W7-73"/>
     <use xlink:href="#HiraginoSans-W7-69" transform="translate(62.199997 0)"/>
     <use xlink:href="#HiraginoSans-W7-6e" transform="translate(91.399994 0)"/>
     <use xlink:href="#HiraginoSans-W7-20" transform="translate(161.599976 0)"/>
     <use xlink:href="#HiraginoSans-W7-3b8" transform="translate(194.899963 0)"/>
    </g>
   </g>
   <g id="text_6">
    <g id="patch_6">
     <path d="M 427.542095 186.681551 
L 527.810688 186.681551 
Q 531.710688 186.681551 531.710688 182.781551 
L 531.710688 169.767332 
Q 531.710688 165.867332 527.810688 165.867332 
L 427.542095 165.867332 
Q 423.642095 165.867332 423.642095 169.767332 
L 423.642095 182.781551 
Q 423.642095 186.681551 427.542095 186.681551 
z
" style="fill: #ffffff; opacity: 0.95; stroke: #2563eb; stroke-linejoin: miter"/>
    </g>
    <!-- (cos θ, sin θ) -->
    <g style="fill: #2563eb" transform="translate(427.542095 180.063739) scale(0.13 -0.13)">
     <defs>
      <path id="HiraginoSans-W7-28" d="M 2560 -640 
C 2176 -90 2016 205 1869 640 
C 1734 1043 1670 1491 1670 1978 
C 1670 2483 1741 2944 1882 3373 
C 2029 3814 2189 4102 2573 4646 
L 1798 5165 
C 1325 4512 1126 4147 947 3603 
C 781 3110 691 2560 691 2016 
C 691 1331 832 653 1101 13 
C 1280 -397 1427 -659 1798 -1171 
L 2560 -640 
z
" transform="scale(0.015625)"/>
      <path id="HiraginoSans-W7-2c" d="M 1472 973 
L 365 973 
L 365 -134 
L 998 -134 
C 992 -371 954 -480 851 -570 
C 742 -666 634 -717 416 -762 
L 672 -1171 
C 973 -1069 1114 -992 1248 -838 
C 1402 -653 1472 -442 1472 -134 
L 1472 973 
z
" transform="scale(0.015625)"/>
      <path id="HiraginoSans-W7-29" d="M 147 4646 
C 531 4102 691 3814 838 3373 
C 979 2944 1050 2490 1050 1978 
C 1050 1485 986 1043 851 640 
C 704 205 544 -90 154 -640 
L 922 -1171 
C 1286 -659 1440 -397 1619 13 
C 1894 653 2029 1325 2029 2022 
C 2029 2566 1939 3110 1773 3603 
C 1594 4147 1395 4512 922 5165 
L 147 4646 
z
" transform="scale(0.015625)"/>
     </defs>
     <use xlink:href="#HiraginoSans-W7-28"/>
     <use xlink:href="#HiraginoSans-W7-63" transform="translate(42.499985 0)"/>
     <use xlink:href="#HiraginoSans-W7-6f" transform="translate(107.299973 0)"/>
     <use xlink:href="#HiraginoSans-W7-73" transform="translate(176.399963 0)"/>
     <use xlink:href="#HiraginoSans-W7-20" transform="translate(238.59996 0)"/>
     <use xlink:href="#HiraginoSans-W7-3b8" transform="translate(271.899948 0)"/>
     <use xlink:href="#HiraginoSans-W7-2c" transform="translate(371.899933 0)"/>
     <use xlink:href="#HiraginoSans-W7-20" transform="translate(400.59993 0)"/>
     <use xlink:href="#HiraginoSans-W7-73" transform="translate(433.899918 0)"/>
     <use xlink:href="#HiraginoSans-W7-69" transform="translate(496.099915 0)"/>
     <use xlink:href="#HiraginoSans-W7-6e" transform="translate(525.299911 0)"/>
     <use xlink:href="#HiraginoSans-W7-20" transform="translate(595.499893 0)"/>
     <use xlink:href="#HiraginoSans-W7-3b8" transform="translate(628.799881 0)"/>
     <use xlink:href="#HiraginoSans-W7-29" transform="translate(728.799866 0)"/>
    </g>
   </g>
   <g id="text_7">
    <!-- r = 1 -->
    <g style="fill: #2563eb" transform="translate(347.147325 231.941862) rotate(-45) scale(0.13 -0.13)">
     <defs>
      <path id="HiraginoSans-W7-72" d="M 3277 3654 
C 3002 3712 2867 3725 2675 3725 
C 2106 3725 1696 3533 1427 3130 
L 1427 3654 
L 371 3654 
C 410 3386 422 3187 422 2758 
L 422 762 
C 422 384 410 186 371 -134 
L 1472 -134 
C 1440 141 1427 378 1427 762 
L 1427 1869 
C 1459 2170 1517 2317 1651 2477 
C 1830 2682 2080 2778 2419 2778 
C 2624 2778 2746 2758 3014 2669 
L 3277 3654 
z
" transform="scale(0.015625)"/>
      <path id="HiraginoSans-W7-3d" d="M 294 3008 
L 294 2112 
L 4173 2112 
L 4173 3008 
L 294 3008 
z
M 294 1427 
L 294 531 
L 4173 531 
L 4173 1427 
L 294 1427 
z
" transform="scale(0.015625)"/>
      <path id="HiraginoSans-W7-31" d="M 947 4122 
C 1216 4154 1414 4166 1664 4166 
L 1946 4166 
L 1946 762 
C 1946 410 1926 122 1894 -134 
L 3066 -134 
C 3027 160 3014 403 3014 762 
L 3014 4058 
C 3014 4461 3027 4736 3066 5094 
C 2816 5075 2726 5069 2342 5069 
L 1645 5069 
C 1318 5069 1158 5075 947 5107 
L 947 4122 
z
" transform="scale(0.015625)"/>
     </defs>
     <use xlink:href="#HiraginoSans-W7-72"/>
     <use xlink:href="#HiraginoSans-W7-20" transform="translate(52.099991 0)"/>
     <use xlink:href="#HiraginoSans-W7-3d" transform="translate(85.399979 0)"/>
     <use xlink:href="#HiraginoSans-W7-20" transform="translate(155.299973 0)"/>
     <use xlink:href="#HiraginoSans-W7-31" transform="translate(188.59996 0)"/>
    </g>
   </g>
   <g id="text_8">
    <!-- 0° -->
    <g style="fill: #1f2937" transform="translate(479.121042 321.136979) scale(0.12 -0.12)">
     <defs>
      <path id="HiraginoSans-W7-30" d="M 2368 -243 
C 3130 -243 3757 96 4122 698 
C 4358 1088 4512 1798 4512 2470 
C 4512 2995 4429 3494 4262 3942 
C 4173 4192 4019 4422 3821 4621 
C 3456 4986 2950 5178 2374 5178 
C 1613 5178 992 4845 627 4230 
C 384 3834 230 3136 230 2458 
C 230 1939 314 1440 480 992 
C 576 742 723 512 922 314 
C 1286 -51 1786 -243 2368 -243 
z
M 2374 4275 
C 3066 4275 3424 3654 3424 2445 
C 3424 1741 3277 1190 3008 915 
C 2848 749 2630 659 2374 659 
C 1677 659 1318 1286 1318 2502 
C 1318 3622 1709 4275 2374 4275 
z
" transform="scale(0.015625)"/>
      <path id="HiraginoSans-W7-b0" d="M 934 5523 
C 467 5523 90 5146 90 4678 
C 90 4211 467 3834 934 3834 
C 1402 3834 1779 4211 1779 4678 
C 1779 5146 1402 5523 934 5523 
z
M 934 5088 
C 1158 5088 1344 4902 1344 4678 
C 1344 4454 1158 4269 934 4269 
C 710 4269 525 4454 525 4678 
C 525 4902 710 5088 934 5088 
z
" transform="scale(0.015625)"/>
     </defs>
     <use xlink:href="#HiraginoSans-W7-30"/>
     <use xlink:href="#HiraginoSans-W7-b0" transform="translate(74.099991 0)"/>
    </g>
   </g>
   <g id="text_9">
    <!-- 90° -->
    <g style="fill: #1f2937" transform="translate(275.075417 121.536979) scale(0.12 -0.12)">
     <defs>
      <path id="HiraginoSans-W7-39" d="M 384 922 
C 557 531 678 352 928 154 
C 1267 -115 1715 -250 2259 -250 
C 2874 -250 3354 -77 3712 282 
C 4147 710 4410 1594 4410 2605 
C 4410 3328 4262 3942 4000 4339 
C 3642 4870 3040 5178 2342 5178 
C 1114 5178 294 4442 294 3341 
C 294 2278 1005 1600 2118 1600 
C 2483 1600 2810 1677 3066 1818 
C 3206 1901 3290 1978 3437 2144 
C 3386 1613 3322 1357 3194 1126 
C 3002 781 2707 614 2304 614 
C 2016 614 1786 698 1632 864 
C 1555 947 1517 1018 1459 1178 
L 384 922 
z
M 2259 2451 
C 1702 2451 1338 2816 1338 3386 
C 1338 3936 1741 4320 2304 4320 
C 2886 4320 3296 3936 3296 3398 
C 3296 2842 2867 2451 2259 2451 
z
" transform="scale(0.015625)"/>
     </defs>
     <use xlink:href="#HiraginoSans-W7-39"/>
     <use xlink:href="#HiraginoSans-W7-30" transform="translate(74.099991 0)"/>
     <use xlink:href="#HiraginoSans-W7-b0" transform="translate(148.199982 0)"/>
    </g>
   </g>
   <g id="text_10">
    <!-- 180° -->
    <g style="fill: #1f2937" transform="translate(71.029792 321.136979) scale(0.12 -0.12)">
     <defs>
      <path id="HiraginoSans-W7-38" d="M 3360 2598 
C 3968 2790 4269 3194 4269 3827 
C 4269 4166 4128 4474 3878 4704 
C 3526 5024 3027 5184 2362 5184 
C 1197 5184 474 4646 474 3789 
C 474 3437 589 3149 813 2918 
C 979 2758 1126 2675 1402 2598 
C 1126 2541 973 2477 781 2342 
C 422 2093 243 1734 243 1274 
C 243 314 1024 -250 2368 -250 
C 3117 -250 3693 -77 4083 262 
C 4352 499 4499 858 4499 1293 
C 4499 1728 4352 2061 4051 2310 
C 3866 2470 3699 2534 3360 2598 
z
M 2374 4358 
C 2880 4358 3200 4102 3200 3706 
C 3200 3283 2893 3034 2374 3034 
C 1856 3034 1536 3290 1536 3706 
C 1536 4102 1862 4358 2374 4358 
z
M 2374 2131 
C 3008 2131 3386 1843 3386 1363 
C 3386 877 3014 602 2362 602 
C 1728 602 1350 883 1350 1357 
C 1350 1837 1741 2131 2374 2131 
z
" transform="scale(0.015625)"/>
     </defs>
     <use xlink:href="#HiraginoSans-W7-31"/>
     <use xlink:href="#HiraginoSans-W7-38" transform="translate(74.099991 0)"/>
     <use xlink:href="#HiraginoSans-W7-30" transform="translate(148.199982 0)"/>
     <use xlink:href="#HiraginoSans-W7-b0" transform="translate(222.299973 0)"/>
    </g>
   </g>
   <g id="text_11">
    <!-- 270° -->
    <g style="fill: #1f2937" transform="translate(270.629792 520.736979) scale(0.12 -0.12)">
     <defs>
      <path id="HiraginoSans-W7-32" d="M 3354 -134 
C 3782 -134 4045 -147 4384 -179 
L 4384 845 
C 4147 806 3846 794 3405 794 
L 1786 794 
C 1869 998 1939 1107 2086 1267 
C 2234 1421 2528 1670 2790 1856 
C 3546 2381 3597 2419 3750 2560 
C 4122 2893 4314 3283 4314 3712 
C 4314 4608 3565 5178 2387 5178 
C 1696 5178 1158 4966 813 4570 
C 570 4275 454 4006 358 3488 
L 1491 3360 
C 1530 3648 1568 3789 1664 3930 
C 1818 4154 2074 4275 2406 4275 
C 2867 4275 3187 4032 3187 3680 
C 3187 3347 3046 3168 2458 2771 
C 1792 2317 1600 2176 1363 1958 
C 941 1574 640 1126 474 627 
C 390 397 352 179 320 -160 
C 563 -134 666 -134 1210 -134 
L 3354 -134 
z
" transform="scale(0.015625)"/>
      <path id="HiraginoSans-W7-37" d="M 4358 5094 
C 4122 5075 3942 5069 3411 5069 
L 1312 5069 
C 902 5069 659 5082 358 5114 
L 358 4096 
C 621 4128 845 4141 1254 4141 
L 3149 4141 
C 2605 3386 2342 2950 2048 2323 
C 1696 1562 1510 954 1318 -134 
L 2541 -134 
C 2707 1165 2989 2035 3590 3110 
C 3898 3654 4083 3923 4358 4205 
L 4358 5094 
z
" transform="scale(0.015625)"/>
     </defs>
     <use xlink:href="#HiraginoSans-W7-32"/>
     <use xlink:href="#HiraginoSans-W7-37" transform="translate(74.099991 0)"/>
     <use xlink:href="#HiraginoSans-W7-30" transform="translate(148.199982 0)"/>
     <use xlink:href="#HiraginoSans-W7-b0" transform="translate(222.299973 0)"/>
    </g>
   </g>
   <g id="text_12">
    <g id="patch_7">
     <path d="M 219.928854 583.915833 
L 360.004479 583.915833 
Q 366.004479 583.915833 366.004479 577.915833 
L 366.004479 510.917583 
Q 366.004479 504.917583 360.004479 504.917583 
L 219.928854 504.917583 
Q 213.928854 504.917583 213.928854 510.917583 
L 213.928854 577.915833 
Q 213.928854 583.915833 219.928854 583.915833 
z
" style="fill: #f3f4f6; stroke: #374151; stroke-width: 2; stroke-linejoin: miter"/>
    </g>
    <!-- 【単位円】 -->
    <g style="fill: #1f2937" transform="translate(259.966667 520.168833) scale(0.12 -0.12)">
     <defs>
      <path id="HiraginoSans-W4-3010" d="M 4435 -627 
L 6170 -627 
C 5779 -102 5632 154 5478 582 
C 5286 1120 5190 1747 5190 2432 
C 5190 3117 5286 3744 5478 4282 
C 5632 4710 5779 4966 6170 5491 
L 4435 5491 
L 4435 -627 
z
" transform="scale(0.015625)"/>
      <path id="HiraginoSans-W4-5358" d="M 2912 1651 
L 2912 1094 
L 1030 1094 
C 736 1094 557 1107 365 1133 
L 365 608 
C 550 634 768 646 1062 646 
L 2912 646 
L 2912 109 
C 2912 -198 2906 -326 2874 -499 
L 3437 -499 
C 3398 -314 3392 -186 3392 109 
L 3392 646 
L 5338 646 
C 5632 646 5850 634 6042 608 
L 6042 1133 
C 5862 1107 5677 1094 5376 1094 
L 3392 1094 
L 3392 1651 
L 4787 1651 
C 5030 1651 5203 1645 5434 1626 
C 5414 1792 5408 1958 5408 2266 
L 5408 3456 
C 5408 3776 5414 3942 5434 4115 
C 5286 4096 5107 4090 4787 4090 
L 4653 4090 
C 4883 4378 5043 4621 5318 5088 
L 4787 5267 
C 4614 4838 4435 4531 4115 4090 
L 1658 4090 
L 2106 4294 
C 1869 4698 1766 4845 1453 5210 
L 1011 5011 
C 1325 4659 1434 4499 1645 4090 
C 1293 4090 1133 4096 973 4115 
C 992 3936 998 3770 998 3456 
L 998 2246 
C 998 1965 992 1850 973 1626 
C 1171 1645 1350 1651 1619 1651 
L 2912 1651 
z
M 3392 3098 
L 3392 3680 
L 4934 3680 
L 4934 3098 
L 3392 3098 
z
M 2912 3098 
L 1472 3098 
L 1472 3680 
L 2912 3680 
L 2912 3098 
z
M 3392 2067 
L 3392 2694 
L 4934 2694 
L 4934 2067 
L 3392 2067 
z
M 2912 2067 
L 1472 2067 
L 1472 2694 
L 2912 2694 
L 2912 2067 
z
M 3603 4397 
C 3398 4832 3328 4960 3053 5357 
L 2592 5210 
C 2880 4794 2957 4659 3130 4205 
L 3603 4397 
z
" transform="scale(0.015625)"/>
      <path id="HiraginoSans-W4-4f4d" d="M 3667 4141 
L 2707 4141 
C 2381 4141 2202 4147 2016 4179 
L 2016 3661 
C 2163 3680 2374 3693 2720 3693 
L 5280 3693 
C 5555 3693 5754 3680 5965 3661 
L 5965 4179 
C 5779 4154 5581 4141 5280 4141 
L 4154 4141 
L 4154 4806 
C 4154 5024 4166 5152 4192 5293 
L 3622 5293 
C 3654 5139 3667 4992 3667 4794 
L 3667 4141 
z
M 2560 301 
C 2234 301 2035 314 1856 339 
L 1856 -198 
C 2061 -166 2278 -154 2573 -154 
L 5440 -154 
C 5728 -154 5965 -166 6157 -198 
L 6157 339 
C 5971 314 5773 301 5453 301 
L 4531 301 
C 4787 954 5050 1734 5229 2406 
C 5376 2957 5376 2957 5453 3206 
L 4883 3360 
C 4800 2618 4435 1306 4038 301 
L 2560 301 
z
M 992 294 
C 992 -45 979 -243 947 -467 
L 1510 -467 
C 1485 -224 1472 -6 1472 282 
L 1472 3718 
C 1696 4192 1786 4416 1971 4915 
C 2022 5069 2022 5075 2093 5261 
L 1562 5414 
C 1530 5197 1440 4864 1318 4550 
C 1037 3827 640 3187 141 2650 
C 250 2509 358 2310 410 2170 
C 672 2477 800 2662 1018 3027 
C 998 2758 992 2522 992 2253 
L 992 294 
z
M 3533 781 
C 3309 1856 3149 2426 2829 3296 
L 2342 3130 
C 2656 2330 2835 1670 3027 634 
L 3533 781 
z
" transform="scale(0.015625)"/>
      <path id="HiraginoSans-W4-5186" d="M 1165 2150 
L 5242 2150 
L 5242 282 
C 5242 154 5190 128 4915 128 
C 4666 128 4352 154 3917 205 
C 3987 13 4013 -102 4038 -294 
C 4333 -314 4691 -326 4941 -326 
C 5587 -326 5747 -224 5747 211 
L 5747 4384 
C 5747 4678 5754 4819 5773 5005 
C 5619 4986 5459 4979 5152 4979 
L 1261 4979 
C 973 4979 819 4986 634 5005 
C 653 4832 659 4672 659 4422 
L 659 282 
C 659 -58 646 -256 621 -435 
L 1197 -435 
C 1171 -288 1165 -147 1165 262 
L 1165 2150 
z
M 2906 2618 
L 1165 2618 
L 1165 4506 
L 2906 4506 
L 2906 2618 
z
M 3398 2618 
L 3398 4506 
L 5242 4506 
L 5242 2618 
L 3398 2618 
z
" transform="scale(0.015625)"/>
      <path id="HiraginoSans-W4-3011" d="M 1965 -627 
L 1965 5491 
L 230 5491 
C 621 4966 768 4710 915 4282 
C 1114 3744 1210 3130 1210 2432 
C 1210 1734 1114 1120 915 582 
C 768 154 621 -102 230 -627 
L 1965 -627 
z
" transform="scale(0.015625)"/>
     </defs>
     <use xlink:href="#HiraginoSans-W4-3010"/>
     <use xlink:href="#HiraginoSans-W4-5358" transform="translate(99.999985 0)"/>
     <use xlink:href="#HiraginoSans-W4-4f4d" transform="translate(199.999969 0)"/>
     <use xlink:href="#HiraginoSans-W4-5186" transform="translate(299.999954 0)"/>
     <use xlink:href="#HiraginoSans-W4-3011" transform="translate(399.999939 0)"/>
    </g>
    <!-- 半径1の円で、角度θから -->
    <g style="fill: #1f2937" transform="translate(219.928854 533.730333) scale(0.12 -0.12)">
     <defs>
      <path id="HiraginoSans-W4-534a" d="M 3373 3091 
L 3373 4621 
C 3373 4922 3386 5094 3418 5331 
L 2816 5331 
C 2848 5094 2861 4915 2861 4614 
L 2861 3091 
L 1318 3091 
C 1024 3091 813 3104 627 3130 
L 627 2611 
C 813 2637 1030 2650 1312 2650 
L 2861 2650 
L 2861 1683 
L 1011 1683 
C 704 1683 480 1696 314 1722 
L 314 1197 
C 493 1222 710 1235 1011 1235 
L 2861 1235 
L 2861 211 
C 2861 -77 2842 -339 2816 -512 
L 3418 -512 
C 3386 -262 3373 -96 3373 205 
L 3373 1235 
L 5357 1235 
C 5664 1235 5875 1222 6054 1197 
L 6054 1722 
C 5888 1696 5670 1683 5363 1683 
L 3373 1683 
L 3373 2650 
L 5069 2650 
C 5363 2650 5549 2637 5760 2611 
L 5760 3130 
C 5581 3104 5376 3091 5069 3091 
L 3373 3091 
z
M 768 4794 
C 1203 4333 1434 4013 1805 3334 
L 2246 3597 
C 1920 4186 1677 4531 1229 5043 
L 768 4794 
z
M 4973 5056 
C 4646 4410 4384 4032 3955 3565 
L 4378 3322 
C 4768 3757 4986 4064 5440 4813 
L 4973 5056 
z
" transform="scale(0.015625)"/>
      <path id="HiraginoSans-W4-5f84" d="M 5382 5037 
C 5280 5018 5120 5005 4934 5005 
L 2669 5005 
C 2445 5005 2266 5018 2118 5043 
L 2118 4550 
C 2227 4563 2387 4576 2618 4576 
C 2925 4070 3162 3789 3597 3430 
C 3066 3110 2560 2906 1786 2688 
C 1811 2650 1830 2618 1837 2598 
C 1888 2528 1914 2483 1926 2470 
C 1958 2406 1984 2355 2029 2246 
C 2848 2515 3398 2765 3974 3149 
C 4576 2733 5210 2451 5958 2272 
C 6016 2458 6074 2586 6170 2752 
C 5504 2880 4902 3104 4358 3430 
C 4774 3763 5190 4173 5478 4538 
C 5581 4666 5606 4698 5651 4749 
L 5382 5037 
z
M 4909 4576 
C 4621 4211 4365 3974 3974 3686 
C 3590 3974 3354 4230 3136 4576 
L 4909 4576 
z
M 4154 1786 
L 4154 2048 
C 4154 2374 4166 2554 4192 2701 
L 3635 2701 
C 3667 2528 3674 2381 3674 2048 
L 3674 1786 
L 2816 1786 
C 2515 1786 2342 1792 2189 1818 
L 2189 1325 
C 2362 1344 2554 1357 2810 1357 
L 3674 1357 
L 3674 218 
L 2483 218 
C 2202 218 1984 230 1798 256 
L 1798 -262 
C 1990 -237 2182 -224 2483 -224 
L 5414 -224 
C 5690 -224 5894 -237 6080 -262 
L 6080 256 
C 5894 230 5683 218 5408 218 
L 4154 218 
L 4154 1357 
L 5043 1357 
C 5293 1357 5466 1350 5638 1325 
L 5638 1818 
C 5485 1792 5331 1786 5037 1786 
L 4154 1786 
z
M 1619 5395 
C 1395 4966 883 4480 250 4096 
C 397 3942 448 3866 538 3686 
C 1069 4051 1466 4416 1888 4915 
C 1971 5018 1990 5037 2042 5094 
L 1619 5395 
z
M 992 256 
C 992 -45 979 -294 954 -486 
L 1498 -486 
C 1478 -301 1466 -77 1466 230 
L 1466 2810 
C 1632 3027 1811 3277 1901 3411 
C 2016 3590 2016 3590 2048 3635 
L 1619 3904 
C 1562 3744 1446 3546 1299 3341 
C 960 2861 621 2515 173 2189 
C 301 2022 333 1958 422 1728 
C 762 2016 819 2074 1011 2323 
C 998 2042 992 1888 992 1658 
L 992 256 
z
" transform="scale(0.015625)"/>
      <path id="HiraginoSans-W4-31" d="M 1018 4371 
C 1222 4397 1389 4410 1606 4410 
L 1939 4410 
L 1939 755 
C 1939 454 1926 237 1888 0 
L 2598 0 
C 2560 250 2547 448 2547 755 
L 2547 3904 
C 2547 4256 2566 4582 2605 4966 
C 2387 4941 2278 4934 2035 4934 
L 1581 4934 
C 1325 4934 1197 4941 1018 4966 
L 1018 4371 
z
" transform="scale(0.015625)"/>
      <path id="HiraginoSans-W4-306e" d="M 3053 422 
C 3200 243 3245 160 3328 -96 
C 3821 6 4090 90 4397 237 
C 5293 666 5798 1459 5798 2451 
C 5798 3802 4832 4698 3379 4698 
C 2509 4698 1792 4403 1274 3834 
C 832 3347 589 2707 589 2042 
C 589 1107 1062 422 1709 422 
C 2189 422 2573 806 2938 1645 
C 3238 2323 3469 3264 3578 4205 
C 3891 4186 4070 4141 4294 4032 
C 4902 3738 5242 3174 5242 2477 
C 5242 1734 4870 1107 4230 768 
C 3917 602 3610 512 3053 422 
z
M 3027 4192 
C 2944 3398 2714 2483 2458 1888 
C 2195 1286 1952 992 1702 992 
C 1370 992 1114 1453 1114 2035 
C 1114 2797 1491 3501 2112 3891 
C 2394 4077 2656 4160 3027 4192 
z
" transform="scale(0.015625)"/>
      <path id="HiraginoSans-W4-3067" d="M 576 3706 
C 915 3776 1440 3827 2682 3910 
C 3373 3955 3680 3987 4090 4051 
C 3008 3565 2374 2733 2374 1798 
C 2374 1222 2643 736 3136 416 
C 3514 179 3891 51 4550 -58 
C 4653 -70 4678 -77 4755 -96 
L 4845 525 
C 4538 525 4205 582 3885 691 
C 3245 902 2918 1286 2918 1850 
C 2918 2451 3283 3040 3936 3482 
C 4442 3821 5050 4026 5568 4026 
L 5645 4026 
L 5600 4595 
C 5498 4570 5242 4544 4851 4531 
C 3795 4486 2042 4384 1146 4320 
C 947 4307 864 4301 774 4301 
L 544 4307 
L 576 3706 
z
M 4506 3104 
C 4768 2810 4973 2490 5171 2093 
L 5549 2304 
C 5325 2720 5178 2938 4877 3296 
L 4506 3104 
z
M 5248 3450 
C 5530 3117 5722 2829 5907 2458 
L 6278 2669 
C 6048 3091 5907 3290 5606 3642 
L 5248 3450 
z
" transform="scale(0.015625)"/>
      <path id="HiraginoSans-W4-3001" d="M 275 966 
C 781 557 1139 173 1574 -448 
L 2010 -32 
C 1555 563 1222 902 678 1338 
L 275 966 
z
" transform="scale(0.015625)"/>
      <path id="HiraginoSans-W4-89d2" d="M 3795 3776 
C 3974 3955 4147 4147 4307 4365 
C 4474 4595 4474 4595 4550 4678 
L 4282 4928 
C 4128 4902 3955 4896 3680 4896 
L 2547 4896 
C 2611 4979 2650 5030 2701 5114 
C 2784 5242 2784 5242 2829 5299 
L 2272 5434 
C 2234 5280 2118 5082 1901 4800 
C 1504 4282 934 3789 320 3437 
C 486 3270 512 3226 602 3040 
C 838 3181 941 3258 1210 3469 
C 1222 3328 1222 3270 1222 3104 
C 1222 1222 1062 640 333 -128 
C 550 -250 634 -307 774 -454 
C 1222 83 1440 512 1568 1133 
L 5062 1133 
L 5062 256 
C 5062 102 4998 64 4736 64 
C 4544 64 4179 90 3910 122 
C 3994 -64 4026 -179 4045 -358 
C 4454 -378 4531 -378 4672 -378 
C 5350 -378 5549 -256 5549 166 
L 5549 3226 
C 5549 3475 5555 3635 5574 3802 
C 5446 3782 5286 3776 5043 3776 
L 3795 3776 
z
M 1818 3776 
C 1709 3776 1658 3776 1568 3776 
C 1837 4026 1946 4134 2221 4467 
L 3802 4467 
C 3642 4237 3456 4000 3238 3776 
L 1818 3776 
z
M 1632 1568 
C 1658 1798 1670 1914 1690 2285 
L 3091 2285 
L 3091 1568 
L 1632 1568 
z
M 5062 1568 
L 3558 1568 
L 3558 2285 
L 5062 2285 
L 5062 1568 
z
M 5062 2707 
L 3558 2707 
L 3558 3347 
L 5062 3347 
L 5062 2707 
z
M 3091 3347 
L 3091 2707 
L 1702 2707 
L 1702 3347 
L 3091 3347 
z
" transform="scale(0.015625)"/>
      <path id="HiraginoSans-W4-5ea6" d="M 2400 3379 
L 2400 2752 
C 2400 2624 2394 2483 2381 2362 
C 2464 2374 2579 2374 2835 2374 
L 4365 2374 
C 4602 2374 4672 2374 4774 2362 
C 4762 2477 4755 2605 4755 2752 
L 4755 3379 
L 5478 3379 
C 5760 3379 5920 3373 6061 3347 
L 6061 3821 
C 5901 3795 5760 3789 5485 3789 
L 4755 3789 
L 4755 3859 
C 4755 4026 4762 4141 4781 4256 
L 4262 4256 
C 4282 4141 4288 4013 4288 3866 
L 4288 3789 
L 2867 3789 
L 2867 3878 
C 2867 4006 2874 4115 2893 4256 
L 2374 4256 
C 2394 4147 2400 4032 2400 3872 
L 2400 3789 
L 1312 3789 
L 1312 4403 
L 5376 4403 
C 5677 4403 5837 4397 6048 4378 
L 6048 4864 
C 5875 4838 5677 4826 5325 4826 
L 3622 4826 
L 3622 4998 
C 3622 5171 3629 5280 3654 5402 
L 3098 5402 
C 3123 5274 3136 5152 3136 4998 
L 3136 4826 
L 1478 4826 
C 1222 4826 1011 4838 800 4858 
C 819 4672 826 4480 826 4051 
C 826 1670 698 845 198 -26 
C 358 -147 454 -237 595 -416 
C 1120 538 1267 1318 1306 3379 
L 2400 3379 
z
M 2867 3379 
L 4288 3379 
L 4288 2765 
L 2867 2765 
L 2867 3379 
z
M 5030 1933 
C 4896 1920 4787 1914 4570 1914 
L 2272 1914 
C 1939 1914 1766 1920 1613 1946 
L 1613 1491 
C 1766 1517 1907 1523 2195 1523 
C 2522 1056 2771 800 3187 493 
C 2598 224 1997 77 1126 -19 
C 1235 -218 1280 -320 1318 -493 
C 2291 -333 2931 -134 3610 224 
C 4256 -141 4902 -339 5882 -474 
C 5939 -275 6003 -128 6099 32 
C 5338 77 4653 230 4058 499 
C 4429 749 4774 1056 5069 1395 
C 5190 1536 5235 1587 5299 1651 
L 5030 1933 
z
M 4582 1523 
C 4230 1152 4013 973 3622 723 
C 3206 986 2957 1210 2733 1523 
L 4582 1523 
z
" transform="scale(0.015625)"/>
      <path id="HiraginoSans-W4-3b8" d="M 3597 4979 
C 3123 4979 2726 4787 2387 4384 
C 1894 3814 1549 2669 1549 1626 
C 1549 493 1990 -115 2816 -115 
C 3418 -115 3910 211 4262 845 
C 4602 1453 4826 2426 4826 3296 
C 4826 3693 4768 4038 4666 4282 
C 4461 4736 4096 4979 3597 4979 
z
M 2246 2771 
C 2381 3322 2547 3712 2784 4038 
C 2989 4326 3277 4493 3552 4493 
C 4032 4493 4301 4090 4301 3386 
C 4301 3194 4294 3091 4256 2771 
L 2246 2771 
z
M 4179 2278 
C 4045 1658 3936 1363 3738 1018 
C 3488 595 3181 371 2848 371 
C 2579 371 2387 499 2278 742 
C 2170 986 2112 1306 2112 1670 
C 2112 1850 2125 2029 2163 2278 
L 4179 2278 
z
" transform="scale(0.015625)"/>
      <path id="HiraginoSans-W4-304b" d="M 582 3027 
C 864 3104 1133 3155 1824 3251 
C 1619 2438 1440 1920 1146 1286 
C 928 806 672 358 480 115 
L 1005 -186 
C 1197 173 1331 442 1421 621 
C 1843 1485 2118 2266 2362 3296 
C 2547 3315 2662 3322 2797 3322 
C 3366 3322 3546 3117 3546 2464 
C 3546 1754 3450 1101 3290 717 
C 3206 525 3085 429 2931 429 
C 2707 429 2342 544 1990 717 
C 2016 563 2022 480 2022 358 
C 2022 282 2022 250 2010 141 
C 2426 -26 2707 -96 2976 -96 
C 3283 -96 3469 -13 3629 198 
C 3904 563 4077 1421 4077 2438 
C 4077 2982 3994 3277 3770 3501 
C 3571 3699 3283 3789 2848 3789 
C 2707 3789 2611 3782 2458 3770 
C 2490 3923 2560 4326 2592 4499 
C 2650 4858 2669 4966 2707 5094 
L 2106 5158 
C 2106 5120 2106 5088 2106 5075 
C 2106 4813 2029 4256 1926 3731 
C 1389 3648 749 3578 518 3571 
L 582 3027 
z
M 4346 3942 
C 4954 3309 5395 2496 5632 1574 
L 6138 1843 
C 5850 2765 5446 3462 4806 4173 
L 4346 3942 
z
" transform="scale(0.015625)"/>
      <path id="HiraginoSans-W4-3089" d="M 1978 4627 
C 2541 4365 2541 4365 2989 4211 
C 3379 4083 3635 4006 4282 3846 
L 4486 4371 
C 3795 4480 2707 4826 2253 5082 
L 1978 4627 
z
M 1453 3968 
C 1446 3846 1440 3789 1408 3616 
C 1293 2893 1203 2310 1139 1824 
C 1114 1606 1107 1562 1088 1446 
L 1677 1427 
C 1773 1555 1830 1613 1939 1696 
C 2406 2029 3040 2227 3674 2227 
C 4422 2227 4870 1933 4870 1440 
C 4870 819 4205 403 3213 403 
C 2662 403 2067 518 1542 723 
C 1587 506 1600 416 1600 275 
L 1600 205 
C 1600 173 1600 147 1600 122 
C 2355 -70 2662 -115 3226 -115 
C 3910 -115 4429 19 4838 307 
C 5216 570 5446 1005 5446 1446 
C 5446 2208 4768 2714 3750 2714 
C 3040 2714 2342 2522 1907 2202 
C 1811 2131 1773 2099 1683 2003 
L 1677 2010 
C 1690 2067 1696 2080 1709 2157 
C 1824 2995 1946 3642 2029 3930 
L 1453 3968 
z
" transform="scale(0.015625)"/>
     </defs>
     <use xlink:href="#HiraginoSans-W4-534a"/>
     <use xlink:href="#HiraginoSans-W4-5f84" transform="translate(99.999985 0)"/>
     <use xlink:href="#HiraginoSans-W4-31" transform="translate(199.999969 0)"/>
     <use xlink:href="#HiraginoSans-W4-306e" transform="translate(267.299957 0)"/>
     <use xlink:href="#HiraginoSans-W4-5186" transform="translate(367.299942 0)"/>
     <use xlink:href="#HiraginoSans-W4-3067" transform="translate(467.299927 0)"/>
     <use xlink:href="#HiraginoSans-W4-3001" transform="translate(567.299911 0)"/>
     <use xlink:href="#HiraginoSans-W4-89d2" transform="translate(667.299896 0)"/>
     <use xlink:href="#HiraginoSans-W4-5ea6" transform="translate(767.299881 0)"/>
     <use xlink:href="#HiraginoSans-W4-3b8" transform="translate(867.299866 0)"/>
     <use xlink:href="#HiraginoSans-W4-304b" transform="translate(967.29985 0)"/>
     <use xlink:href="#HiraginoSans-W4-3089" transform="translate(1067.299835 0)"/>
    </g>
    <!-- x座標 = cos θ -->
    <g style="fill: #1f2937" transform="translate(247.943229 547.291833) scale(0.12 -0.12)">
     <defs>
      <path id="HiraginoSans-W4-78" d="M 3469 0 
C 3238 294 3078 512 3008 614 
L 2138 1824 
L 2963 2982 
C 3021 3072 3168 3270 3206 3322 
C 3315 3462 3315 3462 3354 3520 
L 2630 3520 
C 2566 3386 2483 3238 2368 3072 
L 1792 2227 
L 1203 3072 
C 1088 3238 1024 3360 947 3520 
L 211 3520 
C 474 3174 557 3072 608 3002 
L 1440 1830 
L 531 563 
C 422 410 237 160 109 0 
L 858 0 
C 966 205 1018 294 1114 435 
L 1786 1421 
L 2426 486 
C 2566 288 2624 192 2720 0 
L 3469 0 
z
" transform="scale(0.015625)"/>
      <path id="HiraginoSans-W4-5ea7" d="M 2138 4032 
C 2112 3725 2048 3437 1926 3104 
C 1773 2682 1600 2413 1261 2035 
C 1402 1952 1453 1914 1606 1747 
C 1882 2067 2074 2381 2240 2765 
C 2419 2451 2611 2202 2912 1869 
C 3002 2029 3078 2138 3187 2266 
C 2803 2586 2618 2810 2406 3213 
C 2458 3366 2522 3603 2611 3962 
L 2138 4032 
z
M 4704 4051 
C 4691 3789 4634 3520 4518 3200 
C 4352 2746 4173 2458 3834 2086 
C 3981 2010 4096 1914 4205 1798 
C 4480 2138 4634 2381 4800 2739 
C 5030 2362 5286 2086 5702 1747 
C 5786 1894 5894 2048 5997 2150 
C 5510 2445 5203 2758 4960 3181 
C 5024 3379 5075 3558 5107 3693 
C 5158 3885 5158 3885 5190 3981 
L 4704 4051 
z
M 3296 1466 
L 2144 1466 
C 1837 1466 1754 1472 1587 1498 
L 1587 1011 
C 1754 1030 1830 1037 2150 1037 
L 3296 1037 
L 3296 179 
L 1741 179 
C 1434 179 1286 186 1114 211 
L 1114 -301 
C 1338 -275 1542 -262 1805 -262 
L 5402 -262 
C 5670 -262 5894 -275 6086 -301 
L 6086 218 
C 5901 186 5741 179 5466 179 
L 3763 179 
L 3763 1037 
L 5088 1037 
C 5376 1037 5498 1030 5664 1005 
L 5664 1498 
C 5498 1472 5357 1466 5088 1466 
L 3763 1466 
L 3763 3526 
C 3763 3878 3770 3981 3795 4122 
L 3264 4122 
C 3290 3981 3296 3859 3296 3526 
L 3296 1466 
z
M 3098 4755 
L 1459 4755 
C 1210 4755 986 4768 755 4787 
C 774 4621 787 4461 787 4224 
C 787 4192 787 4128 787 4019 
C 787 1683 646 755 179 6 
C 346 -115 448 -211 582 -378 
C 851 96 992 512 1101 1133 
C 1229 1850 1274 2662 1280 4307 
L 5350 4307 
C 5651 4307 5882 4294 6022 4275 
L 6022 4794 
C 5837 4768 5587 4755 5306 4755 
L 3584 4755 
L 3584 4966 
C 3584 5126 3597 5261 3622 5370 
L 3066 5370 
C 3085 5242 3098 5120 3098 4973 
L 3098 4755 
z
" transform="scale(0.015625)"/>
      <path id="HiraginoSans-W4-6a19" d="M 4755 4230 
L 4755 4672 
L 5402 4672 
C 5690 4672 5914 4659 6074 4640 
L 6074 5120 
C 5888 5094 5664 5082 5376 5082 
L 2739 5082 
C 2458 5082 2246 5094 2061 5120 
L 2061 4634 
C 2227 4659 2458 4672 2746 4672 
L 3322 4672 
L 3322 4230 
L 2829 4230 
C 2566 4230 2394 4237 2246 4262 
C 2266 4134 2272 3994 2272 3808 
L 2272 3283 
C 2272 3085 2266 2957 2246 2810 
C 2426 2829 2592 2835 2848 2835 
L 5267 2835 
C 5530 2835 5683 2829 5862 2810 
C 5843 2957 5837 3078 5837 3309 
L 5837 3814 
C 5837 4032 5843 4134 5862 4262 
C 5696 4237 5510 4230 5274 4230 
L 4755 4230 
z
M 4352 4230 
L 3725 4230 
L 3725 4672 
L 4352 4672 
L 4352 4230 
z
M 3322 3859 
L 3322 3206 
L 2675 3206 
L 2675 3859 
L 3322 3859 
z
M 3725 3859 
L 4352 3859 
L 4352 3206 
L 3725 3206 
L 3725 3859 
z
M 4755 3859 
L 5427 3859 
L 5427 3206 
L 4755 3206 
L 4755 3859 
z
M 1037 4122 
L 736 4122 
C 531 4122 403 4128 294 4147 
L 294 3674 
C 410 3693 544 3699 736 3699 
L 979 3699 
C 806 2848 512 2099 147 1574 
C 256 1440 326 1312 410 1114 
C 691 1549 902 2118 1088 2925 
C 1056 2464 1037 2112 1037 1882 
L 1037 243 
C 1037 -90 1024 -320 998 -512 
L 1530 -512 
C 1504 -333 1491 -96 1491 243 
L 1491 2118 
C 1491 2362 1485 2560 1472 3098 
C 1626 2694 1722 2502 1946 2144 
C 2035 2323 2080 2394 2182 2541 
C 1875 2906 1651 3283 1510 3699 
L 1664 3699 
C 1811 3699 1933 3693 2061 3680 
L 2061 4147 
C 1946 4128 1843 4122 1658 4122 
L 1491 4122 
L 1491 4704 
C 1491 5005 1498 5190 1523 5363 
L 998 5363 
C 1024 5222 1037 5056 1037 4698 
L 1037 4122 
z
M 4262 1235 
L 5472 1235 
C 5741 1235 5914 1229 6086 1203 
L 6086 1677 
C 5907 1651 5722 1645 5466 1645 
L 2675 1645 
C 2394 1645 2221 1658 2042 1683 
L 2042 1203 
C 2214 1229 2406 1235 2682 1235 
L 3802 1235 
L 3802 141 
C 3802 32 3770 13 3584 13 
C 3450 13 3283 32 3072 70 
C 3130 -102 3149 -230 3155 -397 
C 3386 -410 3488 -416 3603 -416 
C 3904 -416 4045 -390 4134 -326 
C 4224 -262 4262 -147 4262 32 
L 4262 1235 
z
M 2413 2022 
C 2586 2048 2752 2054 3027 2054 
L 5069 2054 
C 5350 2054 5485 2048 5664 2022 
L 5664 2490 
C 5472 2464 5299 2458 5037 2458 
L 3040 2458 
C 2771 2458 2592 2470 2413 2490 
L 2413 2022 
z
M 4723 845 
C 5088 339 5389 64 5882 -243 
C 5990 -90 6093 26 6208 128 
C 5882 307 5722 416 5485 627 
C 5318 768 5248 851 5088 1056 
L 4723 845 
z
M 2848 1082 
C 2688 800 2598 678 2406 486 
C 2214 294 2086 198 1798 38 
C 1990 -90 2042 -134 2170 -275 
C 2656 70 2906 346 3251 896 
L 2848 1082 
z
" transform="scale(0.015625)"/>
      <path id="HiraginoSans-W4-20" transform="scale(0.015625)"/>
      <path id="HiraginoSans-W4-3d" d="M 333 2720 
L 333 2195 
L 3923 2195 
L 3923 2720 
L 333 2720 
z
M 333 1376 
L 333 851 
L 3923 851 
L 3923 1376 
L 333 1376 
z
" transform="scale(0.015625)"/>
      <path id="HiraginoSans-W4-63" d="M 3475 2573 
C 3405 2758 3347 2867 3251 3002 
C 2970 3405 2522 3616 1965 3616 
C 947 3616 282 2874 282 1747 
C 282 627 954 -90 1990 -90 
C 2534 -90 2970 102 3258 480 
C 3366 621 3430 742 3520 986 
L 2950 1126 
C 2899 966 2867 890 2816 806 
C 2650 550 2362 410 2010 410 
C 1312 410 870 934 870 1760 
C 870 2598 1299 3130 1984 3130 
C 2438 3130 2739 2899 2912 2413 
L 3475 2573 
z
" transform="scale(0.015625)"/>
      <path id="HiraginoSans-W4-6f" d="M 2054 -90 
C 3110 -90 3802 640 3802 1766 
C 3802 2893 3117 3610 2042 3610 
C 966 3610 282 2886 282 1760 
C 282 627 966 -90 2054 -90 
z
M 2054 3130 
C 2771 3130 3213 2605 3213 1754 
C 3213 909 2771 397 2042 397 
C 1318 397 870 922 870 1766 
C 870 2611 1325 3130 2054 3130 
z
" transform="scale(0.015625)"/>
      <path id="HiraginoSans-W4-73" d="M 262 973 
C 326 704 378 589 480 448 
C 730 109 1184 -70 1786 -70 
C 2707 -70 3270 339 3270 1011 
C 3270 1293 3136 1555 2912 1722 
C 2720 1862 2483 1946 1894 2074 
C 1510 2157 1357 2208 1210 2285 
C 1075 2355 998 2483 998 2624 
C 998 2944 1312 3162 1760 3162 
C 2042 3162 2259 3078 2400 2925 
C 2483 2835 2515 2758 2554 2598 
L 3155 2688 
C 3066 2982 2982 3136 2810 3283 
C 2573 3494 2208 3610 1754 3610 
C 1299 3610 941 3494 698 3258 
C 518 3091 416 2861 416 2618 
C 416 2310 557 2054 819 1888 
C 1043 1747 1261 1677 1760 1574 
C 2246 1466 2349 1440 2490 1350 
C 2618 1274 2682 1139 2682 973 
C 2682 621 2342 397 1818 397 
C 1504 397 1267 474 1107 614 
C 986 730 934 832 890 1069 
L 262 973 
z
" transform="scale(0.015625)"/>
     </defs>
     <use xlink:href="#HiraginoSans-W4-78"/>
     <use xlink:href="#HiraginoSans-W4-5ea7" transform="translate(55.899994 0)"/>
     <use xlink:href="#HiraginoSans-W4-6a19" transform="translate(155.899979 0)"/>
     <use xlink:href="#HiraginoSans-W4-20" transform="translate(255.899963 0)"/>
     <use xlink:href="#HiraginoSans-W4-3d" transform="translate(289.199951 0)"/>
     <use xlink:href="#HiraginoSans-W4-20" transform="translate(355.599945 0)"/>
     <use xlink:href="#HiraginoSans-W4-63" transform="translate(388.899933 0)"/>
     <use xlink:href="#HiraginoSans-W4-6f" transform="translate(447.999924 0)"/>
     <use xlink:href="#HiraginoSans-W4-73" transform="translate(511.799911 0)"/>
     <use xlink:href="#HiraginoSans-W4-20" transform="translate(567.099899 0)"/>
     <use xlink:href="#HiraginoSans-W4-3b8" transform="translate(600.399887 0)"/>
    </g>
    <!-- y座標 = sin θ -->
    <g style="fill: #1f2937" transform="translate(249.934479 561.834333) scale(0.12 -0.12)">
     <defs>
      <path id="HiraginoSans-W4-79" d="M 1600 154 
L 1325 -486 
C 1229 -710 1069 -832 858 -832 
C 730 -832 621 -800 442 -717 
L 301 -1274 
C 550 -1325 710 -1344 864 -1344 
C 1357 -1344 1664 -1146 1843 -717 
L 3283 2758 
C 3462 3181 3571 3437 3603 3520 
L 2912 3520 
C 2880 3334 2829 3168 2694 2816 
L 1901 768 
L 1011 2822 
C 902 3072 819 3341 787 3520 
L 64 3520 
C 134 3386 134 3386 422 2758 
L 1600 154 
z
" transform="scale(0.015625)"/>
      <path id="HiraginoSans-W4-69" d="M 442 4934 
L 442 4294 
L 1152 4294 
L 1152 4934 
L 442 4934 
z
M 454 3520 
C 486 3296 499 3085 499 2765 
L 499 755 
C 499 461 486 282 454 0 
L 1133 0 
C 1101 269 1088 448 1088 755 
L 1088 2758 
C 1088 3104 1101 3290 1133 3520 
L 454 3520 
z
" transform="scale(0.015625)"/>
      <path id="HiraginoSans-W4-6e" d="M 1114 0 
C 1082 256 1069 474 1069 755 
L 1069 2010 
C 1139 2272 1222 2426 1395 2630 
C 1658 2944 1933 3085 2266 3085 
C 2752 3085 3002 2797 3002 2234 
L 3002 755 
C 3002 454 2989 269 2957 0 
L 3629 0 
C 3597 218 3584 416 3584 749 
L 3584 2323 
C 3584 2662 3520 2912 3392 3110 
C 3181 3418 2816 3584 2349 3584 
C 1779 3584 1376 3360 1056 2867 
C 1069 3027 1069 3059 1069 3142 
L 1069 3520 
L 442 3520 
C 480 3264 493 3078 493 2765 
L 493 755 
C 493 429 480 256 442 0 
L 1114 0 
z
" transform="scale(0.015625)"/>
     </defs>
     <use xlink:href="#HiraginoSans-W4-79"/>
     <use xlink:href="#HiraginoSans-W4-5ea7" transform="translate(57.399994 0)"/>
     <use xlink:href="#HiraginoSans-W4-6a19" transform="translate(157.399979 0)"/>
     <use xlink:href="#HiraginoSans-W4-20" transform="translate(257.399963 0)"/>
     <use xlink:href="#HiraginoSans-W4-3d" transform="translate(290.699951 0)"/>
     <use xlink:href="#HiraginoSans-W4-20" transform="translate(357.099945 0)"/>
     <use xlink:href="#HiraginoSans-W4-73" transform="translate(390.399933 0)"/>
     <use xlink:href="#HiraginoSans-W4-69" transform="translate(445.699921 0)"/>
     <use xlink:href="#HiraginoSans-W4-6e" transform="translate(470.499908 0)"/>
     <use xlink:href="#HiraginoSans-W4-20" transform="translate(533.899902 0)"/>
     <use xlink:href="#HiraginoSans-W4-3b8" transform="translate(567.19989 0)"/>
    </g>
    <!-- が求まる -->
    <g style="fill: #1f2937" transform="translate(265.966667 575.455833) scale(0.12 -0.12)">
     <defs>
      <path id="HiraginoSans-W4-304c" d="M 531 3002 
C 813 3072 1082 3123 1773 3226 
C 1568 2406 1389 1888 1094 1254 
C 877 781 621 326 429 83 
L 954 -218 
L 1370 589 
C 1792 1459 2067 2234 2310 3270 
C 2496 3290 2611 3296 2746 3296 
C 3315 3296 3494 3091 3494 2438 
C 3494 1722 3398 1075 3232 685 
C 3155 499 3034 403 2880 403 
C 2656 403 2291 512 1939 685 
C 1965 531 1971 448 1971 333 
C 1971 256 1965 218 1958 109 
C 2374 -58 2656 -122 2925 -122 
C 3232 -122 3418 -45 3578 173 
C 3853 538 4026 1395 4026 2413 
C 4026 2957 3936 3251 3718 3475 
C 3514 3674 3232 3757 2797 3757 
C 2656 3757 2560 3757 2406 3744 
C 2438 3891 2509 4301 2541 4467 
C 2598 4826 2618 4934 2656 5062 
L 2054 5133 
L 2054 5043 
C 2054 4781 1978 4224 1875 3699 
C 1338 3616 698 3546 467 3546 
L 531 3002 
z
M 4262 3898 
C 4864 3270 5312 2451 5549 1530 
L 6048 1805 
C 5760 2726 5363 3424 4717 4134 
L 4262 3898 
z
M 5357 5357 
C 5638 5024 5830 4736 6016 4365 
L 6387 4576 
C 6157 4998 6016 5197 5715 5549 
L 5357 5357 
z
M 4614 5011 
C 4877 4717 5082 4397 5280 4000 
L 5658 4211 
C 5434 4627 5286 4845 4986 5203 
L 4614 5011 
z
" transform="scale(0.015625)"/>
      <path id="HiraginoSans-W4-6c42" d="M 2944 3738 
L 2944 230 
C 2944 77 2893 45 2656 45 
C 2413 45 2138 70 1818 122 
C 1894 -70 1920 -186 1939 -378 
C 2272 -403 2490 -416 2726 -416 
C 3270 -416 3424 -301 3424 102 
L 3424 1837 
C 3411 2310 3405 2579 3398 2643 
C 3398 2688 3392 2765 3392 2854 
C 3603 2272 3802 1907 4186 1395 
C 4608 845 5088 410 5722 6 
C 5824 192 5926 320 6067 467 
C 5581 730 5325 902 4966 1235 
C 4717 1472 4544 1664 4326 1946 
C 4691 2253 4973 2502 5184 2739 
C 5517 3091 5517 3091 5568 3149 
L 5139 3475 
C 4928 3117 4563 2714 4070 2310 
C 3789 2752 3578 3226 3443 3738 
L 5286 3738 
C 5587 3738 5792 3725 5965 3699 
L 5965 4218 
C 5779 4192 5581 4179 5286 4179 
L 3424 4179 
L 3424 4634 
C 3424 4941 3437 5120 3462 5325 
L 2906 5325 
C 2931 5133 2944 4947 2944 4634 
L 2944 4179 
L 1107 4179 
C 806 4179 608 4192 429 4218 
L 429 3699 
C 621 3725 813 3738 1088 3738 
L 2944 3738 
z
M 3923 4992 
C 4352 4730 4499 4608 4851 4237 
L 5203 4550 
C 4826 4909 4717 4998 4256 5286 
L 3923 4992 
z
M 1005 3149 
C 1357 2803 1587 2496 1869 2016 
L 2278 2336 
C 1978 2790 1773 3046 1389 3443 
L 1005 3149 
z
M 2637 1971 
C 2214 1638 1933 1459 1414 1171 
C 1005 941 755 832 461 742 
L 710 218 
C 819 288 896 333 1037 416 
C 1952 922 2182 1062 2790 1504 
L 2637 1971 
z
" transform="scale(0.015625)"/>
      <path id="HiraginoSans-W4-307e" d="M 5651 563 
C 5562 614 5536 640 5427 710 
C 4749 1197 4256 1453 3648 1638 
C 3635 1901 3635 1901 3616 2554 
C 3949 2573 4518 2624 4768 2662 
C 5261 2733 5280 2739 5389 2746 
L 5363 3264 
C 4998 3149 4371 3059 3610 3014 
C 3603 3366 3597 3462 3597 3808 
C 4179 3840 4499 3872 5050 3949 
C 5389 4000 5389 4000 5510 4006 
L 5485 4525 
C 5107 4403 4442 4314 3597 4269 
C 3603 4755 3616 4986 3642 5133 
L 3066 5133 
C 3091 4986 3091 4986 3098 4250 
C 2906 4243 2682 4237 2560 4237 
C 1850 4237 1203 4288 896 4365 
L 890 3846 
C 928 3853 960 3853 979 3853 
C 1005 3853 1050 3853 1107 3846 
C 1562 3814 2266 3782 2650 3782 
C 2771 3782 2880 3782 3098 3789 
C 3098 3686 3104 3622 3110 2989 
C 2893 2982 2701 2976 2554 2976 
C 1914 2976 1363 3014 1075 3078 
L 1069 2579 
C 1094 2579 1114 2579 1126 2579 
C 1165 2579 1216 2579 1293 2573 
C 1702 2534 2016 2522 2394 2522 
C 2554 2522 2778 2528 3117 2534 
C 3136 1875 3136 1875 3149 1722 
C 2963 1747 2803 1760 2586 1760 
C 1600 1760 1005 1382 1005 755 
C 1005 192 1510 -160 2317 -160 
C 2925 -160 3354 0 3520 294 
C 3616 461 3674 704 3674 954 
C 3674 1011 3674 1043 3667 1120 
C 3898 1024 3898 1024 4038 954 
C 4576 685 5043 352 5344 32 
L 5651 563 
z
M 3155 1242 
C 3155 1242 3162 1075 3162 1024 
C 3162 755 3123 595 3034 499 
C 2918 371 2682 301 2355 301 
C 1843 301 1536 474 1536 768 
C 1536 870 1574 973 1638 1037 
C 1798 1203 2138 1306 2528 1306 
C 2790 1306 2912 1293 3155 1242 
z
" transform="scale(0.015625)"/>
      <path id="HiraginoSans-W4-308b" d="M 1485 4262 
C 1626 4282 1690 4288 1824 4294 
C 2758 4333 3482 4371 3718 4410 
C 3738 4410 3750 4410 3770 4416 
L 3776 4403 
C 3725 4352 3725 4352 3706 4333 
C 3686 4314 3680 4307 3654 4282 
C 2694 3334 1242 2131 678 1818 
L 1005 1331 
C 1760 2022 2746 2419 3693 2419 
C 4531 2419 5037 2067 5037 1478 
C 5037 1146 4883 858 4602 659 
C 4454 550 4314 486 4077 416 
C 3987 704 3917 851 3789 1024 
C 3533 1363 3149 1549 2720 1549 
C 2157 1549 1741 1210 1741 755 
C 1741 563 1818 352 1933 218 
C 2170 -58 2605 -198 3232 -198 
C 4646 -198 5587 480 5587 1491 
C 5587 2323 4896 2861 3821 2861 
C 3283 2861 2835 2752 2317 2490 
L 2304 2515 
C 2739 2784 3507 3430 4371 4262 
C 4563 4454 4602 4480 4698 4531 
L 4390 4947 
C 4301 4896 4243 4883 4058 4870 
C 3488 4826 2643 4787 2106 4787 
C 1779 4787 1645 4794 1459 4826 
L 1485 4262 
z
M 3578 288 
C 3373 256 3302 250 3155 250 
C 2598 250 2246 442 2246 742 
C 2246 966 2432 1107 2720 1107 
C 3155 1107 3443 826 3578 288 
z
" transform="scale(0.015625)"/>
     </defs>
     <use xlink:href="#HiraginoSans-W4-304c"/>
     <use xlink:href="#HiraginoSans-W4-6c42" transform="translate(99.999985 0)"/>
     <use xlink:href="#HiraginoSans-W4-307e" transform="translate(199.999969 0)"/>
     <use xlink:href="#HiraginoSans-W4-308b" transform="translate(299.999954 0)"/>
    </g>
   </g>
   <g id="text_13">
    <!-- 単位円と三角関数 -->
    <g transform="translate(225.966667 19.8725) scale(0.16 -0.16)">
     <defs>
      <path id="HiraginoSans-W7-5358" d="M 2746 1549 
L 2746 1203 
L 1005 1203 
C 672 1203 474 1210 275 1235 
L 275 403 
C 486 429 742 442 1082 442 
L 2746 442 
L 2746 102 
C 2746 -218 2739 -371 2707 -570 
L 3603 -570 
C 3571 -352 3565 -230 3565 102 
L 3565 442 
L 5286 442 
C 5626 442 5920 429 6106 403 
L 6106 1235 
C 5920 1216 5722 1203 5376 1203 
L 3565 1203 
L 3565 1549 
L 4896 1549 
C 5178 1549 5382 1542 5606 1530 
C 5581 1728 5574 1888 5574 2202 
L 5574 3597 
C 5574 3942 5581 4128 5606 4294 
C 5504 4282 5299 4275 4986 4269 
C 5184 4531 5312 4730 5549 5114 
L 4678 5389 
C 4531 5005 4320 4627 4064 4269 
L 3034 4269 
L 3750 4518 
C 3565 4954 3494 5088 3258 5453 
L 2458 5254 
C 2726 4806 2797 4672 2931 4269 
L 1670 4269 
L 2176 4467 
C 1984 4819 1856 5005 1568 5357 
L 794 5069 
C 1050 4762 1184 4557 1325 4269 
C 1120 4269 941 4275 781 4294 
C 806 4115 813 3923 813 3597 
L 813 2189 
C 813 1901 806 1741 781 1530 
C 1005 1542 1190 1549 1485 1549 
L 2746 1549 
z
M 3565 3232 
L 3565 3590 
L 4755 3590 
L 4755 3232 
L 3565 3232 
z
M 2746 3232 
L 1632 3232 
L 1632 3590 
L 2746 3590 
L 2746 3232 
z
M 3565 2227 
L 3565 2586 
L 4755 2586 
L 4755 2227 
L 3565 2227 
z
M 2746 2227 
L 1632 2227 
L 1632 2586 
L 2746 2586 
L 2746 2227 
z
" transform="scale(0.015625)"/>
      <path id="HiraginoSans-W7-4f4d" d="M 3571 4416 
L 2797 4416 
C 2400 4416 2214 4422 2029 4448 
L 2029 3590 
C 2208 3616 2458 3629 2816 3629 
L 5254 3629 
C 5581 3629 5811 3616 6022 3590 
L 6022 4454 
C 5824 4429 5600 4416 5267 4416 
L 4403 4416 
L 4403 4877 
C 4403 5126 4416 5248 4442 5382 
L 3533 5382 
C 3565 5222 3571 5107 3571 4883 
L 3571 4416 
z
M 2643 480 
C 2298 480 2080 493 1882 518 
L 1882 -352 
C 2093 -326 2330 -314 2669 -314 
L 5382 -314 
C 5728 -314 5952 -326 6176 -352 
L 6176 518 
C 5978 493 5760 480 5414 480 
L 4845 480 
C 5165 1395 5286 1818 5632 3206 
L 4717 3450 
C 4614 2598 4326 1421 3994 480 
L 2643 480 
z
M 800 192 
C 800 -122 794 -282 762 -550 
L 1670 -550 
C 1645 -314 1632 -90 1632 186 
L 1632 3821 
C 1824 4224 2016 4723 2189 5280 
L 1318 5491 
C 1286 5254 1210 4973 1088 4653 
C 838 3994 506 3437 96 3008 
C 237 2682 333 2374 403 2042 
C 557 2221 576 2253 813 2592 
C 806 2227 800 2086 800 1914 
L 800 192 
z
M 3738 934 
C 3526 1958 3360 2541 3034 3398 
L 2234 3123 
C 2534 2336 2726 1638 2906 672 
L 3738 934 
z
" transform="scale(0.015625)"/>
      <path id="HiraginoSans-W7-5186" d="M 1395 1869 
L 5043 1869 
L 5043 486 
C 5043 358 4992 333 4723 333 
C 4557 333 4186 358 3808 397 
C 3942 90 4006 -115 4051 -416 
C 4339 -429 4634 -435 4845 -435 
C 5229 -435 5453 -410 5587 -339 
C 5786 -243 5888 -38 5888 288 
L 5888 4410 
C 5888 4794 5894 4966 5914 5158 
C 5741 5139 5555 5133 5165 5133 
L 1280 5133 
C 915 5133 736 5139 512 5158 
C 531 4973 538 4800 538 4518 
L 538 301 
C 538 -45 525 -262 493 -499 
L 1427 -499 
C 1402 -346 1395 -128 1395 269 
L 1395 1869 
z
M 2758 2656 
L 1395 2656 
L 1395 4333 
L 2758 4333 
L 2758 2656 
z
M 3597 2656 
L 3597 4333 
L 5043 4333 
L 5043 2656 
L 3597 2656 
z
" transform="scale(0.015625)"/>
      <path id="HiraginoSans-W7-3068" d="M 1850 5114 
C 1882 5024 1888 5005 1952 4698 
C 2106 3923 2208 3507 2362 2982 
C 1946 2778 1734 2643 1478 2426 
C 1107 2106 909 1683 909 1222 
C 909 909 1011 595 1190 371 
C 1530 -58 2240 -269 3347 -269 
C 3802 -269 4256 -237 4954 -166 
C 5318 -128 5350 -122 5491 -115 
L 5414 928 
C 4915 755 4058 646 3270 646 
C 2323 646 1901 832 1901 1254 
C 1901 1664 2349 2035 3226 2362 
C 3962 2630 4774 2854 5427 2963 
L 5107 3936 
C 5011 3891 4979 3878 4851 3840 
C 3853 3526 3584 3443 3232 3315 
C 3034 3987 2867 4838 2842 5267 
L 1850 5114 
z
" transform="scale(0.015625)"/>
      <path id="HiraginoSans-W7-4e09" d="M 787 4173 
C 1037 4205 1210 4211 1651 4211 
L 4781 4211 
C 5165 4211 5382 4205 5658 4173 
L 5658 5094 
C 5389 5062 5190 5056 4781 5056 
L 1638 5056 
C 1229 5056 1030 5062 787 5094 
L 787 4173 
z
M 1203 2054 
C 1446 2086 1638 2093 1990 2093 
L 4474 2093 
C 4774 2093 4986 2080 5248 2054 
L 5248 2995 
C 4998 2970 4774 2957 4467 2957 
L 1971 2957 
C 1606 2957 1408 2970 1203 2995 
L 1203 2054 
z
M 358 -211 
C 672 -179 915 -166 1350 -166 
L 5165 -166 
C 5632 -166 5824 -173 6086 -211 
L 6086 730 
C 5798 698 5536 685 5139 685 
L 1318 685 
C 890 685 634 698 358 730 
L 358 -211 
z
" transform="scale(0.015625)"/>
      <path id="HiraginoSans-W7-89d2" d="M 4128 3904 
C 4282 4051 4442 4237 4602 4429 
C 4723 4582 4723 4582 4838 4704 
L 4371 5088 
C 4224 5069 4058 5062 3731 5062 
L 2701 5062 
C 2739 5126 2758 5152 2784 5190 
C 2848 5286 2861 5299 2906 5357 
L 1984 5491 
C 1792 4941 986 4160 166 3731 
C 358 3424 429 3290 544 2957 
C 819 3142 909 3213 1037 3315 
C 1030 1395 864 710 218 26 
C 538 -173 723 -326 922 -576 
C 1325 -102 1510 269 1670 941 
L 4870 941 
L 4870 461 
C 4870 320 4806 288 4512 288 
C 4301 288 4045 307 3667 346 
C 3821 58 3872 -102 3917 -474 
C 4256 -486 4397 -493 4544 -493 
C 5043 -493 5312 -442 5478 -314 
C 5619 -205 5696 -13 5696 224 
L 5696 3296 
C 5696 3565 5702 3763 5728 3936 
C 5568 3910 5402 3904 5133 3904 
L 4128 3904 
z
M 1741 3904 
C 1907 4064 2010 4173 2144 4333 
L 3539 4333 
C 3411 4160 3373 4115 3187 3904 
L 1741 3904 
z
M 1798 1658 
C 1818 1901 1824 1933 1837 2093 
L 2918 2093 
L 2918 1658 
L 1798 1658 
z
M 4870 1658 
L 3725 1658 
L 3725 2093 
L 4870 2093 
L 4870 1658 
z
M 4870 2778 
L 3725 2778 
L 3725 3181 
L 4870 3181 
L 4870 2778 
z
M 2918 3181 
L 2918 2778 
L 1862 2778 
L 1862 3181 
L 2918 3181 
z
" transform="scale(0.015625)"/>
      <path id="HiraginoSans-W7-95a2" d="M 4371 992 
C 4589 992 4710 986 4870 966 
L 4870 1645 
C 4742 1626 4608 1619 4378 1619 
L 3507 1619 
C 3514 1728 3520 1773 3526 1920 
L 4352 1920 
C 4538 1920 4653 1914 4768 1901 
L 4768 2554 
C 4646 2534 4538 2528 4346 2528 
L 4186 2528 
C 4294 2707 4339 2778 4422 2950 
L 3680 3078 
C 3584 2829 3533 2720 3424 2528 
L 2982 2528 
C 2867 2758 2784 2893 2650 3085 
L 1946 2931 
C 2080 2752 2138 2669 2221 2528 
L 2054 2528 
C 1862 2528 1766 2534 1651 2554 
L 1651 1901 
C 1773 1914 1882 1920 2074 1920 
L 2771 1920 
C 2771 1754 2765 1715 2758 1619 
L 2029 1619 
C 1805 1619 1677 1626 1542 1645 
L 1542 960 
C 1709 979 1888 992 2086 992 
L 2598 992 
C 2477 800 2355 678 2144 557 
C 1952 435 1779 378 1395 275 
C 1574 70 1677 -96 1811 -384 
C 2509 -160 2893 109 3194 582 
C 3494 237 3923 -51 4384 -218 
C 4429 -64 4442 -19 4493 102 
C 4550 -96 4582 -230 4608 -486 
C 4851 -493 4851 -493 4922 -493 
C 5792 -493 5952 -371 5952 314 
L 5952 4531 
C 5952 4858 5958 5018 5978 5254 
C 5805 5235 5651 5229 5325 5229 
L 4000 5229 
C 3667 5229 3520 5235 3347 5254 
C 3360 5069 3366 4896 3366 4659 
L 3366 3693 
C 3366 3398 3366 3283 3354 3123 
C 3552 3130 3706 3136 3910 3136 
L 5146 3136 
L 5146 429 
C 5146 288 5114 269 4902 269 
C 4806 269 4730 275 4576 294 
C 4621 390 4640 422 4698 525 
C 4237 627 3974 749 3686 992 
L 4371 992 
z
M 4128 4678 
L 5146 4678 
L 5146 4422 
L 4128 4422 
L 4128 4678 
z
M 4128 3923 
L 5146 3923 
L 5146 3674 
L 4128 3674 
L 4128 3923 
z
M 1280 3142 
L 2438 3142 
C 2637 3142 2848 3136 2995 3130 
C 2989 3251 2982 3386 2982 3693 
L 2982 4659 
C 2982 4915 2989 5069 3002 5254 
C 2835 5235 2688 5229 2349 5229 
L 1101 5229 
C 781 5229 621 5235 448 5254 
C 467 5050 474 4870 474 4525 
L 474 294 
C 474 -122 461 -333 435 -531 
L 1318 -531 
C 1293 -339 1280 -115 1280 275 
L 1280 3142 
z
M 1280 4678 
L 2234 4678 
L 2234 4422 
L 1280 4422 
L 1280 4678 
z
M 1280 3923 
L 2234 3923 
L 2234 3674 
L 1280 3674 
L 1280 3923 
z
" transform="scale(0.015625)"/>
      <path id="HiraginoSans-W7-6570" d="M 6246 4403 
C 6099 4378 5952 4371 5638 4371 
L 4621 4371 
C 4678 4582 4691 4614 4723 4749 
C 4813 5114 4845 5235 4858 5280 
L 4026 5440 
C 4026 5344 3994 5094 3949 4883 
C 3757 3910 3456 3219 3002 2707 
C 3168 2554 3277 2432 3430 2208 
C 3328 2195 3200 2189 3021 2189 
L 2080 2189 
C 2125 2291 2144 2330 2202 2458 
L 1408 2598 
C 1338 2400 1312 2323 1261 2189 
L 806 2189 
C 563 2189 429 2195 282 2221 
L 282 1459 
C 435 1485 576 1491 806 1491 
L 928 1491 
C 787 1254 717 1146 499 864 
C 954 704 1120 634 1427 499 
C 1062 294 762 198 230 122 
C 397 -109 512 -307 621 -582 
C 1286 -422 1722 -218 2150 141 
C 2451 -26 2528 -77 2765 -262 
L 2976 77 
C 3149 -102 3283 -294 3411 -576 
C 3910 -307 4339 26 4730 461 
C 5075 32 5459 -301 5901 -563 
C 6035 -237 6157 -19 6342 243 
C 5894 467 5530 755 5216 1139 
C 5606 1843 5779 2509 5862 3635 
C 6074 3629 6125 3629 6246 3610 
L 6246 4403 
z
M 3206 454 
C 2963 589 2874 640 2675 730 
C 2842 986 2925 1171 3021 1491 
C 3238 1491 3392 1478 3514 1466 
L 3514 2099 
C 3654 2266 3686 2310 3789 2477 
C 3904 1946 4032 1587 4275 1139 
C 3942 749 3571 461 3046 198 
L 3206 454 
z
M 5069 3635 
C 5037 2938 4934 2400 4736 1907 
C 4486 2451 4397 2771 4294 3437 
C 4326 3520 4339 3552 4371 3635 
L 5069 3635 
z
M 2234 1491 
C 2170 1299 2118 1184 2003 1024 
C 1862 1082 1779 1107 1542 1190 
C 1638 1344 1664 1389 1722 1491 
L 2234 1491 
z
M 2995 4269 
L 2342 4269 
L 2342 4992 
C 2342 5184 2349 5293 2368 5408 
L 1555 5408 
C 1574 5286 1581 5178 1581 4979 
L 1581 4269 
L 851 4269 
C 602 4269 461 4275 301 4294 
L 301 3590 
C 454 3610 621 3616 851 3616 
L 1120 3616 
C 864 3322 595 3130 154 2925 
C 384 2682 467 2566 614 2304 
C 1069 2605 1229 2758 1587 3213 
C 1581 3110 1574 3002 1574 2950 
L 1574 2765 
C 1574 2707 1568 2643 1555 2579 
L 2355 2579 
C 2342 2650 2342 2726 2342 2797 
L 2342 2976 
C 2342 3014 2330 3142 2323 3213 
C 2502 2944 2541 2906 2854 2643 
C 2989 2906 3078 3040 3245 3245 
C 3014 3366 2874 3469 2733 3616 
L 3091 3616 
C 3290 3616 3411 3610 3494 3597 
L 3494 4288 
C 3418 4275 3296 4269 3098 4269 
L 3053 4269 
C 3238 4550 3309 4685 3520 5107 
L 2842 5382 
C 2733 5082 2598 4838 2394 4544 
L 2995 4269 
z
M 397 5094 
C 602 4832 723 4627 870 4282 
L 1523 4563 
C 1376 4883 1280 5043 1037 5363 
L 397 5094 
z
" transform="scale(0.015625)"/>
     </defs>
     <use xlink:href="#HiraginoSans-W7-5358"/>
     <use xlink:href="#HiraginoSans-W7-4f4d" transform="translate(99.999985 0)"/>
     <use xlink:href="#HiraginoSans-W7-5186" transform="translate(199.999969 0)"/>
     <use xlink:href="#HiraginoSans-W7-3068" transform="translate(299.999954 0)"/>
     <use xlink:href="#HiraginoSans-W7-4e09" transform="translate(399.999939 0)"/>
     <use xlink:href="#HiraginoSans-W7-89d2" transform="translate(499.999924 0)"/>
     <use xlink:href="#HiraginoSans-W7-95a2" transform="translate(599.999908 0)"/>
     <use xlink:href="#HiraginoSans-W7-6570" transform="translate(699.999893 0)"/>
    </g>
   </g>
   <g id="PathCollection_1">
    <defs>
     <path id="m1b30aa9cd1" d="M 0 7.071068 
C 1.875269 7.071068 3.673985 6.326016 5 5 
C 6.326016 3.673985 7.071068 1.875269 7.071068 0 
C 7.071068 -1.875269 6.326016 -3.673985 5 -5 
C 3.673985 -6.326016 1.875269 -7.071068 0 -7.071068 
C -1.875269 -7.071068 -3.673985 -6.326016 -5 -5 
C -6.326016 -3.673985 -7.071068 -1.875269 -7.071068 0 
C -7.071068 1.875269 -6.326016 3.673985 -5 5 
C -3.673985 6.326016 -1.875269 7.071068 0 7.071068 
z
" style="stroke: #ffffff; stroke-width: 3"/>
    </defs>
    <g clip-path="url(#pa78c99f942)">
     <use xlink:href="#m1b30aa9cd1" x="407.582095" y="200.023739" style="fill: #2563eb; stroke: #ffffff; stroke-width: 3"/>
    </g>
   </g>
  </g>
 </g>
 <defs>
  <clipPath id="pa78c99f942">
   <rect x="7.2" y="34.8725" width="565.533333" height="598.8"/>
  </clipPath>
 </defs>
</svg>
